%TF.GenerationSoftware,KiCad,Pcbnew,(5.1.6-0-10_14)*%
%TF.CreationDate,2020-08-15T13:55:16+01:00*%
%TF.ProjectId,arduino,61726475-696e-46f2-9e6b-696361645f70,rev?*%
%TF.SameCoordinates,Original*%
%TF.FileFunction,Copper,L2,Bot*%
%TF.FilePolarity,Positive*%
%FSLAX46Y46*%
G04 Gerber Fmt 4.6, Leading zero omitted, Abs format (unit mm)*
G04 Created by KiCad (PCBNEW (5.1.6-0-10_14)) date 2020-08-15 13:55:16*
%MOMM*%
%LPD*%
G01*
G04 APERTURE LIST*
%TA.AperFunction,ComponentPad*%
%ADD10O,3.016000X1.508000*%
%TD*%
%TA.AperFunction,ComponentPad*%
%ADD11O,1.508000X3.016000*%
%TD*%
%TA.AperFunction,ComponentPad*%
%ADD12R,1.700000X1.700000*%
%TD*%
%TA.AperFunction,ComponentPad*%
%ADD13O,1.700000X1.700000*%
%TD*%
%TA.AperFunction,ComponentPad*%
%ADD14C,0.100000*%
%TD*%
%TA.AperFunction,ViaPad*%
%ADD15C,0.800000*%
%TD*%
%TA.AperFunction,Conductor*%
%ADD16C,0.450000*%
%TD*%
%TA.AperFunction,Conductor*%
%ADD17C,0.250000*%
%TD*%
%TA.AperFunction,Conductor*%
%ADD18C,0.254000*%
%TD*%
G04 APERTURE END LIST*
D10*
%TO.P,J1,1*%
%TO.N,VCC*%
X61000000Y-79300000D03*
%TO.P,J1,2*%
%TO.N,GND*%
X61000000Y-85300000D03*
D11*
%TO.P,J1,3*%
X65700000Y-82300000D03*
%TD*%
D12*
%TO.P,J2,1*%
%TO.N,GND*%
X52600000Y-88300000D03*
D13*
%TO.P,J2,2*%
%TO.N,VCC*%
X52600000Y-85760000D03*
%TD*%
%TO.P,J3,2*%
%TO.N,+5V*%
X91600000Y-55340000D03*
D12*
%TO.P,J3,1*%
%TO.N,GND*%
X91600000Y-52800000D03*
%TD*%
%TO.P,J4,1*%
%TO.N,/MISO*%
X77900000Y-70500000D03*
D13*
%TO.P,J4,2*%
%TO.N,+5V*%
X80440000Y-70500000D03*
%TO.P,J4,3*%
%TO.N,/SCK*%
X77900000Y-73040000D03*
%TO.P,J4,4*%
%TO.N,/MOSI*%
X80440000Y-73040000D03*
%TO.P,J4,5*%
%TO.N,/RESET*%
X77900000Y-75580000D03*
%TO.P,J4,6*%
%TO.N,GND*%
X80440000Y-75580000D03*
%TD*%
%TA.AperFunction,ComponentPad*%
D14*
%TO.P,J5,1*%
%TO.N,/DTR*%
G36*
X43597918Y-26200000D02*
G01*
X44800000Y-24997918D01*
X46002082Y-26200000D01*
X44800000Y-27402082D01*
X43597918Y-26200000D01*
G37*
%TD.AperFunction*%
%TO.P,J5,2*%
%TO.N,/RXD*%
%TA.AperFunction,ComponentPad*%
G36*
G01*
X42402908Y-27395010D02*
X42402908Y-27395010D01*
G75*
G02*
X43604990Y-27395010I601041J-601041D01*
G01*
X43604990Y-27395010D01*
G75*
G02*
X43604990Y-28597092I-601041J-601041D01*
G01*
X43604990Y-28597092D01*
G75*
G02*
X42402908Y-28597092I-601041J601041D01*
G01*
X42402908Y-28597092D01*
G75*
G02*
X42402908Y-27395010I601041J601041D01*
G01*
G37*
%TD.AperFunction*%
%TO.P,J5,3*%
%TO.N,/TXD*%
%TA.AperFunction,ComponentPad*%
G36*
G01*
X40606857Y-29191061D02*
X40606857Y-29191061D01*
G75*
G02*
X41808939Y-29191061I601041J-601041D01*
G01*
X41808939Y-29191061D01*
G75*
G02*
X41808939Y-30393143I-601041J-601041D01*
G01*
X41808939Y-30393143D01*
G75*
G02*
X40606857Y-30393143I-601041J601041D01*
G01*
X40606857Y-30393143D01*
G75*
G02*
X40606857Y-29191061I601041J601041D01*
G01*
G37*
%TD.AperFunction*%
%TO.P,J5,4*%
%TO.N,+5V*%
%TA.AperFunction,ComponentPad*%
G36*
G01*
X38810805Y-30987113D02*
X38810805Y-30987113D01*
G75*
G02*
X40012887Y-30987113I601041J-601041D01*
G01*
X40012887Y-30987113D01*
G75*
G02*
X40012887Y-32189195I-601041J-601041D01*
G01*
X40012887Y-32189195D01*
G75*
G02*
X38810805Y-32189195I-601041J601041D01*
G01*
X38810805Y-32189195D01*
G75*
G02*
X38810805Y-30987113I601041J601041D01*
G01*
G37*
%TD.AperFunction*%
%TO.P,J5,5*%
%TO.N,/CTS*%
%TA.AperFunction,ComponentPad*%
G36*
G01*
X37014754Y-32783164D02*
X37014754Y-32783164D01*
G75*
G02*
X38216836Y-32783164I601041J-601041D01*
G01*
X38216836Y-32783164D01*
G75*
G02*
X38216836Y-33985246I-601041J-601041D01*
G01*
X38216836Y-33985246D01*
G75*
G02*
X37014754Y-33985246I-601041J601041D01*
G01*
X37014754Y-33985246D01*
G75*
G02*
X37014754Y-32783164I601041J601041D01*
G01*
G37*
%TD.AperFunction*%
%TO.P,J5,6*%
%TO.N,GND*%
%TA.AperFunction,ComponentPad*%
G36*
G01*
X35218703Y-34579215D02*
X35218703Y-34579215D01*
G75*
G02*
X36420785Y-34579215I601041J-601041D01*
G01*
X36420785Y-34579215D01*
G75*
G02*
X36420785Y-35781297I-601041J-601041D01*
G01*
X36420785Y-35781297D01*
G75*
G02*
X35218703Y-35781297I-601041J601041D01*
G01*
X35218703Y-35781297D01*
G75*
G02*
X35218703Y-34579215I601041J601041D01*
G01*
G37*
%TD.AperFunction*%
%TD*%
%TO.P,J6,6*%
%TO.N,/A5*%
%TA.AperFunction,ComponentPad*%
G36*
G01*
X79520785Y-26018703D02*
X79520785Y-26018703D01*
G75*
G02*
X79520785Y-27220785I-601041J-601041D01*
G01*
X79520785Y-27220785D01*
G75*
G02*
X78318703Y-27220785I-601041J601041D01*
G01*
X78318703Y-27220785D01*
G75*
G02*
X78318703Y-26018703I601041J601041D01*
G01*
X78318703Y-26018703D01*
G75*
G02*
X79520785Y-26018703I601041J-601041D01*
G01*
G37*
%TD.AperFunction*%
%TO.P,J6,5*%
%TO.N,/A4*%
%TA.AperFunction,ComponentPad*%
G36*
G01*
X81316836Y-27814754D02*
X81316836Y-27814754D01*
G75*
G02*
X81316836Y-29016836I-601041J-601041D01*
G01*
X81316836Y-29016836D01*
G75*
G02*
X80114754Y-29016836I-601041J601041D01*
G01*
X80114754Y-29016836D01*
G75*
G02*
X80114754Y-27814754I601041J601041D01*
G01*
X80114754Y-27814754D01*
G75*
G02*
X81316836Y-27814754I601041J-601041D01*
G01*
G37*
%TD.AperFunction*%
%TO.P,J6,4*%
%TO.N,/A3*%
%TA.AperFunction,ComponentPad*%
G36*
G01*
X83112887Y-29610805D02*
X83112887Y-29610805D01*
G75*
G02*
X83112887Y-30812887I-601041J-601041D01*
G01*
X83112887Y-30812887D01*
G75*
G02*
X81910805Y-30812887I-601041J601041D01*
G01*
X81910805Y-30812887D01*
G75*
G02*
X81910805Y-29610805I601041J601041D01*
G01*
X81910805Y-29610805D01*
G75*
G02*
X83112887Y-29610805I601041J-601041D01*
G01*
G37*
%TD.AperFunction*%
%TO.P,J6,3*%
%TO.N,/A2*%
%TA.AperFunction,ComponentPad*%
G36*
G01*
X84908939Y-31406857D02*
X84908939Y-31406857D01*
G75*
G02*
X84908939Y-32608939I-601041J-601041D01*
G01*
X84908939Y-32608939D01*
G75*
G02*
X83706857Y-32608939I-601041J601041D01*
G01*
X83706857Y-32608939D01*
G75*
G02*
X83706857Y-31406857I601041J601041D01*
G01*
X83706857Y-31406857D01*
G75*
G02*
X84908939Y-31406857I601041J-601041D01*
G01*
G37*
%TD.AperFunction*%
%TO.P,J6,2*%
%TO.N,/A1*%
%TA.AperFunction,ComponentPad*%
G36*
G01*
X86704990Y-33202908D02*
X86704990Y-33202908D01*
G75*
G02*
X86704990Y-34404990I-601041J-601041D01*
G01*
X86704990Y-34404990D01*
G75*
G02*
X85502908Y-34404990I-601041J601041D01*
G01*
X85502908Y-34404990D01*
G75*
G02*
X85502908Y-33202908I601041J601041D01*
G01*
X85502908Y-33202908D01*
G75*
G02*
X86704990Y-33202908I601041J-601041D01*
G01*
G37*
%TD.AperFunction*%
%TA.AperFunction,ComponentPad*%
%TO.P,J6,1*%
%TO.N,/A0*%
G36*
X87900000Y-34397918D02*
G01*
X89102082Y-35600000D01*
X87900000Y-36802082D01*
X86697918Y-35600000D01*
X87900000Y-34397918D01*
G37*
%TD.AperFunction*%
%TD*%
D12*
%TO.P,J7,1*%
%TO.N,/D2*%
X33300000Y-45700000D03*
D13*
%TO.P,J7,2*%
%TO.N,/D3*%
X33300000Y-48240000D03*
%TO.P,J7,3*%
%TO.N,/D4*%
X33300000Y-50780000D03*
%TO.P,J7,4*%
%TO.N,/D5*%
X33300000Y-53320000D03*
%TO.P,J7,5*%
%TO.N,/D6*%
X33300000Y-55860000D03*
%TO.P,J7,6*%
%TO.N,/D7*%
X33300000Y-58400000D03*
%TO.P,J7,7*%
%TO.N,/D8*%
X33300000Y-60940000D03*
%TO.P,J7,8*%
%TO.N,/D9*%
X33300000Y-63480000D03*
%TO.P,J7,9*%
%TO.N,/D10*%
X33300000Y-66020000D03*
%TD*%
D15*
%TO.N,GND*%
X68300000Y-31300000D03*
X71300000Y-33300000D03*
X70300000Y-34300000D03*
X67300000Y-33300000D03*
X68300000Y-35300000D03*
X68300000Y-34300000D03*
X71300000Y-31300000D03*
X70300000Y-35300000D03*
X67300000Y-34300000D03*
X71300000Y-35300000D03*
X67300000Y-35300000D03*
X67300000Y-32300000D03*
X69300000Y-35300000D03*
X68300000Y-32300000D03*
X71300000Y-34300000D03*
X70300000Y-31300000D03*
X70300000Y-33300000D03*
X71300000Y-32300000D03*
X70300000Y-32300000D03*
X68300000Y-33300000D03*
X69300000Y-31300000D03*
X69300000Y-34300000D03*
X69300000Y-33300000D03*
X69300000Y-32300000D03*
X67300000Y-31300000D03*
X41800000Y-50100000D03*
X44800000Y-52100000D03*
X43800000Y-53100000D03*
X40800000Y-52100000D03*
X41800000Y-54100000D03*
X41800000Y-53100000D03*
X44800000Y-50100000D03*
X43800000Y-54100000D03*
X40800000Y-53100000D03*
X44800000Y-54100000D03*
X40800000Y-54100000D03*
X40800000Y-51100000D03*
X42800000Y-54100000D03*
X41800000Y-51100000D03*
X44800000Y-53100000D03*
X43800000Y-50100000D03*
X43800000Y-52100000D03*
X44800000Y-51100000D03*
X43800000Y-51100000D03*
X41800000Y-52100000D03*
X42800000Y-50100000D03*
X42800000Y-53100000D03*
X42800000Y-52100000D03*
X42800000Y-51100000D03*
X40800000Y-50100000D03*
X73400000Y-82500000D03*
X76400000Y-84500000D03*
X75400000Y-85500000D03*
X72400000Y-84500000D03*
X73400000Y-86500000D03*
X73400000Y-85500000D03*
X76400000Y-82500000D03*
X75400000Y-86500000D03*
X72400000Y-85500000D03*
X76400000Y-86500000D03*
X72400000Y-86500000D03*
X72400000Y-83500000D03*
X74400000Y-86500000D03*
X73400000Y-83500000D03*
X76400000Y-85500000D03*
X75400000Y-82500000D03*
X75400000Y-84500000D03*
X76400000Y-83500000D03*
X75400000Y-83500000D03*
X73400000Y-84500000D03*
X74400000Y-82500000D03*
X74400000Y-85500000D03*
X74400000Y-84500000D03*
X74400000Y-83500000D03*
X72400000Y-82500000D03*
X80900000Y-52100000D03*
X59300000Y-54500000D03*
X59300000Y-56800000D03*
X54600000Y-56900000D03*
X59300000Y-55600000D03*
X78000000Y-66700000D03*
X78000000Y-68000000D03*
X77100000Y-65600000D03*
X81900000Y-52100000D03*
X82900000Y-52100000D03*
X83900000Y-52100000D03*
X84900000Y-52100000D03*
X80900000Y-53100000D03*
X81900000Y-53100000D03*
X82900000Y-53100000D03*
X83900000Y-53100000D03*
X84900000Y-53100000D03*
X80900000Y-54100000D03*
X81900000Y-54100000D03*
X82900000Y-54100000D03*
X83900000Y-54100000D03*
X84900000Y-54100000D03*
X80900000Y-55100000D03*
X81900000Y-55100000D03*
X82900000Y-55100000D03*
X83900000Y-55100000D03*
X84900000Y-55100000D03*
X80900000Y-56100000D03*
X81900000Y-56100000D03*
X82900000Y-56100000D03*
X83900000Y-56100000D03*
X84900000Y-56100000D03*
X28200000Y-51400000D03*
X29200000Y-51400000D03*
X28200000Y-52400000D03*
X29200000Y-52400000D03*
X28200000Y-53400000D03*
X29200000Y-53400000D03*
X28200000Y-54400000D03*
X29200000Y-54400000D03*
X28200000Y-55400000D03*
X29200000Y-55400000D03*
X28200000Y-56400000D03*
X29200000Y-56400000D03*
X28200000Y-57400000D03*
X29200000Y-57400000D03*
X28200000Y-58400000D03*
X29200000Y-58400000D03*
X28200000Y-59400000D03*
X29200000Y-59400000D03*
X28200000Y-60400000D03*
X29200000Y-60400000D03*
%TO.N,/RESET*%
X62000000Y-47000000D03*
X75300000Y-75600000D03*
%TO.N,+5V*%
X61000000Y-69300000D03*
X51600000Y-44100000D03*
X62700000Y-39000000D03*
X69800000Y-52300000D03*
X41800000Y-33700000D03*
X95100000Y-55300000D03*
X83800000Y-66600000D03*
%TD*%
D16*
%TO.N,+5V*%
X74800000Y-79900000D02*
X79600000Y-79900000D01*
X64200000Y-69300000D02*
X74800000Y-79900000D01*
X61000000Y-69300000D02*
X64200000Y-69300000D01*
X61000000Y-61100000D02*
X69800000Y-52300000D01*
X61000000Y-69300000D02*
X61000000Y-61100000D01*
X61000000Y-40700000D02*
X62700000Y-39000000D01*
X61000000Y-69300000D02*
X61000000Y-40700000D01*
X61000000Y-53500000D02*
X51600000Y-44100000D01*
D17*
X61000000Y-69300000D02*
X61000000Y-53500000D01*
D16*
X61000000Y-47731104D02*
X46968896Y-33700000D01*
X46968896Y-33700000D02*
X41800000Y-33700000D01*
D17*
X61000000Y-69300000D02*
X61000000Y-47731104D01*
D16*
X82500000Y-79900000D02*
X83800000Y-78600000D01*
X79600000Y-79900000D02*
X82500000Y-79900000D01*
X83800000Y-78600000D02*
X83800000Y-66600000D01*
X95100000Y-55300000D02*
X83800000Y-66600000D01*
D17*
%TO.N,/RESET*%
X75300000Y-56726998D02*
X75300000Y-71500000D01*
X65573002Y-47000000D02*
X75300000Y-56726998D01*
X62000000Y-47000000D02*
X65573002Y-47000000D01*
X75300000Y-71500000D02*
X75300000Y-75600000D01*
%TD*%
D18*
%TO.N,GND*%
G36*
X63232180Y-17916015D02*
G01*
X65667615Y-18113641D01*
X68085150Y-18468498D01*
X70474646Y-18979098D01*
X72826079Y-19643299D01*
X75129587Y-20458314D01*
X77375509Y-21420726D01*
X79554423Y-22526498D01*
X81657192Y-23770991D01*
X83674995Y-25148987D01*
X85599369Y-26654704D01*
X87422243Y-28281828D01*
X89135970Y-30023534D01*
X90733363Y-31872517D01*
X92207721Y-33821021D01*
X93552862Y-35860873D01*
X94763142Y-37983518D01*
X95833485Y-40180053D01*
X96759402Y-42441265D01*
X97537010Y-44757669D01*
X98163047Y-47119549D01*
X98634886Y-49516999D01*
X98950550Y-51939964D01*
X99108713Y-54378280D01*
X99108713Y-56821720D01*
X98950550Y-59260036D01*
X98634886Y-61683001D01*
X98163047Y-64080451D01*
X97537010Y-66442331D01*
X96759402Y-68758735D01*
X95833485Y-71019947D01*
X94763142Y-73216482D01*
X93552862Y-75339127D01*
X92207721Y-77378979D01*
X90733363Y-79327483D01*
X89135970Y-81176466D01*
X87422243Y-82918172D01*
X85599369Y-84545296D01*
X83674995Y-86051013D01*
X81657192Y-87429009D01*
X79554423Y-88673502D01*
X77375509Y-89779274D01*
X75129587Y-90741686D01*
X72826079Y-91556701D01*
X70474646Y-92220902D01*
X68085150Y-92731502D01*
X65667615Y-93086359D01*
X63232180Y-93283985D01*
X60789060Y-93323552D01*
X58348502Y-93204893D01*
X55920744Y-92928506D01*
X53515968Y-92495551D01*
X51144259Y-91907842D01*
X48815567Y-91167846D01*
X46539659Y-90278666D01*
X44326080Y-89244032D01*
X44154774Y-89150000D01*
X51170208Y-89150000D01*
X51181349Y-89263112D01*
X51214342Y-89371877D01*
X51267921Y-89472115D01*
X51340025Y-89559975D01*
X51427885Y-89632079D01*
X51528123Y-89685658D01*
X51636888Y-89718651D01*
X51750000Y-89729792D01*
X52357750Y-89727000D01*
X52502000Y-89582750D01*
X52502000Y-88398000D01*
X52698000Y-88398000D01*
X52698000Y-89582750D01*
X52842250Y-89727000D01*
X53450000Y-89729792D01*
X53563112Y-89718651D01*
X53671877Y-89685658D01*
X53772115Y-89632079D01*
X53859975Y-89559975D01*
X53932079Y-89472115D01*
X53985658Y-89371877D01*
X54018651Y-89263112D01*
X54029792Y-89150000D01*
X54027000Y-88542250D01*
X53882750Y-88398000D01*
X52698000Y-88398000D01*
X52502000Y-88398000D01*
X51317250Y-88398000D01*
X51173000Y-88542250D01*
X51170208Y-89150000D01*
X44154774Y-89150000D01*
X42184115Y-88068283D01*
X41212642Y-87450000D01*
X51170208Y-87450000D01*
X51173000Y-88057750D01*
X51317250Y-88202000D01*
X52502000Y-88202000D01*
X52502000Y-88182000D01*
X52698000Y-88182000D01*
X52698000Y-88202000D01*
X53882750Y-88202000D01*
X54027000Y-88057750D01*
X54029792Y-87450000D01*
X54018651Y-87336888D01*
X53985658Y-87228123D01*
X53932079Y-87127885D01*
X53859975Y-87040025D01*
X53772115Y-86967921D01*
X53671877Y-86914342D01*
X53563112Y-86881349D01*
X53450000Y-86870208D01*
X53132962Y-86871664D01*
X53183097Y-86850898D01*
X53384717Y-86716180D01*
X53556180Y-86544717D01*
X53690898Y-86343097D01*
X53783693Y-86119069D01*
X53831000Y-85881243D01*
X53831000Y-85638757D01*
X53824175Y-85604443D01*
X58950286Y-85604443D01*
X58978814Y-85718811D01*
X59084869Y-85957979D01*
X59235545Y-86171862D01*
X59425052Y-86352239D01*
X59646108Y-86492180D01*
X59890218Y-86586306D01*
X60148000Y-86631000D01*
X60902000Y-86631000D01*
X60902000Y-85398000D01*
X61098000Y-85398000D01*
X61098000Y-86631000D01*
X61852000Y-86631000D01*
X62109782Y-86586306D01*
X62353892Y-86492180D01*
X62574948Y-86352239D01*
X62764455Y-86171862D01*
X62915131Y-85957979D01*
X63021186Y-85718811D01*
X63049714Y-85604443D01*
X62936697Y-85398000D01*
X61098000Y-85398000D01*
X60902000Y-85398000D01*
X59063303Y-85398000D01*
X58950286Y-85604443D01*
X53824175Y-85604443D01*
X53783693Y-85400931D01*
X53690898Y-85176903D01*
X53569727Y-84995557D01*
X58950286Y-84995557D01*
X59063303Y-85202000D01*
X60902000Y-85202000D01*
X60902000Y-83969000D01*
X61098000Y-83969000D01*
X61098000Y-85202000D01*
X62936697Y-85202000D01*
X63049714Y-84995557D01*
X63021186Y-84881189D01*
X62915131Y-84642021D01*
X62764455Y-84428138D01*
X62574948Y-84247761D01*
X62353892Y-84107820D01*
X62109782Y-84013694D01*
X61852000Y-83969000D01*
X61098000Y-83969000D01*
X60902000Y-83969000D01*
X60148000Y-83969000D01*
X59890218Y-84013694D01*
X59646108Y-84107820D01*
X59425052Y-84247761D01*
X59235545Y-84428138D01*
X59084869Y-84642021D01*
X58978814Y-84881189D01*
X58950286Y-84995557D01*
X53569727Y-84995557D01*
X53556180Y-84975283D01*
X53384717Y-84803820D01*
X53183097Y-84669102D01*
X52959069Y-84576307D01*
X52721243Y-84529000D01*
X52478757Y-84529000D01*
X52240931Y-84576307D01*
X52016903Y-84669102D01*
X51815283Y-84803820D01*
X51643820Y-84975283D01*
X51509102Y-85176903D01*
X51416307Y-85400931D01*
X51369000Y-85638757D01*
X51369000Y-85881243D01*
X51416307Y-86119069D01*
X51509102Y-86343097D01*
X51643820Y-86544717D01*
X51815283Y-86716180D01*
X52016903Y-86850898D01*
X52067038Y-86871664D01*
X51750000Y-86870208D01*
X51636888Y-86881349D01*
X51528123Y-86914342D01*
X51427885Y-86967921D01*
X51340025Y-87040025D01*
X51267921Y-87127885D01*
X51214342Y-87228123D01*
X51181349Y-87336888D01*
X51170208Y-87450000D01*
X41212642Y-87450000D01*
X40122748Y-86756350D01*
X38150625Y-85313738D01*
X36276018Y-83746495D01*
X34860368Y-82398000D01*
X64369000Y-82398000D01*
X64369000Y-83152000D01*
X64413694Y-83409782D01*
X64507820Y-83653892D01*
X64647761Y-83874948D01*
X64828138Y-84064455D01*
X65042021Y-84215131D01*
X65281189Y-84321186D01*
X65395557Y-84349714D01*
X65602000Y-84236697D01*
X65602000Y-82398000D01*
X65798000Y-82398000D01*
X65798000Y-84236697D01*
X66004443Y-84349714D01*
X66118811Y-84321186D01*
X66357979Y-84215131D01*
X66571862Y-84064455D01*
X66752239Y-83874948D01*
X66892180Y-83653892D01*
X66986306Y-83409782D01*
X67031000Y-83152000D01*
X67031000Y-82398000D01*
X65798000Y-82398000D01*
X65602000Y-82398000D01*
X64369000Y-82398000D01*
X34860368Y-82398000D01*
X34506790Y-82061196D01*
X33941337Y-81448000D01*
X64369000Y-81448000D01*
X64369000Y-82202000D01*
X65602000Y-82202000D01*
X65602000Y-80363303D01*
X65798000Y-80363303D01*
X65798000Y-82202000D01*
X67031000Y-82202000D01*
X67031000Y-81448000D01*
X66986306Y-81190218D01*
X66892180Y-80946108D01*
X66752239Y-80725052D01*
X66571862Y-80535545D01*
X66357979Y-80384869D01*
X66118811Y-80278814D01*
X66004443Y-80250286D01*
X65798000Y-80363303D01*
X65602000Y-80363303D01*
X65395557Y-80250286D01*
X65281189Y-80278814D01*
X65042021Y-80384869D01*
X64828138Y-80535545D01*
X64647761Y-80725052D01*
X64507820Y-80946108D01*
X64413694Y-81190218D01*
X64369000Y-81448000D01*
X33941337Y-81448000D01*
X32850361Y-80264910D01*
X32069855Y-79300000D01*
X59105509Y-79300000D01*
X59127423Y-79522499D01*
X59192324Y-79736447D01*
X59297716Y-79933623D01*
X59439551Y-80106449D01*
X59612377Y-80248284D01*
X59809553Y-80353676D01*
X60023501Y-80418577D01*
X60190248Y-80435000D01*
X61809752Y-80435000D01*
X61976499Y-80418577D01*
X62190447Y-80353676D01*
X62387623Y-80248284D01*
X62560449Y-80106449D01*
X62702284Y-79933623D01*
X62807676Y-79736447D01*
X62872577Y-79522499D01*
X62894491Y-79300000D01*
X62872577Y-79077501D01*
X62807676Y-78863553D01*
X62702284Y-78666377D01*
X62560449Y-78493551D01*
X62387623Y-78351716D01*
X62190447Y-78246324D01*
X61976499Y-78181423D01*
X61809752Y-78165000D01*
X60190248Y-78165000D01*
X60023501Y-78181423D01*
X59809553Y-78246324D01*
X59612377Y-78351716D01*
X59439551Y-78493551D01*
X59297716Y-78666377D01*
X59192324Y-78863553D01*
X59127423Y-79077501D01*
X59105509Y-79300000D01*
X32069855Y-79300000D01*
X31313680Y-78365170D01*
X29903191Y-76369946D01*
X28624810Y-74287605D01*
X27483900Y-72126881D01*
X26485246Y-69896839D01*
X25633037Y-67606830D01*
X25120557Y-65898757D01*
X32069000Y-65898757D01*
X32069000Y-66141243D01*
X32116307Y-66379069D01*
X32209102Y-66603097D01*
X32343820Y-66804717D01*
X32515283Y-66976180D01*
X32716903Y-67110898D01*
X32940931Y-67203693D01*
X33178757Y-67251000D01*
X33421243Y-67251000D01*
X33659069Y-67203693D01*
X33883097Y-67110898D01*
X34084717Y-66976180D01*
X34256180Y-66804717D01*
X34390898Y-66603097D01*
X34483693Y-66379069D01*
X34531000Y-66141243D01*
X34531000Y-65898757D01*
X34483693Y-65660931D01*
X34390898Y-65436903D01*
X34256180Y-65235283D01*
X34084717Y-65063820D01*
X33883097Y-64929102D01*
X33659069Y-64836307D01*
X33421243Y-64789000D01*
X33178757Y-64789000D01*
X32940931Y-64836307D01*
X32716903Y-64929102D01*
X32515283Y-65063820D01*
X32343820Y-65235283D01*
X32209102Y-65436903D01*
X32116307Y-65660931D01*
X32069000Y-65898757D01*
X25120557Y-65898757D01*
X24930846Y-65266461D01*
X24490780Y-63358757D01*
X32069000Y-63358757D01*
X32069000Y-63601243D01*
X32116307Y-63839069D01*
X32209102Y-64063097D01*
X32343820Y-64264717D01*
X32515283Y-64436180D01*
X32716903Y-64570898D01*
X32940931Y-64663693D01*
X33178757Y-64711000D01*
X33421243Y-64711000D01*
X33659069Y-64663693D01*
X33883097Y-64570898D01*
X34084717Y-64436180D01*
X34256180Y-64264717D01*
X34390898Y-64063097D01*
X34483693Y-63839069D01*
X34531000Y-63601243D01*
X34531000Y-63358757D01*
X34483693Y-63120931D01*
X34390898Y-62896903D01*
X34256180Y-62695283D01*
X34084717Y-62523820D01*
X33883097Y-62389102D01*
X33659069Y-62296307D01*
X33421243Y-62249000D01*
X33178757Y-62249000D01*
X32940931Y-62296307D01*
X32716903Y-62389102D01*
X32515283Y-62523820D01*
X32343820Y-62695283D01*
X32209102Y-62896903D01*
X32116307Y-63120931D01*
X32069000Y-63358757D01*
X24490780Y-63358757D01*
X24381620Y-62885547D01*
X24043973Y-60818757D01*
X32069000Y-60818757D01*
X32069000Y-61061243D01*
X32116307Y-61299069D01*
X32209102Y-61523097D01*
X32343820Y-61724717D01*
X32515283Y-61896180D01*
X32716903Y-62030898D01*
X32940931Y-62123693D01*
X33178757Y-62171000D01*
X33421243Y-62171000D01*
X33659069Y-62123693D01*
X33883097Y-62030898D01*
X34084717Y-61896180D01*
X34256180Y-61724717D01*
X34390898Y-61523097D01*
X34483693Y-61299069D01*
X34531000Y-61061243D01*
X34531000Y-60818757D01*
X34483693Y-60580931D01*
X34390898Y-60356903D01*
X34256180Y-60155283D01*
X34084717Y-59983820D01*
X33883097Y-59849102D01*
X33659069Y-59756307D01*
X33421243Y-59709000D01*
X33178757Y-59709000D01*
X32940931Y-59756307D01*
X32716903Y-59849102D01*
X32515283Y-59983820D01*
X32343820Y-60155283D01*
X32209102Y-60356903D01*
X32116307Y-60580931D01*
X32069000Y-60818757D01*
X24043973Y-60818757D01*
X23987662Y-60474075D01*
X23773686Y-58278757D01*
X32069000Y-58278757D01*
X32069000Y-58521243D01*
X32116307Y-58759069D01*
X32209102Y-58983097D01*
X32343820Y-59184717D01*
X32515283Y-59356180D01*
X32716903Y-59490898D01*
X32940931Y-59583693D01*
X33178757Y-59631000D01*
X33421243Y-59631000D01*
X33659069Y-59583693D01*
X33883097Y-59490898D01*
X34084717Y-59356180D01*
X34256180Y-59184717D01*
X34390898Y-58983097D01*
X34483693Y-58759069D01*
X34531000Y-58521243D01*
X34531000Y-58278757D01*
X34483693Y-58040931D01*
X34390898Y-57816903D01*
X34256180Y-57615283D01*
X34084717Y-57443820D01*
X33883097Y-57309102D01*
X33659069Y-57216307D01*
X33421243Y-57169000D01*
X33178757Y-57169000D01*
X32940931Y-57216307D01*
X32716903Y-57309102D01*
X32515283Y-57443820D01*
X32343820Y-57615283D01*
X32209102Y-57816903D01*
X32116307Y-58040931D01*
X32069000Y-58278757D01*
X23773686Y-58278757D01*
X23750624Y-58042159D01*
X23675997Y-55738757D01*
X32069000Y-55738757D01*
X32069000Y-55981243D01*
X32116307Y-56219069D01*
X32209102Y-56443097D01*
X32343820Y-56644717D01*
X32515283Y-56816180D01*
X32716903Y-56950898D01*
X32940931Y-57043693D01*
X33178757Y-57091000D01*
X33421243Y-57091000D01*
X33659069Y-57043693D01*
X33883097Y-56950898D01*
X34084717Y-56816180D01*
X34256180Y-56644717D01*
X34390898Y-56443097D01*
X34483693Y-56219069D01*
X34531000Y-55981243D01*
X34531000Y-55738757D01*
X34483693Y-55500931D01*
X34390898Y-55276903D01*
X34256180Y-55075283D01*
X34084717Y-54903820D01*
X33883097Y-54769102D01*
X33659069Y-54676307D01*
X33421243Y-54629000D01*
X33178757Y-54629000D01*
X32940931Y-54676307D01*
X32716903Y-54769102D01*
X32515283Y-54903820D01*
X32343820Y-55075283D01*
X32209102Y-55276903D01*
X32116307Y-55500931D01*
X32069000Y-55738757D01*
X23675997Y-55738757D01*
X23671501Y-55600000D01*
X23749298Y-53198757D01*
X32069000Y-53198757D01*
X32069000Y-53441243D01*
X32116307Y-53679069D01*
X32209102Y-53903097D01*
X32343820Y-54104717D01*
X32515283Y-54276180D01*
X32716903Y-54410898D01*
X32940931Y-54503693D01*
X33178757Y-54551000D01*
X33421243Y-54551000D01*
X33659069Y-54503693D01*
X33883097Y-54410898D01*
X34084717Y-54276180D01*
X34256180Y-54104717D01*
X34390898Y-53903097D01*
X34483693Y-53679069D01*
X34531000Y-53441243D01*
X34531000Y-53198757D01*
X34483693Y-52960931D01*
X34390898Y-52736903D01*
X34256180Y-52535283D01*
X34084717Y-52363820D01*
X33883097Y-52229102D01*
X33659069Y-52136307D01*
X33421243Y-52089000D01*
X33178757Y-52089000D01*
X32940931Y-52136307D01*
X32716903Y-52229102D01*
X32515283Y-52363820D01*
X32343820Y-52535283D01*
X32209102Y-52736903D01*
X32116307Y-52960931D01*
X32069000Y-53198757D01*
X23749298Y-53198757D01*
X23750624Y-53157841D01*
X23987662Y-50725925D01*
X23998635Y-50658757D01*
X32069000Y-50658757D01*
X32069000Y-50901243D01*
X32116307Y-51139069D01*
X32209102Y-51363097D01*
X32343820Y-51564717D01*
X32515283Y-51736180D01*
X32716903Y-51870898D01*
X32940931Y-51963693D01*
X33178757Y-52011000D01*
X33421243Y-52011000D01*
X33659069Y-51963693D01*
X33883097Y-51870898D01*
X34084717Y-51736180D01*
X34256180Y-51564717D01*
X34390898Y-51363097D01*
X34483693Y-51139069D01*
X34531000Y-50901243D01*
X34531000Y-50658757D01*
X34483693Y-50420931D01*
X34390898Y-50196903D01*
X34256180Y-49995283D01*
X34084717Y-49823820D01*
X33883097Y-49689102D01*
X33659069Y-49596307D01*
X33421243Y-49549000D01*
X33178757Y-49549000D01*
X32940931Y-49596307D01*
X32716903Y-49689102D01*
X32515283Y-49823820D01*
X32343820Y-49995283D01*
X32209102Y-50196903D01*
X32116307Y-50420931D01*
X32069000Y-50658757D01*
X23998635Y-50658757D01*
X24381620Y-48314453D01*
X24426762Y-48118757D01*
X32069000Y-48118757D01*
X32069000Y-48361243D01*
X32116307Y-48599069D01*
X32209102Y-48823097D01*
X32343820Y-49024717D01*
X32515283Y-49196180D01*
X32716903Y-49330898D01*
X32940931Y-49423693D01*
X33178757Y-49471000D01*
X33421243Y-49471000D01*
X33659069Y-49423693D01*
X33883097Y-49330898D01*
X34084717Y-49196180D01*
X34256180Y-49024717D01*
X34390898Y-48823097D01*
X34483693Y-48599069D01*
X34531000Y-48361243D01*
X34531000Y-48118757D01*
X34483693Y-47880931D01*
X34390898Y-47656903D01*
X34256180Y-47455283D01*
X34084717Y-47283820D01*
X33883097Y-47149102D01*
X33659069Y-47056307D01*
X33421243Y-47009000D01*
X33178757Y-47009000D01*
X32940931Y-47056307D01*
X32716903Y-47149102D01*
X32515283Y-47283820D01*
X32343820Y-47455283D01*
X32209102Y-47656903D01*
X32116307Y-47880931D01*
X32069000Y-48118757D01*
X24426762Y-48118757D01*
X24930846Y-45933539D01*
X25255944Y-44850000D01*
X32067157Y-44850000D01*
X32067157Y-46550000D01*
X32074513Y-46624689D01*
X32096299Y-46696508D01*
X32131678Y-46762696D01*
X32179289Y-46820711D01*
X32237304Y-46868322D01*
X32303492Y-46903701D01*
X32375311Y-46925487D01*
X32450000Y-46932843D01*
X34150000Y-46932843D01*
X34224689Y-46925487D01*
X34296508Y-46903701D01*
X34362696Y-46868322D01*
X34420711Y-46820711D01*
X34468322Y-46762696D01*
X34503701Y-46696508D01*
X34525487Y-46624689D01*
X34532843Y-46550000D01*
X34532843Y-44850000D01*
X34525487Y-44775311D01*
X34503701Y-44703492D01*
X34468322Y-44637304D01*
X34420711Y-44579289D01*
X34362696Y-44531678D01*
X34296508Y-44496299D01*
X34224689Y-44474513D01*
X34150000Y-44467157D01*
X32450000Y-44467157D01*
X32375311Y-44474513D01*
X32303492Y-44496299D01*
X32237304Y-44531678D01*
X32179289Y-44579289D01*
X32131678Y-44637304D01*
X32096299Y-44703492D01*
X32074513Y-44775311D01*
X32067157Y-44850000D01*
X25255944Y-44850000D01*
X25633037Y-43593170D01*
X26485246Y-41303161D01*
X27483900Y-39073119D01*
X28624810Y-36912395D01*
X29090268Y-36154214D01*
X34984379Y-36154214D01*
X35062236Y-36389604D01*
X35312724Y-36514149D01*
X35582696Y-36587433D01*
X35861777Y-36606640D01*
X36139244Y-36571033D01*
X36404432Y-36481978D01*
X36577250Y-36389600D01*
X36654838Y-36153943D01*
X35819744Y-35318849D01*
X34984379Y-36154214D01*
X29090268Y-36154214D01*
X29714001Y-35138223D01*
X34393360Y-35138223D01*
X34412567Y-35417304D01*
X34485851Y-35687276D01*
X34610396Y-35937764D01*
X34845786Y-36015621D01*
X35681151Y-35180256D01*
X34846057Y-34345162D01*
X34610400Y-34422750D01*
X34518022Y-34595568D01*
X34428967Y-34860756D01*
X34393360Y-35138223D01*
X29714001Y-35138223D01*
X29903191Y-34830054D01*
X30343952Y-34206569D01*
X34984650Y-34206569D01*
X35819744Y-35041663D01*
X35833886Y-35027521D01*
X35972479Y-35166114D01*
X35958337Y-35180256D01*
X36793431Y-36015350D01*
X37029088Y-35937762D01*
X37121466Y-35764944D01*
X37210521Y-35499756D01*
X37246128Y-35222289D01*
X37226921Y-34943208D01*
X37153637Y-34673236D01*
X37060940Y-34486801D01*
X37256726Y-34567898D01*
X37494552Y-34615205D01*
X37737038Y-34615205D01*
X37974864Y-34567898D01*
X38198892Y-34475103D01*
X38400512Y-34340385D01*
X38571975Y-34168922D01*
X38706693Y-33967302D01*
X38799488Y-33743274D01*
X38823396Y-33623078D01*
X41019000Y-33623078D01*
X41019000Y-33776922D01*
X41049013Y-33927809D01*
X41107887Y-34069942D01*
X41193358Y-34197859D01*
X41302141Y-34306642D01*
X41430058Y-34392113D01*
X41572191Y-34450987D01*
X41723078Y-34481000D01*
X41876922Y-34481000D01*
X42027809Y-34450987D01*
X42169942Y-34392113D01*
X42297859Y-34306642D01*
X42298501Y-34306000D01*
X46717883Y-34306000D01*
X60394001Y-47982118D01*
X60394001Y-52036988D01*
X52381000Y-44023987D01*
X52381000Y-44023078D01*
X52350987Y-43872191D01*
X52292113Y-43730058D01*
X52206642Y-43602141D01*
X52097859Y-43493358D01*
X51969942Y-43407887D01*
X51827809Y-43349013D01*
X51676922Y-43319000D01*
X51523078Y-43319000D01*
X51372191Y-43349013D01*
X51230058Y-43407887D01*
X51102141Y-43493358D01*
X50993358Y-43602141D01*
X50907887Y-43730058D01*
X50849013Y-43872191D01*
X50819000Y-44023078D01*
X50819000Y-44176922D01*
X50849013Y-44327809D01*
X50907887Y-44469942D01*
X50993358Y-44597859D01*
X51102141Y-44706642D01*
X51230058Y-44792113D01*
X51372191Y-44850987D01*
X51523078Y-44881000D01*
X51523987Y-44881000D01*
X60394001Y-53751014D01*
X60394000Y-61070230D01*
X60391068Y-61100000D01*
X60394000Y-61129768D01*
X60394000Y-68801499D01*
X60393358Y-68802141D01*
X60307887Y-68930058D01*
X60249013Y-69072191D01*
X60219000Y-69223078D01*
X60219000Y-69376922D01*
X60249013Y-69527809D01*
X60307887Y-69669942D01*
X60393358Y-69797859D01*
X60502141Y-69906642D01*
X60630058Y-69992113D01*
X60772191Y-70050987D01*
X60923078Y-70081000D01*
X61076922Y-70081000D01*
X61227809Y-70050987D01*
X61369942Y-69992113D01*
X61497859Y-69906642D01*
X61498501Y-69906000D01*
X63948987Y-69906000D01*
X74350442Y-80307455D01*
X74369420Y-80330580D01*
X74392544Y-80349557D01*
X74461695Y-80406309D01*
X74542469Y-80449483D01*
X74566972Y-80462580D01*
X74681203Y-80497232D01*
X74770230Y-80506000D01*
X74770232Y-80506000D01*
X74800000Y-80508932D01*
X74829768Y-80506000D01*
X82470235Y-80506000D01*
X82500000Y-80508932D01*
X82529765Y-80506000D01*
X82529770Y-80506000D01*
X82618797Y-80497232D01*
X82733028Y-80462580D01*
X82838304Y-80406308D01*
X82930580Y-80330580D01*
X82949558Y-80307455D01*
X84207456Y-79049557D01*
X84230580Y-79030580D01*
X84253522Y-79002624D01*
X84306309Y-78938305D01*
X84362580Y-78833029D01*
X84370645Y-78806442D01*
X84397232Y-78718797D01*
X84406000Y-78629770D01*
X84406000Y-78629768D01*
X84408932Y-78600000D01*
X84406000Y-78570232D01*
X84406000Y-67098501D01*
X84406642Y-67097859D01*
X84492113Y-66969942D01*
X84550987Y-66827809D01*
X84581000Y-66676922D01*
X84581000Y-66676013D01*
X95176014Y-56081000D01*
X95176922Y-56081000D01*
X95327809Y-56050987D01*
X95469942Y-55992113D01*
X95597859Y-55906642D01*
X95706642Y-55797859D01*
X95792113Y-55669942D01*
X95850987Y-55527809D01*
X95881000Y-55376922D01*
X95881000Y-55223078D01*
X95850987Y-55072191D01*
X95792113Y-54930058D01*
X95706642Y-54802141D01*
X95597859Y-54693358D01*
X95469942Y-54607887D01*
X95327809Y-54549013D01*
X95176922Y-54519000D01*
X95023078Y-54519000D01*
X94872191Y-54549013D01*
X94730058Y-54607887D01*
X94602141Y-54693358D01*
X94493358Y-54802141D01*
X94407887Y-54930058D01*
X94349013Y-55072191D01*
X94319000Y-55223078D01*
X94319000Y-55223986D01*
X83723987Y-65819000D01*
X83723078Y-65819000D01*
X83572191Y-65849013D01*
X83430058Y-65907887D01*
X83302141Y-65993358D01*
X83193358Y-66102141D01*
X83107887Y-66230058D01*
X83049013Y-66372191D01*
X83019000Y-66523078D01*
X83019000Y-66676922D01*
X83049013Y-66827809D01*
X83107887Y-66969942D01*
X83193358Y-67097859D01*
X83194001Y-67098502D01*
X83194000Y-78348987D01*
X82248987Y-79294000D01*
X75051013Y-79294000D01*
X64649558Y-68892545D01*
X64630580Y-68869420D01*
X64538304Y-68793692D01*
X64433028Y-68737420D01*
X64318797Y-68702768D01*
X64229770Y-68694000D01*
X64229765Y-68694000D01*
X64200000Y-68691068D01*
X64170235Y-68694000D01*
X61606000Y-68694000D01*
X61606000Y-61351013D01*
X69876014Y-53081000D01*
X69876922Y-53081000D01*
X70027809Y-53050987D01*
X70169942Y-52992113D01*
X70297859Y-52906642D01*
X70406642Y-52797859D01*
X70492113Y-52669942D01*
X70502434Y-52645024D01*
X74794000Y-56936590D01*
X74794001Y-71475137D01*
X74794000Y-71475147D01*
X74794001Y-75001498D01*
X74693358Y-75102141D01*
X74607887Y-75230058D01*
X74549013Y-75372191D01*
X74519000Y-75523078D01*
X74519000Y-75676922D01*
X74549013Y-75827809D01*
X74607887Y-75969942D01*
X74693358Y-76097859D01*
X74802141Y-76206642D01*
X74930058Y-76292113D01*
X75072191Y-76350987D01*
X75223078Y-76381000D01*
X75376922Y-76381000D01*
X75527809Y-76350987D01*
X75669942Y-76292113D01*
X75797859Y-76206642D01*
X75906642Y-76097859D01*
X75992113Y-75969942D01*
X76050987Y-75827809D01*
X76081000Y-75676922D01*
X76081000Y-75523078D01*
X76068206Y-75458757D01*
X76669000Y-75458757D01*
X76669000Y-75701243D01*
X76716307Y-75939069D01*
X76809102Y-76163097D01*
X76943820Y-76364717D01*
X77115283Y-76536180D01*
X77316903Y-76670898D01*
X77540931Y-76763693D01*
X77778757Y-76811000D01*
X78021243Y-76811000D01*
X78259069Y-76763693D01*
X78483097Y-76670898D01*
X78684717Y-76536180D01*
X78856180Y-76364717D01*
X78990898Y-76163097D01*
X79070726Y-75970375D01*
X79106107Y-76087020D01*
X79230652Y-76337507D01*
X79401672Y-76558884D01*
X79612594Y-76742643D01*
X79855313Y-76881722D01*
X80120501Y-76970777D01*
X80342000Y-76859385D01*
X80342000Y-75678000D01*
X80538000Y-75678000D01*
X80538000Y-76859385D01*
X80759499Y-76970777D01*
X81024687Y-76881722D01*
X81267406Y-76742643D01*
X81478328Y-76558884D01*
X81649348Y-76337507D01*
X81773893Y-76087020D01*
X81830773Y-75899498D01*
X81719001Y-75678000D01*
X80538000Y-75678000D01*
X80342000Y-75678000D01*
X80322000Y-75678000D01*
X80322000Y-75482000D01*
X80342000Y-75482000D01*
X80342000Y-75462000D01*
X80538000Y-75462000D01*
X80538000Y-75482000D01*
X81719001Y-75482000D01*
X81830773Y-75260502D01*
X81773893Y-75072980D01*
X81649348Y-74822493D01*
X81478328Y-74601116D01*
X81267406Y-74417357D01*
X81024687Y-74278278D01*
X80827310Y-74211995D01*
X81023097Y-74130898D01*
X81224717Y-73996180D01*
X81396180Y-73824717D01*
X81530898Y-73623097D01*
X81623693Y-73399069D01*
X81671000Y-73161243D01*
X81671000Y-72918757D01*
X81623693Y-72680931D01*
X81530898Y-72456903D01*
X81396180Y-72255283D01*
X81224717Y-72083820D01*
X81023097Y-71949102D01*
X80799069Y-71856307D01*
X80561243Y-71809000D01*
X80318757Y-71809000D01*
X80080931Y-71856307D01*
X79856903Y-71949102D01*
X79655283Y-72083820D01*
X79483820Y-72255283D01*
X79349102Y-72456903D01*
X79256307Y-72680931D01*
X79209000Y-72918757D01*
X79209000Y-73161243D01*
X79256307Y-73399069D01*
X79349102Y-73623097D01*
X79483820Y-73824717D01*
X79655283Y-73996180D01*
X79856903Y-74130898D01*
X80052690Y-74211995D01*
X79855313Y-74278278D01*
X79612594Y-74417357D01*
X79401672Y-74601116D01*
X79230652Y-74822493D01*
X79106107Y-75072980D01*
X79070726Y-75189625D01*
X78990898Y-74996903D01*
X78856180Y-74795283D01*
X78684717Y-74623820D01*
X78483097Y-74489102D01*
X78259069Y-74396307D01*
X78021243Y-74349000D01*
X77778757Y-74349000D01*
X77540931Y-74396307D01*
X77316903Y-74489102D01*
X77115283Y-74623820D01*
X76943820Y-74795283D01*
X76809102Y-74996903D01*
X76716307Y-75220931D01*
X76669000Y-75458757D01*
X76068206Y-75458757D01*
X76050987Y-75372191D01*
X75992113Y-75230058D01*
X75906642Y-75102141D01*
X75806000Y-75001499D01*
X75806000Y-72918757D01*
X76669000Y-72918757D01*
X76669000Y-73161243D01*
X76716307Y-73399069D01*
X76809102Y-73623097D01*
X76943820Y-73824717D01*
X77115283Y-73996180D01*
X77316903Y-74130898D01*
X77540931Y-74223693D01*
X77778757Y-74271000D01*
X78021243Y-74271000D01*
X78259069Y-74223693D01*
X78483097Y-74130898D01*
X78684717Y-73996180D01*
X78856180Y-73824717D01*
X78990898Y-73623097D01*
X79083693Y-73399069D01*
X79131000Y-73161243D01*
X79131000Y-72918757D01*
X79083693Y-72680931D01*
X78990898Y-72456903D01*
X78856180Y-72255283D01*
X78684717Y-72083820D01*
X78483097Y-71949102D01*
X78259069Y-71856307D01*
X78021243Y-71809000D01*
X77778757Y-71809000D01*
X77540931Y-71856307D01*
X77316903Y-71949102D01*
X77115283Y-72083820D01*
X76943820Y-72255283D01*
X76809102Y-72456903D01*
X76716307Y-72680931D01*
X76669000Y-72918757D01*
X75806000Y-72918757D01*
X75806000Y-69650000D01*
X76667157Y-69650000D01*
X76667157Y-71350000D01*
X76674513Y-71424689D01*
X76696299Y-71496508D01*
X76731678Y-71562696D01*
X76779289Y-71620711D01*
X76837304Y-71668322D01*
X76903492Y-71703701D01*
X76975311Y-71725487D01*
X77050000Y-71732843D01*
X78750000Y-71732843D01*
X78824689Y-71725487D01*
X78896508Y-71703701D01*
X78962696Y-71668322D01*
X79020711Y-71620711D01*
X79068322Y-71562696D01*
X79103701Y-71496508D01*
X79125487Y-71424689D01*
X79132843Y-71350000D01*
X79132843Y-70378757D01*
X79209000Y-70378757D01*
X79209000Y-70621243D01*
X79256307Y-70859069D01*
X79349102Y-71083097D01*
X79483820Y-71284717D01*
X79655283Y-71456180D01*
X79856903Y-71590898D01*
X80080931Y-71683693D01*
X80318757Y-71731000D01*
X80561243Y-71731000D01*
X80799069Y-71683693D01*
X81023097Y-71590898D01*
X81224717Y-71456180D01*
X81396180Y-71284717D01*
X81530898Y-71083097D01*
X81623693Y-70859069D01*
X81671000Y-70621243D01*
X81671000Y-70378757D01*
X81623693Y-70140931D01*
X81530898Y-69916903D01*
X81396180Y-69715283D01*
X81224717Y-69543820D01*
X81023097Y-69409102D01*
X80799069Y-69316307D01*
X80561243Y-69269000D01*
X80318757Y-69269000D01*
X80080931Y-69316307D01*
X79856903Y-69409102D01*
X79655283Y-69543820D01*
X79483820Y-69715283D01*
X79349102Y-69916903D01*
X79256307Y-70140931D01*
X79209000Y-70378757D01*
X79132843Y-70378757D01*
X79132843Y-69650000D01*
X79125487Y-69575311D01*
X79103701Y-69503492D01*
X79068322Y-69437304D01*
X79020711Y-69379289D01*
X78962696Y-69331678D01*
X78896508Y-69296299D01*
X78824689Y-69274513D01*
X78750000Y-69267157D01*
X77050000Y-69267157D01*
X76975311Y-69274513D01*
X76903492Y-69296299D01*
X76837304Y-69331678D01*
X76779289Y-69379289D01*
X76731678Y-69437304D01*
X76696299Y-69503492D01*
X76674513Y-69575311D01*
X76667157Y-69650000D01*
X75806000Y-69650000D01*
X75806000Y-56751843D01*
X75808447Y-56726997D01*
X75806000Y-56702151D01*
X75806000Y-56702144D01*
X75798678Y-56627805D01*
X75769745Y-56532423D01*
X75722759Y-56444519D01*
X75659527Y-56367471D01*
X75640220Y-56351626D01*
X72938594Y-53650000D01*
X90170208Y-53650000D01*
X90181349Y-53763112D01*
X90214342Y-53871877D01*
X90267921Y-53972115D01*
X90340025Y-54059975D01*
X90427885Y-54132079D01*
X90528123Y-54185658D01*
X90636888Y-54218651D01*
X90750000Y-54229792D01*
X91067038Y-54228336D01*
X91016903Y-54249102D01*
X90815283Y-54383820D01*
X90643820Y-54555283D01*
X90509102Y-54756903D01*
X90416307Y-54980931D01*
X90369000Y-55218757D01*
X90369000Y-55461243D01*
X90416307Y-55699069D01*
X90509102Y-55923097D01*
X90643820Y-56124717D01*
X90815283Y-56296180D01*
X91016903Y-56430898D01*
X91240931Y-56523693D01*
X91478757Y-56571000D01*
X91721243Y-56571000D01*
X91959069Y-56523693D01*
X92183097Y-56430898D01*
X92384717Y-56296180D01*
X92556180Y-56124717D01*
X92690898Y-55923097D01*
X92783693Y-55699069D01*
X92831000Y-55461243D01*
X92831000Y-55218757D01*
X92783693Y-54980931D01*
X92690898Y-54756903D01*
X92556180Y-54555283D01*
X92384717Y-54383820D01*
X92183097Y-54249102D01*
X92132962Y-54228336D01*
X92450000Y-54229792D01*
X92563112Y-54218651D01*
X92671877Y-54185658D01*
X92772115Y-54132079D01*
X92859975Y-54059975D01*
X92932079Y-53972115D01*
X92985658Y-53871877D01*
X93018651Y-53763112D01*
X93029792Y-53650000D01*
X93027000Y-53042250D01*
X92882750Y-52898000D01*
X91698000Y-52898000D01*
X91698000Y-52918000D01*
X91502000Y-52918000D01*
X91502000Y-52898000D01*
X90317250Y-52898000D01*
X90173000Y-53042250D01*
X90170208Y-53650000D01*
X72938594Y-53650000D01*
X71238594Y-51950000D01*
X90170208Y-51950000D01*
X90173000Y-52557750D01*
X90317250Y-52702000D01*
X91502000Y-52702000D01*
X91502000Y-51517250D01*
X91698000Y-51517250D01*
X91698000Y-52702000D01*
X92882750Y-52702000D01*
X93027000Y-52557750D01*
X93029792Y-51950000D01*
X93018651Y-51836888D01*
X92985658Y-51728123D01*
X92932079Y-51627885D01*
X92859975Y-51540025D01*
X92772115Y-51467921D01*
X92671877Y-51414342D01*
X92563112Y-51381349D01*
X92450000Y-51370208D01*
X91842250Y-51373000D01*
X91698000Y-51517250D01*
X91502000Y-51517250D01*
X91357750Y-51373000D01*
X90750000Y-51370208D01*
X90636888Y-51381349D01*
X90528123Y-51414342D01*
X90427885Y-51467921D01*
X90340025Y-51540025D01*
X90267921Y-51627885D01*
X90214342Y-51728123D01*
X90181349Y-51836888D01*
X90170208Y-51950000D01*
X71238594Y-51950000D01*
X65948378Y-46659785D01*
X65932529Y-46640473D01*
X65855481Y-46577241D01*
X65767577Y-46530255D01*
X65672195Y-46501322D01*
X65597856Y-46494000D01*
X65597848Y-46494000D01*
X65573002Y-46491553D01*
X65548156Y-46494000D01*
X62598501Y-46494000D01*
X62497859Y-46393358D01*
X62369942Y-46307887D01*
X62227809Y-46249013D01*
X62076922Y-46219000D01*
X61923078Y-46219000D01*
X61772191Y-46249013D01*
X61630058Y-46307887D01*
X61606000Y-46323962D01*
X61606000Y-40951013D01*
X62776014Y-39781000D01*
X62776922Y-39781000D01*
X62927809Y-39750987D01*
X63069942Y-39692113D01*
X63197859Y-39606642D01*
X63306642Y-39497859D01*
X63392113Y-39369942D01*
X63450987Y-39227809D01*
X63481000Y-39076922D01*
X63481000Y-38923078D01*
X63450987Y-38772191D01*
X63392113Y-38630058D01*
X63306642Y-38502141D01*
X63197859Y-38393358D01*
X63069942Y-38307887D01*
X62927809Y-38249013D01*
X62776922Y-38219000D01*
X62623078Y-38219000D01*
X62472191Y-38249013D01*
X62330058Y-38307887D01*
X62202141Y-38393358D01*
X62093358Y-38502141D01*
X62007887Y-38630058D01*
X61949013Y-38772191D01*
X61919000Y-38923078D01*
X61919000Y-38923986D01*
X60592540Y-40250447D01*
X60569421Y-40269420D01*
X60550448Y-40292539D01*
X60550443Y-40292544D01*
X60493692Y-40361696D01*
X60437421Y-40466972D01*
X60402769Y-40581203D01*
X60396767Y-40642149D01*
X60391068Y-40700000D01*
X60394001Y-40729775D01*
X60394001Y-46268092D01*
X49725909Y-35600000D01*
X86315075Y-35600000D01*
X86322431Y-35674689D01*
X86344217Y-35746508D01*
X86379596Y-35812696D01*
X86427207Y-35870711D01*
X87629289Y-37072793D01*
X87687304Y-37120404D01*
X87753492Y-37155783D01*
X87825311Y-37177569D01*
X87900000Y-37184925D01*
X87974689Y-37177569D01*
X88046508Y-37155783D01*
X88112696Y-37120404D01*
X88170711Y-37072793D01*
X89372793Y-35870711D01*
X89420404Y-35812696D01*
X89455783Y-35746508D01*
X89477569Y-35674689D01*
X89484925Y-35600000D01*
X89477569Y-35525311D01*
X89455783Y-35453492D01*
X89420404Y-35387304D01*
X89372793Y-35329289D01*
X88170711Y-34127207D01*
X88112696Y-34079596D01*
X88046508Y-34044217D01*
X87974689Y-34022431D01*
X87900000Y-34015075D01*
X87825311Y-34022431D01*
X87753492Y-34044217D01*
X87687304Y-34079596D01*
X87629289Y-34127207D01*
X86427207Y-35329289D01*
X86379596Y-35387304D01*
X86344217Y-35453492D01*
X86322431Y-35525311D01*
X86315075Y-35600000D01*
X49725909Y-35600000D01*
X47808615Y-33682706D01*
X84872949Y-33682706D01*
X84872949Y-33925192D01*
X84920256Y-34163018D01*
X85013051Y-34387046D01*
X85147769Y-34588666D01*
X85319232Y-34760129D01*
X85520852Y-34894847D01*
X85744880Y-34987642D01*
X85982706Y-35034949D01*
X86225192Y-35034949D01*
X86463018Y-34987642D01*
X86687046Y-34894847D01*
X86888666Y-34760129D01*
X87060129Y-34588666D01*
X87194847Y-34387046D01*
X87287642Y-34163018D01*
X87334949Y-33925192D01*
X87334949Y-33682706D01*
X87287642Y-33444880D01*
X87194847Y-33220852D01*
X87060129Y-33019232D01*
X86888666Y-32847769D01*
X86687046Y-32713051D01*
X86463018Y-32620256D01*
X86225192Y-32572949D01*
X85982706Y-32572949D01*
X85744880Y-32620256D01*
X85520852Y-32713051D01*
X85319232Y-32847769D01*
X85147769Y-33019232D01*
X85013051Y-33220852D01*
X84920256Y-33444880D01*
X84872949Y-33682706D01*
X47808615Y-33682706D01*
X47418454Y-33292545D01*
X47399476Y-33269420D01*
X47307200Y-33193692D01*
X47201924Y-33137420D01*
X47087693Y-33102768D01*
X46998666Y-33094000D01*
X46998661Y-33094000D01*
X46968896Y-33091068D01*
X46939131Y-33094000D01*
X42298501Y-33094000D01*
X42297859Y-33093358D01*
X42169942Y-33007887D01*
X42027809Y-32949013D01*
X41876922Y-32919000D01*
X41723078Y-32919000D01*
X41572191Y-32949013D01*
X41430058Y-33007887D01*
X41302141Y-33093358D01*
X41193358Y-33202141D01*
X41107887Y-33330058D01*
X41049013Y-33472191D01*
X41019000Y-33623078D01*
X38823396Y-33623078D01*
X38846795Y-33505448D01*
X38846795Y-33262962D01*
X38799488Y-33025136D01*
X38706693Y-32801108D01*
X38571975Y-32599488D01*
X38400512Y-32428025D01*
X38198892Y-32293307D01*
X37974864Y-32200512D01*
X37737038Y-32153205D01*
X37494552Y-32153205D01*
X37256726Y-32200512D01*
X37032698Y-32293307D01*
X36831078Y-32428025D01*
X36659615Y-32599488D01*
X36524897Y-32801108D01*
X36432102Y-33025136D01*
X36384795Y-33262962D01*
X36384795Y-33505448D01*
X36432102Y-33743274D01*
X36513199Y-33939060D01*
X36326764Y-33846363D01*
X36056792Y-33773079D01*
X35777711Y-33753872D01*
X35500244Y-33789479D01*
X35235056Y-33878534D01*
X35062238Y-33970912D01*
X34984650Y-34206569D01*
X30343952Y-34206569D01*
X31313680Y-32834830D01*
X32420176Y-31466911D01*
X38180846Y-31466911D01*
X38180846Y-31709397D01*
X38228153Y-31947223D01*
X38320948Y-32171251D01*
X38455666Y-32372871D01*
X38627129Y-32544334D01*
X38828749Y-32679052D01*
X39052777Y-32771847D01*
X39290603Y-32819154D01*
X39533089Y-32819154D01*
X39770915Y-32771847D01*
X39994943Y-32679052D01*
X40196563Y-32544334D01*
X40368026Y-32372871D01*
X40502744Y-32171251D01*
X40595539Y-31947223D01*
X40607586Y-31886655D01*
X83076898Y-31886655D01*
X83076898Y-32129141D01*
X83124205Y-32366967D01*
X83217000Y-32590995D01*
X83351718Y-32792615D01*
X83523181Y-32964078D01*
X83724801Y-33098796D01*
X83948829Y-33191591D01*
X84186655Y-33238898D01*
X84429141Y-33238898D01*
X84666967Y-33191591D01*
X84890995Y-33098796D01*
X85092615Y-32964078D01*
X85264078Y-32792615D01*
X85398796Y-32590995D01*
X85491591Y-32366967D01*
X85538898Y-32129141D01*
X85538898Y-31886655D01*
X85491591Y-31648829D01*
X85398796Y-31424801D01*
X85264078Y-31223181D01*
X85092615Y-31051718D01*
X84890995Y-30917000D01*
X84666967Y-30824205D01*
X84429141Y-30776898D01*
X84186655Y-30776898D01*
X83948829Y-30824205D01*
X83724801Y-30917000D01*
X83523181Y-31051718D01*
X83351718Y-31223181D01*
X83217000Y-31424801D01*
X83124205Y-31648829D01*
X83076898Y-31886655D01*
X40607586Y-31886655D01*
X40642846Y-31709397D01*
X40642846Y-31466911D01*
X40595539Y-31229085D01*
X40502744Y-31005057D01*
X40368026Y-30803437D01*
X40196563Y-30631974D01*
X39994943Y-30497256D01*
X39770915Y-30404461D01*
X39533089Y-30357154D01*
X39290603Y-30357154D01*
X39052777Y-30404461D01*
X38828749Y-30497256D01*
X38627129Y-30631974D01*
X38455666Y-30803437D01*
X38320948Y-31005057D01*
X38228153Y-31229085D01*
X38180846Y-31466911D01*
X32420176Y-31466911D01*
X32850361Y-30935090D01*
X34016160Y-29670859D01*
X39976898Y-29670859D01*
X39976898Y-29913345D01*
X40024205Y-30151171D01*
X40117000Y-30375199D01*
X40251718Y-30576819D01*
X40423181Y-30748282D01*
X40624801Y-30883000D01*
X40848829Y-30975795D01*
X41086655Y-31023102D01*
X41329141Y-31023102D01*
X41566967Y-30975795D01*
X41790995Y-30883000D01*
X41992615Y-30748282D01*
X42164078Y-30576819D01*
X42298796Y-30375199D01*
X42391591Y-30151171D01*
X42403638Y-30090603D01*
X81280846Y-30090603D01*
X81280846Y-30333089D01*
X81328153Y-30570915D01*
X81420948Y-30794943D01*
X81555666Y-30996563D01*
X81727129Y-31168026D01*
X81928749Y-31302744D01*
X82152777Y-31395539D01*
X82390603Y-31442846D01*
X82633089Y-31442846D01*
X82870915Y-31395539D01*
X83094943Y-31302744D01*
X83296563Y-31168026D01*
X83468026Y-30996563D01*
X83602744Y-30794943D01*
X83695539Y-30570915D01*
X83742846Y-30333089D01*
X83742846Y-30090603D01*
X83695539Y-29852777D01*
X83602744Y-29628749D01*
X83468026Y-29427129D01*
X83296563Y-29255666D01*
X83094943Y-29120948D01*
X82870915Y-29028153D01*
X82633089Y-28980846D01*
X82390603Y-28980846D01*
X82152777Y-29028153D01*
X81928749Y-29120948D01*
X81727129Y-29255666D01*
X81555666Y-29427129D01*
X81420948Y-29628749D01*
X81328153Y-29852777D01*
X81280846Y-30090603D01*
X42403638Y-30090603D01*
X42438898Y-29913345D01*
X42438898Y-29670859D01*
X42391591Y-29433033D01*
X42298796Y-29209005D01*
X42164078Y-29007385D01*
X41992615Y-28835922D01*
X41790995Y-28701204D01*
X41566967Y-28608409D01*
X41329141Y-28561102D01*
X41086655Y-28561102D01*
X40848829Y-28608409D01*
X40624801Y-28701204D01*
X40423181Y-28835922D01*
X40251718Y-29007385D01*
X40117000Y-29209005D01*
X40024205Y-29433033D01*
X39976898Y-29670859D01*
X34016160Y-29670859D01*
X34506790Y-29138804D01*
X35833733Y-27874808D01*
X41772949Y-27874808D01*
X41772949Y-28117294D01*
X41820256Y-28355120D01*
X41913051Y-28579148D01*
X42047769Y-28780768D01*
X42219232Y-28952231D01*
X42420852Y-29086949D01*
X42644880Y-29179744D01*
X42882706Y-29227051D01*
X43125192Y-29227051D01*
X43363018Y-29179744D01*
X43587046Y-29086949D01*
X43788666Y-28952231D01*
X43960129Y-28780768D01*
X44094847Y-28579148D01*
X44187642Y-28355120D01*
X44199689Y-28294552D01*
X79484795Y-28294552D01*
X79484795Y-28537038D01*
X79532102Y-28774864D01*
X79624897Y-28998892D01*
X79759615Y-29200512D01*
X79931078Y-29371975D01*
X80132698Y-29506693D01*
X80356726Y-29599488D01*
X80594552Y-29646795D01*
X80837038Y-29646795D01*
X81074864Y-29599488D01*
X81298892Y-29506693D01*
X81500512Y-29371975D01*
X81671975Y-29200512D01*
X81806693Y-28998892D01*
X81899488Y-28774864D01*
X81946795Y-28537038D01*
X81946795Y-28294552D01*
X81899488Y-28056726D01*
X81806693Y-27832698D01*
X81671975Y-27631078D01*
X81500512Y-27459615D01*
X81298892Y-27324897D01*
X81074864Y-27232102D01*
X80837038Y-27184795D01*
X80594552Y-27184795D01*
X80356726Y-27232102D01*
X80132698Y-27324897D01*
X79931078Y-27459615D01*
X79759615Y-27631078D01*
X79624897Y-27832698D01*
X79532102Y-28056726D01*
X79484795Y-28294552D01*
X44199689Y-28294552D01*
X44234949Y-28117294D01*
X44234949Y-27874808D01*
X44187642Y-27636982D01*
X44094847Y-27412954D01*
X43960129Y-27211334D01*
X43788666Y-27039871D01*
X43587046Y-26905153D01*
X43363018Y-26812358D01*
X43125192Y-26765051D01*
X42882706Y-26765051D01*
X42644880Y-26812358D01*
X42420852Y-26905153D01*
X42219232Y-27039871D01*
X42047769Y-27211334D01*
X41913051Y-27412954D01*
X41820256Y-27636982D01*
X41772949Y-27874808D01*
X35833733Y-27874808D01*
X36276018Y-27453505D01*
X37775357Y-26200000D01*
X43215075Y-26200000D01*
X43222431Y-26274689D01*
X43244217Y-26346508D01*
X43279596Y-26412696D01*
X43327207Y-26470711D01*
X44529289Y-27672793D01*
X44587304Y-27720404D01*
X44653492Y-27755783D01*
X44725311Y-27777569D01*
X44800000Y-27784925D01*
X44874689Y-27777569D01*
X44946508Y-27755783D01*
X45012696Y-27720404D01*
X45070711Y-27672793D01*
X46245003Y-26498501D01*
X77688744Y-26498501D01*
X77688744Y-26740987D01*
X77736051Y-26978813D01*
X77828846Y-27202841D01*
X77963564Y-27404461D01*
X78135027Y-27575924D01*
X78336647Y-27710642D01*
X78560675Y-27803437D01*
X78798501Y-27850744D01*
X79040987Y-27850744D01*
X79278813Y-27803437D01*
X79502841Y-27710642D01*
X79704461Y-27575924D01*
X79875924Y-27404461D01*
X80010642Y-27202841D01*
X80103437Y-26978813D01*
X80150744Y-26740987D01*
X80150744Y-26498501D01*
X80103437Y-26260675D01*
X80010642Y-26036647D01*
X79875924Y-25835027D01*
X79704461Y-25663564D01*
X79502841Y-25528846D01*
X79278813Y-25436051D01*
X79040987Y-25388744D01*
X78798501Y-25388744D01*
X78560675Y-25436051D01*
X78336647Y-25528846D01*
X78135027Y-25663564D01*
X77963564Y-25835027D01*
X77828846Y-26036647D01*
X77736051Y-26260675D01*
X77688744Y-26498501D01*
X46245003Y-26498501D01*
X46272793Y-26470711D01*
X46320404Y-26412696D01*
X46355783Y-26346508D01*
X46377569Y-26274689D01*
X46384925Y-26200000D01*
X46377569Y-26125311D01*
X46355783Y-26053492D01*
X46320404Y-25987304D01*
X46272793Y-25929289D01*
X45070711Y-24727207D01*
X45012696Y-24679596D01*
X44946508Y-24644217D01*
X44874689Y-24622431D01*
X44800000Y-24615075D01*
X44725311Y-24622431D01*
X44653492Y-24644217D01*
X44587304Y-24679596D01*
X44529289Y-24727207D01*
X43327207Y-25929289D01*
X43279596Y-25987304D01*
X43244217Y-26053492D01*
X43222431Y-26125311D01*
X43215075Y-26200000D01*
X37775357Y-26200000D01*
X38150625Y-25886262D01*
X40122748Y-24443650D01*
X42184115Y-23131717D01*
X44326080Y-21955968D01*
X46539659Y-20921334D01*
X48815567Y-20032154D01*
X51144259Y-19292158D01*
X53515968Y-18704449D01*
X55920744Y-18271494D01*
X58348502Y-17995107D01*
X60789060Y-17876448D01*
X63232180Y-17916015D01*
G37*
X63232180Y-17916015D02*
X65667615Y-18113641D01*
X68085150Y-18468498D01*
X70474646Y-18979098D01*
X72826079Y-19643299D01*
X75129587Y-20458314D01*
X77375509Y-21420726D01*
X79554423Y-22526498D01*
X81657192Y-23770991D01*
X83674995Y-25148987D01*
X85599369Y-26654704D01*
X87422243Y-28281828D01*
X89135970Y-30023534D01*
X90733363Y-31872517D01*
X92207721Y-33821021D01*
X93552862Y-35860873D01*
X94763142Y-37983518D01*
X95833485Y-40180053D01*
X96759402Y-42441265D01*
X97537010Y-44757669D01*
X98163047Y-47119549D01*
X98634886Y-49516999D01*
X98950550Y-51939964D01*
X99108713Y-54378280D01*
X99108713Y-56821720D01*
X98950550Y-59260036D01*
X98634886Y-61683001D01*
X98163047Y-64080451D01*
X97537010Y-66442331D01*
X96759402Y-68758735D01*
X95833485Y-71019947D01*
X94763142Y-73216482D01*
X93552862Y-75339127D01*
X92207721Y-77378979D01*
X90733363Y-79327483D01*
X89135970Y-81176466D01*
X87422243Y-82918172D01*
X85599369Y-84545296D01*
X83674995Y-86051013D01*
X81657192Y-87429009D01*
X79554423Y-88673502D01*
X77375509Y-89779274D01*
X75129587Y-90741686D01*
X72826079Y-91556701D01*
X70474646Y-92220902D01*
X68085150Y-92731502D01*
X65667615Y-93086359D01*
X63232180Y-93283985D01*
X60789060Y-93323552D01*
X58348502Y-93204893D01*
X55920744Y-92928506D01*
X53515968Y-92495551D01*
X51144259Y-91907842D01*
X48815567Y-91167846D01*
X46539659Y-90278666D01*
X44326080Y-89244032D01*
X44154774Y-89150000D01*
X51170208Y-89150000D01*
X51181349Y-89263112D01*
X51214342Y-89371877D01*
X51267921Y-89472115D01*
X51340025Y-89559975D01*
X51427885Y-89632079D01*
X51528123Y-89685658D01*
X51636888Y-89718651D01*
X51750000Y-89729792D01*
X52357750Y-89727000D01*
X52502000Y-89582750D01*
X52502000Y-88398000D01*
X52698000Y-88398000D01*
X52698000Y-89582750D01*
X52842250Y-89727000D01*
X53450000Y-89729792D01*
X53563112Y-89718651D01*
X53671877Y-89685658D01*
X53772115Y-89632079D01*
X53859975Y-89559975D01*
X53932079Y-89472115D01*
X53985658Y-89371877D01*
X54018651Y-89263112D01*
X54029792Y-89150000D01*
X54027000Y-88542250D01*
X53882750Y-88398000D01*
X52698000Y-88398000D01*
X52502000Y-88398000D01*
X51317250Y-88398000D01*
X51173000Y-88542250D01*
X51170208Y-89150000D01*
X44154774Y-89150000D01*
X42184115Y-88068283D01*
X41212642Y-87450000D01*
X51170208Y-87450000D01*
X51173000Y-88057750D01*
X51317250Y-88202000D01*
X52502000Y-88202000D01*
X52502000Y-88182000D01*
X52698000Y-88182000D01*
X52698000Y-88202000D01*
X53882750Y-88202000D01*
X54027000Y-88057750D01*
X54029792Y-87450000D01*
X54018651Y-87336888D01*
X53985658Y-87228123D01*
X53932079Y-87127885D01*
X53859975Y-87040025D01*
X53772115Y-86967921D01*
X53671877Y-86914342D01*
X53563112Y-86881349D01*
X53450000Y-86870208D01*
X53132962Y-86871664D01*
X53183097Y-86850898D01*
X53384717Y-86716180D01*
X53556180Y-86544717D01*
X53690898Y-86343097D01*
X53783693Y-86119069D01*
X53831000Y-85881243D01*
X53831000Y-85638757D01*
X53824175Y-85604443D01*
X58950286Y-85604443D01*
X58978814Y-85718811D01*
X59084869Y-85957979D01*
X59235545Y-86171862D01*
X59425052Y-86352239D01*
X59646108Y-86492180D01*
X59890218Y-86586306D01*
X60148000Y-86631000D01*
X60902000Y-86631000D01*
X60902000Y-85398000D01*
X61098000Y-85398000D01*
X61098000Y-86631000D01*
X61852000Y-86631000D01*
X62109782Y-86586306D01*
X62353892Y-86492180D01*
X62574948Y-86352239D01*
X62764455Y-86171862D01*
X62915131Y-85957979D01*
X63021186Y-85718811D01*
X63049714Y-85604443D01*
X62936697Y-85398000D01*
X61098000Y-85398000D01*
X60902000Y-85398000D01*
X59063303Y-85398000D01*
X58950286Y-85604443D01*
X53824175Y-85604443D01*
X53783693Y-85400931D01*
X53690898Y-85176903D01*
X53569727Y-84995557D01*
X58950286Y-84995557D01*
X59063303Y-85202000D01*
X60902000Y-85202000D01*
X60902000Y-83969000D01*
X61098000Y-83969000D01*
X61098000Y-85202000D01*
X62936697Y-85202000D01*
X63049714Y-84995557D01*
X63021186Y-84881189D01*
X62915131Y-84642021D01*
X62764455Y-84428138D01*
X62574948Y-84247761D01*
X62353892Y-84107820D01*
X62109782Y-84013694D01*
X61852000Y-83969000D01*
X61098000Y-83969000D01*
X60902000Y-83969000D01*
X60148000Y-83969000D01*
X59890218Y-84013694D01*
X59646108Y-84107820D01*
X59425052Y-84247761D01*
X59235545Y-84428138D01*
X59084869Y-84642021D01*
X58978814Y-84881189D01*
X58950286Y-84995557D01*
X53569727Y-84995557D01*
X53556180Y-84975283D01*
X53384717Y-84803820D01*
X53183097Y-84669102D01*
X52959069Y-84576307D01*
X52721243Y-84529000D01*
X52478757Y-84529000D01*
X52240931Y-84576307D01*
X52016903Y-84669102D01*
X51815283Y-84803820D01*
X51643820Y-84975283D01*
X51509102Y-85176903D01*
X51416307Y-85400931D01*
X51369000Y-85638757D01*
X51369000Y-85881243D01*
X51416307Y-86119069D01*
X51509102Y-86343097D01*
X51643820Y-86544717D01*
X51815283Y-86716180D01*
X52016903Y-86850898D01*
X52067038Y-86871664D01*
X51750000Y-86870208D01*
X51636888Y-86881349D01*
X51528123Y-86914342D01*
X51427885Y-86967921D01*
X51340025Y-87040025D01*
X51267921Y-87127885D01*
X51214342Y-87228123D01*
X51181349Y-87336888D01*
X51170208Y-87450000D01*
X41212642Y-87450000D01*
X40122748Y-86756350D01*
X38150625Y-85313738D01*
X36276018Y-83746495D01*
X34860368Y-82398000D01*
X64369000Y-82398000D01*
X64369000Y-83152000D01*
X64413694Y-83409782D01*
X64507820Y-83653892D01*
X64647761Y-83874948D01*
X64828138Y-84064455D01*
X65042021Y-84215131D01*
X65281189Y-84321186D01*
X65395557Y-84349714D01*
X65602000Y-84236697D01*
X65602000Y-82398000D01*
X65798000Y-82398000D01*
X65798000Y-84236697D01*
X66004443Y-84349714D01*
X66118811Y-84321186D01*
X66357979Y-84215131D01*
X66571862Y-84064455D01*
X66752239Y-83874948D01*
X66892180Y-83653892D01*
X66986306Y-83409782D01*
X67031000Y-83152000D01*
X67031000Y-82398000D01*
X65798000Y-82398000D01*
X65602000Y-82398000D01*
X64369000Y-82398000D01*
X34860368Y-82398000D01*
X34506790Y-82061196D01*
X33941337Y-81448000D01*
X64369000Y-81448000D01*
X64369000Y-82202000D01*
X65602000Y-82202000D01*
X65602000Y-80363303D01*
X65798000Y-80363303D01*
X65798000Y-82202000D01*
X67031000Y-82202000D01*
X67031000Y-81448000D01*
X66986306Y-81190218D01*
X66892180Y-80946108D01*
X66752239Y-80725052D01*
X66571862Y-80535545D01*
X66357979Y-80384869D01*
X66118811Y-80278814D01*
X66004443Y-80250286D01*
X65798000Y-80363303D01*
X65602000Y-80363303D01*
X65395557Y-80250286D01*
X65281189Y-80278814D01*
X65042021Y-80384869D01*
X64828138Y-80535545D01*
X64647761Y-80725052D01*
X64507820Y-80946108D01*
X64413694Y-81190218D01*
X64369000Y-81448000D01*
X33941337Y-81448000D01*
X32850361Y-80264910D01*
X32069855Y-79300000D01*
X59105509Y-79300000D01*
X59127423Y-79522499D01*
X59192324Y-79736447D01*
X59297716Y-79933623D01*
X59439551Y-80106449D01*
X59612377Y-80248284D01*
X59809553Y-80353676D01*
X60023501Y-80418577D01*
X60190248Y-80435000D01*
X61809752Y-80435000D01*
X61976499Y-80418577D01*
X62190447Y-80353676D01*
X62387623Y-80248284D01*
X62560449Y-80106449D01*
X62702284Y-79933623D01*
X62807676Y-79736447D01*
X62872577Y-79522499D01*
X62894491Y-79300000D01*
X62872577Y-79077501D01*
X62807676Y-78863553D01*
X62702284Y-78666377D01*
X62560449Y-78493551D01*
X62387623Y-78351716D01*
X62190447Y-78246324D01*
X61976499Y-78181423D01*
X61809752Y-78165000D01*
X60190248Y-78165000D01*
X60023501Y-78181423D01*
X59809553Y-78246324D01*
X59612377Y-78351716D01*
X59439551Y-78493551D01*
X59297716Y-78666377D01*
X59192324Y-78863553D01*
X59127423Y-79077501D01*
X59105509Y-79300000D01*
X32069855Y-79300000D01*
X31313680Y-78365170D01*
X29903191Y-76369946D01*
X28624810Y-74287605D01*
X27483900Y-72126881D01*
X26485246Y-69896839D01*
X25633037Y-67606830D01*
X25120557Y-65898757D01*
X32069000Y-65898757D01*
X32069000Y-66141243D01*
X32116307Y-66379069D01*
X32209102Y-66603097D01*
X32343820Y-66804717D01*
X32515283Y-66976180D01*
X32716903Y-67110898D01*
X32940931Y-67203693D01*
X33178757Y-67251000D01*
X33421243Y-67251000D01*
X33659069Y-67203693D01*
X33883097Y-67110898D01*
X34084717Y-66976180D01*
X34256180Y-66804717D01*
X34390898Y-66603097D01*
X34483693Y-66379069D01*
X34531000Y-66141243D01*
X34531000Y-65898757D01*
X34483693Y-65660931D01*
X34390898Y-65436903D01*
X34256180Y-65235283D01*
X34084717Y-65063820D01*
X33883097Y-64929102D01*
X33659069Y-64836307D01*
X33421243Y-64789000D01*
X33178757Y-64789000D01*
X32940931Y-64836307D01*
X32716903Y-64929102D01*
X32515283Y-65063820D01*
X32343820Y-65235283D01*
X32209102Y-65436903D01*
X32116307Y-65660931D01*
X32069000Y-65898757D01*
X25120557Y-65898757D01*
X24930846Y-65266461D01*
X24490780Y-63358757D01*
X32069000Y-63358757D01*
X32069000Y-63601243D01*
X32116307Y-63839069D01*
X32209102Y-64063097D01*
X32343820Y-64264717D01*
X32515283Y-64436180D01*
X32716903Y-64570898D01*
X32940931Y-64663693D01*
X33178757Y-64711000D01*
X33421243Y-64711000D01*
X33659069Y-64663693D01*
X33883097Y-64570898D01*
X34084717Y-64436180D01*
X34256180Y-64264717D01*
X34390898Y-64063097D01*
X34483693Y-63839069D01*
X34531000Y-63601243D01*
X34531000Y-63358757D01*
X34483693Y-63120931D01*
X34390898Y-62896903D01*
X34256180Y-62695283D01*
X34084717Y-62523820D01*
X33883097Y-62389102D01*
X33659069Y-62296307D01*
X33421243Y-62249000D01*
X33178757Y-62249000D01*
X32940931Y-62296307D01*
X32716903Y-62389102D01*
X32515283Y-62523820D01*
X32343820Y-62695283D01*
X32209102Y-62896903D01*
X32116307Y-63120931D01*
X32069000Y-63358757D01*
X24490780Y-63358757D01*
X24381620Y-62885547D01*
X24043973Y-60818757D01*
X32069000Y-60818757D01*
X32069000Y-61061243D01*
X32116307Y-61299069D01*
X32209102Y-61523097D01*
X32343820Y-61724717D01*
X32515283Y-61896180D01*
X32716903Y-62030898D01*
X32940931Y-62123693D01*
X33178757Y-62171000D01*
X33421243Y-62171000D01*
X33659069Y-62123693D01*
X33883097Y-62030898D01*
X34084717Y-61896180D01*
X34256180Y-61724717D01*
X34390898Y-61523097D01*
X34483693Y-61299069D01*
X34531000Y-61061243D01*
X34531000Y-60818757D01*
X34483693Y-60580931D01*
X34390898Y-60356903D01*
X34256180Y-60155283D01*
X34084717Y-59983820D01*
X33883097Y-59849102D01*
X33659069Y-59756307D01*
X33421243Y-59709000D01*
X33178757Y-59709000D01*
X32940931Y-59756307D01*
X32716903Y-59849102D01*
X32515283Y-59983820D01*
X32343820Y-60155283D01*
X32209102Y-60356903D01*
X32116307Y-60580931D01*
X32069000Y-60818757D01*
X24043973Y-60818757D01*
X23987662Y-60474075D01*
X23773686Y-58278757D01*
X32069000Y-58278757D01*
X32069000Y-58521243D01*
X32116307Y-58759069D01*
X32209102Y-58983097D01*
X32343820Y-59184717D01*
X32515283Y-59356180D01*
X32716903Y-59490898D01*
X32940931Y-59583693D01*
X33178757Y-59631000D01*
X33421243Y-59631000D01*
X33659069Y-59583693D01*
X33883097Y-59490898D01*
X34084717Y-59356180D01*
X34256180Y-59184717D01*
X34390898Y-58983097D01*
X34483693Y-58759069D01*
X34531000Y-58521243D01*
X34531000Y-58278757D01*
X34483693Y-58040931D01*
X34390898Y-57816903D01*
X34256180Y-57615283D01*
X34084717Y-57443820D01*
X33883097Y-57309102D01*
X33659069Y-57216307D01*
X33421243Y-57169000D01*
X33178757Y-57169000D01*
X32940931Y-57216307D01*
X32716903Y-57309102D01*
X32515283Y-57443820D01*
X32343820Y-57615283D01*
X32209102Y-57816903D01*
X32116307Y-58040931D01*
X32069000Y-58278757D01*
X23773686Y-58278757D01*
X23750624Y-58042159D01*
X23675997Y-55738757D01*
X32069000Y-55738757D01*
X32069000Y-55981243D01*
X32116307Y-56219069D01*
X32209102Y-56443097D01*
X32343820Y-56644717D01*
X32515283Y-56816180D01*
X32716903Y-56950898D01*
X32940931Y-57043693D01*
X33178757Y-57091000D01*
X33421243Y-57091000D01*
X33659069Y-57043693D01*
X33883097Y-56950898D01*
X34084717Y-56816180D01*
X34256180Y-56644717D01*
X34390898Y-56443097D01*
X34483693Y-56219069D01*
X34531000Y-55981243D01*
X34531000Y-55738757D01*
X34483693Y-55500931D01*
X34390898Y-55276903D01*
X34256180Y-55075283D01*
X34084717Y-54903820D01*
X33883097Y-54769102D01*
X33659069Y-54676307D01*
X33421243Y-54629000D01*
X33178757Y-54629000D01*
X32940931Y-54676307D01*
X32716903Y-54769102D01*
X32515283Y-54903820D01*
X32343820Y-55075283D01*
X32209102Y-55276903D01*
X32116307Y-55500931D01*
X32069000Y-55738757D01*
X23675997Y-55738757D01*
X23671501Y-55600000D01*
X23749298Y-53198757D01*
X32069000Y-53198757D01*
X32069000Y-53441243D01*
X32116307Y-53679069D01*
X32209102Y-53903097D01*
X32343820Y-54104717D01*
X32515283Y-54276180D01*
X32716903Y-54410898D01*
X32940931Y-54503693D01*
X33178757Y-54551000D01*
X33421243Y-54551000D01*
X33659069Y-54503693D01*
X33883097Y-54410898D01*
X34084717Y-54276180D01*
X34256180Y-54104717D01*
X34390898Y-53903097D01*
X34483693Y-53679069D01*
X34531000Y-53441243D01*
X34531000Y-53198757D01*
X34483693Y-52960931D01*
X34390898Y-52736903D01*
X34256180Y-52535283D01*
X34084717Y-52363820D01*
X33883097Y-52229102D01*
X33659069Y-52136307D01*
X33421243Y-52089000D01*
X33178757Y-52089000D01*
X32940931Y-52136307D01*
X32716903Y-52229102D01*
X32515283Y-52363820D01*
X32343820Y-52535283D01*
X32209102Y-52736903D01*
X32116307Y-52960931D01*
X32069000Y-53198757D01*
X23749298Y-53198757D01*
X23750624Y-53157841D01*
X23987662Y-50725925D01*
X23998635Y-50658757D01*
X32069000Y-50658757D01*
X32069000Y-50901243D01*
X32116307Y-51139069D01*
X32209102Y-51363097D01*
X32343820Y-51564717D01*
X32515283Y-51736180D01*
X32716903Y-51870898D01*
X32940931Y-51963693D01*
X33178757Y-52011000D01*
X33421243Y-52011000D01*
X33659069Y-51963693D01*
X33883097Y-51870898D01*
X34084717Y-51736180D01*
X34256180Y-51564717D01*
X34390898Y-51363097D01*
X34483693Y-51139069D01*
X34531000Y-50901243D01*
X34531000Y-50658757D01*
X34483693Y-50420931D01*
X34390898Y-50196903D01*
X34256180Y-49995283D01*
X34084717Y-49823820D01*
X33883097Y-49689102D01*
X33659069Y-49596307D01*
X33421243Y-49549000D01*
X33178757Y-49549000D01*
X32940931Y-49596307D01*
X32716903Y-49689102D01*
X32515283Y-49823820D01*
X32343820Y-49995283D01*
X32209102Y-50196903D01*
X32116307Y-50420931D01*
X32069000Y-50658757D01*
X23998635Y-50658757D01*
X24381620Y-48314453D01*
X24426762Y-48118757D01*
X32069000Y-48118757D01*
X32069000Y-48361243D01*
X32116307Y-48599069D01*
X32209102Y-48823097D01*
X32343820Y-49024717D01*
X32515283Y-49196180D01*
X32716903Y-49330898D01*
X32940931Y-49423693D01*
X33178757Y-49471000D01*
X33421243Y-49471000D01*
X33659069Y-49423693D01*
X33883097Y-49330898D01*
X34084717Y-49196180D01*
X34256180Y-49024717D01*
X34390898Y-48823097D01*
X34483693Y-48599069D01*
X34531000Y-48361243D01*
X34531000Y-48118757D01*
X34483693Y-47880931D01*
X34390898Y-47656903D01*
X34256180Y-47455283D01*
X34084717Y-47283820D01*
X33883097Y-47149102D01*
X33659069Y-47056307D01*
X33421243Y-47009000D01*
X33178757Y-47009000D01*
X32940931Y-47056307D01*
X32716903Y-47149102D01*
X32515283Y-47283820D01*
X32343820Y-47455283D01*
X32209102Y-47656903D01*
X32116307Y-47880931D01*
X32069000Y-48118757D01*
X24426762Y-48118757D01*
X24930846Y-45933539D01*
X25255944Y-44850000D01*
X32067157Y-44850000D01*
X32067157Y-46550000D01*
X32074513Y-46624689D01*
X32096299Y-46696508D01*
X32131678Y-46762696D01*
X32179289Y-46820711D01*
X32237304Y-46868322D01*
X32303492Y-46903701D01*
X32375311Y-46925487D01*
X32450000Y-46932843D01*
X34150000Y-46932843D01*
X34224689Y-46925487D01*
X34296508Y-46903701D01*
X34362696Y-46868322D01*
X34420711Y-46820711D01*
X34468322Y-46762696D01*
X34503701Y-46696508D01*
X34525487Y-46624689D01*
X34532843Y-46550000D01*
X34532843Y-44850000D01*
X34525487Y-44775311D01*
X34503701Y-44703492D01*
X34468322Y-44637304D01*
X34420711Y-44579289D01*
X34362696Y-44531678D01*
X34296508Y-44496299D01*
X34224689Y-44474513D01*
X34150000Y-44467157D01*
X32450000Y-44467157D01*
X32375311Y-44474513D01*
X32303492Y-44496299D01*
X32237304Y-44531678D01*
X32179289Y-44579289D01*
X32131678Y-44637304D01*
X32096299Y-44703492D01*
X32074513Y-44775311D01*
X32067157Y-44850000D01*
X25255944Y-44850000D01*
X25633037Y-43593170D01*
X26485246Y-41303161D01*
X27483900Y-39073119D01*
X28624810Y-36912395D01*
X29090268Y-36154214D01*
X34984379Y-36154214D01*
X35062236Y-36389604D01*
X35312724Y-36514149D01*
X35582696Y-36587433D01*
X35861777Y-36606640D01*
X36139244Y-36571033D01*
X36404432Y-36481978D01*
X36577250Y-36389600D01*
X36654838Y-36153943D01*
X35819744Y-35318849D01*
X34984379Y-36154214D01*
X29090268Y-36154214D01*
X29714001Y-35138223D01*
X34393360Y-35138223D01*
X34412567Y-35417304D01*
X34485851Y-35687276D01*
X34610396Y-35937764D01*
X34845786Y-36015621D01*
X35681151Y-35180256D01*
X34846057Y-34345162D01*
X34610400Y-34422750D01*
X34518022Y-34595568D01*
X34428967Y-34860756D01*
X34393360Y-35138223D01*
X29714001Y-35138223D01*
X29903191Y-34830054D01*
X30343952Y-34206569D01*
X34984650Y-34206569D01*
X35819744Y-35041663D01*
X35833886Y-35027521D01*
X35972479Y-35166114D01*
X35958337Y-35180256D01*
X36793431Y-36015350D01*
X37029088Y-35937762D01*
X37121466Y-35764944D01*
X37210521Y-35499756D01*
X37246128Y-35222289D01*
X37226921Y-34943208D01*
X37153637Y-34673236D01*
X37060940Y-34486801D01*
X37256726Y-34567898D01*
X37494552Y-34615205D01*
X37737038Y-34615205D01*
X37974864Y-34567898D01*
X38198892Y-34475103D01*
X38400512Y-34340385D01*
X38571975Y-34168922D01*
X38706693Y-33967302D01*
X38799488Y-33743274D01*
X38823396Y-33623078D01*
X41019000Y-33623078D01*
X41019000Y-33776922D01*
X41049013Y-33927809D01*
X41107887Y-34069942D01*
X41193358Y-34197859D01*
X41302141Y-34306642D01*
X41430058Y-34392113D01*
X41572191Y-34450987D01*
X41723078Y-34481000D01*
X41876922Y-34481000D01*
X42027809Y-34450987D01*
X42169942Y-34392113D01*
X42297859Y-34306642D01*
X42298501Y-34306000D01*
X46717883Y-34306000D01*
X60394001Y-47982118D01*
X60394001Y-52036988D01*
X52381000Y-44023987D01*
X52381000Y-44023078D01*
X52350987Y-43872191D01*
X52292113Y-43730058D01*
X52206642Y-43602141D01*
X52097859Y-43493358D01*
X51969942Y-43407887D01*
X51827809Y-43349013D01*
X51676922Y-43319000D01*
X51523078Y-43319000D01*
X51372191Y-43349013D01*
X51230058Y-43407887D01*
X51102141Y-43493358D01*
X50993358Y-43602141D01*
X50907887Y-43730058D01*
X50849013Y-43872191D01*
X50819000Y-44023078D01*
X50819000Y-44176922D01*
X50849013Y-44327809D01*
X50907887Y-44469942D01*
X50993358Y-44597859D01*
X51102141Y-44706642D01*
X51230058Y-44792113D01*
X51372191Y-44850987D01*
X51523078Y-44881000D01*
X51523987Y-44881000D01*
X60394001Y-53751014D01*
X60394000Y-61070230D01*
X60391068Y-61100000D01*
X60394000Y-61129768D01*
X60394000Y-68801499D01*
X60393358Y-68802141D01*
X60307887Y-68930058D01*
X60249013Y-69072191D01*
X60219000Y-69223078D01*
X60219000Y-69376922D01*
X60249013Y-69527809D01*
X60307887Y-69669942D01*
X60393358Y-69797859D01*
X60502141Y-69906642D01*
X60630058Y-69992113D01*
X60772191Y-70050987D01*
X60923078Y-70081000D01*
X61076922Y-70081000D01*
X61227809Y-70050987D01*
X61369942Y-69992113D01*
X61497859Y-69906642D01*
X61498501Y-69906000D01*
X63948987Y-69906000D01*
X74350442Y-80307455D01*
X74369420Y-80330580D01*
X74392544Y-80349557D01*
X74461695Y-80406309D01*
X74542469Y-80449483D01*
X74566972Y-80462580D01*
X74681203Y-80497232D01*
X74770230Y-80506000D01*
X74770232Y-80506000D01*
X74800000Y-80508932D01*
X74829768Y-80506000D01*
X82470235Y-80506000D01*
X82500000Y-80508932D01*
X82529765Y-80506000D01*
X82529770Y-80506000D01*
X82618797Y-80497232D01*
X82733028Y-80462580D01*
X82838304Y-80406308D01*
X82930580Y-80330580D01*
X82949558Y-80307455D01*
X84207456Y-79049557D01*
X84230580Y-79030580D01*
X84253522Y-79002624D01*
X84306309Y-78938305D01*
X84362580Y-78833029D01*
X84370645Y-78806442D01*
X84397232Y-78718797D01*
X84406000Y-78629770D01*
X84406000Y-78629768D01*
X84408932Y-78600000D01*
X84406000Y-78570232D01*
X84406000Y-67098501D01*
X84406642Y-67097859D01*
X84492113Y-66969942D01*
X84550987Y-66827809D01*
X84581000Y-66676922D01*
X84581000Y-66676013D01*
X95176014Y-56081000D01*
X95176922Y-56081000D01*
X95327809Y-56050987D01*
X95469942Y-55992113D01*
X95597859Y-55906642D01*
X95706642Y-55797859D01*
X95792113Y-55669942D01*
X95850987Y-55527809D01*
X95881000Y-55376922D01*
X95881000Y-55223078D01*
X95850987Y-55072191D01*
X95792113Y-54930058D01*
X95706642Y-54802141D01*
X95597859Y-54693358D01*
X95469942Y-54607887D01*
X95327809Y-54549013D01*
X95176922Y-54519000D01*
X95023078Y-54519000D01*
X94872191Y-54549013D01*
X94730058Y-54607887D01*
X94602141Y-54693358D01*
X94493358Y-54802141D01*
X94407887Y-54930058D01*
X94349013Y-55072191D01*
X94319000Y-55223078D01*
X94319000Y-55223986D01*
X83723987Y-65819000D01*
X83723078Y-65819000D01*
X83572191Y-65849013D01*
X83430058Y-65907887D01*
X83302141Y-65993358D01*
X83193358Y-66102141D01*
X83107887Y-66230058D01*
X83049013Y-66372191D01*
X83019000Y-66523078D01*
X83019000Y-66676922D01*
X83049013Y-66827809D01*
X83107887Y-66969942D01*
X83193358Y-67097859D01*
X83194001Y-67098502D01*
X83194000Y-78348987D01*
X82248987Y-79294000D01*
X75051013Y-79294000D01*
X64649558Y-68892545D01*
X64630580Y-68869420D01*
X64538304Y-68793692D01*
X64433028Y-68737420D01*
X64318797Y-68702768D01*
X64229770Y-68694000D01*
X64229765Y-68694000D01*
X64200000Y-68691068D01*
X64170235Y-68694000D01*
X61606000Y-68694000D01*
X61606000Y-61351013D01*
X69876014Y-53081000D01*
X69876922Y-53081000D01*
X70027809Y-53050987D01*
X70169942Y-52992113D01*
X70297859Y-52906642D01*
X70406642Y-52797859D01*
X70492113Y-52669942D01*
X70502434Y-52645024D01*
X74794000Y-56936590D01*
X74794001Y-71475137D01*
X74794000Y-71475147D01*
X74794001Y-75001498D01*
X74693358Y-75102141D01*
X74607887Y-75230058D01*
X74549013Y-75372191D01*
X74519000Y-75523078D01*
X74519000Y-75676922D01*
X74549013Y-75827809D01*
X74607887Y-75969942D01*
X74693358Y-76097859D01*
X74802141Y-76206642D01*
X74930058Y-76292113D01*
X75072191Y-76350987D01*
X75223078Y-76381000D01*
X75376922Y-76381000D01*
X75527809Y-76350987D01*
X75669942Y-76292113D01*
X75797859Y-76206642D01*
X75906642Y-76097859D01*
X75992113Y-75969942D01*
X76050987Y-75827809D01*
X76081000Y-75676922D01*
X76081000Y-75523078D01*
X76068206Y-75458757D01*
X76669000Y-75458757D01*
X76669000Y-75701243D01*
X76716307Y-75939069D01*
X76809102Y-76163097D01*
X76943820Y-76364717D01*
X77115283Y-76536180D01*
X77316903Y-76670898D01*
X77540931Y-76763693D01*
X77778757Y-76811000D01*
X78021243Y-76811000D01*
X78259069Y-76763693D01*
X78483097Y-76670898D01*
X78684717Y-76536180D01*
X78856180Y-76364717D01*
X78990898Y-76163097D01*
X79070726Y-75970375D01*
X79106107Y-76087020D01*
X79230652Y-76337507D01*
X79401672Y-76558884D01*
X79612594Y-76742643D01*
X79855313Y-76881722D01*
X80120501Y-76970777D01*
X80342000Y-76859385D01*
X80342000Y-75678000D01*
X80538000Y-75678000D01*
X80538000Y-76859385D01*
X80759499Y-76970777D01*
X81024687Y-76881722D01*
X81267406Y-76742643D01*
X81478328Y-76558884D01*
X81649348Y-76337507D01*
X81773893Y-76087020D01*
X81830773Y-75899498D01*
X81719001Y-75678000D01*
X80538000Y-75678000D01*
X80342000Y-75678000D01*
X80322000Y-75678000D01*
X80322000Y-75482000D01*
X80342000Y-75482000D01*
X80342000Y-75462000D01*
X80538000Y-75462000D01*
X80538000Y-75482000D01*
X81719001Y-75482000D01*
X81830773Y-75260502D01*
X81773893Y-75072980D01*
X81649348Y-74822493D01*
X81478328Y-74601116D01*
X81267406Y-74417357D01*
X81024687Y-74278278D01*
X80827310Y-74211995D01*
X81023097Y-74130898D01*
X81224717Y-73996180D01*
X81396180Y-73824717D01*
X81530898Y-73623097D01*
X81623693Y-73399069D01*
X81671000Y-73161243D01*
X81671000Y-72918757D01*
X81623693Y-72680931D01*
X81530898Y-72456903D01*
X81396180Y-72255283D01*
X81224717Y-72083820D01*
X81023097Y-71949102D01*
X80799069Y-71856307D01*
X80561243Y-71809000D01*
X80318757Y-71809000D01*
X80080931Y-71856307D01*
X79856903Y-71949102D01*
X79655283Y-72083820D01*
X79483820Y-72255283D01*
X79349102Y-72456903D01*
X79256307Y-72680931D01*
X79209000Y-72918757D01*
X79209000Y-73161243D01*
X79256307Y-73399069D01*
X79349102Y-73623097D01*
X79483820Y-73824717D01*
X79655283Y-73996180D01*
X79856903Y-74130898D01*
X80052690Y-74211995D01*
X79855313Y-74278278D01*
X79612594Y-74417357D01*
X79401672Y-74601116D01*
X79230652Y-74822493D01*
X79106107Y-75072980D01*
X79070726Y-75189625D01*
X78990898Y-74996903D01*
X78856180Y-74795283D01*
X78684717Y-74623820D01*
X78483097Y-74489102D01*
X78259069Y-74396307D01*
X78021243Y-74349000D01*
X77778757Y-74349000D01*
X77540931Y-74396307D01*
X77316903Y-74489102D01*
X77115283Y-74623820D01*
X76943820Y-74795283D01*
X76809102Y-74996903D01*
X76716307Y-75220931D01*
X76669000Y-75458757D01*
X76068206Y-75458757D01*
X76050987Y-75372191D01*
X75992113Y-75230058D01*
X75906642Y-75102141D01*
X75806000Y-75001499D01*
X75806000Y-72918757D01*
X76669000Y-72918757D01*
X76669000Y-73161243D01*
X76716307Y-73399069D01*
X76809102Y-73623097D01*
X76943820Y-73824717D01*
X77115283Y-73996180D01*
X77316903Y-74130898D01*
X77540931Y-74223693D01*
X77778757Y-74271000D01*
X78021243Y-74271000D01*
X78259069Y-74223693D01*
X78483097Y-74130898D01*
X78684717Y-73996180D01*
X78856180Y-73824717D01*
X78990898Y-73623097D01*
X79083693Y-73399069D01*
X79131000Y-73161243D01*
X79131000Y-72918757D01*
X79083693Y-72680931D01*
X78990898Y-72456903D01*
X78856180Y-72255283D01*
X78684717Y-72083820D01*
X78483097Y-71949102D01*
X78259069Y-71856307D01*
X78021243Y-71809000D01*
X77778757Y-71809000D01*
X77540931Y-71856307D01*
X77316903Y-71949102D01*
X77115283Y-72083820D01*
X76943820Y-72255283D01*
X76809102Y-72456903D01*
X76716307Y-72680931D01*
X76669000Y-72918757D01*
X75806000Y-72918757D01*
X75806000Y-69650000D01*
X76667157Y-69650000D01*
X76667157Y-71350000D01*
X76674513Y-71424689D01*
X76696299Y-71496508D01*
X76731678Y-71562696D01*
X76779289Y-71620711D01*
X76837304Y-71668322D01*
X76903492Y-71703701D01*
X76975311Y-71725487D01*
X77050000Y-71732843D01*
X78750000Y-71732843D01*
X78824689Y-71725487D01*
X78896508Y-71703701D01*
X78962696Y-71668322D01*
X79020711Y-71620711D01*
X79068322Y-71562696D01*
X79103701Y-71496508D01*
X79125487Y-71424689D01*
X79132843Y-71350000D01*
X79132843Y-70378757D01*
X79209000Y-70378757D01*
X79209000Y-70621243D01*
X79256307Y-70859069D01*
X79349102Y-71083097D01*
X79483820Y-71284717D01*
X79655283Y-71456180D01*
X79856903Y-71590898D01*
X80080931Y-71683693D01*
X80318757Y-71731000D01*
X80561243Y-71731000D01*
X80799069Y-71683693D01*
X81023097Y-71590898D01*
X81224717Y-71456180D01*
X81396180Y-71284717D01*
X81530898Y-71083097D01*
X81623693Y-70859069D01*
X81671000Y-70621243D01*
X81671000Y-70378757D01*
X81623693Y-70140931D01*
X81530898Y-69916903D01*
X81396180Y-69715283D01*
X81224717Y-69543820D01*
X81023097Y-69409102D01*
X80799069Y-69316307D01*
X80561243Y-69269000D01*
X80318757Y-69269000D01*
X80080931Y-69316307D01*
X79856903Y-69409102D01*
X79655283Y-69543820D01*
X79483820Y-69715283D01*
X79349102Y-69916903D01*
X79256307Y-70140931D01*
X79209000Y-70378757D01*
X79132843Y-70378757D01*
X79132843Y-69650000D01*
X79125487Y-69575311D01*
X79103701Y-69503492D01*
X79068322Y-69437304D01*
X79020711Y-69379289D01*
X78962696Y-69331678D01*
X78896508Y-69296299D01*
X78824689Y-69274513D01*
X78750000Y-69267157D01*
X77050000Y-69267157D01*
X76975311Y-69274513D01*
X76903492Y-69296299D01*
X76837304Y-69331678D01*
X76779289Y-69379289D01*
X76731678Y-69437304D01*
X76696299Y-69503492D01*
X76674513Y-69575311D01*
X76667157Y-69650000D01*
X75806000Y-69650000D01*
X75806000Y-56751843D01*
X75808447Y-56726997D01*
X75806000Y-56702151D01*
X75806000Y-56702144D01*
X75798678Y-56627805D01*
X75769745Y-56532423D01*
X75722759Y-56444519D01*
X75659527Y-56367471D01*
X75640220Y-56351626D01*
X72938594Y-53650000D01*
X90170208Y-53650000D01*
X90181349Y-53763112D01*
X90214342Y-53871877D01*
X90267921Y-53972115D01*
X90340025Y-54059975D01*
X90427885Y-54132079D01*
X90528123Y-54185658D01*
X90636888Y-54218651D01*
X90750000Y-54229792D01*
X91067038Y-54228336D01*
X91016903Y-54249102D01*
X90815283Y-54383820D01*
X90643820Y-54555283D01*
X90509102Y-54756903D01*
X90416307Y-54980931D01*
X90369000Y-55218757D01*
X90369000Y-55461243D01*
X90416307Y-55699069D01*
X90509102Y-55923097D01*
X90643820Y-56124717D01*
X90815283Y-56296180D01*
X91016903Y-56430898D01*
X91240931Y-56523693D01*
X91478757Y-56571000D01*
X91721243Y-56571000D01*
X91959069Y-56523693D01*
X92183097Y-56430898D01*
X92384717Y-56296180D01*
X92556180Y-56124717D01*
X92690898Y-55923097D01*
X92783693Y-55699069D01*
X92831000Y-55461243D01*
X92831000Y-55218757D01*
X92783693Y-54980931D01*
X92690898Y-54756903D01*
X92556180Y-54555283D01*
X92384717Y-54383820D01*
X92183097Y-54249102D01*
X92132962Y-54228336D01*
X92450000Y-54229792D01*
X92563112Y-54218651D01*
X92671877Y-54185658D01*
X92772115Y-54132079D01*
X92859975Y-54059975D01*
X92932079Y-53972115D01*
X92985658Y-53871877D01*
X93018651Y-53763112D01*
X93029792Y-53650000D01*
X93027000Y-53042250D01*
X92882750Y-52898000D01*
X91698000Y-52898000D01*
X91698000Y-52918000D01*
X91502000Y-52918000D01*
X91502000Y-52898000D01*
X90317250Y-52898000D01*
X90173000Y-53042250D01*
X90170208Y-53650000D01*
X72938594Y-53650000D01*
X71238594Y-51950000D01*
X90170208Y-51950000D01*
X90173000Y-52557750D01*
X90317250Y-52702000D01*
X91502000Y-52702000D01*
X91502000Y-51517250D01*
X91698000Y-51517250D01*
X91698000Y-52702000D01*
X92882750Y-52702000D01*
X93027000Y-52557750D01*
X93029792Y-51950000D01*
X93018651Y-51836888D01*
X92985658Y-51728123D01*
X92932079Y-51627885D01*
X92859975Y-51540025D01*
X92772115Y-51467921D01*
X92671877Y-51414342D01*
X92563112Y-51381349D01*
X92450000Y-51370208D01*
X91842250Y-51373000D01*
X91698000Y-51517250D01*
X91502000Y-51517250D01*
X91357750Y-51373000D01*
X90750000Y-51370208D01*
X90636888Y-51381349D01*
X90528123Y-51414342D01*
X90427885Y-51467921D01*
X90340025Y-51540025D01*
X90267921Y-51627885D01*
X90214342Y-51728123D01*
X90181349Y-51836888D01*
X90170208Y-51950000D01*
X71238594Y-51950000D01*
X65948378Y-46659785D01*
X65932529Y-46640473D01*
X65855481Y-46577241D01*
X65767577Y-46530255D01*
X65672195Y-46501322D01*
X65597856Y-46494000D01*
X65597848Y-46494000D01*
X65573002Y-46491553D01*
X65548156Y-46494000D01*
X62598501Y-46494000D01*
X62497859Y-46393358D01*
X62369942Y-46307887D01*
X62227809Y-46249013D01*
X62076922Y-46219000D01*
X61923078Y-46219000D01*
X61772191Y-46249013D01*
X61630058Y-46307887D01*
X61606000Y-46323962D01*
X61606000Y-40951013D01*
X62776014Y-39781000D01*
X62776922Y-39781000D01*
X62927809Y-39750987D01*
X63069942Y-39692113D01*
X63197859Y-39606642D01*
X63306642Y-39497859D01*
X63392113Y-39369942D01*
X63450987Y-39227809D01*
X63481000Y-39076922D01*
X63481000Y-38923078D01*
X63450987Y-38772191D01*
X63392113Y-38630058D01*
X63306642Y-38502141D01*
X63197859Y-38393358D01*
X63069942Y-38307887D01*
X62927809Y-38249013D01*
X62776922Y-38219000D01*
X62623078Y-38219000D01*
X62472191Y-38249013D01*
X62330058Y-38307887D01*
X62202141Y-38393358D01*
X62093358Y-38502141D01*
X62007887Y-38630058D01*
X61949013Y-38772191D01*
X61919000Y-38923078D01*
X61919000Y-38923986D01*
X60592540Y-40250447D01*
X60569421Y-40269420D01*
X60550448Y-40292539D01*
X60550443Y-40292544D01*
X60493692Y-40361696D01*
X60437421Y-40466972D01*
X60402769Y-40581203D01*
X60396767Y-40642149D01*
X60391068Y-40700000D01*
X60394001Y-40729775D01*
X60394001Y-46268092D01*
X49725909Y-35600000D01*
X86315075Y-35600000D01*
X86322431Y-35674689D01*
X86344217Y-35746508D01*
X86379596Y-35812696D01*
X86427207Y-35870711D01*
X87629289Y-37072793D01*
X87687304Y-37120404D01*
X87753492Y-37155783D01*
X87825311Y-37177569D01*
X87900000Y-37184925D01*
X87974689Y-37177569D01*
X88046508Y-37155783D01*
X88112696Y-37120404D01*
X88170711Y-37072793D01*
X89372793Y-35870711D01*
X89420404Y-35812696D01*
X89455783Y-35746508D01*
X89477569Y-35674689D01*
X89484925Y-35600000D01*
X89477569Y-35525311D01*
X89455783Y-35453492D01*
X89420404Y-35387304D01*
X89372793Y-35329289D01*
X88170711Y-34127207D01*
X88112696Y-34079596D01*
X88046508Y-34044217D01*
X87974689Y-34022431D01*
X87900000Y-34015075D01*
X87825311Y-34022431D01*
X87753492Y-34044217D01*
X87687304Y-34079596D01*
X87629289Y-34127207D01*
X86427207Y-35329289D01*
X86379596Y-35387304D01*
X86344217Y-35453492D01*
X86322431Y-35525311D01*
X86315075Y-35600000D01*
X49725909Y-35600000D01*
X47808615Y-33682706D01*
X84872949Y-33682706D01*
X84872949Y-33925192D01*
X84920256Y-34163018D01*
X85013051Y-34387046D01*
X85147769Y-34588666D01*
X85319232Y-34760129D01*
X85520852Y-34894847D01*
X85744880Y-34987642D01*
X85982706Y-35034949D01*
X86225192Y-35034949D01*
X86463018Y-34987642D01*
X86687046Y-34894847D01*
X86888666Y-34760129D01*
X87060129Y-34588666D01*
X87194847Y-34387046D01*
X87287642Y-34163018D01*
X87334949Y-33925192D01*
X87334949Y-33682706D01*
X87287642Y-33444880D01*
X87194847Y-33220852D01*
X87060129Y-33019232D01*
X86888666Y-32847769D01*
X86687046Y-32713051D01*
X86463018Y-32620256D01*
X86225192Y-32572949D01*
X85982706Y-32572949D01*
X85744880Y-32620256D01*
X85520852Y-32713051D01*
X85319232Y-32847769D01*
X85147769Y-33019232D01*
X85013051Y-33220852D01*
X84920256Y-33444880D01*
X84872949Y-33682706D01*
X47808615Y-33682706D01*
X47418454Y-33292545D01*
X47399476Y-33269420D01*
X47307200Y-33193692D01*
X47201924Y-33137420D01*
X47087693Y-33102768D01*
X46998666Y-33094000D01*
X46998661Y-33094000D01*
X46968896Y-33091068D01*
X46939131Y-33094000D01*
X42298501Y-33094000D01*
X42297859Y-33093358D01*
X42169942Y-33007887D01*
X42027809Y-32949013D01*
X41876922Y-32919000D01*
X41723078Y-32919000D01*
X41572191Y-32949013D01*
X41430058Y-33007887D01*
X41302141Y-33093358D01*
X41193358Y-33202141D01*
X41107887Y-33330058D01*
X41049013Y-33472191D01*
X41019000Y-33623078D01*
X38823396Y-33623078D01*
X38846795Y-33505448D01*
X38846795Y-33262962D01*
X38799488Y-33025136D01*
X38706693Y-32801108D01*
X38571975Y-32599488D01*
X38400512Y-32428025D01*
X38198892Y-32293307D01*
X37974864Y-32200512D01*
X37737038Y-32153205D01*
X37494552Y-32153205D01*
X37256726Y-32200512D01*
X37032698Y-32293307D01*
X36831078Y-32428025D01*
X36659615Y-32599488D01*
X36524897Y-32801108D01*
X36432102Y-33025136D01*
X36384795Y-33262962D01*
X36384795Y-33505448D01*
X36432102Y-33743274D01*
X36513199Y-33939060D01*
X36326764Y-33846363D01*
X36056792Y-33773079D01*
X35777711Y-33753872D01*
X35500244Y-33789479D01*
X35235056Y-33878534D01*
X35062238Y-33970912D01*
X34984650Y-34206569D01*
X30343952Y-34206569D01*
X31313680Y-32834830D01*
X32420176Y-31466911D01*
X38180846Y-31466911D01*
X38180846Y-31709397D01*
X38228153Y-31947223D01*
X38320948Y-32171251D01*
X38455666Y-32372871D01*
X38627129Y-32544334D01*
X38828749Y-32679052D01*
X39052777Y-32771847D01*
X39290603Y-32819154D01*
X39533089Y-32819154D01*
X39770915Y-32771847D01*
X39994943Y-32679052D01*
X40196563Y-32544334D01*
X40368026Y-32372871D01*
X40502744Y-32171251D01*
X40595539Y-31947223D01*
X40607586Y-31886655D01*
X83076898Y-31886655D01*
X83076898Y-32129141D01*
X83124205Y-32366967D01*
X83217000Y-32590995D01*
X83351718Y-32792615D01*
X83523181Y-32964078D01*
X83724801Y-33098796D01*
X83948829Y-33191591D01*
X84186655Y-33238898D01*
X84429141Y-33238898D01*
X84666967Y-33191591D01*
X84890995Y-33098796D01*
X85092615Y-32964078D01*
X85264078Y-32792615D01*
X85398796Y-32590995D01*
X85491591Y-32366967D01*
X85538898Y-32129141D01*
X85538898Y-31886655D01*
X85491591Y-31648829D01*
X85398796Y-31424801D01*
X85264078Y-31223181D01*
X85092615Y-31051718D01*
X84890995Y-30917000D01*
X84666967Y-30824205D01*
X84429141Y-30776898D01*
X84186655Y-30776898D01*
X83948829Y-30824205D01*
X83724801Y-30917000D01*
X83523181Y-31051718D01*
X83351718Y-31223181D01*
X83217000Y-31424801D01*
X83124205Y-31648829D01*
X83076898Y-31886655D01*
X40607586Y-31886655D01*
X40642846Y-31709397D01*
X40642846Y-31466911D01*
X40595539Y-31229085D01*
X40502744Y-31005057D01*
X40368026Y-30803437D01*
X40196563Y-30631974D01*
X39994943Y-30497256D01*
X39770915Y-30404461D01*
X39533089Y-30357154D01*
X39290603Y-30357154D01*
X39052777Y-30404461D01*
X38828749Y-30497256D01*
X38627129Y-30631974D01*
X38455666Y-30803437D01*
X38320948Y-31005057D01*
X38228153Y-31229085D01*
X38180846Y-31466911D01*
X32420176Y-31466911D01*
X32850361Y-30935090D01*
X34016160Y-29670859D01*
X39976898Y-29670859D01*
X39976898Y-29913345D01*
X40024205Y-30151171D01*
X40117000Y-30375199D01*
X40251718Y-30576819D01*
X40423181Y-30748282D01*
X40624801Y-30883000D01*
X40848829Y-30975795D01*
X41086655Y-31023102D01*
X41329141Y-31023102D01*
X41566967Y-30975795D01*
X41790995Y-30883000D01*
X41992615Y-30748282D01*
X42164078Y-30576819D01*
X42298796Y-30375199D01*
X42391591Y-30151171D01*
X42403638Y-30090603D01*
X81280846Y-30090603D01*
X81280846Y-30333089D01*
X81328153Y-30570915D01*
X81420948Y-30794943D01*
X81555666Y-30996563D01*
X81727129Y-31168026D01*
X81928749Y-31302744D01*
X82152777Y-31395539D01*
X82390603Y-31442846D01*
X82633089Y-31442846D01*
X82870915Y-31395539D01*
X83094943Y-31302744D01*
X83296563Y-31168026D01*
X83468026Y-30996563D01*
X83602744Y-30794943D01*
X83695539Y-30570915D01*
X83742846Y-30333089D01*
X83742846Y-30090603D01*
X83695539Y-29852777D01*
X83602744Y-29628749D01*
X83468026Y-29427129D01*
X83296563Y-29255666D01*
X83094943Y-29120948D01*
X82870915Y-29028153D01*
X82633089Y-28980846D01*
X82390603Y-28980846D01*
X82152777Y-29028153D01*
X81928749Y-29120948D01*
X81727129Y-29255666D01*
X81555666Y-29427129D01*
X81420948Y-29628749D01*
X81328153Y-29852777D01*
X81280846Y-30090603D01*
X42403638Y-30090603D01*
X42438898Y-29913345D01*
X42438898Y-29670859D01*
X42391591Y-29433033D01*
X42298796Y-29209005D01*
X42164078Y-29007385D01*
X41992615Y-28835922D01*
X41790995Y-28701204D01*
X41566967Y-28608409D01*
X41329141Y-28561102D01*
X41086655Y-28561102D01*
X40848829Y-28608409D01*
X40624801Y-28701204D01*
X40423181Y-28835922D01*
X40251718Y-29007385D01*
X40117000Y-29209005D01*
X40024205Y-29433033D01*
X39976898Y-29670859D01*
X34016160Y-29670859D01*
X34506790Y-29138804D01*
X35833733Y-27874808D01*
X41772949Y-27874808D01*
X41772949Y-28117294D01*
X41820256Y-28355120D01*
X41913051Y-28579148D01*
X42047769Y-28780768D01*
X42219232Y-28952231D01*
X42420852Y-29086949D01*
X42644880Y-29179744D01*
X42882706Y-29227051D01*
X43125192Y-29227051D01*
X43363018Y-29179744D01*
X43587046Y-29086949D01*
X43788666Y-28952231D01*
X43960129Y-28780768D01*
X44094847Y-28579148D01*
X44187642Y-28355120D01*
X44199689Y-28294552D01*
X79484795Y-28294552D01*
X79484795Y-28537038D01*
X79532102Y-28774864D01*
X79624897Y-28998892D01*
X79759615Y-29200512D01*
X79931078Y-29371975D01*
X80132698Y-29506693D01*
X80356726Y-29599488D01*
X80594552Y-29646795D01*
X80837038Y-29646795D01*
X81074864Y-29599488D01*
X81298892Y-29506693D01*
X81500512Y-29371975D01*
X81671975Y-29200512D01*
X81806693Y-28998892D01*
X81899488Y-28774864D01*
X81946795Y-28537038D01*
X81946795Y-28294552D01*
X81899488Y-28056726D01*
X81806693Y-27832698D01*
X81671975Y-27631078D01*
X81500512Y-27459615D01*
X81298892Y-27324897D01*
X81074864Y-27232102D01*
X80837038Y-27184795D01*
X80594552Y-27184795D01*
X80356726Y-27232102D01*
X80132698Y-27324897D01*
X79931078Y-27459615D01*
X79759615Y-27631078D01*
X79624897Y-27832698D01*
X79532102Y-28056726D01*
X79484795Y-28294552D01*
X44199689Y-28294552D01*
X44234949Y-28117294D01*
X44234949Y-27874808D01*
X44187642Y-27636982D01*
X44094847Y-27412954D01*
X43960129Y-27211334D01*
X43788666Y-27039871D01*
X43587046Y-26905153D01*
X43363018Y-26812358D01*
X43125192Y-26765051D01*
X42882706Y-26765051D01*
X42644880Y-26812358D01*
X42420852Y-26905153D01*
X42219232Y-27039871D01*
X42047769Y-27211334D01*
X41913051Y-27412954D01*
X41820256Y-27636982D01*
X41772949Y-27874808D01*
X35833733Y-27874808D01*
X36276018Y-27453505D01*
X37775357Y-26200000D01*
X43215075Y-26200000D01*
X43222431Y-26274689D01*
X43244217Y-26346508D01*
X43279596Y-26412696D01*
X43327207Y-26470711D01*
X44529289Y-27672793D01*
X44587304Y-27720404D01*
X44653492Y-27755783D01*
X44725311Y-27777569D01*
X44800000Y-27784925D01*
X44874689Y-27777569D01*
X44946508Y-27755783D01*
X45012696Y-27720404D01*
X45070711Y-27672793D01*
X46245003Y-26498501D01*
X77688744Y-26498501D01*
X77688744Y-26740987D01*
X77736051Y-26978813D01*
X77828846Y-27202841D01*
X77963564Y-27404461D01*
X78135027Y-27575924D01*
X78336647Y-27710642D01*
X78560675Y-27803437D01*
X78798501Y-27850744D01*
X79040987Y-27850744D01*
X79278813Y-27803437D01*
X79502841Y-27710642D01*
X79704461Y-27575924D01*
X79875924Y-27404461D01*
X80010642Y-27202841D01*
X80103437Y-26978813D01*
X80150744Y-26740987D01*
X80150744Y-26498501D01*
X80103437Y-26260675D01*
X80010642Y-26036647D01*
X79875924Y-25835027D01*
X79704461Y-25663564D01*
X79502841Y-25528846D01*
X79278813Y-25436051D01*
X79040987Y-25388744D01*
X78798501Y-25388744D01*
X78560675Y-25436051D01*
X78336647Y-25528846D01*
X78135027Y-25663564D01*
X77963564Y-25835027D01*
X77828846Y-26036647D01*
X77736051Y-26260675D01*
X77688744Y-26498501D01*
X46245003Y-26498501D01*
X46272793Y-26470711D01*
X46320404Y-26412696D01*
X46355783Y-26346508D01*
X46377569Y-26274689D01*
X46384925Y-26200000D01*
X46377569Y-26125311D01*
X46355783Y-26053492D01*
X46320404Y-25987304D01*
X46272793Y-25929289D01*
X45070711Y-24727207D01*
X45012696Y-24679596D01*
X44946508Y-24644217D01*
X44874689Y-24622431D01*
X44800000Y-24615075D01*
X44725311Y-24622431D01*
X44653492Y-24644217D01*
X44587304Y-24679596D01*
X44529289Y-24727207D01*
X43327207Y-25929289D01*
X43279596Y-25987304D01*
X43244217Y-26053492D01*
X43222431Y-26125311D01*
X43215075Y-26200000D01*
X37775357Y-26200000D01*
X38150625Y-25886262D01*
X40122748Y-24443650D01*
X42184115Y-23131717D01*
X44326080Y-21955968D01*
X46539659Y-20921334D01*
X48815567Y-20032154D01*
X51144259Y-19292158D01*
X53515968Y-18704449D01*
X55920744Y-18271494D01*
X58348502Y-17995107D01*
X60789060Y-17876448D01*
X63232180Y-17916015D01*
%TD*%
M02*
