%TF.GenerationSoftware,KiCad,Pcbnew,(5.1.6-0-10_14)*%
%TF.CreationDate,2020-08-15T13:55:16+01:00*%
%TF.ProjectId,arduino,61726475-696e-46f2-9e6b-696361645f70,rev?*%
%TF.SameCoordinates,Original*%
%TF.FileFunction,Paste,Top*%
%TF.FilePolarity,Positive*%
%FSLAX46Y46*%
G04 Gerber Fmt 4.6, Leading zero omitted, Abs format (unit mm)*
G04 Created by KiCad (PCBNEW (5.1.6-0-10_14)) date 2020-08-15 13:55:16*
%MOMM*%
%LPD*%
G01*
G04 APERTURE LIST*
%ADD10R,1.500000X1.800000*%
%ADD11R,1.200000X1.200000*%
%ADD12R,1.700000X1.000000*%
%ADD13R,0.550000X1.500000*%
%ADD14R,1.500000X0.550000*%
%ADD15R,3.800000X2.000000*%
%ADD16R,1.500000X2.000000*%
%ADD17C,0.100000*%
G04 APERTURE END LIST*
%TO.C,C1*%
G36*
G01*
X50125000Y-52349999D02*
X50125000Y-53250001D01*
G75*
G02*
X49875001Y-53500000I-249999J0D01*
G01*
X49224999Y-53500000D01*
G75*
G02*
X48975000Y-53250001I0J249999D01*
G01*
X48975000Y-52349999D01*
G75*
G02*
X49224999Y-52100000I249999J0D01*
G01*
X49875001Y-52100000D01*
G75*
G02*
X50125000Y-52349999I0J-249999D01*
G01*
G37*
G36*
G01*
X52175000Y-52349999D02*
X52175000Y-53250001D01*
G75*
G02*
X51925001Y-53500000I-249999J0D01*
G01*
X51274999Y-53500000D01*
G75*
G02*
X51025000Y-53250001I0J249999D01*
G01*
X51025000Y-52349999D01*
G75*
G02*
X51274999Y-52100000I249999J0D01*
G01*
X51925001Y-52100000D01*
G75*
G02*
X52175000Y-52349999I0J-249999D01*
G01*
G37*
%TD*%
%TO.C,C2*%
G36*
G01*
X52275000Y-60949999D02*
X52275000Y-61850001D01*
G75*
G02*
X52025001Y-62100000I-249999J0D01*
G01*
X51374999Y-62100000D01*
G75*
G02*
X51125000Y-61850001I0J249999D01*
G01*
X51125000Y-60949999D01*
G75*
G02*
X51374999Y-60700000I249999J0D01*
G01*
X52025001Y-60700000D01*
G75*
G02*
X52275000Y-60949999I0J-249999D01*
G01*
G37*
G36*
G01*
X50225000Y-60949999D02*
X50225000Y-61850001D01*
G75*
G02*
X49975001Y-62100000I-249999J0D01*
G01*
X49324999Y-62100000D01*
G75*
G02*
X49075000Y-61850001I0J249999D01*
G01*
X49075000Y-60949999D01*
G75*
G02*
X49324999Y-60700000I249999J0D01*
G01*
X49975001Y-60700000D01*
G75*
G02*
X50225000Y-60949999I0J-249999D01*
G01*
G37*
%TD*%
%TO.C,C3*%
G36*
G01*
X61450001Y-73725000D02*
X60549999Y-73725000D01*
G75*
G02*
X60300000Y-73475001I0J249999D01*
G01*
X60300000Y-72824999D01*
G75*
G02*
X60549999Y-72575000I249999J0D01*
G01*
X61450001Y-72575000D01*
G75*
G02*
X61700000Y-72824999I0J-249999D01*
G01*
X61700000Y-73475001D01*
G75*
G02*
X61450001Y-73725000I-249999J0D01*
G01*
G37*
G36*
G01*
X61450001Y-75775000D02*
X60549999Y-75775000D01*
G75*
G02*
X60300000Y-75525001I0J249999D01*
G01*
X60300000Y-74874999D01*
G75*
G02*
X60549999Y-74625000I249999J0D01*
G01*
X61450001Y-74625000D01*
G75*
G02*
X61700000Y-74874999I0J-249999D01*
G01*
X61700000Y-75525001D01*
G75*
G02*
X61450001Y-75775000I-249999J0D01*
G01*
G37*
%TD*%
%TO.C,C4*%
G36*
G01*
X72525000Y-56049999D02*
X72525000Y-56950001D01*
G75*
G02*
X72275001Y-57200000I-249999J0D01*
G01*
X71624999Y-57200000D01*
G75*
G02*
X71375000Y-56950001I0J249999D01*
G01*
X71375000Y-56049999D01*
G75*
G02*
X71624999Y-55800000I249999J0D01*
G01*
X72275001Y-55800000D01*
G75*
G02*
X72525000Y-56049999I0J-249999D01*
G01*
G37*
G36*
G01*
X70475000Y-56049999D02*
X70475000Y-56950001D01*
G75*
G02*
X70225001Y-57200000I-249999J0D01*
G01*
X69574999Y-57200000D01*
G75*
G02*
X69325000Y-56950001I0J249999D01*
G01*
X69325000Y-56049999D01*
G75*
G02*
X69574999Y-55800000I249999J0D01*
G01*
X70225001Y-55800000D01*
G75*
G02*
X70475000Y-56049999I0J-249999D01*
G01*
G37*
%TD*%
%TO.C,C5*%
G36*
G01*
X51075000Y-49450001D02*
X51075000Y-48549999D01*
G75*
G02*
X51324999Y-48300000I249999J0D01*
G01*
X51975001Y-48300000D01*
G75*
G02*
X52225000Y-48549999I0J-249999D01*
G01*
X52225000Y-49450001D01*
G75*
G02*
X51975001Y-49700000I-249999J0D01*
G01*
X51324999Y-49700000D01*
G75*
G02*
X51075000Y-49450001I0J249999D01*
G01*
G37*
G36*
G01*
X49025000Y-49450001D02*
X49025000Y-48549999D01*
G75*
G02*
X49274999Y-48300000I249999J0D01*
G01*
X49925001Y-48300000D01*
G75*
G02*
X50175000Y-48549999I0J-249999D01*
G01*
X50175000Y-49450001D01*
G75*
G02*
X49925001Y-49700000I-249999J0D01*
G01*
X49274999Y-49700000D01*
G75*
G02*
X49025000Y-49450001I0J249999D01*
G01*
G37*
%TD*%
%TO.C,C6*%
G36*
G01*
X41049999Y-73925000D02*
X41950001Y-73925000D01*
G75*
G02*
X42200000Y-74174999I0J-249999D01*
G01*
X42200000Y-74825001D01*
G75*
G02*
X41950001Y-75075000I-249999J0D01*
G01*
X41049999Y-75075000D01*
G75*
G02*
X40800000Y-74825001I0J249999D01*
G01*
X40800000Y-74174999D01*
G75*
G02*
X41049999Y-73925000I249999J0D01*
G01*
G37*
G36*
G01*
X41049999Y-75975000D02*
X41950001Y-75975000D01*
G75*
G02*
X42200000Y-76224999I0J-249999D01*
G01*
X42200000Y-76875001D01*
G75*
G02*
X41950001Y-77125000I-249999J0D01*
G01*
X41049999Y-77125000D01*
G75*
G02*
X40800000Y-76875001I0J249999D01*
G01*
X40800000Y-76224999D01*
G75*
G02*
X41049999Y-75975000I249999J0D01*
G01*
G37*
%TD*%
%TO.C,C7*%
G36*
G01*
X52225000Y-46249999D02*
X52225000Y-47150001D01*
G75*
G02*
X51975001Y-47400000I-249999J0D01*
G01*
X51324999Y-47400000D01*
G75*
G02*
X51075000Y-47150001I0J249999D01*
G01*
X51075000Y-46249999D01*
G75*
G02*
X51324999Y-46000000I249999J0D01*
G01*
X51975001Y-46000000D01*
G75*
G02*
X52225000Y-46249999I0J-249999D01*
G01*
G37*
G36*
G01*
X50175000Y-46249999D02*
X50175000Y-47150001D01*
G75*
G02*
X49925001Y-47400000I-249999J0D01*
G01*
X49274999Y-47400000D01*
G75*
G02*
X49025000Y-47150001I0J249999D01*
G01*
X49025000Y-46249999D01*
G75*
G02*
X49274999Y-46000000I249999J0D01*
G01*
X49925001Y-46000000D01*
G75*
G02*
X50175000Y-46249999I0J-249999D01*
G01*
G37*
%TD*%
%TO.C,C8*%
G36*
G01*
X71375000Y-54950001D02*
X71375000Y-54049999D01*
G75*
G02*
X71624999Y-53800000I249999J0D01*
G01*
X72275001Y-53800000D01*
G75*
G02*
X72525000Y-54049999I0J-249999D01*
G01*
X72525000Y-54950001D01*
G75*
G02*
X72275001Y-55200000I-249999J0D01*
G01*
X71624999Y-55200000D01*
G75*
G02*
X71375000Y-54950001I0J249999D01*
G01*
G37*
G36*
G01*
X69325000Y-54950001D02*
X69325000Y-54049999D01*
G75*
G02*
X69574999Y-53800000I249999J0D01*
G01*
X70225001Y-53800000D01*
G75*
G02*
X70475000Y-54049999I0J-249999D01*
G01*
X70475000Y-54950001D01*
G75*
G02*
X70225001Y-55200000I-249999J0D01*
G01*
X69574999Y-55200000D01*
G75*
G02*
X69325000Y-54950001I0J249999D01*
G01*
G37*
%TD*%
%TO.C,C9*%
G36*
G01*
X66350001Y-45100000D02*
X65449999Y-45100000D01*
G75*
G02*
X65200000Y-44850001I0J249999D01*
G01*
X65200000Y-44199999D01*
G75*
G02*
X65449999Y-43950000I249999J0D01*
G01*
X66350001Y-43950000D01*
G75*
G02*
X66600000Y-44199999I0J-249999D01*
G01*
X66600000Y-44850001D01*
G75*
G02*
X66350001Y-45100000I-249999J0D01*
G01*
G37*
G36*
G01*
X66350001Y-43050000D02*
X65449999Y-43050000D01*
G75*
G02*
X65200000Y-42800001I0J249999D01*
G01*
X65200000Y-42149999D01*
G75*
G02*
X65449999Y-41900000I249999J0D01*
G01*
X66350001Y-41900000D01*
G75*
G02*
X66600000Y-42149999I0J-249999D01*
G01*
X66600000Y-42800001D01*
G75*
G02*
X66350001Y-43050000I-249999J0D01*
G01*
G37*
%TD*%
D10*
%TO.C,D1*%
X70000000Y-64000000D03*
X73600000Y-64000000D03*
%TD*%
D11*
%TO.C,R1*%
X69900000Y-61500000D03*
X72000000Y-61500000D03*
%TD*%
%TO.C,R2*%
X62650000Y-41900000D03*
X60550000Y-41900000D03*
%TD*%
D12*
%TO.C,SW1*%
X58050000Y-22500000D03*
X64350000Y-22500000D03*
X58050000Y-26300000D03*
X64350000Y-26300000D03*
%TD*%
D13*
%TO.C,U1*%
X58800000Y-58900000D03*
D14*
X57400000Y-51900000D03*
X57400000Y-52700000D03*
X57400000Y-53500000D03*
X57400000Y-54300000D03*
X57400000Y-55100000D03*
X57400000Y-55900000D03*
X57400000Y-56700000D03*
X57400000Y-57500000D03*
D13*
X59600000Y-58900000D03*
X60400000Y-58900000D03*
X61200000Y-58900000D03*
X62000000Y-58900000D03*
X62800000Y-58900000D03*
X63600000Y-58900000D03*
X64400000Y-58900000D03*
D14*
X65800000Y-57500000D03*
X65800000Y-56700000D03*
X65800000Y-55900000D03*
X65800000Y-55100000D03*
X65800000Y-54300000D03*
X65800000Y-53500000D03*
X65800000Y-52700000D03*
X65800000Y-51900000D03*
D13*
X64400000Y-50500000D03*
X63600000Y-50500000D03*
X62800000Y-50500000D03*
X62000000Y-50500000D03*
X61200000Y-50500000D03*
X60400000Y-50500000D03*
X59600000Y-50500000D03*
X58800000Y-50500000D03*
%TD*%
D15*
%TO.C,U2*%
X48800000Y-74450000D03*
D16*
X48800000Y-80750000D03*
X51100000Y-80750000D03*
X46500000Y-80750000D03*
%TD*%
D17*
%TO.C,Y1*%
G36*
X51047488Y-54878680D02*
G01*
X51896016Y-55727208D01*
X50906066Y-56717158D01*
X50057538Y-55868630D01*
X51047488Y-54878680D01*
G37*
G36*
X49491853Y-56434315D02*
G01*
X50340381Y-57282843D01*
X49350431Y-58272793D01*
X48501903Y-57424265D01*
X49491853Y-56434315D01*
G37*
G36*
X50693934Y-57636396D02*
G01*
X51542462Y-58484924D01*
X50552512Y-59474874D01*
X49703984Y-58626346D01*
X50693934Y-57636396D01*
G37*
G36*
X52249569Y-56080761D02*
G01*
X53098097Y-56929289D01*
X52108147Y-57919239D01*
X51259619Y-57070711D01*
X52249569Y-56080761D01*
G37*
%TD*%
M02*
