M48
; DRILL file {KiCad (5.1.6-0-10_14)} date Saturday, August 15, 2020 at 01:55:13 PM
; FORMAT={-:-/ absolute / inch / decimal}
; #@! TF.CreationDate,2020-08-15T13:55:13+01:00
; #@! TF.GenerationSoftware,Kicad,Pcbnew,(5.1.6-0-10_14)
FMAT,2
INCH
T1C0.0157
T2C0.0394
%
G90
G05
T1
X1.1102Y-2.0236
X1.1102Y-2.063
X1.1102Y-2.1024
X1.1102Y-2.1417
X1.1102Y-2.1811
X1.1102Y-2.2205
X1.1102Y-2.2598
X1.1102Y-2.2992
X1.1102Y-2.3386
X1.1102Y-2.378
X1.1496Y-2.0236
X1.1496Y-2.063
X1.1496Y-2.1024
X1.1496Y-2.1417
X1.1496Y-2.1811
X1.1496Y-2.2205
X1.1496Y-2.2598
X1.1496Y-2.2992
X1.1496Y-2.3386
X1.1496Y-2.378
X1.6063Y-1.9724
X1.6063Y-2.0118
X1.6063Y-2.0512
X1.6063Y-2.0906
X1.6063Y-2.1299
X1.6457Y-1.3268
X1.6457Y-1.9724
X1.6457Y-2.0118
X1.6457Y-2.0512
X1.6457Y-2.0906
X1.6457Y-2.1299
X1.685Y-1.9724
X1.685Y-2.0118
X1.685Y-2.0512
X1.685Y-2.0906
X1.685Y-2.1299
X1.7244Y-1.9724
X1.7244Y-2.0118
X1.7244Y-2.0512
X1.7244Y-2.0906
X1.7244Y-2.1299
X1.7638Y-1.9724
X1.7638Y-2.0118
X1.7638Y-2.0512
X1.7638Y-2.0906
X1.7638Y-2.1299
X2.0315Y-1.7362
X2.1496Y-2.2402
X2.3346Y-2.1457
X2.3346Y-2.189
X2.3346Y-2.2362
X2.4016Y-2.7283
X2.4409Y-1.8504
X2.4685Y-1.5354
X2.6496Y-1.2323
X2.6496Y-1.2717
X2.6496Y-1.311
X2.6496Y-1.3504
X2.6496Y-1.3898
X2.689Y-1.2323
X2.689Y-1.2717
X2.689Y-1.311
X2.689Y-1.3504
X2.689Y-1.3898
X2.7283Y-1.2323
X2.7283Y-1.2717
X2.7283Y-1.311
X2.7283Y-1.3504
X2.7283Y-1.3898
X2.748Y-2.0591
X2.7677Y-1.2323
X2.7677Y-1.2717
X2.7677Y-1.311
X2.7677Y-1.3504
X2.7677Y-1.3898
X2.8071Y-1.2323
X2.8071Y-1.2717
X2.8071Y-1.311
X2.8071Y-1.3504
X2.8071Y-1.3898
X2.8504Y-3.248
X2.8504Y-3.2874
X2.8504Y-3.3268
X2.8504Y-3.3661
X2.8504Y-3.4055
X2.8898Y-3.248
X2.8898Y-3.2874
X2.8898Y-3.3268
X2.8898Y-3.3661
X2.8898Y-3.4055
X2.9291Y-3.248
X2.9291Y-3.2874
X2.9291Y-3.3268
X2.9291Y-3.3661
X2.9291Y-3.4055
X2.9646Y-2.9764
X2.9685Y-3.248
X2.9685Y-3.2874
X2.9685Y-3.3268
X2.9685Y-3.3661
X2.9685Y-3.4055
X3.0079Y-3.248
X3.0079Y-3.2874
X3.0079Y-3.3268
X3.0079Y-3.3661
X3.0079Y-3.4055
X3.0354Y-2.5827
X3.0709Y-2.626
X3.0709Y-2.6772
X3.185Y-2.0512
X3.185Y-2.0906
X3.185Y-2.1299
X3.185Y-2.1693
X3.185Y-2.2087
X3.2244Y-2.0512
X3.2244Y-2.0906
X3.2244Y-2.1299
X3.2244Y-2.1693
X3.2244Y-2.2087
X3.2638Y-2.0512
X3.2638Y-2.0906
X3.2638Y-2.1299
X3.2638Y-2.1693
X3.2638Y-2.2087
X3.2992Y-2.622
X3.3031Y-2.0512
X3.3031Y-2.0906
X3.3031Y-2.1299
X3.3031Y-2.1693
X3.3031Y-2.2087
X3.3425Y-2.0512
X3.3425Y-2.0906
X3.3425Y-2.1299
X3.3425Y-2.1693
X3.3425Y-2.2087
X3.7441Y-2.1772
T2
X2.0709Y-3.3764
X2.0709Y-3.4764
X3.1071Y-1.048
X3.1778Y-1.1187
X3.2485Y-1.1894
X3.3192Y-1.2602
X3.3899Y-1.3309
X3.4606Y-1.4016
X1.4102Y-1.385
X1.4809Y-1.3143
X1.5516Y-1.2436
X1.6224Y-1.1729
X1.6931Y-1.1022
X1.7638Y-1.0315
X3.0669Y-2.7756
X3.0669Y-2.8756
X3.0669Y-2.9756
X3.1669Y-2.7756
X3.1669Y-2.8756
X3.1669Y-2.9756
X3.6063Y-2.0787
X3.6063Y-2.1787
X1.311Y-1.7992
X1.311Y-1.8992
X1.311Y-1.9992
X1.311Y-2.0992
X1.311Y-2.1992
X1.311Y-2.2992
X1.311Y-2.3992
X1.311Y-2.4992
X1.311Y-2.5992
T2
G00X2.4134Y-3.122
M15
G01X2.3898Y-3.122
M16
G05
G00X2.4134Y-3.3583
M15
G01X2.3898Y-3.3583
M16
G05
G00X2.5866Y-3.2283
M15
G01X2.5866Y-3.252
M16
G05
T0
M30
