%TF.GenerationSoftware,KiCad,Pcbnew,(5.1.6-0-10_14)*%
%TF.CreationDate,2020-08-15T13:55:16+01:00*%
%TF.ProjectId,arduino,61726475-696e-46f2-9e6b-696361645f70,rev?*%
%TF.SameCoordinates,Original*%
%TF.FileFunction,Copper,L1,Top*%
%TF.FilePolarity,Positive*%
%FSLAX46Y46*%
G04 Gerber Fmt 4.6, Leading zero omitted, Abs format (unit mm)*
G04 Created by KiCad (PCBNEW (5.1.6-0-10_14)) date 2020-08-15 13:55:16*
%MOMM*%
%LPD*%
G01*
G04 APERTURE LIST*
%TA.AperFunction,ComponentPad*%
%ADD10O,3.016000X1.508000*%
%TD*%
%TA.AperFunction,ComponentPad*%
%ADD11O,1.508000X3.016000*%
%TD*%
%TA.AperFunction,SMDPad,CuDef*%
%ADD12R,1.500000X1.800000*%
%TD*%
%TA.AperFunction,ComponentPad*%
%ADD13R,1.700000X1.700000*%
%TD*%
%TA.AperFunction,ComponentPad*%
%ADD14O,1.700000X1.700000*%
%TD*%
%TA.AperFunction,ComponentPad*%
%ADD15C,0.100000*%
%TD*%
%TA.AperFunction,SMDPad,CuDef*%
%ADD16R,1.200000X1.200000*%
%TD*%
%TA.AperFunction,SMDPad,CuDef*%
%ADD17R,1.700000X1.000000*%
%TD*%
%TA.AperFunction,SMDPad,CuDef*%
%ADD18R,0.550000X1.500000*%
%TD*%
%TA.AperFunction,SMDPad,CuDef*%
%ADD19R,1.500000X0.550000*%
%TD*%
%TA.AperFunction,SMDPad,CuDef*%
%ADD20R,3.800000X2.000000*%
%TD*%
%TA.AperFunction,SMDPad,CuDef*%
%ADD21R,1.500000X2.000000*%
%TD*%
%TA.AperFunction,SMDPad,CuDef*%
%ADD22C,0.100000*%
%TD*%
%TA.AperFunction,ViaPad*%
%ADD23C,0.800000*%
%TD*%
%TA.AperFunction,Conductor*%
%ADD24C,0.250000*%
%TD*%
%TA.AperFunction,Conductor*%
%ADD25C,0.450000*%
%TD*%
%TA.AperFunction,Conductor*%
%ADD26C,0.254000*%
%TD*%
G04 APERTURE END LIST*
D10*
%TO.P,J1,1*%
%TO.N,VCC*%
X61000000Y-79300000D03*
%TO.P,J1,2*%
%TO.N,GND*%
X61000000Y-85300000D03*
D11*
%TO.P,J1,3*%
X65700000Y-82300000D03*
%TD*%
%TO.P,C1,2*%
%TO.N,GND*%
%TA.AperFunction,SMDPad,CuDef*%
G36*
G01*
X50125000Y-52349999D02*
X50125000Y-53250001D01*
G75*
G02*
X49875001Y-53500000I-249999J0D01*
G01*
X49224999Y-53500000D01*
G75*
G02*
X48975000Y-53250001I0J249999D01*
G01*
X48975000Y-52349999D01*
G75*
G02*
X49224999Y-52100000I249999J0D01*
G01*
X49875001Y-52100000D01*
G75*
G02*
X50125000Y-52349999I0J-249999D01*
G01*
G37*
%TD.AperFunction*%
%TO.P,C1,1*%
%TO.N,/XTAL1*%
%TA.AperFunction,SMDPad,CuDef*%
G36*
G01*
X52175000Y-52349999D02*
X52175000Y-53250001D01*
G75*
G02*
X51925001Y-53500000I-249999J0D01*
G01*
X51274999Y-53500000D01*
G75*
G02*
X51025000Y-53250001I0J249999D01*
G01*
X51025000Y-52349999D01*
G75*
G02*
X51274999Y-52100000I249999J0D01*
G01*
X51925001Y-52100000D01*
G75*
G02*
X52175000Y-52349999I0J-249999D01*
G01*
G37*
%TD.AperFunction*%
%TD*%
%TO.P,C2,1*%
%TO.N,/XTAL2*%
%TA.AperFunction,SMDPad,CuDef*%
G36*
G01*
X52275000Y-60949999D02*
X52275000Y-61850001D01*
G75*
G02*
X52025001Y-62100000I-249999J0D01*
G01*
X51374999Y-62100000D01*
G75*
G02*
X51125000Y-61850001I0J249999D01*
G01*
X51125000Y-60949999D01*
G75*
G02*
X51374999Y-60700000I249999J0D01*
G01*
X52025001Y-60700000D01*
G75*
G02*
X52275000Y-60949999I0J-249999D01*
G01*
G37*
%TD.AperFunction*%
%TO.P,C2,2*%
%TO.N,GND*%
%TA.AperFunction,SMDPad,CuDef*%
G36*
G01*
X50225000Y-60949999D02*
X50225000Y-61850001D01*
G75*
G02*
X49975001Y-62100000I-249999J0D01*
G01*
X49324999Y-62100000D01*
G75*
G02*
X49075000Y-61850001I0J249999D01*
G01*
X49075000Y-60949999D01*
G75*
G02*
X49324999Y-60700000I249999J0D01*
G01*
X49975001Y-60700000D01*
G75*
G02*
X50225000Y-60949999I0J-249999D01*
G01*
G37*
%TD.AperFunction*%
%TD*%
%TO.P,C3,2*%
%TO.N,GND*%
%TA.AperFunction,SMDPad,CuDef*%
G36*
G01*
X61450001Y-73725000D02*
X60549999Y-73725000D01*
G75*
G02*
X60300000Y-73475001I0J249999D01*
G01*
X60300000Y-72824999D01*
G75*
G02*
X60549999Y-72575000I249999J0D01*
G01*
X61450001Y-72575000D01*
G75*
G02*
X61700000Y-72824999I0J-249999D01*
G01*
X61700000Y-73475001D01*
G75*
G02*
X61450001Y-73725000I-249999J0D01*
G01*
G37*
%TD.AperFunction*%
%TO.P,C3,1*%
%TO.N,VCC*%
%TA.AperFunction,SMDPad,CuDef*%
G36*
G01*
X61450001Y-75775000D02*
X60549999Y-75775000D01*
G75*
G02*
X60300000Y-75525001I0J249999D01*
G01*
X60300000Y-74874999D01*
G75*
G02*
X60549999Y-74625000I249999J0D01*
G01*
X61450001Y-74625000D01*
G75*
G02*
X61700000Y-74874999I0J-249999D01*
G01*
X61700000Y-75525001D01*
G75*
G02*
X61450001Y-75775000I-249999J0D01*
G01*
G37*
%TD.AperFunction*%
%TD*%
%TO.P,C4,1*%
%TO.N,GND*%
%TA.AperFunction,SMDPad,CuDef*%
G36*
G01*
X72525000Y-56049999D02*
X72525000Y-56950001D01*
G75*
G02*
X72275001Y-57200000I-249999J0D01*
G01*
X71624999Y-57200000D01*
G75*
G02*
X71375000Y-56950001I0J249999D01*
G01*
X71375000Y-56049999D01*
G75*
G02*
X71624999Y-55800000I249999J0D01*
G01*
X72275001Y-55800000D01*
G75*
G02*
X72525000Y-56049999I0J-249999D01*
G01*
G37*
%TD.AperFunction*%
%TO.P,C4,2*%
%TO.N,+5V*%
%TA.AperFunction,SMDPad,CuDef*%
G36*
G01*
X70475000Y-56049999D02*
X70475000Y-56950001D01*
G75*
G02*
X70225001Y-57200000I-249999J0D01*
G01*
X69574999Y-57200000D01*
G75*
G02*
X69325000Y-56950001I0J249999D01*
G01*
X69325000Y-56049999D01*
G75*
G02*
X69574999Y-55800000I249999J0D01*
G01*
X70225001Y-55800000D01*
G75*
G02*
X70475000Y-56049999I0J-249999D01*
G01*
G37*
%TD.AperFunction*%
%TD*%
%TO.P,C5,2*%
%TO.N,+5V*%
%TA.AperFunction,SMDPad,CuDef*%
G36*
G01*
X51075000Y-49450001D02*
X51075000Y-48549999D01*
G75*
G02*
X51324999Y-48300000I249999J0D01*
G01*
X51975001Y-48300000D01*
G75*
G02*
X52225000Y-48549999I0J-249999D01*
G01*
X52225000Y-49450001D01*
G75*
G02*
X51975001Y-49700000I-249999J0D01*
G01*
X51324999Y-49700000D01*
G75*
G02*
X51075000Y-49450001I0J249999D01*
G01*
G37*
%TD.AperFunction*%
%TO.P,C5,1*%
%TO.N,GND*%
%TA.AperFunction,SMDPad,CuDef*%
G36*
G01*
X49025000Y-49450001D02*
X49025000Y-48549999D01*
G75*
G02*
X49274999Y-48300000I249999J0D01*
G01*
X49925001Y-48300000D01*
G75*
G02*
X50175000Y-48549999I0J-249999D01*
G01*
X50175000Y-49450001D01*
G75*
G02*
X49925001Y-49700000I-249999J0D01*
G01*
X49274999Y-49700000D01*
G75*
G02*
X49025000Y-49450001I0J249999D01*
G01*
G37*
%TD.AperFunction*%
%TD*%
%TO.P,C6,1*%
%TO.N,+5V*%
%TA.AperFunction,SMDPad,CuDef*%
G36*
G01*
X41049999Y-73925000D02*
X41950001Y-73925000D01*
G75*
G02*
X42200000Y-74174999I0J-249999D01*
G01*
X42200000Y-74825001D01*
G75*
G02*
X41950001Y-75075000I-249999J0D01*
G01*
X41049999Y-75075000D01*
G75*
G02*
X40800000Y-74825001I0J249999D01*
G01*
X40800000Y-74174999D01*
G75*
G02*
X41049999Y-73925000I249999J0D01*
G01*
G37*
%TD.AperFunction*%
%TO.P,C6,2*%
%TO.N,GND*%
%TA.AperFunction,SMDPad,CuDef*%
G36*
G01*
X41049999Y-75975000D02*
X41950001Y-75975000D01*
G75*
G02*
X42200000Y-76224999I0J-249999D01*
G01*
X42200000Y-76875001D01*
G75*
G02*
X41950001Y-77125000I-249999J0D01*
G01*
X41049999Y-77125000D01*
G75*
G02*
X40800000Y-76875001I0J249999D01*
G01*
X40800000Y-76224999D01*
G75*
G02*
X41049999Y-75975000I249999J0D01*
G01*
G37*
%TD.AperFunction*%
%TD*%
%TO.P,C7,1*%
%TO.N,+5V*%
%TA.AperFunction,SMDPad,CuDef*%
G36*
G01*
X52225000Y-46249999D02*
X52225000Y-47150001D01*
G75*
G02*
X51975001Y-47400000I-249999J0D01*
G01*
X51324999Y-47400000D01*
G75*
G02*
X51075000Y-47150001I0J249999D01*
G01*
X51075000Y-46249999D01*
G75*
G02*
X51324999Y-46000000I249999J0D01*
G01*
X51975001Y-46000000D01*
G75*
G02*
X52225000Y-46249999I0J-249999D01*
G01*
G37*
%TD.AperFunction*%
%TO.P,C7,2*%
%TO.N,GND*%
%TA.AperFunction,SMDPad,CuDef*%
G36*
G01*
X50175000Y-46249999D02*
X50175000Y-47150001D01*
G75*
G02*
X49925001Y-47400000I-249999J0D01*
G01*
X49274999Y-47400000D01*
G75*
G02*
X49025000Y-47150001I0J249999D01*
G01*
X49025000Y-46249999D01*
G75*
G02*
X49274999Y-46000000I249999J0D01*
G01*
X49925001Y-46000000D01*
G75*
G02*
X50175000Y-46249999I0J-249999D01*
G01*
G37*
%TD.AperFunction*%
%TD*%
%TO.P,C8,2*%
%TO.N,GND*%
%TA.AperFunction,SMDPad,CuDef*%
G36*
G01*
X71375000Y-54950001D02*
X71375000Y-54049999D01*
G75*
G02*
X71624999Y-53800000I249999J0D01*
G01*
X72275001Y-53800000D01*
G75*
G02*
X72525000Y-54049999I0J-249999D01*
G01*
X72525000Y-54950001D01*
G75*
G02*
X72275001Y-55200000I-249999J0D01*
G01*
X71624999Y-55200000D01*
G75*
G02*
X71375000Y-54950001I0J249999D01*
G01*
G37*
%TD.AperFunction*%
%TO.P,C8,1*%
%TO.N,+5V*%
%TA.AperFunction,SMDPad,CuDef*%
G36*
G01*
X69325000Y-54950001D02*
X69325000Y-54049999D01*
G75*
G02*
X69574999Y-53800000I249999J0D01*
G01*
X70225001Y-53800000D01*
G75*
G02*
X70475000Y-54049999I0J-249999D01*
G01*
X70475000Y-54950001D01*
G75*
G02*
X70225001Y-55200000I-249999J0D01*
G01*
X69574999Y-55200000D01*
G75*
G02*
X69325000Y-54950001I0J249999D01*
G01*
G37*
%TD.AperFunction*%
%TD*%
%TO.P,C9,1*%
%TO.N,/RESET*%
%TA.AperFunction,SMDPad,CuDef*%
G36*
G01*
X66350001Y-45100000D02*
X65449999Y-45100000D01*
G75*
G02*
X65200000Y-44850001I0J249999D01*
G01*
X65200000Y-44199999D01*
G75*
G02*
X65449999Y-43950000I249999J0D01*
G01*
X66350001Y-43950000D01*
G75*
G02*
X66600000Y-44199999I0J-249999D01*
G01*
X66600000Y-44850001D01*
G75*
G02*
X66350001Y-45100000I-249999J0D01*
G01*
G37*
%TD.AperFunction*%
%TO.P,C9,2*%
%TO.N,/DTR*%
%TA.AperFunction,SMDPad,CuDef*%
G36*
G01*
X66350001Y-43050000D02*
X65449999Y-43050000D01*
G75*
G02*
X65200000Y-42800001I0J249999D01*
G01*
X65200000Y-42149999D01*
G75*
G02*
X65449999Y-41900000I249999J0D01*
G01*
X66350001Y-41900000D01*
G75*
G02*
X66600000Y-42149999I0J-249999D01*
G01*
X66600000Y-42800001D01*
G75*
G02*
X66350001Y-43050000I-249999J0D01*
G01*
G37*
%TD.AperFunction*%
%TD*%
D12*
%TO.P,D1,1*%
%TO.N,Net-(D1-Pad1)*%
X70000000Y-64000000D03*
%TO.P,D1,2*%
%TO.N,GND*%
X73600000Y-64000000D03*
%TD*%
D13*
%TO.P,J2,1*%
%TO.N,GND*%
X52600000Y-88300000D03*
D14*
%TO.P,J2,2*%
%TO.N,VCC*%
X52600000Y-85760000D03*
%TD*%
%TO.P,J3,2*%
%TO.N,+5V*%
X91600000Y-55340000D03*
D13*
%TO.P,J3,1*%
%TO.N,GND*%
X91600000Y-52800000D03*
%TD*%
%TO.P,J4,1*%
%TO.N,/MISO*%
X77900000Y-70500000D03*
D14*
%TO.P,J4,2*%
%TO.N,+5V*%
X80440000Y-70500000D03*
%TO.P,J4,3*%
%TO.N,/SCK*%
X77900000Y-73040000D03*
%TO.P,J4,4*%
%TO.N,/MOSI*%
X80440000Y-73040000D03*
%TO.P,J4,5*%
%TO.N,/RESET*%
X77900000Y-75580000D03*
%TO.P,J4,6*%
%TO.N,GND*%
X80440000Y-75580000D03*
%TD*%
%TA.AperFunction,ComponentPad*%
D15*
%TO.P,J5,1*%
%TO.N,/DTR*%
G36*
X43597918Y-26200000D02*
G01*
X44800000Y-24997918D01*
X46002082Y-26200000D01*
X44800000Y-27402082D01*
X43597918Y-26200000D01*
G37*
%TD.AperFunction*%
%TO.P,J5,2*%
%TO.N,/RXD*%
%TA.AperFunction,ComponentPad*%
G36*
G01*
X42402908Y-27395010D02*
X42402908Y-27395010D01*
G75*
G02*
X43604990Y-27395010I601041J-601041D01*
G01*
X43604990Y-27395010D01*
G75*
G02*
X43604990Y-28597092I-601041J-601041D01*
G01*
X43604990Y-28597092D01*
G75*
G02*
X42402908Y-28597092I-601041J601041D01*
G01*
X42402908Y-28597092D01*
G75*
G02*
X42402908Y-27395010I601041J601041D01*
G01*
G37*
%TD.AperFunction*%
%TO.P,J5,3*%
%TO.N,/TXD*%
%TA.AperFunction,ComponentPad*%
G36*
G01*
X40606857Y-29191061D02*
X40606857Y-29191061D01*
G75*
G02*
X41808939Y-29191061I601041J-601041D01*
G01*
X41808939Y-29191061D01*
G75*
G02*
X41808939Y-30393143I-601041J-601041D01*
G01*
X41808939Y-30393143D01*
G75*
G02*
X40606857Y-30393143I-601041J601041D01*
G01*
X40606857Y-30393143D01*
G75*
G02*
X40606857Y-29191061I601041J601041D01*
G01*
G37*
%TD.AperFunction*%
%TO.P,J5,4*%
%TO.N,+5V*%
%TA.AperFunction,ComponentPad*%
G36*
G01*
X38810805Y-30987113D02*
X38810805Y-30987113D01*
G75*
G02*
X40012887Y-30987113I601041J-601041D01*
G01*
X40012887Y-30987113D01*
G75*
G02*
X40012887Y-32189195I-601041J-601041D01*
G01*
X40012887Y-32189195D01*
G75*
G02*
X38810805Y-32189195I-601041J601041D01*
G01*
X38810805Y-32189195D01*
G75*
G02*
X38810805Y-30987113I601041J601041D01*
G01*
G37*
%TD.AperFunction*%
%TO.P,J5,5*%
%TO.N,/CTS*%
%TA.AperFunction,ComponentPad*%
G36*
G01*
X37014754Y-32783164D02*
X37014754Y-32783164D01*
G75*
G02*
X38216836Y-32783164I601041J-601041D01*
G01*
X38216836Y-32783164D01*
G75*
G02*
X38216836Y-33985246I-601041J-601041D01*
G01*
X38216836Y-33985246D01*
G75*
G02*
X37014754Y-33985246I-601041J601041D01*
G01*
X37014754Y-33985246D01*
G75*
G02*
X37014754Y-32783164I601041J601041D01*
G01*
G37*
%TD.AperFunction*%
%TO.P,J5,6*%
%TO.N,GND*%
%TA.AperFunction,ComponentPad*%
G36*
G01*
X35218703Y-34579215D02*
X35218703Y-34579215D01*
G75*
G02*
X36420785Y-34579215I601041J-601041D01*
G01*
X36420785Y-34579215D01*
G75*
G02*
X36420785Y-35781297I-601041J-601041D01*
G01*
X36420785Y-35781297D01*
G75*
G02*
X35218703Y-35781297I-601041J601041D01*
G01*
X35218703Y-35781297D01*
G75*
G02*
X35218703Y-34579215I601041J601041D01*
G01*
G37*
%TD.AperFunction*%
%TD*%
%TO.P,J6,6*%
%TO.N,/A5*%
%TA.AperFunction,ComponentPad*%
G36*
G01*
X79520785Y-26018703D02*
X79520785Y-26018703D01*
G75*
G02*
X79520785Y-27220785I-601041J-601041D01*
G01*
X79520785Y-27220785D01*
G75*
G02*
X78318703Y-27220785I-601041J601041D01*
G01*
X78318703Y-27220785D01*
G75*
G02*
X78318703Y-26018703I601041J601041D01*
G01*
X78318703Y-26018703D01*
G75*
G02*
X79520785Y-26018703I601041J-601041D01*
G01*
G37*
%TD.AperFunction*%
%TO.P,J6,5*%
%TO.N,/A4*%
%TA.AperFunction,ComponentPad*%
G36*
G01*
X81316836Y-27814754D02*
X81316836Y-27814754D01*
G75*
G02*
X81316836Y-29016836I-601041J-601041D01*
G01*
X81316836Y-29016836D01*
G75*
G02*
X80114754Y-29016836I-601041J601041D01*
G01*
X80114754Y-29016836D01*
G75*
G02*
X80114754Y-27814754I601041J601041D01*
G01*
X80114754Y-27814754D01*
G75*
G02*
X81316836Y-27814754I601041J-601041D01*
G01*
G37*
%TD.AperFunction*%
%TO.P,J6,4*%
%TO.N,/A3*%
%TA.AperFunction,ComponentPad*%
G36*
G01*
X83112887Y-29610805D02*
X83112887Y-29610805D01*
G75*
G02*
X83112887Y-30812887I-601041J-601041D01*
G01*
X83112887Y-30812887D01*
G75*
G02*
X81910805Y-30812887I-601041J601041D01*
G01*
X81910805Y-30812887D01*
G75*
G02*
X81910805Y-29610805I601041J601041D01*
G01*
X81910805Y-29610805D01*
G75*
G02*
X83112887Y-29610805I601041J-601041D01*
G01*
G37*
%TD.AperFunction*%
%TO.P,J6,3*%
%TO.N,/A2*%
%TA.AperFunction,ComponentPad*%
G36*
G01*
X84908939Y-31406857D02*
X84908939Y-31406857D01*
G75*
G02*
X84908939Y-32608939I-601041J-601041D01*
G01*
X84908939Y-32608939D01*
G75*
G02*
X83706857Y-32608939I-601041J601041D01*
G01*
X83706857Y-32608939D01*
G75*
G02*
X83706857Y-31406857I601041J601041D01*
G01*
X83706857Y-31406857D01*
G75*
G02*
X84908939Y-31406857I601041J-601041D01*
G01*
G37*
%TD.AperFunction*%
%TO.P,J6,2*%
%TO.N,/A1*%
%TA.AperFunction,ComponentPad*%
G36*
G01*
X86704990Y-33202908D02*
X86704990Y-33202908D01*
G75*
G02*
X86704990Y-34404990I-601041J-601041D01*
G01*
X86704990Y-34404990D01*
G75*
G02*
X85502908Y-34404990I-601041J601041D01*
G01*
X85502908Y-34404990D01*
G75*
G02*
X85502908Y-33202908I601041J601041D01*
G01*
X85502908Y-33202908D01*
G75*
G02*
X86704990Y-33202908I601041J-601041D01*
G01*
G37*
%TD.AperFunction*%
%TA.AperFunction,ComponentPad*%
%TO.P,J6,1*%
%TO.N,/A0*%
G36*
X87900000Y-34397918D02*
G01*
X89102082Y-35600000D01*
X87900000Y-36802082D01*
X86697918Y-35600000D01*
X87900000Y-34397918D01*
G37*
%TD.AperFunction*%
%TD*%
D13*
%TO.P,J7,1*%
%TO.N,/D2*%
X33300000Y-45700000D03*
D14*
%TO.P,J7,2*%
%TO.N,/D3*%
X33300000Y-48240000D03*
%TO.P,J7,3*%
%TO.N,/D4*%
X33300000Y-50780000D03*
%TO.P,J7,4*%
%TO.N,/D5*%
X33300000Y-53320000D03*
%TO.P,J7,5*%
%TO.N,/D6*%
X33300000Y-55860000D03*
%TO.P,J7,6*%
%TO.N,/D7*%
X33300000Y-58400000D03*
%TO.P,J7,7*%
%TO.N,/D8*%
X33300000Y-60940000D03*
%TO.P,J7,8*%
%TO.N,/D9*%
X33300000Y-63480000D03*
%TO.P,J7,9*%
%TO.N,/D10*%
X33300000Y-66020000D03*
%TD*%
D16*
%TO.P,R1,2*%
%TO.N,/SCK*%
X69900000Y-61500000D03*
%TO.P,R1,1*%
%TO.N,Net-(D1-Pad1)*%
X72000000Y-61500000D03*
%TD*%
%TO.P,R2,1*%
%TO.N,+5V*%
X62650000Y-41900000D03*
%TO.P,R2,2*%
%TO.N,/RESET*%
X60550000Y-41900000D03*
%TD*%
D17*
%TO.P,SW1,1*%
%TO.N,/RESET*%
X58050000Y-22500000D03*
X64350000Y-22500000D03*
%TO.P,SW1,2*%
%TO.N,GND*%
X58050000Y-26300000D03*
X64350000Y-26300000D03*
%TD*%
D18*
%TO.P,U1,9*%
%TO.N,/D5*%
X58800000Y-58900000D03*
D19*
%TO.P,U1,1*%
%TO.N,/D3*%
X57400000Y-51900000D03*
%TO.P,U1,2*%
%TO.N,/D4*%
X57400000Y-52700000D03*
%TO.P,U1,3*%
%TO.N,GND*%
X57400000Y-53500000D03*
%TO.P,U1,4*%
%TO.N,+5V*%
X57400000Y-54300000D03*
%TO.P,U1,5*%
%TO.N,GND*%
X57400000Y-55100000D03*
%TO.P,U1,6*%
%TO.N,+5V*%
X57400000Y-55900000D03*
%TO.P,U1,7*%
%TO.N,/XTAL1*%
X57400000Y-56700000D03*
%TO.P,U1,8*%
%TO.N,/XTAL2*%
X57400000Y-57500000D03*
D18*
%TO.P,U1,10*%
%TO.N,/D6*%
X59600000Y-58900000D03*
%TO.P,U1,11*%
%TO.N,/D7*%
X60400000Y-58900000D03*
%TO.P,U1,12*%
%TO.N,/D8*%
X61200000Y-58900000D03*
%TO.P,U1,13*%
%TO.N,/D9*%
X62000000Y-58900000D03*
%TO.P,U1,14*%
%TO.N,/D10*%
X62800000Y-58900000D03*
%TO.P,U1,15*%
%TO.N,/MOSI*%
X63600000Y-58900000D03*
%TO.P,U1,16*%
%TO.N,/MISO*%
X64400000Y-58900000D03*
D19*
%TO.P,U1,17*%
%TO.N,/SCK*%
X65800000Y-57500000D03*
%TO.P,U1,18*%
%TO.N,+5V*%
X65800000Y-56700000D03*
%TO.P,U1,19*%
%TO.N,Net-(U1-Pad19)*%
X65800000Y-55900000D03*
%TO.P,U1,20*%
%TO.N,+5V*%
X65800000Y-55100000D03*
%TO.P,U1,21*%
%TO.N,GND*%
X65800000Y-54300000D03*
%TO.P,U1,22*%
%TO.N,Net-(U1-Pad22)*%
X65800000Y-53500000D03*
%TO.P,U1,23*%
%TO.N,/A0*%
X65800000Y-52700000D03*
%TO.P,U1,24*%
%TO.N,/A1*%
X65800000Y-51900000D03*
D18*
%TO.P,U1,25*%
%TO.N,/A2*%
X64400000Y-50500000D03*
%TO.P,U1,26*%
%TO.N,/A3*%
X63600000Y-50500000D03*
%TO.P,U1,27*%
%TO.N,/A4*%
X62800000Y-50500000D03*
%TO.P,U1,28*%
%TO.N,/A5*%
X62000000Y-50500000D03*
%TO.P,U1,29*%
%TO.N,/RESET*%
X61200000Y-50500000D03*
%TO.P,U1,30*%
%TO.N,/RXD*%
X60400000Y-50500000D03*
%TO.P,U1,31*%
%TO.N,/TXD*%
X59600000Y-50500000D03*
%TO.P,U1,32*%
%TO.N,/D2*%
X58800000Y-50500000D03*
%TD*%
D20*
%TO.P,U2,2*%
%TO.N,+5V*%
X48800000Y-74450000D03*
D21*
X48800000Y-80750000D03*
%TO.P,U2,3*%
%TO.N,VCC*%
X51100000Y-80750000D03*
%TO.P,U2,1*%
%TO.N,GND*%
X46500000Y-80750000D03*
%TD*%
%TA.AperFunction,SMDPad,CuDef*%
D22*
%TO.P,Y1,1*%
%TO.N,/XTAL1*%
G36*
X51047488Y-54878680D02*
G01*
X51896016Y-55727208D01*
X50906066Y-56717158D01*
X50057538Y-55868630D01*
X51047488Y-54878680D01*
G37*
%TD.AperFunction*%
%TA.AperFunction,SMDPad,CuDef*%
%TO.P,Y1,2*%
%TO.N,GND*%
G36*
X49491853Y-56434315D02*
G01*
X50340381Y-57282843D01*
X49350431Y-58272793D01*
X48501903Y-57424265D01*
X49491853Y-56434315D01*
G37*
%TD.AperFunction*%
%TA.AperFunction,SMDPad,CuDef*%
%TO.P,Y1,3*%
%TO.N,/XTAL2*%
G36*
X50693934Y-57636396D02*
G01*
X51542462Y-58484924D01*
X50552512Y-59474874D01*
X49703984Y-58626346D01*
X50693934Y-57636396D01*
G37*
%TD.AperFunction*%
%TA.AperFunction,SMDPad,CuDef*%
%TO.P,Y1,4*%
%TO.N,GND*%
G36*
X52249569Y-56080761D02*
G01*
X53098097Y-56929289D01*
X52108147Y-57919239D01*
X51259619Y-57070711D01*
X52249569Y-56080761D01*
G37*
%TD.AperFunction*%
%TD*%
D23*
%TO.N,GND*%
X68300000Y-31300000D03*
X71300000Y-33300000D03*
X70300000Y-34300000D03*
X67300000Y-33300000D03*
X68300000Y-35300000D03*
X68300000Y-34300000D03*
X71300000Y-31300000D03*
X70300000Y-35300000D03*
X67300000Y-34300000D03*
X71300000Y-35300000D03*
X67300000Y-35300000D03*
X67300000Y-32300000D03*
X69300000Y-35300000D03*
X68300000Y-32300000D03*
X71300000Y-34300000D03*
X70300000Y-31300000D03*
X70300000Y-33300000D03*
X71300000Y-32300000D03*
X70300000Y-32300000D03*
X68300000Y-33300000D03*
X69300000Y-31300000D03*
X69300000Y-34300000D03*
X69300000Y-33300000D03*
X69300000Y-32300000D03*
X67300000Y-31300000D03*
X41800000Y-50100000D03*
X44800000Y-52100000D03*
X43800000Y-53100000D03*
X40800000Y-52100000D03*
X41800000Y-54100000D03*
X41800000Y-53100000D03*
X44800000Y-50100000D03*
X43800000Y-54100000D03*
X40800000Y-53100000D03*
X44800000Y-54100000D03*
X40800000Y-54100000D03*
X40800000Y-51100000D03*
X42800000Y-54100000D03*
X41800000Y-51100000D03*
X44800000Y-53100000D03*
X43800000Y-50100000D03*
X43800000Y-52100000D03*
X44800000Y-51100000D03*
X43800000Y-51100000D03*
X41800000Y-52100000D03*
X42800000Y-50100000D03*
X42800000Y-53100000D03*
X42800000Y-52100000D03*
X42800000Y-51100000D03*
X40800000Y-50100000D03*
X73400000Y-82500000D03*
X76400000Y-84500000D03*
X75400000Y-85500000D03*
X72400000Y-84500000D03*
X73400000Y-86500000D03*
X73400000Y-85500000D03*
X76400000Y-82500000D03*
X75400000Y-86500000D03*
X72400000Y-85500000D03*
X76400000Y-86500000D03*
X72400000Y-86500000D03*
X72400000Y-83500000D03*
X74400000Y-86500000D03*
X73400000Y-83500000D03*
X76400000Y-85500000D03*
X75400000Y-82500000D03*
X75400000Y-84500000D03*
X76400000Y-83500000D03*
X75400000Y-83500000D03*
X73400000Y-84500000D03*
X74400000Y-82500000D03*
X74400000Y-85500000D03*
X74400000Y-84500000D03*
X74400000Y-83500000D03*
X72400000Y-82500000D03*
X80900000Y-52100000D03*
X59300000Y-54500000D03*
X59300000Y-56800000D03*
X54600000Y-56900000D03*
X59300000Y-55600000D03*
X78000000Y-66700000D03*
X78000000Y-68000000D03*
X77100000Y-65600000D03*
X81900000Y-52100000D03*
X82900000Y-52100000D03*
X83900000Y-52100000D03*
X84900000Y-52100000D03*
X80900000Y-53100000D03*
X81900000Y-53100000D03*
X82900000Y-53100000D03*
X83900000Y-53100000D03*
X84900000Y-53100000D03*
X80900000Y-54100000D03*
X81900000Y-54100000D03*
X82900000Y-54100000D03*
X83900000Y-54100000D03*
X84900000Y-54100000D03*
X80900000Y-55100000D03*
X81900000Y-55100000D03*
X82900000Y-55100000D03*
X83900000Y-55100000D03*
X84900000Y-55100000D03*
X80900000Y-56100000D03*
X81900000Y-56100000D03*
X82900000Y-56100000D03*
X83900000Y-56100000D03*
X84900000Y-56100000D03*
X28200000Y-51400000D03*
X29200000Y-51400000D03*
X28200000Y-52400000D03*
X29200000Y-52400000D03*
X28200000Y-53400000D03*
X29200000Y-53400000D03*
X28200000Y-54400000D03*
X29200000Y-54400000D03*
X28200000Y-55400000D03*
X29200000Y-55400000D03*
X28200000Y-56400000D03*
X29200000Y-56400000D03*
X28200000Y-57400000D03*
X29200000Y-57400000D03*
X28200000Y-58400000D03*
X29200000Y-58400000D03*
X28200000Y-59400000D03*
X29200000Y-59400000D03*
X28200000Y-60400000D03*
X29200000Y-60400000D03*
%TO.N,/RESET*%
X62000000Y-47000000D03*
X75300000Y-75600000D03*
%TO.N,+5V*%
X61000000Y-69300000D03*
X51600000Y-44100000D03*
X62700000Y-39000000D03*
X69800000Y-52300000D03*
X41800000Y-33700000D03*
X95100000Y-55300000D03*
X83800000Y-66600000D03*
%TD*%
D24*
%TO.N,GND*%
X58700000Y-55100000D02*
X59300000Y-54500000D01*
X57400000Y-55100000D02*
X58700000Y-55100000D01*
X54800000Y-57000000D02*
X55000000Y-56800000D01*
X52700000Y-57000000D02*
X54800000Y-57000000D01*
X58300000Y-53500000D02*
X59300000Y-54500000D01*
X57400000Y-53500000D02*
X58300000Y-53500000D01*
X59300000Y-56800000D02*
X59300000Y-55600000D01*
X59300000Y-55600000D02*
X59300000Y-54500000D01*
X59500000Y-54300000D02*
X59300000Y-54500000D01*
X65800000Y-54300000D02*
X59500000Y-54300000D01*
%TO.N,/XTAL1*%
X55002944Y-55302944D02*
X56400000Y-56700000D01*
X56400000Y-56700000D02*
X57400000Y-56700000D01*
X51497919Y-52902081D02*
X51600000Y-52800000D01*
X51471752Y-55302944D02*
X50976777Y-55797919D01*
X55002944Y-55302944D02*
X51471752Y-55302944D01*
X51600000Y-55174696D02*
X50976777Y-55797919D01*
X51600000Y-52800000D02*
X51600000Y-55174696D01*
%TO.N,/XTAL2*%
X56300000Y-57500000D02*
X57400000Y-57500000D01*
X55244365Y-58555635D02*
X56300000Y-57500000D01*
X55244365Y-58555635D02*
X50623223Y-58555635D01*
X50623223Y-58555635D02*
X51700000Y-59632412D01*
X51700000Y-59632412D02*
X51700000Y-61400000D01*
D25*
%TO.N,VCC*%
X54540000Y-85760000D02*
X61000000Y-79300000D01*
X52600000Y-85760000D02*
X54540000Y-85760000D01*
D24*
%TO.N,+5V*%
X69700000Y-56700000D02*
X69900000Y-56500000D01*
D25*
X65800000Y-56700000D02*
X69700000Y-56700000D01*
D24*
X60900000Y-69400000D02*
X61000000Y-69300000D01*
%TO.N,GND*%
X80460000Y-75600000D02*
X80440000Y-75580000D01*
D25*
%TO.N,VCC*%
X52600000Y-82250000D02*
X51100000Y-80750000D01*
X52600000Y-85760000D02*
X52600000Y-82250000D01*
X61000000Y-75200000D02*
X61000000Y-79300000D01*
D24*
%TO.N,+5V*%
X91640000Y-55300000D02*
X91600000Y-55340000D01*
D25*
X95100000Y-55300000D02*
X91640000Y-55300000D01*
D24*
X69800000Y-54400000D02*
X69900000Y-54500000D01*
X62700000Y-41850000D02*
X62650000Y-41900000D01*
D25*
X62700000Y-39000000D02*
X62700000Y-41850000D01*
D24*
X51600000Y-46650000D02*
X51650000Y-46700000D01*
D25*
X51600000Y-44100000D02*
X51600000Y-46650000D01*
D24*
X39688154Y-31588154D02*
X39411846Y-31588154D01*
D25*
X41800000Y-33700000D02*
X39688154Y-31588154D01*
X69900000Y-54500000D02*
X69900000Y-56500000D01*
X51650000Y-46700000D02*
X51650000Y-49000000D01*
D24*
X80440000Y-69960000D02*
X80440000Y-70500000D01*
D25*
X83800000Y-66600000D02*
X80440000Y-69960000D01*
D24*
X41550000Y-74450000D02*
X41500000Y-74500000D01*
D25*
X48800000Y-74450000D02*
X41550000Y-74450000D01*
X55850000Y-74450000D02*
X61000000Y-69300000D01*
X48800000Y-74450000D02*
X55850000Y-74450000D01*
X48800000Y-74450000D02*
X48800000Y-80750000D01*
X67400000Y-55100000D02*
X67800000Y-55100000D01*
X65800000Y-55100000D02*
X67400000Y-55100000D01*
D24*
X67400000Y-55100000D02*
X67700000Y-55100000D01*
D25*
X68400000Y-54500000D02*
X69900000Y-54500000D01*
X67800000Y-55100000D02*
X68400000Y-54500000D01*
X69800000Y-52300000D02*
X69900000Y-52400000D01*
X69900000Y-52400000D02*
X69900000Y-54500000D01*
D24*
X56400000Y-54300000D02*
X53200000Y-51100000D01*
X57400000Y-54300000D02*
X56400000Y-54300000D01*
X53200000Y-48250000D02*
X51650000Y-46700000D01*
X53200000Y-51100000D02*
X53200000Y-48250000D01*
X56589998Y-55900000D02*
X56100000Y-55410002D01*
X57400000Y-55900000D02*
X56589998Y-55900000D01*
X56100000Y-55410002D02*
X56100000Y-54800000D01*
X51650000Y-50350000D02*
X51650000Y-49000000D01*
X56100000Y-54800000D02*
X51650000Y-50350000D01*
%TO.N,/RESET*%
X61200000Y-50500000D02*
X61200000Y-48200000D01*
X61200000Y-46800000D02*
X61700000Y-46300000D01*
X64125000Y-46300000D02*
X65900000Y-44525000D01*
X61700000Y-46300000D02*
X64125000Y-46300000D01*
X61200000Y-47800000D02*
X62000000Y-47000000D01*
X61200000Y-48200000D02*
X61200000Y-48000000D01*
X61200000Y-48000000D02*
X61200000Y-47800000D01*
X61200000Y-48000000D02*
X61200000Y-46800000D01*
X58050000Y-22500000D02*
X57900000Y-22500000D01*
X58050000Y-22500000D02*
X64350000Y-22500000D01*
X60350000Y-42100000D02*
X60550000Y-41900000D01*
X61200000Y-42550000D02*
X60550000Y-41900000D01*
X61200000Y-46800000D02*
X61200000Y-42550000D01*
X77880000Y-75600000D02*
X77900000Y-75580000D01*
X75300000Y-75600000D02*
X77880000Y-75600000D01*
X54300000Y-26250000D02*
X58050000Y-22500000D01*
X54300000Y-28890588D02*
X54300000Y-26250000D01*
X66925010Y-43499990D02*
X66925010Y-41515598D01*
X66925010Y-41515598D02*
X54300000Y-28890588D01*
X65900000Y-44525000D02*
X66925010Y-43499990D01*
%TO.N,/DTR*%
X65900000Y-41126998D02*
X65900000Y-42475000D01*
X50973002Y-26200000D02*
X65900000Y-41126998D01*
X44800000Y-26200000D02*
X50973002Y-26200000D01*
%TO.N,Net-(D1-Pad1)*%
X72000000Y-61500000D02*
X72000000Y-63100000D01*
X71100000Y-64000000D02*
X70000000Y-64000000D01*
X72000000Y-63100000D02*
X71100000Y-64000000D01*
%TO.N,/MISO*%
X73300000Y-70500000D02*
X77900000Y-70500000D01*
X64400000Y-61600000D02*
X73300000Y-70500000D01*
X64400000Y-58900000D02*
X64400000Y-61600000D01*
%TO.N,/SCK*%
X65800000Y-57500000D02*
X67200000Y-57500000D01*
X69900000Y-60200000D02*
X69900000Y-61500000D01*
X67200000Y-57500000D02*
X69900000Y-60200000D01*
X65800000Y-57500000D02*
X65825010Y-57525010D01*
X67200000Y-57500000D02*
X67225010Y-57525010D01*
X79264999Y-71675001D02*
X77900000Y-73040000D01*
X79264999Y-65964999D02*
X79264999Y-71675001D01*
X65800000Y-57500000D02*
X69000000Y-57500000D01*
X69000000Y-57500000D02*
X71100000Y-59600000D01*
X72900000Y-59600000D02*
X79264999Y-65964999D01*
X71100000Y-59600000D02*
X72900000Y-59600000D01*
%TO.N,/MOSI*%
X63600000Y-58900000D02*
X63600000Y-61100000D01*
X63600000Y-61100000D02*
X63600000Y-61280000D01*
X79264999Y-74215001D02*
X80440000Y-73040000D01*
X76378591Y-74215001D02*
X79264999Y-74215001D01*
X63600000Y-61436410D02*
X76378591Y-74215001D01*
X63600000Y-61100000D02*
X63600000Y-61436410D01*
%TO.N,/TXD*%
X41207898Y-29807898D02*
X41207898Y-29792102D01*
X57000000Y-44290770D02*
X57000000Y-41992102D01*
X59600000Y-46890770D02*
X57000000Y-44290770D01*
X57000000Y-41992102D02*
X50649991Y-35642093D01*
X59600000Y-50500000D02*
X59600000Y-46890770D01*
X50649991Y-35642093D02*
X50642093Y-35642093D01*
X44792102Y-29792102D02*
X41207898Y-29792102D01*
X50642093Y-35642093D02*
X44792102Y-29792102D01*
%TO.N,/RXD*%
X43296051Y-27996051D02*
X43003949Y-27996051D01*
X43196051Y-27996051D02*
X43003949Y-27996051D01*
X43632461Y-27996051D02*
X43003949Y-27996051D01*
X57394318Y-41750010D02*
X50836392Y-35192084D01*
X50828494Y-35192084D02*
X43632461Y-27996051D01*
X57450010Y-41750010D02*
X57394318Y-41750010D01*
X57450010Y-44104370D02*
X57450010Y-41750010D01*
X60400000Y-47054360D02*
X57450010Y-44104370D01*
X50836392Y-35192084D02*
X50828494Y-35192084D01*
X60400000Y-50500000D02*
X60400000Y-47054360D01*
%TO.N,/A5*%
X78919744Y-38925204D02*
X78919744Y-26619744D01*
X69744968Y-48099980D02*
X78919744Y-38925204D01*
X63400020Y-48099980D02*
X69744968Y-48099980D01*
X62000000Y-49500000D02*
X63400020Y-48099980D01*
X62000000Y-50500000D02*
X62000000Y-49500000D01*
%TO.N,/A4*%
X62800000Y-49500000D02*
X63750010Y-48549990D01*
X62800000Y-50500000D02*
X62800000Y-49500000D01*
X63750010Y-48549990D02*
X69931368Y-48549990D01*
X80715795Y-37765563D02*
X80715795Y-28415795D01*
X69931368Y-48549990D02*
X80715795Y-37765563D01*
%TO.N,/A3*%
X64100000Y-49000000D02*
X70117768Y-49000000D01*
X63600000Y-49500000D02*
X64100000Y-49000000D01*
X63600000Y-50500000D02*
X63600000Y-49500000D01*
X82511846Y-36605922D02*
X82511846Y-30211846D01*
X70117768Y-49000000D02*
X82511846Y-36605922D01*
%TO.N,/A2*%
X84307898Y-35446280D02*
X84307898Y-32007898D01*
X69254178Y-50500000D02*
X84307898Y-35446280D01*
X64400000Y-50500000D02*
X69254178Y-50500000D01*
%TO.N,/A1*%
X65800000Y-51900000D02*
X68490588Y-51900000D01*
X86103949Y-34286639D02*
X86103949Y-33803949D01*
X68490588Y-51900000D02*
X86103949Y-34286639D01*
%TO.N,/A0*%
X87286501Y-36213499D02*
X87900000Y-35600000D01*
X84813499Y-36213499D02*
X87286501Y-36213499D01*
X68326998Y-52700000D02*
X84813499Y-36213499D01*
X65800000Y-52700000D02*
X68326998Y-52700000D01*
%TO.N,/D2*%
X58800000Y-50500000D02*
X56500019Y-50500000D01*
X56500019Y-50500000D02*
X55500018Y-49499999D01*
X55500018Y-43427198D02*
X53372800Y-41299980D01*
X55500018Y-49499999D02*
X55500018Y-43427198D01*
X37700020Y-41299980D02*
X33300000Y-45700000D01*
X53372800Y-41299980D02*
X37700020Y-41299980D01*
%TO.N,/D3*%
X57400000Y-51900000D02*
X56426408Y-51900000D01*
X55050009Y-43613599D02*
X53186400Y-41749990D01*
X55050010Y-50523602D02*
X55050009Y-43613599D01*
X56426408Y-51900000D02*
X55050010Y-50523602D01*
X39790010Y-41749990D02*
X33300000Y-48240000D01*
X53186400Y-41749990D02*
X39790010Y-41749990D01*
%TO.N,/D4*%
X41880000Y-42200000D02*
X33300000Y-50780000D01*
X54600000Y-43800000D02*
X53000000Y-42200000D01*
X54600000Y-50710002D02*
X54600000Y-43800000D01*
X56589998Y-52700000D02*
X54600000Y-50710002D01*
X53000000Y-42200000D02*
X41880000Y-42200000D01*
X57400000Y-52700000D02*
X56589998Y-52700000D01*
%TO.N,/D5*%
X58800000Y-58900000D02*
X58800000Y-65717950D01*
X58800000Y-65717950D02*
X56417970Y-68099980D01*
X48079980Y-68099980D02*
X33300000Y-53320000D01*
X56417970Y-68099980D02*
X48079980Y-68099980D01*
%TO.N,/D6*%
X59600000Y-58900000D02*
X59600000Y-65554360D01*
X45989990Y-68549990D02*
X33300000Y-55860000D01*
X56604370Y-68549990D02*
X45989990Y-68549990D01*
X59600000Y-65554360D02*
X56604370Y-68549990D01*
%TO.N,/D7*%
X60400000Y-58900000D02*
X60400000Y-65390770D01*
X60400000Y-65390770D02*
X56790770Y-69000000D01*
X43900000Y-69000000D02*
X33300000Y-58400000D01*
X56790770Y-69000000D02*
X43900000Y-69000000D01*
%TO.N,/D8*%
X61200000Y-58900000D02*
X61200000Y-65227180D01*
X61200000Y-65227180D02*
X56927200Y-69499980D01*
X41859980Y-69499980D02*
X33300000Y-60940000D01*
X56927200Y-69499980D02*
X41859980Y-69499980D01*
%TO.N,/D9*%
X62000000Y-58900000D02*
X62000000Y-65063590D01*
X62000000Y-65063590D02*
X57113600Y-69949990D01*
X39769990Y-69949990D02*
X33300000Y-63480000D01*
X57113600Y-69949990D02*
X39769990Y-69949990D01*
%TO.N,/D10*%
X62800000Y-58900000D02*
X62800000Y-64900000D01*
X62800000Y-64900000D02*
X57300000Y-70400000D01*
X37680000Y-70400000D02*
X33300000Y-66020000D01*
X57300000Y-70400000D02*
X37680000Y-70400000D01*
%TD*%
D26*
%TO.N,GND*%
G36*
X63232180Y-17916015D02*
G01*
X65667615Y-18113641D01*
X68085150Y-18468498D01*
X70474646Y-18979098D01*
X72826079Y-19643299D01*
X75129587Y-20458314D01*
X77375509Y-21420726D01*
X79554423Y-22526498D01*
X81657192Y-23770991D01*
X83674995Y-25148987D01*
X85599369Y-26654704D01*
X87422243Y-28281828D01*
X89135970Y-30023534D01*
X90733363Y-31872517D01*
X92207721Y-33821021D01*
X93552862Y-35860873D01*
X94763142Y-37983518D01*
X95833485Y-40180053D01*
X96759402Y-42441265D01*
X97537010Y-44757669D01*
X98163047Y-47119549D01*
X98634886Y-49516999D01*
X98950550Y-51939964D01*
X99108713Y-54378280D01*
X99108713Y-56821720D01*
X98950550Y-59260036D01*
X98634886Y-61683001D01*
X98163047Y-64080451D01*
X97537010Y-66442331D01*
X96759402Y-68758735D01*
X95833485Y-71019947D01*
X94763142Y-73216482D01*
X93552862Y-75339127D01*
X92207721Y-77378979D01*
X90733363Y-79327483D01*
X89135970Y-81176466D01*
X87422243Y-82918172D01*
X85599369Y-84545296D01*
X83674995Y-86051013D01*
X81657192Y-87429009D01*
X79554423Y-88673502D01*
X77375509Y-89779274D01*
X75129587Y-90741686D01*
X72826079Y-91556701D01*
X70474646Y-92220902D01*
X68085150Y-92731502D01*
X65667615Y-93086359D01*
X63232180Y-93283985D01*
X60789060Y-93323552D01*
X58348502Y-93204893D01*
X55920744Y-92928506D01*
X53515968Y-92495551D01*
X51144259Y-91907842D01*
X48815567Y-91167846D01*
X46539659Y-90278666D01*
X44326080Y-89244032D01*
X44154774Y-89150000D01*
X51170208Y-89150000D01*
X51181349Y-89263112D01*
X51214342Y-89371877D01*
X51267921Y-89472115D01*
X51340025Y-89559975D01*
X51427885Y-89632079D01*
X51528123Y-89685658D01*
X51636888Y-89718651D01*
X51750000Y-89729792D01*
X52357750Y-89727000D01*
X52502000Y-89582750D01*
X52502000Y-88398000D01*
X52698000Y-88398000D01*
X52698000Y-89582750D01*
X52842250Y-89727000D01*
X53450000Y-89729792D01*
X53563112Y-89718651D01*
X53671877Y-89685658D01*
X53772115Y-89632079D01*
X53859975Y-89559975D01*
X53932079Y-89472115D01*
X53985658Y-89371877D01*
X54018651Y-89263112D01*
X54029792Y-89150000D01*
X54027000Y-88542250D01*
X53882750Y-88398000D01*
X52698000Y-88398000D01*
X52502000Y-88398000D01*
X51317250Y-88398000D01*
X51173000Y-88542250D01*
X51170208Y-89150000D01*
X44154774Y-89150000D01*
X42184115Y-88068283D01*
X40122748Y-86756350D01*
X38150625Y-85313738D01*
X36276018Y-83746495D01*
X34506790Y-82061196D01*
X34219824Y-81750000D01*
X45170208Y-81750000D01*
X45181349Y-81863112D01*
X45214342Y-81971877D01*
X45267921Y-82072115D01*
X45340025Y-82159975D01*
X45427885Y-82232079D01*
X45528123Y-82285658D01*
X45636888Y-82318651D01*
X45750000Y-82329792D01*
X46257750Y-82327000D01*
X46402000Y-82182750D01*
X46402000Y-80848000D01*
X45317250Y-80848000D01*
X45173000Y-80992250D01*
X45170208Y-81750000D01*
X34219824Y-81750000D01*
X32850361Y-80264910D01*
X32433856Y-79750000D01*
X45170208Y-79750000D01*
X45173000Y-80507750D01*
X45317250Y-80652000D01*
X46402000Y-80652000D01*
X46402000Y-79317250D01*
X46257750Y-79173000D01*
X45750000Y-79170208D01*
X45636888Y-79181349D01*
X45528123Y-79214342D01*
X45427885Y-79267921D01*
X45340025Y-79340025D01*
X45267921Y-79427885D01*
X45214342Y-79528123D01*
X45181349Y-79636888D01*
X45170208Y-79750000D01*
X32433856Y-79750000D01*
X31313680Y-78365170D01*
X30436964Y-77125000D01*
X40220208Y-77125000D01*
X40231349Y-77238112D01*
X40264342Y-77346877D01*
X40317921Y-77447115D01*
X40390025Y-77534975D01*
X40477885Y-77607079D01*
X40578123Y-77660658D01*
X40686888Y-77693651D01*
X40800000Y-77704792D01*
X41257750Y-77702000D01*
X41402000Y-77557750D01*
X41402000Y-76648000D01*
X41598000Y-76648000D01*
X41598000Y-77557750D01*
X41742250Y-77702000D01*
X42200000Y-77704792D01*
X42313112Y-77693651D01*
X42421877Y-77660658D01*
X42522115Y-77607079D01*
X42609975Y-77534975D01*
X42682079Y-77447115D01*
X42735658Y-77346877D01*
X42768651Y-77238112D01*
X42779792Y-77125000D01*
X42777000Y-76792250D01*
X42632750Y-76648000D01*
X41598000Y-76648000D01*
X41402000Y-76648000D01*
X40367250Y-76648000D01*
X40223000Y-76792250D01*
X40220208Y-77125000D01*
X30436964Y-77125000D01*
X29903191Y-76369946D01*
X29660728Y-75975000D01*
X40220208Y-75975000D01*
X40223000Y-76307750D01*
X40367250Y-76452000D01*
X41402000Y-76452000D01*
X41402000Y-76432000D01*
X41598000Y-76432000D01*
X41598000Y-76452000D01*
X42632750Y-76452000D01*
X42777000Y-76307750D01*
X42779792Y-75975000D01*
X42768651Y-75861888D01*
X42735658Y-75753123D01*
X42682079Y-75652885D01*
X42609975Y-75565025D01*
X42522115Y-75492921D01*
X42421877Y-75439342D01*
X42313112Y-75406349D01*
X42216244Y-75396808D01*
X42301589Y-75351190D01*
X42397488Y-75272488D01*
X42476190Y-75176589D01*
X42534671Y-75067179D01*
X42538062Y-75056000D01*
X46517157Y-75056000D01*
X46517157Y-75450000D01*
X46524513Y-75524689D01*
X46546299Y-75596508D01*
X46581678Y-75662696D01*
X46629289Y-75720711D01*
X46687304Y-75768322D01*
X46753492Y-75803701D01*
X46825311Y-75825487D01*
X46900000Y-75832843D01*
X48194000Y-75832843D01*
X48194001Y-79367157D01*
X48050000Y-79367157D01*
X47975311Y-79374513D01*
X47903492Y-79396299D01*
X47837304Y-79431678D01*
X47779289Y-79479289D01*
X47767339Y-79493851D01*
X47732079Y-79427885D01*
X47659975Y-79340025D01*
X47572115Y-79267921D01*
X47471877Y-79214342D01*
X47363112Y-79181349D01*
X47250000Y-79170208D01*
X46742250Y-79173000D01*
X46598000Y-79317250D01*
X46598000Y-80652000D01*
X46618000Y-80652000D01*
X46618000Y-80848000D01*
X46598000Y-80848000D01*
X46598000Y-82182750D01*
X46742250Y-82327000D01*
X47250000Y-82329792D01*
X47363112Y-82318651D01*
X47471877Y-82285658D01*
X47572115Y-82232079D01*
X47659975Y-82159975D01*
X47732079Y-82072115D01*
X47767339Y-82006149D01*
X47779289Y-82020711D01*
X47837304Y-82068322D01*
X47903492Y-82103701D01*
X47975311Y-82125487D01*
X48050000Y-82132843D01*
X49550000Y-82132843D01*
X49624689Y-82125487D01*
X49696508Y-82103701D01*
X49762696Y-82068322D01*
X49820711Y-82020711D01*
X49868322Y-81962696D01*
X49903701Y-81896508D01*
X49925487Y-81824689D01*
X49932843Y-81750000D01*
X49932843Y-79750000D01*
X49967157Y-79750000D01*
X49967157Y-81750000D01*
X49974513Y-81824689D01*
X49996299Y-81896508D01*
X50031678Y-81962696D01*
X50079289Y-82020711D01*
X50137304Y-82068322D01*
X50203492Y-82103701D01*
X50275311Y-82125487D01*
X50350000Y-82132843D01*
X51625829Y-82132843D01*
X51994001Y-82501015D01*
X51994000Y-84684405D01*
X51815283Y-84803820D01*
X51643820Y-84975283D01*
X51509102Y-85176903D01*
X51416307Y-85400931D01*
X51369000Y-85638757D01*
X51369000Y-85881243D01*
X51416307Y-86119069D01*
X51509102Y-86343097D01*
X51643820Y-86544717D01*
X51815283Y-86716180D01*
X52016903Y-86850898D01*
X52067038Y-86871664D01*
X51750000Y-86870208D01*
X51636888Y-86881349D01*
X51528123Y-86914342D01*
X51427885Y-86967921D01*
X51340025Y-87040025D01*
X51267921Y-87127885D01*
X51214342Y-87228123D01*
X51181349Y-87336888D01*
X51170208Y-87450000D01*
X51173000Y-88057750D01*
X51317250Y-88202000D01*
X52502000Y-88202000D01*
X52502000Y-88182000D01*
X52698000Y-88182000D01*
X52698000Y-88202000D01*
X53882750Y-88202000D01*
X54027000Y-88057750D01*
X54029792Y-87450000D01*
X54018651Y-87336888D01*
X53985658Y-87228123D01*
X53932079Y-87127885D01*
X53859975Y-87040025D01*
X53772115Y-86967921D01*
X53671877Y-86914342D01*
X53563112Y-86881349D01*
X53450000Y-86870208D01*
X53132962Y-86871664D01*
X53183097Y-86850898D01*
X53384717Y-86716180D01*
X53556180Y-86544717D01*
X53675595Y-86366000D01*
X54510235Y-86366000D01*
X54540000Y-86368932D01*
X54569765Y-86366000D01*
X54569770Y-86366000D01*
X54658797Y-86357232D01*
X54773028Y-86322580D01*
X54878304Y-86266308D01*
X54970580Y-86190580D01*
X54989558Y-86167455D01*
X55552570Y-85604443D01*
X58950286Y-85604443D01*
X58978814Y-85718811D01*
X59084869Y-85957979D01*
X59235545Y-86171862D01*
X59425052Y-86352239D01*
X59646108Y-86492180D01*
X59890218Y-86586306D01*
X60148000Y-86631000D01*
X60902000Y-86631000D01*
X60902000Y-85398000D01*
X61098000Y-85398000D01*
X61098000Y-86631000D01*
X61852000Y-86631000D01*
X62109782Y-86586306D01*
X62353892Y-86492180D01*
X62574948Y-86352239D01*
X62764455Y-86171862D01*
X62915131Y-85957979D01*
X63021186Y-85718811D01*
X63049714Y-85604443D01*
X62936697Y-85398000D01*
X61098000Y-85398000D01*
X60902000Y-85398000D01*
X59063303Y-85398000D01*
X58950286Y-85604443D01*
X55552570Y-85604443D01*
X56161456Y-84995557D01*
X58950286Y-84995557D01*
X59063303Y-85202000D01*
X60902000Y-85202000D01*
X60902000Y-83969000D01*
X61098000Y-83969000D01*
X61098000Y-85202000D01*
X62936697Y-85202000D01*
X63049714Y-84995557D01*
X63021186Y-84881189D01*
X62915131Y-84642021D01*
X62764455Y-84428138D01*
X62574948Y-84247761D01*
X62353892Y-84107820D01*
X62109782Y-84013694D01*
X61852000Y-83969000D01*
X61098000Y-83969000D01*
X60902000Y-83969000D01*
X60148000Y-83969000D01*
X59890218Y-84013694D01*
X59646108Y-84107820D01*
X59425052Y-84247761D01*
X59235545Y-84428138D01*
X59084869Y-84642021D01*
X58978814Y-84881189D01*
X58950286Y-84995557D01*
X56161456Y-84995557D01*
X58759013Y-82398000D01*
X64369000Y-82398000D01*
X64369000Y-83152000D01*
X64413694Y-83409782D01*
X64507820Y-83653892D01*
X64647761Y-83874948D01*
X64828138Y-84064455D01*
X65042021Y-84215131D01*
X65281189Y-84321186D01*
X65395557Y-84349714D01*
X65602000Y-84236697D01*
X65602000Y-82398000D01*
X65798000Y-82398000D01*
X65798000Y-84236697D01*
X66004443Y-84349714D01*
X66118811Y-84321186D01*
X66357979Y-84215131D01*
X66571862Y-84064455D01*
X66752239Y-83874948D01*
X66892180Y-83653892D01*
X66986306Y-83409782D01*
X67031000Y-83152000D01*
X67031000Y-82398000D01*
X65798000Y-82398000D01*
X65602000Y-82398000D01*
X64369000Y-82398000D01*
X58759013Y-82398000D01*
X59709013Y-81448000D01*
X64369000Y-81448000D01*
X64369000Y-82202000D01*
X65602000Y-82202000D01*
X65602000Y-80363303D01*
X65798000Y-80363303D01*
X65798000Y-82202000D01*
X67031000Y-82202000D01*
X67031000Y-81448000D01*
X66986306Y-81190218D01*
X66892180Y-80946108D01*
X66752239Y-80725052D01*
X66571862Y-80535545D01*
X66357979Y-80384869D01*
X66118811Y-80278814D01*
X66004443Y-80250286D01*
X65798000Y-80363303D01*
X65602000Y-80363303D01*
X65395557Y-80250286D01*
X65281189Y-80278814D01*
X65042021Y-80384869D01*
X64828138Y-80535545D01*
X64647761Y-80725052D01*
X64507820Y-80946108D01*
X64413694Y-81190218D01*
X64369000Y-81448000D01*
X59709013Y-81448000D01*
X60722013Y-80435000D01*
X61809752Y-80435000D01*
X61976499Y-80418577D01*
X62190447Y-80353676D01*
X62387623Y-80248284D01*
X62560449Y-80106449D01*
X62702284Y-79933623D01*
X62807676Y-79736447D01*
X62872577Y-79522499D01*
X62894491Y-79300000D01*
X62872577Y-79077501D01*
X62807676Y-78863553D01*
X62702284Y-78666377D01*
X62560449Y-78493551D01*
X62387623Y-78351716D01*
X62190447Y-78246324D01*
X61976499Y-78181423D01*
X61809752Y-78165000D01*
X61606000Y-78165000D01*
X61606000Y-76135813D01*
X61692179Y-76109671D01*
X61801589Y-76051190D01*
X61897488Y-75972488D01*
X61976190Y-75876589D01*
X62034671Y-75767179D01*
X62070683Y-75648462D01*
X62082843Y-75525001D01*
X62082843Y-74874999D01*
X62070683Y-74751538D01*
X62034671Y-74632821D01*
X61976190Y-74523411D01*
X61897488Y-74427512D01*
X61801589Y-74348810D01*
X61716244Y-74303192D01*
X61813112Y-74293651D01*
X61921877Y-74260658D01*
X62022115Y-74207079D01*
X62109975Y-74134975D01*
X62182079Y-74047115D01*
X62235658Y-73946877D01*
X62268651Y-73838112D01*
X62279792Y-73725000D01*
X62277000Y-73392250D01*
X62132750Y-73248000D01*
X61098000Y-73248000D01*
X61098000Y-73268000D01*
X60902000Y-73268000D01*
X60902000Y-73248000D01*
X59867250Y-73248000D01*
X59723000Y-73392250D01*
X59720208Y-73725000D01*
X59731349Y-73838112D01*
X59764342Y-73946877D01*
X59817921Y-74047115D01*
X59890025Y-74134975D01*
X59977885Y-74207079D01*
X60078123Y-74260658D01*
X60186888Y-74293651D01*
X60283756Y-74303192D01*
X60198411Y-74348810D01*
X60102512Y-74427512D01*
X60023810Y-74523411D01*
X59965329Y-74632821D01*
X59929317Y-74751538D01*
X59917157Y-74874999D01*
X59917157Y-75525001D01*
X59929317Y-75648462D01*
X59965329Y-75767179D01*
X60023810Y-75876589D01*
X60102512Y-75972488D01*
X60198411Y-76051190D01*
X60307821Y-76109671D01*
X60394000Y-76135813D01*
X60394001Y-78165000D01*
X60190248Y-78165000D01*
X60023501Y-78181423D01*
X59809553Y-78246324D01*
X59612377Y-78351716D01*
X59439551Y-78493551D01*
X59297716Y-78666377D01*
X59192324Y-78863553D01*
X59127423Y-79077501D01*
X59105509Y-79300000D01*
X59127423Y-79522499D01*
X59192324Y-79736447D01*
X59297716Y-79933623D01*
X59393117Y-80049870D01*
X54288987Y-85154000D01*
X53675595Y-85154000D01*
X53556180Y-84975283D01*
X53384717Y-84803820D01*
X53206000Y-84684405D01*
X53206000Y-82279757D01*
X53208931Y-82249999D01*
X53206000Y-82220241D01*
X53206000Y-82220230D01*
X53197232Y-82131203D01*
X53162580Y-82016972D01*
X53136386Y-81967967D01*
X53106308Y-81911695D01*
X53049557Y-81842543D01*
X53049553Y-81842539D01*
X53030580Y-81819420D01*
X53007461Y-81800447D01*
X52232843Y-81025830D01*
X52232843Y-79750000D01*
X52225487Y-79675311D01*
X52203701Y-79603492D01*
X52168322Y-79537304D01*
X52120711Y-79479289D01*
X52062696Y-79431678D01*
X51996508Y-79396299D01*
X51924689Y-79374513D01*
X51850000Y-79367157D01*
X50350000Y-79367157D01*
X50275311Y-79374513D01*
X50203492Y-79396299D01*
X50137304Y-79431678D01*
X50079289Y-79479289D01*
X50031678Y-79537304D01*
X49996299Y-79603492D01*
X49974513Y-79675311D01*
X49967157Y-79750000D01*
X49932843Y-79750000D01*
X49925487Y-79675311D01*
X49903701Y-79603492D01*
X49868322Y-79537304D01*
X49820711Y-79479289D01*
X49762696Y-79431678D01*
X49696508Y-79396299D01*
X49624689Y-79374513D01*
X49550000Y-79367157D01*
X49406000Y-79367157D01*
X49406000Y-75832843D01*
X50700000Y-75832843D01*
X50774689Y-75825487D01*
X50846508Y-75803701D01*
X50912696Y-75768322D01*
X50970711Y-75720711D01*
X51018322Y-75662696D01*
X51053701Y-75596508D01*
X51075487Y-75524689D01*
X51082843Y-75450000D01*
X51082843Y-75056000D01*
X55820235Y-75056000D01*
X55850000Y-75058932D01*
X55879765Y-75056000D01*
X55879770Y-75056000D01*
X55968797Y-75047232D01*
X56083028Y-75012580D01*
X56188304Y-74956308D01*
X56280580Y-74880580D01*
X56299558Y-74857455D01*
X58582013Y-72575000D01*
X59720208Y-72575000D01*
X59723000Y-72907750D01*
X59867250Y-73052000D01*
X60902000Y-73052000D01*
X60902000Y-72142250D01*
X61098000Y-72142250D01*
X61098000Y-73052000D01*
X62132750Y-73052000D01*
X62277000Y-72907750D01*
X62279792Y-72575000D01*
X62268651Y-72461888D01*
X62235658Y-72353123D01*
X62182079Y-72252885D01*
X62109975Y-72165025D01*
X62022115Y-72092921D01*
X61921877Y-72039342D01*
X61813112Y-72006349D01*
X61700000Y-71995208D01*
X61242250Y-71998000D01*
X61098000Y-72142250D01*
X60902000Y-72142250D01*
X60757750Y-71998000D01*
X60300000Y-71995208D01*
X60186888Y-72006349D01*
X60078123Y-72039342D01*
X59977885Y-72092921D01*
X59890025Y-72165025D01*
X59817921Y-72252885D01*
X59764342Y-72353123D01*
X59731349Y-72461888D01*
X59720208Y-72575000D01*
X58582013Y-72575000D01*
X61076014Y-70081000D01*
X61076922Y-70081000D01*
X61227809Y-70050987D01*
X61369942Y-69992113D01*
X61497859Y-69906642D01*
X61606642Y-69797859D01*
X61692113Y-69669942D01*
X61750987Y-69527809D01*
X61781000Y-69376922D01*
X61781000Y-69223078D01*
X61750987Y-69072191D01*
X61692113Y-68930058D01*
X61606642Y-68802141D01*
X61497859Y-68693358D01*
X61369942Y-68607887D01*
X61227809Y-68549013D01*
X61076922Y-68519000D01*
X60923078Y-68519000D01*
X60772191Y-68549013D01*
X60630058Y-68607887D01*
X60502141Y-68693358D01*
X60393358Y-68802141D01*
X60307887Y-68930058D01*
X60249013Y-69072191D01*
X60219000Y-69223078D01*
X60219000Y-69223986D01*
X55598987Y-73844000D01*
X51082843Y-73844000D01*
X51082843Y-73450000D01*
X51075487Y-73375311D01*
X51053701Y-73303492D01*
X51018322Y-73237304D01*
X50970711Y-73179289D01*
X50912696Y-73131678D01*
X50846508Y-73096299D01*
X50774689Y-73074513D01*
X50700000Y-73067157D01*
X46900000Y-73067157D01*
X46825311Y-73074513D01*
X46753492Y-73096299D01*
X46687304Y-73131678D01*
X46629289Y-73179289D01*
X46581678Y-73237304D01*
X46546299Y-73303492D01*
X46524513Y-73375311D01*
X46517157Y-73450000D01*
X46517157Y-73844000D01*
X42487195Y-73844000D01*
X42476190Y-73823411D01*
X42397488Y-73727512D01*
X42301589Y-73648810D01*
X42192179Y-73590329D01*
X42073462Y-73554317D01*
X41950001Y-73542157D01*
X41049999Y-73542157D01*
X40926538Y-73554317D01*
X40807821Y-73590329D01*
X40698411Y-73648810D01*
X40602512Y-73727512D01*
X40523810Y-73823411D01*
X40465329Y-73932821D01*
X40429317Y-74051538D01*
X40417157Y-74174999D01*
X40417157Y-74825001D01*
X40429317Y-74948462D01*
X40465329Y-75067179D01*
X40523810Y-75176589D01*
X40602512Y-75272488D01*
X40698411Y-75351190D01*
X40783756Y-75396808D01*
X40686888Y-75406349D01*
X40578123Y-75439342D01*
X40477885Y-75492921D01*
X40390025Y-75565025D01*
X40317921Y-75652885D01*
X40264342Y-75753123D01*
X40231349Y-75861888D01*
X40220208Y-75975000D01*
X29660728Y-75975000D01*
X28624810Y-74287605D01*
X27483900Y-72126881D01*
X26485246Y-69896839D01*
X25633037Y-67606830D01*
X24930846Y-65266461D01*
X24381620Y-62885547D01*
X23987662Y-60474075D01*
X23750624Y-58042159D01*
X23671501Y-55600000D01*
X23750624Y-53157841D01*
X23987662Y-50725925D01*
X24381620Y-48314453D01*
X24930846Y-45933539D01*
X25255944Y-44850000D01*
X32067157Y-44850000D01*
X32067157Y-46550000D01*
X32074513Y-46624689D01*
X32096299Y-46696508D01*
X32131678Y-46762696D01*
X32179289Y-46820711D01*
X32237304Y-46868322D01*
X32303492Y-46903701D01*
X32375311Y-46925487D01*
X32450000Y-46932843D01*
X33891566Y-46932843D01*
X33736167Y-47088242D01*
X33659069Y-47056307D01*
X33421243Y-47009000D01*
X33178757Y-47009000D01*
X32940931Y-47056307D01*
X32716903Y-47149102D01*
X32515283Y-47283820D01*
X32343820Y-47455283D01*
X32209102Y-47656903D01*
X32116307Y-47880931D01*
X32069000Y-48118757D01*
X32069000Y-48361243D01*
X32116307Y-48599069D01*
X32209102Y-48823097D01*
X32343820Y-49024717D01*
X32515283Y-49196180D01*
X32716903Y-49330898D01*
X32940931Y-49423693D01*
X33178757Y-49471000D01*
X33421243Y-49471000D01*
X33659069Y-49423693D01*
X33883097Y-49330898D01*
X34084717Y-49196180D01*
X34256180Y-49024717D01*
X34390898Y-48823097D01*
X34483693Y-48599069D01*
X34531000Y-48361243D01*
X34531000Y-48118757D01*
X34483693Y-47880931D01*
X34451758Y-47803833D01*
X39999602Y-42255990D01*
X41108418Y-42255990D01*
X33736167Y-49628242D01*
X33659069Y-49596307D01*
X33421243Y-49549000D01*
X33178757Y-49549000D01*
X32940931Y-49596307D01*
X32716903Y-49689102D01*
X32515283Y-49823820D01*
X32343820Y-49995283D01*
X32209102Y-50196903D01*
X32116307Y-50420931D01*
X32069000Y-50658757D01*
X32069000Y-50901243D01*
X32116307Y-51139069D01*
X32209102Y-51363097D01*
X32343820Y-51564717D01*
X32515283Y-51736180D01*
X32716903Y-51870898D01*
X32940931Y-51963693D01*
X33178757Y-52011000D01*
X33421243Y-52011000D01*
X33659069Y-51963693D01*
X33883097Y-51870898D01*
X34084717Y-51736180D01*
X34256180Y-51564717D01*
X34390898Y-51363097D01*
X34483693Y-51139069D01*
X34531000Y-50901243D01*
X34531000Y-50658757D01*
X34483693Y-50420931D01*
X34451758Y-50343833D01*
X35095591Y-49700000D01*
X48445208Y-49700000D01*
X48456349Y-49813112D01*
X48489342Y-49921877D01*
X48542921Y-50022115D01*
X48615025Y-50109975D01*
X48702885Y-50182079D01*
X48803123Y-50235658D01*
X48911888Y-50268651D01*
X49025000Y-50279792D01*
X49357750Y-50277000D01*
X49502000Y-50132750D01*
X49502000Y-49098000D01*
X48592250Y-49098000D01*
X48448000Y-49242250D01*
X48445208Y-49700000D01*
X35095591Y-49700000D01*
X37395591Y-47400000D01*
X48445208Y-47400000D01*
X48456349Y-47513112D01*
X48489342Y-47621877D01*
X48542921Y-47722115D01*
X48615025Y-47809975D01*
X48663796Y-47850000D01*
X48615025Y-47890025D01*
X48542921Y-47977885D01*
X48489342Y-48078123D01*
X48456349Y-48186888D01*
X48445208Y-48300000D01*
X48448000Y-48757750D01*
X48592250Y-48902000D01*
X49502000Y-48902000D01*
X49502000Y-47867250D01*
X49484750Y-47850000D01*
X49502000Y-47832750D01*
X49502000Y-46798000D01*
X48592250Y-46798000D01*
X48448000Y-46942250D01*
X48445208Y-47400000D01*
X37395591Y-47400000D01*
X38795591Y-46000000D01*
X48445208Y-46000000D01*
X48448000Y-46457750D01*
X48592250Y-46602000D01*
X49502000Y-46602000D01*
X49502000Y-45567250D01*
X49357750Y-45423000D01*
X49025000Y-45420208D01*
X48911888Y-45431349D01*
X48803123Y-45464342D01*
X48702885Y-45517921D01*
X48615025Y-45590025D01*
X48542921Y-45677885D01*
X48489342Y-45778123D01*
X48456349Y-45886888D01*
X48445208Y-46000000D01*
X38795591Y-46000000D01*
X42089592Y-42706000D01*
X52790409Y-42706000D01*
X54094001Y-44009593D01*
X54094000Y-50685156D01*
X54091553Y-50710002D01*
X54094000Y-50734848D01*
X54094000Y-50734855D01*
X54101322Y-50809194D01*
X54130255Y-50904576D01*
X54177241Y-50992481D01*
X54240473Y-51069529D01*
X54259785Y-51085378D01*
X56136352Y-52961946D01*
X56114342Y-53003123D01*
X56081349Y-53111888D01*
X56070208Y-53225000D01*
X56072968Y-53257376D01*
X53706000Y-50890409D01*
X53706000Y-48274845D01*
X53708447Y-48249999D01*
X53706000Y-48225153D01*
X53706000Y-48225146D01*
X53698678Y-48150807D01*
X53669745Y-48055425D01*
X53622759Y-47967521D01*
X53559527Y-47890473D01*
X53540220Y-47874628D01*
X52607843Y-46942252D01*
X52607843Y-46249999D01*
X52595683Y-46126538D01*
X52559671Y-46007821D01*
X52501190Y-45898411D01*
X52422488Y-45802512D01*
X52326589Y-45723810D01*
X52217179Y-45665329D01*
X52206000Y-45661938D01*
X52206000Y-44598501D01*
X52206642Y-44597859D01*
X52292113Y-44469942D01*
X52350987Y-44327809D01*
X52381000Y-44176922D01*
X52381000Y-44023078D01*
X52350987Y-43872191D01*
X52292113Y-43730058D01*
X52206642Y-43602141D01*
X52097859Y-43493358D01*
X51969942Y-43407887D01*
X51827809Y-43349013D01*
X51676922Y-43319000D01*
X51523078Y-43319000D01*
X51372191Y-43349013D01*
X51230058Y-43407887D01*
X51102141Y-43493358D01*
X50993358Y-43602141D01*
X50907887Y-43730058D01*
X50849013Y-43872191D01*
X50819000Y-44023078D01*
X50819000Y-44176922D01*
X50849013Y-44327809D01*
X50907887Y-44469942D01*
X50993358Y-44597859D01*
X50994000Y-44598501D01*
X50994001Y-45712805D01*
X50973411Y-45723810D01*
X50877512Y-45802512D01*
X50798810Y-45898411D01*
X50753192Y-45983756D01*
X50743651Y-45886888D01*
X50710658Y-45778123D01*
X50657079Y-45677885D01*
X50584975Y-45590025D01*
X50497115Y-45517921D01*
X50396877Y-45464342D01*
X50288112Y-45431349D01*
X50175000Y-45420208D01*
X49842250Y-45423000D01*
X49698000Y-45567250D01*
X49698000Y-46602000D01*
X49718000Y-46602000D01*
X49718000Y-46798000D01*
X49698000Y-46798000D01*
X49698000Y-47832750D01*
X49715250Y-47850000D01*
X49698000Y-47867250D01*
X49698000Y-48902000D01*
X49718000Y-48902000D01*
X49718000Y-49098000D01*
X49698000Y-49098000D01*
X49698000Y-50132750D01*
X49842250Y-50277000D01*
X50175000Y-50279792D01*
X50288112Y-50268651D01*
X50396877Y-50235658D01*
X50497115Y-50182079D01*
X50584975Y-50109975D01*
X50657079Y-50022115D01*
X50710658Y-49921877D01*
X50743651Y-49813112D01*
X50753192Y-49716244D01*
X50798810Y-49801589D01*
X50877512Y-49897488D01*
X50973411Y-49976190D01*
X51082821Y-50034671D01*
X51144000Y-50053229D01*
X51144000Y-50325153D01*
X51141553Y-50350000D01*
X51144000Y-50374846D01*
X51144000Y-50374853D01*
X51151322Y-50449192D01*
X51180255Y-50544574D01*
X51227241Y-50632479D01*
X51290473Y-50709527D01*
X51309785Y-50725376D01*
X55594001Y-55009593D01*
X55594000Y-55178409D01*
X55378320Y-54962729D01*
X55362471Y-54943417D01*
X55285423Y-54880185D01*
X55197519Y-54833199D01*
X55102137Y-54804266D01*
X55027798Y-54796944D01*
X55027790Y-54796944D01*
X55002944Y-54794497D01*
X54978098Y-54796944D01*
X52106000Y-54796944D01*
X52106000Y-53853229D01*
X52167179Y-53834671D01*
X52276589Y-53776190D01*
X52372488Y-53697488D01*
X52451190Y-53601589D01*
X52509671Y-53492179D01*
X52545683Y-53373462D01*
X52557843Y-53250001D01*
X52557843Y-52349999D01*
X52545683Y-52226538D01*
X52509671Y-52107821D01*
X52451190Y-51998411D01*
X52372488Y-51902512D01*
X52276589Y-51823810D01*
X52167179Y-51765329D01*
X52048462Y-51729317D01*
X51925001Y-51717157D01*
X51274999Y-51717157D01*
X51151538Y-51729317D01*
X51032821Y-51765329D01*
X50923411Y-51823810D01*
X50827512Y-51902512D01*
X50748810Y-51998411D01*
X50703192Y-52083756D01*
X50693651Y-51986888D01*
X50660658Y-51878123D01*
X50607079Y-51777885D01*
X50534975Y-51690025D01*
X50447115Y-51617921D01*
X50346877Y-51564342D01*
X50238112Y-51531349D01*
X50125000Y-51520208D01*
X49792250Y-51523000D01*
X49648000Y-51667250D01*
X49648000Y-52702000D01*
X49668000Y-52702000D01*
X49668000Y-52898000D01*
X49648000Y-52898000D01*
X49648000Y-53932750D01*
X49792250Y-54077000D01*
X50125000Y-54079792D01*
X50238112Y-54068651D01*
X50346877Y-54035658D01*
X50447115Y-53982079D01*
X50534975Y-53909975D01*
X50607079Y-53822115D01*
X50660658Y-53721877D01*
X50693651Y-53613112D01*
X50703192Y-53516244D01*
X50748810Y-53601589D01*
X50827512Y-53697488D01*
X50923411Y-53776190D01*
X51032821Y-53834671D01*
X51094000Y-53853229D01*
X51094001Y-54500418D01*
X51047488Y-54495837D01*
X50972799Y-54503193D01*
X50900980Y-54524979D01*
X50834792Y-54560358D01*
X50776777Y-54607969D01*
X49786827Y-55597919D01*
X49739216Y-55655934D01*
X49703837Y-55722122D01*
X49682051Y-55793941D01*
X49674695Y-55868630D01*
X49676541Y-55887376D01*
X49604964Y-55865664D01*
X49491853Y-55854523D01*
X49378741Y-55865664D01*
X49269976Y-55898657D01*
X49169738Y-55952236D01*
X49081878Y-56024340D01*
X48760174Y-56349993D01*
X48760174Y-56553993D01*
X49421142Y-57214961D01*
X49435284Y-57200819D01*
X49573877Y-57339412D01*
X49559735Y-57353554D01*
X49573877Y-57367696D01*
X49435284Y-57506289D01*
X49421142Y-57492147D01*
X48689463Y-58223826D01*
X48689463Y-58427826D01*
X48940456Y-58682768D01*
X49028317Y-58754872D01*
X49128555Y-58808451D01*
X49237320Y-58841444D01*
X49350431Y-58852585D01*
X49393310Y-58848362D01*
X49433273Y-58897057D01*
X50281801Y-59745585D01*
X50339816Y-59793196D01*
X50406004Y-59828575D01*
X50477823Y-59850361D01*
X50552512Y-59857717D01*
X50627201Y-59850361D01*
X50699020Y-59828575D01*
X50765208Y-59793196D01*
X50823223Y-59745585D01*
X50960402Y-59608406D01*
X51194000Y-59842004D01*
X51194000Y-60346771D01*
X51132821Y-60365329D01*
X51023411Y-60423810D01*
X50927512Y-60502512D01*
X50848810Y-60598411D01*
X50803192Y-60683756D01*
X50793651Y-60586888D01*
X50760658Y-60478123D01*
X50707079Y-60377885D01*
X50634975Y-60290025D01*
X50547115Y-60217921D01*
X50446877Y-60164342D01*
X50338112Y-60131349D01*
X50225000Y-60120208D01*
X49892250Y-60123000D01*
X49748000Y-60267250D01*
X49748000Y-61302000D01*
X49768000Y-61302000D01*
X49768000Y-61498000D01*
X49748000Y-61498000D01*
X49748000Y-62532750D01*
X49892250Y-62677000D01*
X50225000Y-62679792D01*
X50338112Y-62668651D01*
X50446877Y-62635658D01*
X50547115Y-62582079D01*
X50634975Y-62509975D01*
X50707079Y-62422115D01*
X50760658Y-62321877D01*
X50793651Y-62213112D01*
X50803192Y-62116244D01*
X50848810Y-62201589D01*
X50927512Y-62297488D01*
X51023411Y-62376190D01*
X51132821Y-62434671D01*
X51251538Y-62470683D01*
X51374999Y-62482843D01*
X52025001Y-62482843D01*
X52148462Y-62470683D01*
X52267179Y-62434671D01*
X52376589Y-62376190D01*
X52472488Y-62297488D01*
X52551190Y-62201589D01*
X52609671Y-62092179D01*
X52645683Y-61973462D01*
X52657843Y-61850001D01*
X52657843Y-60949999D01*
X52645683Y-60826538D01*
X52609671Y-60707821D01*
X52551190Y-60598411D01*
X52472488Y-60502512D01*
X52376589Y-60423810D01*
X52267179Y-60365329D01*
X52206000Y-60346771D01*
X52206000Y-59657266D01*
X52208448Y-59632412D01*
X52198678Y-59533219D01*
X52169745Y-59437837D01*
X52122759Y-59349933D01*
X52059527Y-59272885D01*
X52040220Y-59257040D01*
X51844815Y-59061635D01*
X55219519Y-59061635D01*
X55244365Y-59064082D01*
X55269211Y-59061635D01*
X55269219Y-59061635D01*
X55343558Y-59054313D01*
X55438940Y-59025380D01*
X55526844Y-58978394D01*
X55603892Y-58915162D01*
X55619741Y-58895850D01*
X56429046Y-58086545D01*
X56437304Y-58093322D01*
X56503492Y-58128701D01*
X56575311Y-58150487D01*
X56650000Y-58157843D01*
X58142157Y-58157843D01*
X58142157Y-59650000D01*
X58149513Y-59724689D01*
X58171299Y-59796508D01*
X58206678Y-59862696D01*
X58254289Y-59920711D01*
X58294000Y-59953301D01*
X58294001Y-65508357D01*
X56208379Y-67593980D01*
X48289572Y-67593980D01*
X42795592Y-62100000D01*
X48495208Y-62100000D01*
X48506349Y-62213112D01*
X48539342Y-62321877D01*
X48592921Y-62422115D01*
X48665025Y-62509975D01*
X48752885Y-62582079D01*
X48853123Y-62635658D01*
X48961888Y-62668651D01*
X49075000Y-62679792D01*
X49407750Y-62677000D01*
X49552000Y-62532750D01*
X49552000Y-61498000D01*
X48642250Y-61498000D01*
X48498000Y-61642250D01*
X48495208Y-62100000D01*
X42795592Y-62100000D01*
X41395592Y-60700000D01*
X48495208Y-60700000D01*
X48498000Y-61157750D01*
X48642250Y-61302000D01*
X49552000Y-61302000D01*
X49552000Y-60267250D01*
X49407750Y-60123000D01*
X49075000Y-60120208D01*
X48961888Y-60131349D01*
X48853123Y-60164342D01*
X48752885Y-60217921D01*
X48665025Y-60290025D01*
X48592921Y-60377885D01*
X48539342Y-60478123D01*
X48506349Y-60586888D01*
X48495208Y-60700000D01*
X41395592Y-60700000D01*
X38119857Y-57424265D01*
X47922111Y-57424265D01*
X47933252Y-57537376D01*
X47966245Y-57646141D01*
X48019824Y-57746379D01*
X48091928Y-57834240D01*
X48346870Y-58085233D01*
X48550870Y-58085233D01*
X49282549Y-57353554D01*
X48621581Y-56692586D01*
X48417581Y-56692586D01*
X48091928Y-57014290D01*
X48019824Y-57102150D01*
X47966245Y-57202388D01*
X47933252Y-57311153D01*
X47922111Y-57424265D01*
X38119857Y-57424265D01*
X34451758Y-53756167D01*
X34483693Y-53679069D01*
X34519312Y-53500000D01*
X48395208Y-53500000D01*
X48406349Y-53613112D01*
X48439342Y-53721877D01*
X48492921Y-53822115D01*
X48565025Y-53909975D01*
X48652885Y-53982079D01*
X48753123Y-54035658D01*
X48861888Y-54068651D01*
X48975000Y-54079792D01*
X49307750Y-54077000D01*
X49452000Y-53932750D01*
X49452000Y-52898000D01*
X48542250Y-52898000D01*
X48398000Y-53042250D01*
X48395208Y-53500000D01*
X34519312Y-53500000D01*
X34531000Y-53441243D01*
X34531000Y-53198757D01*
X34483693Y-52960931D01*
X34390898Y-52736903D01*
X34256180Y-52535283D01*
X34084717Y-52363820D01*
X33883097Y-52229102D01*
X33659069Y-52136307D01*
X33476544Y-52100000D01*
X48395208Y-52100000D01*
X48398000Y-52557750D01*
X48542250Y-52702000D01*
X49452000Y-52702000D01*
X49452000Y-51667250D01*
X49307750Y-51523000D01*
X48975000Y-51520208D01*
X48861888Y-51531349D01*
X48753123Y-51564342D01*
X48652885Y-51617921D01*
X48565025Y-51690025D01*
X48492921Y-51777885D01*
X48439342Y-51878123D01*
X48406349Y-51986888D01*
X48395208Y-52100000D01*
X33476544Y-52100000D01*
X33421243Y-52089000D01*
X33178757Y-52089000D01*
X32940931Y-52136307D01*
X32716903Y-52229102D01*
X32515283Y-52363820D01*
X32343820Y-52535283D01*
X32209102Y-52736903D01*
X32116307Y-52960931D01*
X32069000Y-53198757D01*
X32069000Y-53441243D01*
X32116307Y-53679069D01*
X32209102Y-53903097D01*
X32343820Y-54104717D01*
X32515283Y-54276180D01*
X32716903Y-54410898D01*
X32940931Y-54503693D01*
X33178757Y-54551000D01*
X33421243Y-54551000D01*
X33659069Y-54503693D01*
X33736167Y-54471758D01*
X47308398Y-68043990D01*
X46199582Y-68043990D01*
X34451758Y-56296167D01*
X34483693Y-56219069D01*
X34531000Y-55981243D01*
X34531000Y-55738757D01*
X34483693Y-55500931D01*
X34390898Y-55276903D01*
X34256180Y-55075283D01*
X34084717Y-54903820D01*
X33883097Y-54769102D01*
X33659069Y-54676307D01*
X33421243Y-54629000D01*
X33178757Y-54629000D01*
X32940931Y-54676307D01*
X32716903Y-54769102D01*
X32515283Y-54903820D01*
X32343820Y-55075283D01*
X32209102Y-55276903D01*
X32116307Y-55500931D01*
X32069000Y-55738757D01*
X32069000Y-55981243D01*
X32116307Y-56219069D01*
X32209102Y-56443097D01*
X32343820Y-56644717D01*
X32515283Y-56816180D01*
X32716903Y-56950898D01*
X32940931Y-57043693D01*
X33178757Y-57091000D01*
X33421243Y-57091000D01*
X33659069Y-57043693D01*
X33736167Y-57011758D01*
X45218408Y-68494000D01*
X44109592Y-68494000D01*
X34451758Y-58836167D01*
X34483693Y-58759069D01*
X34531000Y-58521243D01*
X34531000Y-58278757D01*
X34483693Y-58040931D01*
X34390898Y-57816903D01*
X34256180Y-57615283D01*
X34084717Y-57443820D01*
X33883097Y-57309102D01*
X33659069Y-57216307D01*
X33421243Y-57169000D01*
X33178757Y-57169000D01*
X32940931Y-57216307D01*
X32716903Y-57309102D01*
X32515283Y-57443820D01*
X32343820Y-57615283D01*
X32209102Y-57816903D01*
X32116307Y-58040931D01*
X32069000Y-58278757D01*
X32069000Y-58521243D01*
X32116307Y-58759069D01*
X32209102Y-58983097D01*
X32343820Y-59184717D01*
X32515283Y-59356180D01*
X32716903Y-59490898D01*
X32940931Y-59583693D01*
X33178757Y-59631000D01*
X33421243Y-59631000D01*
X33659069Y-59583693D01*
X33736167Y-59551758D01*
X43178388Y-68993980D01*
X42069572Y-68993980D01*
X34451758Y-61376167D01*
X34483693Y-61299069D01*
X34531000Y-61061243D01*
X34531000Y-60818757D01*
X34483693Y-60580931D01*
X34390898Y-60356903D01*
X34256180Y-60155283D01*
X34084717Y-59983820D01*
X33883097Y-59849102D01*
X33659069Y-59756307D01*
X33421243Y-59709000D01*
X33178757Y-59709000D01*
X32940931Y-59756307D01*
X32716903Y-59849102D01*
X32515283Y-59983820D01*
X32343820Y-60155283D01*
X32209102Y-60356903D01*
X32116307Y-60580931D01*
X32069000Y-60818757D01*
X32069000Y-61061243D01*
X32116307Y-61299069D01*
X32209102Y-61523097D01*
X32343820Y-61724717D01*
X32515283Y-61896180D01*
X32716903Y-62030898D01*
X32940931Y-62123693D01*
X33178757Y-62171000D01*
X33421243Y-62171000D01*
X33659069Y-62123693D01*
X33736167Y-62091758D01*
X41088398Y-69443990D01*
X39979582Y-69443990D01*
X34451758Y-63916167D01*
X34483693Y-63839069D01*
X34531000Y-63601243D01*
X34531000Y-63358757D01*
X34483693Y-63120931D01*
X34390898Y-62896903D01*
X34256180Y-62695283D01*
X34084717Y-62523820D01*
X33883097Y-62389102D01*
X33659069Y-62296307D01*
X33421243Y-62249000D01*
X33178757Y-62249000D01*
X32940931Y-62296307D01*
X32716903Y-62389102D01*
X32515283Y-62523820D01*
X32343820Y-62695283D01*
X32209102Y-62896903D01*
X32116307Y-63120931D01*
X32069000Y-63358757D01*
X32069000Y-63601243D01*
X32116307Y-63839069D01*
X32209102Y-64063097D01*
X32343820Y-64264717D01*
X32515283Y-64436180D01*
X32716903Y-64570898D01*
X32940931Y-64663693D01*
X33178757Y-64711000D01*
X33421243Y-64711000D01*
X33659069Y-64663693D01*
X33736167Y-64631758D01*
X38998408Y-69894000D01*
X37889592Y-69894000D01*
X34451758Y-66456167D01*
X34483693Y-66379069D01*
X34531000Y-66141243D01*
X34531000Y-65898757D01*
X34483693Y-65660931D01*
X34390898Y-65436903D01*
X34256180Y-65235283D01*
X34084717Y-65063820D01*
X33883097Y-64929102D01*
X33659069Y-64836307D01*
X33421243Y-64789000D01*
X33178757Y-64789000D01*
X32940931Y-64836307D01*
X32716903Y-64929102D01*
X32515283Y-65063820D01*
X32343820Y-65235283D01*
X32209102Y-65436903D01*
X32116307Y-65660931D01*
X32069000Y-65898757D01*
X32069000Y-66141243D01*
X32116307Y-66379069D01*
X32209102Y-66603097D01*
X32343820Y-66804717D01*
X32515283Y-66976180D01*
X32716903Y-67110898D01*
X32940931Y-67203693D01*
X33178757Y-67251000D01*
X33421243Y-67251000D01*
X33659069Y-67203693D01*
X33736167Y-67171758D01*
X37304628Y-70740220D01*
X37320473Y-70759527D01*
X37397521Y-70822759D01*
X37485425Y-70869745D01*
X37558607Y-70891944D01*
X37580806Y-70898678D01*
X37590694Y-70899652D01*
X37655146Y-70906000D01*
X37655153Y-70906000D01*
X37679999Y-70908447D01*
X37704845Y-70906000D01*
X57275154Y-70906000D01*
X57300000Y-70908447D01*
X57324846Y-70906000D01*
X57324854Y-70906000D01*
X57399193Y-70898678D01*
X57494575Y-70869745D01*
X57582479Y-70822759D01*
X57659527Y-70759527D01*
X57675376Y-70740215D01*
X63140220Y-65275372D01*
X63159527Y-65259527D01*
X63222759Y-65182479D01*
X63269745Y-65094575D01*
X63298678Y-64999193D01*
X63306000Y-64924854D01*
X63308448Y-64900000D01*
X63306000Y-64875146D01*
X63306000Y-61858001D01*
X76003219Y-74555221D01*
X76019064Y-74574528D01*
X76096112Y-74637760D01*
X76180802Y-74683028D01*
X76184016Y-74684746D01*
X76279398Y-74713679D01*
X76378591Y-74723449D01*
X76403445Y-74721001D01*
X77018102Y-74721001D01*
X76943820Y-74795283D01*
X76809102Y-74996903D01*
X76768883Y-75094000D01*
X75898501Y-75094000D01*
X75797859Y-74993358D01*
X75669942Y-74907887D01*
X75527809Y-74849013D01*
X75376922Y-74819000D01*
X75223078Y-74819000D01*
X75072191Y-74849013D01*
X74930058Y-74907887D01*
X74802141Y-74993358D01*
X74693358Y-75102141D01*
X74607887Y-75230058D01*
X74549013Y-75372191D01*
X74519000Y-75523078D01*
X74519000Y-75676922D01*
X74549013Y-75827809D01*
X74607887Y-75969942D01*
X74693358Y-76097859D01*
X74802141Y-76206642D01*
X74930058Y-76292113D01*
X75072191Y-76350987D01*
X75223078Y-76381000D01*
X75376922Y-76381000D01*
X75527809Y-76350987D01*
X75669942Y-76292113D01*
X75797859Y-76206642D01*
X75898501Y-76106000D01*
X76785452Y-76106000D01*
X76809102Y-76163097D01*
X76943820Y-76364717D01*
X77115283Y-76536180D01*
X77316903Y-76670898D01*
X77540931Y-76763693D01*
X77778757Y-76811000D01*
X78021243Y-76811000D01*
X78259069Y-76763693D01*
X78483097Y-76670898D01*
X78684717Y-76536180D01*
X78856180Y-76364717D01*
X78990898Y-76163097D01*
X79070726Y-75970375D01*
X79106107Y-76087020D01*
X79230652Y-76337507D01*
X79401672Y-76558884D01*
X79612594Y-76742643D01*
X79855313Y-76881722D01*
X80120501Y-76970777D01*
X80342000Y-76859385D01*
X80342000Y-75678000D01*
X80538000Y-75678000D01*
X80538000Y-76859385D01*
X80759499Y-76970777D01*
X81024687Y-76881722D01*
X81267406Y-76742643D01*
X81478328Y-76558884D01*
X81649348Y-76337507D01*
X81773893Y-76087020D01*
X81830773Y-75899498D01*
X81719001Y-75678000D01*
X80538000Y-75678000D01*
X80342000Y-75678000D01*
X80322000Y-75678000D01*
X80322000Y-75482000D01*
X80342000Y-75482000D01*
X80342000Y-75462000D01*
X80538000Y-75462000D01*
X80538000Y-75482000D01*
X81719001Y-75482000D01*
X81830773Y-75260502D01*
X81773893Y-75072980D01*
X81649348Y-74822493D01*
X81478328Y-74601116D01*
X81267406Y-74417357D01*
X81024687Y-74278278D01*
X80827310Y-74211995D01*
X81023097Y-74130898D01*
X81224717Y-73996180D01*
X81396180Y-73824717D01*
X81530898Y-73623097D01*
X81623693Y-73399069D01*
X81671000Y-73161243D01*
X81671000Y-72918757D01*
X81623693Y-72680931D01*
X81530898Y-72456903D01*
X81396180Y-72255283D01*
X81224717Y-72083820D01*
X81023097Y-71949102D01*
X80799069Y-71856307D01*
X80561243Y-71809000D01*
X80318757Y-71809000D01*
X80080931Y-71856307D01*
X79856903Y-71949102D01*
X79655283Y-72083820D01*
X79483820Y-72255283D01*
X79349102Y-72456903D01*
X79256307Y-72680931D01*
X79209000Y-72918757D01*
X79209000Y-73161243D01*
X79256307Y-73399069D01*
X79288242Y-73476167D01*
X79055408Y-73709001D01*
X78933499Y-73709001D01*
X78990898Y-73623097D01*
X79083693Y-73399069D01*
X79131000Y-73161243D01*
X79131000Y-72918757D01*
X79083693Y-72680931D01*
X79051758Y-72603833D01*
X79605219Y-72050373D01*
X79624526Y-72034528D01*
X79687758Y-71957480D01*
X79734744Y-71869576D01*
X79763677Y-71774194D01*
X79770999Y-71699855D01*
X79770999Y-71699848D01*
X79773446Y-71675002D01*
X79770999Y-71650156D01*
X79770999Y-71533499D01*
X79856903Y-71590898D01*
X80080931Y-71683693D01*
X80318757Y-71731000D01*
X80561243Y-71731000D01*
X80799069Y-71683693D01*
X81023097Y-71590898D01*
X81224717Y-71456180D01*
X81396180Y-71284717D01*
X81530898Y-71083097D01*
X81623693Y-70859069D01*
X81671000Y-70621243D01*
X81671000Y-70378757D01*
X81623693Y-70140931D01*
X81530898Y-69916903D01*
X81454479Y-69802534D01*
X83876013Y-67381000D01*
X83876922Y-67381000D01*
X84027809Y-67350987D01*
X84169942Y-67292113D01*
X84297859Y-67206642D01*
X84406642Y-67097859D01*
X84492113Y-66969942D01*
X84550987Y-66827809D01*
X84581000Y-66676922D01*
X84581000Y-66523078D01*
X84550987Y-66372191D01*
X84492113Y-66230058D01*
X84406642Y-66102141D01*
X84297859Y-65993358D01*
X84169942Y-65907887D01*
X84027809Y-65849013D01*
X83876922Y-65819000D01*
X83723078Y-65819000D01*
X83572191Y-65849013D01*
X83430058Y-65907887D01*
X83302141Y-65993358D01*
X83193358Y-66102141D01*
X83107887Y-66230058D01*
X83049013Y-66372191D01*
X83019000Y-66523078D01*
X83019000Y-66523987D01*
X80262870Y-69280117D01*
X80080931Y-69316307D01*
X79856903Y-69409102D01*
X79770999Y-69466501D01*
X79770999Y-65989853D01*
X79773447Y-65964999D01*
X79763677Y-65865806D01*
X79734744Y-65770424D01*
X79723258Y-65748935D01*
X79687758Y-65682520D01*
X79624526Y-65605472D01*
X79605219Y-65589627D01*
X73275376Y-59259785D01*
X73259527Y-59240473D01*
X73182479Y-59177241D01*
X73094575Y-59130255D01*
X72999193Y-59101322D01*
X72924854Y-59094000D01*
X72924846Y-59094000D01*
X72900000Y-59091553D01*
X72875154Y-59094000D01*
X71309592Y-59094000D01*
X69798434Y-57582843D01*
X70225001Y-57582843D01*
X70348462Y-57570683D01*
X70467179Y-57534671D01*
X70576589Y-57476190D01*
X70672488Y-57397488D01*
X70751190Y-57301589D01*
X70796808Y-57216244D01*
X70806349Y-57313112D01*
X70839342Y-57421877D01*
X70892921Y-57522115D01*
X70965025Y-57609975D01*
X71052885Y-57682079D01*
X71153123Y-57735658D01*
X71261888Y-57768651D01*
X71375000Y-57779792D01*
X71707750Y-57777000D01*
X71852000Y-57632750D01*
X71852000Y-56598000D01*
X72048000Y-56598000D01*
X72048000Y-57632750D01*
X72192250Y-57777000D01*
X72525000Y-57779792D01*
X72638112Y-57768651D01*
X72746877Y-57735658D01*
X72847115Y-57682079D01*
X72934975Y-57609975D01*
X73007079Y-57522115D01*
X73060658Y-57421877D01*
X73093651Y-57313112D01*
X73104792Y-57200000D01*
X73102000Y-56742250D01*
X72957750Y-56598000D01*
X72048000Y-56598000D01*
X71852000Y-56598000D01*
X71832000Y-56598000D01*
X71832000Y-56402000D01*
X71852000Y-56402000D01*
X71852000Y-54598000D01*
X72048000Y-54598000D01*
X72048000Y-56402000D01*
X72957750Y-56402000D01*
X73102000Y-56257750D01*
X73104792Y-55800000D01*
X73093651Y-55686888D01*
X73060658Y-55578123D01*
X73018900Y-55500000D01*
X73060658Y-55421877D01*
X73093651Y-55313112D01*
X73104792Y-55200000D01*
X73102000Y-54742250D01*
X72957750Y-54598000D01*
X72048000Y-54598000D01*
X71852000Y-54598000D01*
X71832000Y-54598000D01*
X71832000Y-54402000D01*
X71852000Y-54402000D01*
X71852000Y-53367250D01*
X72048000Y-53367250D01*
X72048000Y-54402000D01*
X72957750Y-54402000D01*
X73102000Y-54257750D01*
X73104792Y-53800000D01*
X73093651Y-53686888D01*
X73082462Y-53650000D01*
X90170208Y-53650000D01*
X90181349Y-53763112D01*
X90214342Y-53871877D01*
X90267921Y-53972115D01*
X90340025Y-54059975D01*
X90427885Y-54132079D01*
X90528123Y-54185658D01*
X90636888Y-54218651D01*
X90750000Y-54229792D01*
X91067038Y-54228336D01*
X91016903Y-54249102D01*
X90815283Y-54383820D01*
X90643820Y-54555283D01*
X90509102Y-54756903D01*
X90416307Y-54980931D01*
X90369000Y-55218757D01*
X90369000Y-55461243D01*
X90416307Y-55699069D01*
X90509102Y-55923097D01*
X90643820Y-56124717D01*
X90815283Y-56296180D01*
X91016903Y-56430898D01*
X91240931Y-56523693D01*
X91478757Y-56571000D01*
X91721243Y-56571000D01*
X91959069Y-56523693D01*
X92183097Y-56430898D01*
X92384717Y-56296180D01*
X92556180Y-56124717D01*
X92690898Y-55923097D01*
X92697980Y-55906000D01*
X94601499Y-55906000D01*
X94602141Y-55906642D01*
X94730058Y-55992113D01*
X94872191Y-56050987D01*
X95023078Y-56081000D01*
X95176922Y-56081000D01*
X95327809Y-56050987D01*
X95469942Y-55992113D01*
X95597859Y-55906642D01*
X95706642Y-55797859D01*
X95792113Y-55669942D01*
X95850987Y-55527809D01*
X95881000Y-55376922D01*
X95881000Y-55223078D01*
X95850987Y-55072191D01*
X95792113Y-54930058D01*
X95706642Y-54802141D01*
X95597859Y-54693358D01*
X95469942Y-54607887D01*
X95327809Y-54549013D01*
X95176922Y-54519000D01*
X95023078Y-54519000D01*
X94872191Y-54549013D01*
X94730058Y-54607887D01*
X94602141Y-54693358D01*
X94601499Y-54694000D01*
X92648868Y-54694000D01*
X92556180Y-54555283D01*
X92384717Y-54383820D01*
X92183097Y-54249102D01*
X92132962Y-54228336D01*
X92450000Y-54229792D01*
X92563112Y-54218651D01*
X92671877Y-54185658D01*
X92772115Y-54132079D01*
X92859975Y-54059975D01*
X92932079Y-53972115D01*
X92985658Y-53871877D01*
X93018651Y-53763112D01*
X93029792Y-53650000D01*
X93027000Y-53042250D01*
X92882750Y-52898000D01*
X91698000Y-52898000D01*
X91698000Y-52918000D01*
X91502000Y-52918000D01*
X91502000Y-52898000D01*
X90317250Y-52898000D01*
X90173000Y-53042250D01*
X90170208Y-53650000D01*
X73082462Y-53650000D01*
X73060658Y-53578123D01*
X73007079Y-53477885D01*
X72934975Y-53390025D01*
X72847115Y-53317921D01*
X72746877Y-53264342D01*
X72638112Y-53231349D01*
X72525000Y-53220208D01*
X72192250Y-53223000D01*
X72048000Y-53367250D01*
X71852000Y-53367250D01*
X71707750Y-53223000D01*
X71375000Y-53220208D01*
X71261888Y-53231349D01*
X71153123Y-53264342D01*
X71052885Y-53317921D01*
X70965025Y-53390025D01*
X70892921Y-53477885D01*
X70839342Y-53578123D01*
X70806349Y-53686888D01*
X70796808Y-53783756D01*
X70751190Y-53698411D01*
X70672488Y-53602512D01*
X70576589Y-53523810D01*
X70506000Y-53486079D01*
X70506000Y-52636416D01*
X70550987Y-52527809D01*
X70581000Y-52376922D01*
X70581000Y-52223078D01*
X70550987Y-52072191D01*
X70500374Y-51950000D01*
X90170208Y-51950000D01*
X90173000Y-52557750D01*
X90317250Y-52702000D01*
X91502000Y-52702000D01*
X91502000Y-51517250D01*
X91698000Y-51517250D01*
X91698000Y-52702000D01*
X92882750Y-52702000D01*
X93027000Y-52557750D01*
X93029792Y-51950000D01*
X93018651Y-51836888D01*
X92985658Y-51728123D01*
X92932079Y-51627885D01*
X92859975Y-51540025D01*
X92772115Y-51467921D01*
X92671877Y-51414342D01*
X92563112Y-51381349D01*
X92450000Y-51370208D01*
X91842250Y-51373000D01*
X91698000Y-51517250D01*
X91502000Y-51517250D01*
X91357750Y-51373000D01*
X90750000Y-51370208D01*
X90636888Y-51381349D01*
X90528123Y-51414342D01*
X90427885Y-51467921D01*
X90340025Y-51540025D01*
X90267921Y-51627885D01*
X90214342Y-51728123D01*
X90181349Y-51836888D01*
X90170208Y-51950000D01*
X70500374Y-51950000D01*
X70492113Y-51930058D01*
X70406642Y-51802141D01*
X70297859Y-51693358D01*
X70169942Y-51607887D01*
X70145024Y-51597565D01*
X85023091Y-36719499D01*
X87261655Y-36719499D01*
X87277562Y-36721066D01*
X87629289Y-37072793D01*
X87687304Y-37120404D01*
X87753492Y-37155783D01*
X87825311Y-37177569D01*
X87900000Y-37184925D01*
X87974689Y-37177569D01*
X88046508Y-37155783D01*
X88112696Y-37120404D01*
X88170711Y-37072793D01*
X89372793Y-35870711D01*
X89420404Y-35812696D01*
X89455783Y-35746508D01*
X89477569Y-35674689D01*
X89484925Y-35600000D01*
X89477569Y-35525311D01*
X89455783Y-35453492D01*
X89420404Y-35387304D01*
X89372793Y-35329289D01*
X88170711Y-34127207D01*
X88112696Y-34079596D01*
X88046508Y-34044217D01*
X87974689Y-34022431D01*
X87900000Y-34015075D01*
X87825311Y-34022431D01*
X87753492Y-34044217D01*
X87687304Y-34079596D01*
X87629289Y-34127207D01*
X86427207Y-35329289D01*
X86379596Y-35387304D01*
X86344217Y-35453492D01*
X86322431Y-35525311D01*
X86315075Y-35600000D01*
X86322431Y-35674689D01*
X86332384Y-35707499D01*
X85398681Y-35707499D01*
X86071231Y-35034949D01*
X86225192Y-35034949D01*
X86463018Y-34987642D01*
X86687046Y-34894847D01*
X86888666Y-34760129D01*
X87060129Y-34588666D01*
X87194847Y-34387046D01*
X87287642Y-34163018D01*
X87334949Y-33925192D01*
X87334949Y-33682706D01*
X87287642Y-33444880D01*
X87194847Y-33220852D01*
X87060129Y-33019232D01*
X86888666Y-32847769D01*
X86687046Y-32713051D01*
X86463018Y-32620256D01*
X86225192Y-32572949D01*
X85982706Y-32572949D01*
X85744880Y-32620256D01*
X85520852Y-32713051D01*
X85319232Y-32847769D01*
X85147769Y-33019232D01*
X85013051Y-33220852D01*
X84920256Y-33444880D01*
X84872949Y-33682706D01*
X84872949Y-33925192D01*
X84920256Y-34163018D01*
X85013051Y-34387046D01*
X85123160Y-34551836D01*
X84813898Y-34861098D01*
X84813898Y-33130730D01*
X84890995Y-33098796D01*
X85092615Y-32964078D01*
X85264078Y-32792615D01*
X85398796Y-32590995D01*
X85491591Y-32366967D01*
X85538898Y-32129141D01*
X85538898Y-31886655D01*
X85491591Y-31648829D01*
X85398796Y-31424801D01*
X85264078Y-31223181D01*
X85092615Y-31051718D01*
X84890995Y-30917000D01*
X84666967Y-30824205D01*
X84429141Y-30776898D01*
X84186655Y-30776898D01*
X83948829Y-30824205D01*
X83724801Y-30917000D01*
X83523181Y-31051718D01*
X83351718Y-31223181D01*
X83217000Y-31424801D01*
X83124205Y-31648829D01*
X83076898Y-31886655D01*
X83076898Y-32129141D01*
X83124205Y-32366967D01*
X83217000Y-32590995D01*
X83351718Y-32792615D01*
X83523181Y-32964078D01*
X83724801Y-33098796D01*
X83801899Y-33130731D01*
X83801898Y-35236688D01*
X83017846Y-36020740D01*
X83017846Y-31334678D01*
X83094943Y-31302744D01*
X83296563Y-31168026D01*
X83468026Y-30996563D01*
X83602744Y-30794943D01*
X83695539Y-30570915D01*
X83742846Y-30333089D01*
X83742846Y-30090603D01*
X83695539Y-29852777D01*
X83602744Y-29628749D01*
X83468026Y-29427129D01*
X83296563Y-29255666D01*
X83094943Y-29120948D01*
X82870915Y-29028153D01*
X82633089Y-28980846D01*
X82390603Y-28980846D01*
X82152777Y-29028153D01*
X81928749Y-29120948D01*
X81727129Y-29255666D01*
X81555666Y-29427129D01*
X81420948Y-29628749D01*
X81328153Y-29852777D01*
X81280846Y-30090603D01*
X81280846Y-30333089D01*
X81328153Y-30570915D01*
X81420948Y-30794943D01*
X81555666Y-30996563D01*
X81727129Y-31168026D01*
X81928749Y-31302744D01*
X82005847Y-31334679D01*
X82005846Y-36396330D01*
X81221795Y-37180381D01*
X81221795Y-29538627D01*
X81298892Y-29506693D01*
X81500512Y-29371975D01*
X81671975Y-29200512D01*
X81806693Y-28998892D01*
X81899488Y-28774864D01*
X81946795Y-28537038D01*
X81946795Y-28294552D01*
X81899488Y-28056726D01*
X81806693Y-27832698D01*
X81671975Y-27631078D01*
X81500512Y-27459615D01*
X81298892Y-27324897D01*
X81074864Y-27232102D01*
X80837038Y-27184795D01*
X80594552Y-27184795D01*
X80356726Y-27232102D01*
X80132698Y-27324897D01*
X79931078Y-27459615D01*
X79759615Y-27631078D01*
X79624897Y-27832698D01*
X79532102Y-28056726D01*
X79484795Y-28294552D01*
X79484795Y-28537038D01*
X79532102Y-28774864D01*
X79624897Y-28998892D01*
X79759615Y-29200512D01*
X79931078Y-29371975D01*
X80132698Y-29506693D01*
X80209796Y-29538628D01*
X80209795Y-37555971D01*
X79425744Y-38340022D01*
X79425744Y-27742576D01*
X79502841Y-27710642D01*
X79704461Y-27575924D01*
X79875924Y-27404461D01*
X80010642Y-27202841D01*
X80103437Y-26978813D01*
X80150744Y-26740987D01*
X80150744Y-26498501D01*
X80103437Y-26260675D01*
X80010642Y-26036647D01*
X79875924Y-25835027D01*
X79704461Y-25663564D01*
X79502841Y-25528846D01*
X79278813Y-25436051D01*
X79040987Y-25388744D01*
X78798501Y-25388744D01*
X78560675Y-25436051D01*
X78336647Y-25528846D01*
X78135027Y-25663564D01*
X77963564Y-25835027D01*
X77828846Y-26036647D01*
X77736051Y-26260675D01*
X77688744Y-26498501D01*
X77688744Y-26740987D01*
X77736051Y-26978813D01*
X77828846Y-27202841D01*
X77963564Y-27404461D01*
X78135027Y-27575924D01*
X78336647Y-27710642D01*
X78413745Y-27742577D01*
X78413744Y-38715612D01*
X69535377Y-47593980D01*
X63424865Y-47593980D01*
X63400019Y-47591533D01*
X63375173Y-47593980D01*
X63375166Y-47593980D01*
X63310714Y-47600328D01*
X63300826Y-47601302D01*
X63283223Y-47606642D01*
X63205445Y-47630235D01*
X63117541Y-47677221D01*
X63040493Y-47740453D01*
X63024649Y-47759759D01*
X61706000Y-49078409D01*
X61706000Y-48009591D01*
X61934591Y-47781000D01*
X62076922Y-47781000D01*
X62227809Y-47750987D01*
X62369942Y-47692113D01*
X62497859Y-47606642D01*
X62606642Y-47497859D01*
X62692113Y-47369942D01*
X62750987Y-47227809D01*
X62781000Y-47076922D01*
X62781000Y-46923078D01*
X62757712Y-46806000D01*
X64100154Y-46806000D01*
X64125000Y-46808447D01*
X64149846Y-46806000D01*
X64149854Y-46806000D01*
X64224193Y-46798678D01*
X64319575Y-46769745D01*
X64407479Y-46722759D01*
X64484527Y-46659527D01*
X64500376Y-46640215D01*
X65657749Y-45482843D01*
X66350001Y-45482843D01*
X66473462Y-45470683D01*
X66592179Y-45434671D01*
X66701589Y-45376190D01*
X66797488Y-45297488D01*
X66876190Y-45201589D01*
X66934671Y-45092179D01*
X66970683Y-44973462D01*
X66982843Y-44850001D01*
X66982843Y-44199999D01*
X66979055Y-44161537D01*
X67265230Y-43875362D01*
X67284537Y-43859517D01*
X67347769Y-43782469D01*
X67394755Y-43694565D01*
X67423688Y-43599183D01*
X67431010Y-43524844D01*
X67431010Y-43524837D01*
X67433457Y-43499991D01*
X67431010Y-43475145D01*
X67431010Y-41540443D01*
X67433457Y-41515597D01*
X67431010Y-41490751D01*
X67431010Y-41490744D01*
X67423688Y-41416405D01*
X67394755Y-41321023D01*
X67347769Y-41233119D01*
X67284537Y-41156071D01*
X67265230Y-41140226D01*
X54806000Y-28680997D01*
X54806000Y-26800000D01*
X56620208Y-26800000D01*
X56631349Y-26913112D01*
X56664342Y-27021877D01*
X56717921Y-27122115D01*
X56790025Y-27209975D01*
X56877885Y-27282079D01*
X56978123Y-27335658D01*
X57086888Y-27368651D01*
X57200000Y-27379792D01*
X57807750Y-27377000D01*
X57952000Y-27232750D01*
X57952000Y-26398000D01*
X58148000Y-26398000D01*
X58148000Y-27232750D01*
X58292250Y-27377000D01*
X58900000Y-27379792D01*
X59013112Y-27368651D01*
X59121877Y-27335658D01*
X59222115Y-27282079D01*
X59309975Y-27209975D01*
X59382079Y-27122115D01*
X59435658Y-27021877D01*
X59468651Y-26913112D01*
X59479792Y-26800000D01*
X62920208Y-26800000D01*
X62931349Y-26913112D01*
X62964342Y-27021877D01*
X63017921Y-27122115D01*
X63090025Y-27209975D01*
X63177885Y-27282079D01*
X63278123Y-27335658D01*
X63386888Y-27368651D01*
X63500000Y-27379792D01*
X64107750Y-27377000D01*
X64252000Y-27232750D01*
X64252000Y-26398000D01*
X64448000Y-26398000D01*
X64448000Y-27232750D01*
X64592250Y-27377000D01*
X65200000Y-27379792D01*
X65313112Y-27368651D01*
X65421877Y-27335658D01*
X65522115Y-27282079D01*
X65609975Y-27209975D01*
X65682079Y-27122115D01*
X65735658Y-27021877D01*
X65768651Y-26913112D01*
X65779792Y-26800000D01*
X65777000Y-26542250D01*
X65632750Y-26398000D01*
X64448000Y-26398000D01*
X64252000Y-26398000D01*
X63067250Y-26398000D01*
X62923000Y-26542250D01*
X62920208Y-26800000D01*
X59479792Y-26800000D01*
X59477000Y-26542250D01*
X59332750Y-26398000D01*
X58148000Y-26398000D01*
X57952000Y-26398000D01*
X56767250Y-26398000D01*
X56623000Y-26542250D01*
X56620208Y-26800000D01*
X54806000Y-26800000D01*
X54806000Y-26459591D01*
X55465591Y-25800000D01*
X56620208Y-25800000D01*
X56623000Y-26057750D01*
X56767250Y-26202000D01*
X57952000Y-26202000D01*
X57952000Y-25367250D01*
X58148000Y-25367250D01*
X58148000Y-26202000D01*
X59332750Y-26202000D01*
X59477000Y-26057750D01*
X59479792Y-25800000D01*
X62920208Y-25800000D01*
X62923000Y-26057750D01*
X63067250Y-26202000D01*
X64252000Y-26202000D01*
X64252000Y-25367250D01*
X64448000Y-25367250D01*
X64448000Y-26202000D01*
X65632750Y-26202000D01*
X65777000Y-26057750D01*
X65779792Y-25800000D01*
X65768651Y-25686888D01*
X65735658Y-25578123D01*
X65682079Y-25477885D01*
X65609975Y-25390025D01*
X65522115Y-25317921D01*
X65421877Y-25264342D01*
X65313112Y-25231349D01*
X65200000Y-25220208D01*
X64592250Y-25223000D01*
X64448000Y-25367250D01*
X64252000Y-25367250D01*
X64107750Y-25223000D01*
X63500000Y-25220208D01*
X63386888Y-25231349D01*
X63278123Y-25264342D01*
X63177885Y-25317921D01*
X63090025Y-25390025D01*
X63017921Y-25477885D01*
X62964342Y-25578123D01*
X62931349Y-25686888D01*
X62920208Y-25800000D01*
X59479792Y-25800000D01*
X59468651Y-25686888D01*
X59435658Y-25578123D01*
X59382079Y-25477885D01*
X59309975Y-25390025D01*
X59222115Y-25317921D01*
X59121877Y-25264342D01*
X59013112Y-25231349D01*
X58900000Y-25220208D01*
X58292250Y-25223000D01*
X58148000Y-25367250D01*
X57952000Y-25367250D01*
X57807750Y-25223000D01*
X57200000Y-25220208D01*
X57086888Y-25231349D01*
X56978123Y-25264342D01*
X56877885Y-25317921D01*
X56790025Y-25390025D01*
X56717921Y-25477885D01*
X56664342Y-25578123D01*
X56631349Y-25686888D01*
X56620208Y-25800000D01*
X55465591Y-25800000D01*
X57882749Y-23382843D01*
X58900000Y-23382843D01*
X58974689Y-23375487D01*
X59046508Y-23353701D01*
X59112696Y-23318322D01*
X59170711Y-23270711D01*
X59218322Y-23212696D01*
X59253701Y-23146508D01*
X59275487Y-23074689D01*
X59282252Y-23006000D01*
X63117748Y-23006000D01*
X63124513Y-23074689D01*
X63146299Y-23146508D01*
X63181678Y-23212696D01*
X63229289Y-23270711D01*
X63287304Y-23318322D01*
X63353492Y-23353701D01*
X63425311Y-23375487D01*
X63500000Y-23382843D01*
X65200000Y-23382843D01*
X65274689Y-23375487D01*
X65346508Y-23353701D01*
X65412696Y-23318322D01*
X65470711Y-23270711D01*
X65518322Y-23212696D01*
X65553701Y-23146508D01*
X65575487Y-23074689D01*
X65582843Y-23000000D01*
X65582843Y-22000000D01*
X65575487Y-21925311D01*
X65553701Y-21853492D01*
X65518322Y-21787304D01*
X65470711Y-21729289D01*
X65412696Y-21681678D01*
X65346508Y-21646299D01*
X65274689Y-21624513D01*
X65200000Y-21617157D01*
X63500000Y-21617157D01*
X63425311Y-21624513D01*
X63353492Y-21646299D01*
X63287304Y-21681678D01*
X63229289Y-21729289D01*
X63181678Y-21787304D01*
X63146299Y-21853492D01*
X63124513Y-21925311D01*
X63117748Y-21994000D01*
X59282252Y-21994000D01*
X59275487Y-21925311D01*
X59253701Y-21853492D01*
X59218322Y-21787304D01*
X59170711Y-21729289D01*
X59112696Y-21681678D01*
X59046508Y-21646299D01*
X58974689Y-21624513D01*
X58900000Y-21617157D01*
X57200000Y-21617157D01*
X57125311Y-21624513D01*
X57053492Y-21646299D01*
X56987304Y-21681678D01*
X56929289Y-21729289D01*
X56881678Y-21787304D01*
X56846299Y-21853492D01*
X56824513Y-21925311D01*
X56817157Y-22000000D01*
X56817157Y-23000000D01*
X56818704Y-23015705D01*
X53959781Y-25874628D01*
X53940474Y-25890473D01*
X53877242Y-25967521D01*
X53866668Y-25987304D01*
X53830255Y-26055426D01*
X53801322Y-26150808D01*
X53791553Y-26250000D01*
X53794001Y-26274856D01*
X53794000Y-28305407D01*
X51348378Y-25859785D01*
X51332529Y-25840473D01*
X51255481Y-25777241D01*
X51167577Y-25730255D01*
X51072195Y-25701322D01*
X50997856Y-25694000D01*
X50997848Y-25694000D01*
X50973002Y-25691553D01*
X50948156Y-25694000D01*
X46037504Y-25694000D01*
X45070711Y-24727207D01*
X45012696Y-24679596D01*
X44946508Y-24644217D01*
X44874689Y-24622431D01*
X44800000Y-24615075D01*
X44725311Y-24622431D01*
X44653492Y-24644217D01*
X44587304Y-24679596D01*
X44529289Y-24727207D01*
X43327207Y-25929289D01*
X43279596Y-25987304D01*
X43244217Y-26053492D01*
X43222431Y-26125311D01*
X43215075Y-26200000D01*
X43222431Y-26274689D01*
X43244217Y-26346508D01*
X43279596Y-26412696D01*
X43327207Y-26470711D01*
X44529289Y-27672793D01*
X44587304Y-27720404D01*
X44653492Y-27755783D01*
X44725311Y-27777569D01*
X44800000Y-27784925D01*
X44874689Y-27777569D01*
X44946508Y-27755783D01*
X45012696Y-27720404D01*
X45070711Y-27672793D01*
X46037504Y-26706000D01*
X50763411Y-26706000D01*
X62354976Y-38297566D01*
X62330058Y-38307887D01*
X62202141Y-38393358D01*
X62093358Y-38502141D01*
X62007887Y-38630058D01*
X61949013Y-38772191D01*
X61919000Y-38923078D01*
X61919000Y-39076922D01*
X61949013Y-39227809D01*
X62007887Y-39369942D01*
X62093358Y-39497859D01*
X62094000Y-39498501D01*
X62094001Y-40917157D01*
X62050000Y-40917157D01*
X61975311Y-40924513D01*
X61903492Y-40946299D01*
X61837304Y-40981678D01*
X61779289Y-41029289D01*
X61731678Y-41087304D01*
X61696299Y-41153492D01*
X61674513Y-41225311D01*
X61667157Y-41300000D01*
X61667157Y-42350583D01*
X61652284Y-42322758D01*
X61622759Y-42267521D01*
X61559527Y-42190473D01*
X61540220Y-42174628D01*
X61532843Y-42167251D01*
X61532843Y-41300000D01*
X61525487Y-41225311D01*
X61503701Y-41153492D01*
X61468322Y-41087304D01*
X61420711Y-41029289D01*
X61362696Y-40981678D01*
X61296508Y-40946299D01*
X61224689Y-40924513D01*
X61150000Y-40917157D01*
X59950000Y-40917157D01*
X59875311Y-40924513D01*
X59803492Y-40946299D01*
X59737304Y-40981678D01*
X59679289Y-41029289D01*
X59631678Y-41087304D01*
X59596299Y-41153492D01*
X59574513Y-41225311D01*
X59567157Y-41300000D01*
X59567157Y-42500000D01*
X59574513Y-42574689D01*
X59596299Y-42646508D01*
X59631678Y-42712696D01*
X59679289Y-42770711D01*
X59737304Y-42818322D01*
X59803492Y-42853701D01*
X59875311Y-42875487D01*
X59950000Y-42882843D01*
X60694001Y-42882843D01*
X60694000Y-46632768D01*
X57956010Y-43894779D01*
X57956010Y-41774864D01*
X57958458Y-41750010D01*
X57948688Y-41650817D01*
X57919755Y-41555435D01*
X57872769Y-41467531D01*
X57809537Y-41390483D01*
X57732489Y-41327251D01*
X57644585Y-41280265D01*
X57638240Y-41278340D01*
X51211768Y-34851869D01*
X51195919Y-34832557D01*
X51132567Y-34780565D01*
X44234949Y-27882948D01*
X44234949Y-27874808D01*
X44187642Y-27636982D01*
X44094847Y-27412954D01*
X43960129Y-27211334D01*
X43788666Y-27039871D01*
X43587046Y-26905153D01*
X43363018Y-26812358D01*
X43125192Y-26765051D01*
X42882706Y-26765051D01*
X42644880Y-26812358D01*
X42420852Y-26905153D01*
X42219232Y-27039871D01*
X42047769Y-27211334D01*
X41913051Y-27412954D01*
X41820256Y-27636982D01*
X41772949Y-27874808D01*
X41772949Y-28117294D01*
X41820256Y-28355120D01*
X41913051Y-28579148D01*
X42047769Y-28780768D01*
X42219232Y-28952231D01*
X42420852Y-29086949D01*
X42644880Y-29179744D01*
X42882706Y-29227051D01*
X43125192Y-29227051D01*
X43363018Y-29179744D01*
X43587046Y-29086949D01*
X43788666Y-28952231D01*
X43830858Y-28910039D01*
X44206921Y-29286102D01*
X42330730Y-29286102D01*
X42298796Y-29209005D01*
X42164078Y-29007385D01*
X41992615Y-28835922D01*
X41790995Y-28701204D01*
X41566967Y-28608409D01*
X41329141Y-28561102D01*
X41086655Y-28561102D01*
X40848829Y-28608409D01*
X40624801Y-28701204D01*
X40423181Y-28835922D01*
X40251718Y-29007385D01*
X40117000Y-29209005D01*
X40024205Y-29433033D01*
X39976898Y-29670859D01*
X39976898Y-29913345D01*
X40024205Y-30151171D01*
X40117000Y-30375199D01*
X40251718Y-30576819D01*
X40423181Y-30748282D01*
X40624801Y-30883000D01*
X40848829Y-30975795D01*
X41086655Y-31023102D01*
X41329141Y-31023102D01*
X41566967Y-30975795D01*
X41790995Y-30883000D01*
X41992615Y-30748282D01*
X42164078Y-30576819D01*
X42298796Y-30375199D01*
X42330730Y-30298102D01*
X44582511Y-30298102D01*
X50266721Y-35982313D01*
X50282566Y-36001620D01*
X50345923Y-36053616D01*
X56494001Y-42201695D01*
X56494000Y-44265924D01*
X56491553Y-44290770D01*
X56494000Y-44315616D01*
X56494000Y-44315623D01*
X56501322Y-44389962D01*
X56530255Y-44485344D01*
X56577241Y-44573249D01*
X56640473Y-44650297D01*
X56659785Y-44666146D01*
X59094001Y-47100363D01*
X59094000Y-49369028D01*
X59075000Y-49367157D01*
X58525000Y-49367157D01*
X58450311Y-49374513D01*
X58378492Y-49396299D01*
X58312304Y-49431678D01*
X58254289Y-49479289D01*
X58206678Y-49537304D01*
X58171299Y-49603492D01*
X58149513Y-49675311D01*
X58142157Y-49750000D01*
X58142157Y-49994000D01*
X56709611Y-49994000D01*
X56006018Y-49290408D01*
X56006018Y-43452052D01*
X56008466Y-43427198D01*
X55998696Y-43328005D01*
X55969763Y-43232623D01*
X55961686Y-43217512D01*
X55922777Y-43144719D01*
X55859545Y-43067671D01*
X55840238Y-43051826D01*
X53748176Y-40959765D01*
X53732327Y-40940453D01*
X53655279Y-40877221D01*
X53567375Y-40830235D01*
X53471993Y-40801302D01*
X53397654Y-40793980D01*
X53397646Y-40793980D01*
X53372800Y-40791533D01*
X53347954Y-40793980D01*
X37724866Y-40793980D01*
X37700020Y-40791533D01*
X37675174Y-40793980D01*
X37675166Y-40793980D01*
X37600827Y-40801302D01*
X37505445Y-40830235D01*
X37417541Y-40877221D01*
X37340493Y-40940453D01*
X37324648Y-40959760D01*
X33817252Y-44467157D01*
X32450000Y-44467157D01*
X32375311Y-44474513D01*
X32303492Y-44496299D01*
X32237304Y-44531678D01*
X32179289Y-44579289D01*
X32131678Y-44637304D01*
X32096299Y-44703492D01*
X32074513Y-44775311D01*
X32067157Y-44850000D01*
X25255944Y-44850000D01*
X25633037Y-43593170D01*
X26485246Y-41303161D01*
X27483900Y-39073119D01*
X28624810Y-36912395D01*
X29090268Y-36154214D01*
X34984379Y-36154214D01*
X35062236Y-36389604D01*
X35312724Y-36514149D01*
X35582696Y-36587433D01*
X35861777Y-36606640D01*
X36139244Y-36571033D01*
X36404432Y-36481978D01*
X36577250Y-36389600D01*
X36654838Y-36153943D01*
X35819744Y-35318849D01*
X34984379Y-36154214D01*
X29090268Y-36154214D01*
X29714001Y-35138223D01*
X34393360Y-35138223D01*
X34412567Y-35417304D01*
X34485851Y-35687276D01*
X34610396Y-35937764D01*
X34845786Y-36015621D01*
X35681151Y-35180256D01*
X34846057Y-34345162D01*
X34610400Y-34422750D01*
X34518022Y-34595568D01*
X34428967Y-34860756D01*
X34393360Y-35138223D01*
X29714001Y-35138223D01*
X29903191Y-34830054D01*
X30343952Y-34206569D01*
X34984650Y-34206569D01*
X35819744Y-35041663D01*
X35833886Y-35027521D01*
X35972479Y-35166114D01*
X35958337Y-35180256D01*
X36793431Y-36015350D01*
X37029088Y-35937762D01*
X37121466Y-35764944D01*
X37210521Y-35499756D01*
X37246128Y-35222289D01*
X37226921Y-34943208D01*
X37153637Y-34673236D01*
X37060940Y-34486801D01*
X37256726Y-34567898D01*
X37494552Y-34615205D01*
X37737038Y-34615205D01*
X37974864Y-34567898D01*
X38198892Y-34475103D01*
X38400512Y-34340385D01*
X38571975Y-34168922D01*
X38706693Y-33967302D01*
X38799488Y-33743274D01*
X38846795Y-33505448D01*
X38846795Y-33262962D01*
X38799488Y-33025136D01*
X38706693Y-32801108D01*
X38571975Y-32599488D01*
X38400512Y-32428025D01*
X38198892Y-32293307D01*
X37974864Y-32200512D01*
X37737038Y-32153205D01*
X37494552Y-32153205D01*
X37256726Y-32200512D01*
X37032698Y-32293307D01*
X36831078Y-32428025D01*
X36659615Y-32599488D01*
X36524897Y-32801108D01*
X36432102Y-33025136D01*
X36384795Y-33262962D01*
X36384795Y-33505448D01*
X36432102Y-33743274D01*
X36513199Y-33939060D01*
X36326764Y-33846363D01*
X36056792Y-33773079D01*
X35777711Y-33753872D01*
X35500244Y-33789479D01*
X35235056Y-33878534D01*
X35062238Y-33970912D01*
X34984650Y-34206569D01*
X30343952Y-34206569D01*
X31313680Y-32834830D01*
X32420176Y-31466911D01*
X38180846Y-31466911D01*
X38180846Y-31709397D01*
X38228153Y-31947223D01*
X38320948Y-32171251D01*
X38455666Y-32372871D01*
X38627129Y-32544334D01*
X38828749Y-32679052D01*
X39052777Y-32771847D01*
X39290603Y-32819154D01*
X39533089Y-32819154D01*
X39770915Y-32771847D01*
X39943392Y-32700405D01*
X41019000Y-33776014D01*
X41019000Y-33776922D01*
X41049013Y-33927809D01*
X41107887Y-34069942D01*
X41193358Y-34197859D01*
X41302141Y-34306642D01*
X41430058Y-34392113D01*
X41572191Y-34450987D01*
X41723078Y-34481000D01*
X41876922Y-34481000D01*
X42027809Y-34450987D01*
X42169942Y-34392113D01*
X42297859Y-34306642D01*
X42406642Y-34197859D01*
X42492113Y-34069942D01*
X42550987Y-33927809D01*
X42581000Y-33776922D01*
X42581000Y-33623078D01*
X42550987Y-33472191D01*
X42492113Y-33330058D01*
X42406642Y-33202141D01*
X42297859Y-33093358D01*
X42169942Y-33007887D01*
X42027809Y-32949013D01*
X41876922Y-32919000D01*
X41876014Y-32919000D01*
X40642846Y-31685833D01*
X40642846Y-31466911D01*
X40595539Y-31229085D01*
X40502744Y-31005057D01*
X40368026Y-30803437D01*
X40196563Y-30631974D01*
X39994943Y-30497256D01*
X39770915Y-30404461D01*
X39533089Y-30357154D01*
X39290603Y-30357154D01*
X39052777Y-30404461D01*
X38828749Y-30497256D01*
X38627129Y-30631974D01*
X38455666Y-30803437D01*
X38320948Y-31005057D01*
X38228153Y-31229085D01*
X38180846Y-31466911D01*
X32420176Y-31466911D01*
X32850361Y-30935090D01*
X34506790Y-29138804D01*
X36276018Y-27453505D01*
X38150625Y-25886262D01*
X40122748Y-24443650D01*
X42184115Y-23131717D01*
X44326080Y-21955968D01*
X46539659Y-20921334D01*
X48815567Y-20032154D01*
X51144259Y-19292158D01*
X53515968Y-18704449D01*
X55920744Y-18271494D01*
X58348502Y-17995107D01*
X60789060Y-17876448D01*
X63232180Y-17916015D01*
G37*
X63232180Y-17916015D02*
X65667615Y-18113641D01*
X68085150Y-18468498D01*
X70474646Y-18979098D01*
X72826079Y-19643299D01*
X75129587Y-20458314D01*
X77375509Y-21420726D01*
X79554423Y-22526498D01*
X81657192Y-23770991D01*
X83674995Y-25148987D01*
X85599369Y-26654704D01*
X87422243Y-28281828D01*
X89135970Y-30023534D01*
X90733363Y-31872517D01*
X92207721Y-33821021D01*
X93552862Y-35860873D01*
X94763142Y-37983518D01*
X95833485Y-40180053D01*
X96759402Y-42441265D01*
X97537010Y-44757669D01*
X98163047Y-47119549D01*
X98634886Y-49516999D01*
X98950550Y-51939964D01*
X99108713Y-54378280D01*
X99108713Y-56821720D01*
X98950550Y-59260036D01*
X98634886Y-61683001D01*
X98163047Y-64080451D01*
X97537010Y-66442331D01*
X96759402Y-68758735D01*
X95833485Y-71019947D01*
X94763142Y-73216482D01*
X93552862Y-75339127D01*
X92207721Y-77378979D01*
X90733363Y-79327483D01*
X89135970Y-81176466D01*
X87422243Y-82918172D01*
X85599369Y-84545296D01*
X83674995Y-86051013D01*
X81657192Y-87429009D01*
X79554423Y-88673502D01*
X77375509Y-89779274D01*
X75129587Y-90741686D01*
X72826079Y-91556701D01*
X70474646Y-92220902D01*
X68085150Y-92731502D01*
X65667615Y-93086359D01*
X63232180Y-93283985D01*
X60789060Y-93323552D01*
X58348502Y-93204893D01*
X55920744Y-92928506D01*
X53515968Y-92495551D01*
X51144259Y-91907842D01*
X48815567Y-91167846D01*
X46539659Y-90278666D01*
X44326080Y-89244032D01*
X44154774Y-89150000D01*
X51170208Y-89150000D01*
X51181349Y-89263112D01*
X51214342Y-89371877D01*
X51267921Y-89472115D01*
X51340025Y-89559975D01*
X51427885Y-89632079D01*
X51528123Y-89685658D01*
X51636888Y-89718651D01*
X51750000Y-89729792D01*
X52357750Y-89727000D01*
X52502000Y-89582750D01*
X52502000Y-88398000D01*
X52698000Y-88398000D01*
X52698000Y-89582750D01*
X52842250Y-89727000D01*
X53450000Y-89729792D01*
X53563112Y-89718651D01*
X53671877Y-89685658D01*
X53772115Y-89632079D01*
X53859975Y-89559975D01*
X53932079Y-89472115D01*
X53985658Y-89371877D01*
X54018651Y-89263112D01*
X54029792Y-89150000D01*
X54027000Y-88542250D01*
X53882750Y-88398000D01*
X52698000Y-88398000D01*
X52502000Y-88398000D01*
X51317250Y-88398000D01*
X51173000Y-88542250D01*
X51170208Y-89150000D01*
X44154774Y-89150000D01*
X42184115Y-88068283D01*
X40122748Y-86756350D01*
X38150625Y-85313738D01*
X36276018Y-83746495D01*
X34506790Y-82061196D01*
X34219824Y-81750000D01*
X45170208Y-81750000D01*
X45181349Y-81863112D01*
X45214342Y-81971877D01*
X45267921Y-82072115D01*
X45340025Y-82159975D01*
X45427885Y-82232079D01*
X45528123Y-82285658D01*
X45636888Y-82318651D01*
X45750000Y-82329792D01*
X46257750Y-82327000D01*
X46402000Y-82182750D01*
X46402000Y-80848000D01*
X45317250Y-80848000D01*
X45173000Y-80992250D01*
X45170208Y-81750000D01*
X34219824Y-81750000D01*
X32850361Y-80264910D01*
X32433856Y-79750000D01*
X45170208Y-79750000D01*
X45173000Y-80507750D01*
X45317250Y-80652000D01*
X46402000Y-80652000D01*
X46402000Y-79317250D01*
X46257750Y-79173000D01*
X45750000Y-79170208D01*
X45636888Y-79181349D01*
X45528123Y-79214342D01*
X45427885Y-79267921D01*
X45340025Y-79340025D01*
X45267921Y-79427885D01*
X45214342Y-79528123D01*
X45181349Y-79636888D01*
X45170208Y-79750000D01*
X32433856Y-79750000D01*
X31313680Y-78365170D01*
X30436964Y-77125000D01*
X40220208Y-77125000D01*
X40231349Y-77238112D01*
X40264342Y-77346877D01*
X40317921Y-77447115D01*
X40390025Y-77534975D01*
X40477885Y-77607079D01*
X40578123Y-77660658D01*
X40686888Y-77693651D01*
X40800000Y-77704792D01*
X41257750Y-77702000D01*
X41402000Y-77557750D01*
X41402000Y-76648000D01*
X41598000Y-76648000D01*
X41598000Y-77557750D01*
X41742250Y-77702000D01*
X42200000Y-77704792D01*
X42313112Y-77693651D01*
X42421877Y-77660658D01*
X42522115Y-77607079D01*
X42609975Y-77534975D01*
X42682079Y-77447115D01*
X42735658Y-77346877D01*
X42768651Y-77238112D01*
X42779792Y-77125000D01*
X42777000Y-76792250D01*
X42632750Y-76648000D01*
X41598000Y-76648000D01*
X41402000Y-76648000D01*
X40367250Y-76648000D01*
X40223000Y-76792250D01*
X40220208Y-77125000D01*
X30436964Y-77125000D01*
X29903191Y-76369946D01*
X29660728Y-75975000D01*
X40220208Y-75975000D01*
X40223000Y-76307750D01*
X40367250Y-76452000D01*
X41402000Y-76452000D01*
X41402000Y-76432000D01*
X41598000Y-76432000D01*
X41598000Y-76452000D01*
X42632750Y-76452000D01*
X42777000Y-76307750D01*
X42779792Y-75975000D01*
X42768651Y-75861888D01*
X42735658Y-75753123D01*
X42682079Y-75652885D01*
X42609975Y-75565025D01*
X42522115Y-75492921D01*
X42421877Y-75439342D01*
X42313112Y-75406349D01*
X42216244Y-75396808D01*
X42301589Y-75351190D01*
X42397488Y-75272488D01*
X42476190Y-75176589D01*
X42534671Y-75067179D01*
X42538062Y-75056000D01*
X46517157Y-75056000D01*
X46517157Y-75450000D01*
X46524513Y-75524689D01*
X46546299Y-75596508D01*
X46581678Y-75662696D01*
X46629289Y-75720711D01*
X46687304Y-75768322D01*
X46753492Y-75803701D01*
X46825311Y-75825487D01*
X46900000Y-75832843D01*
X48194000Y-75832843D01*
X48194001Y-79367157D01*
X48050000Y-79367157D01*
X47975311Y-79374513D01*
X47903492Y-79396299D01*
X47837304Y-79431678D01*
X47779289Y-79479289D01*
X47767339Y-79493851D01*
X47732079Y-79427885D01*
X47659975Y-79340025D01*
X47572115Y-79267921D01*
X47471877Y-79214342D01*
X47363112Y-79181349D01*
X47250000Y-79170208D01*
X46742250Y-79173000D01*
X46598000Y-79317250D01*
X46598000Y-80652000D01*
X46618000Y-80652000D01*
X46618000Y-80848000D01*
X46598000Y-80848000D01*
X46598000Y-82182750D01*
X46742250Y-82327000D01*
X47250000Y-82329792D01*
X47363112Y-82318651D01*
X47471877Y-82285658D01*
X47572115Y-82232079D01*
X47659975Y-82159975D01*
X47732079Y-82072115D01*
X47767339Y-82006149D01*
X47779289Y-82020711D01*
X47837304Y-82068322D01*
X47903492Y-82103701D01*
X47975311Y-82125487D01*
X48050000Y-82132843D01*
X49550000Y-82132843D01*
X49624689Y-82125487D01*
X49696508Y-82103701D01*
X49762696Y-82068322D01*
X49820711Y-82020711D01*
X49868322Y-81962696D01*
X49903701Y-81896508D01*
X49925487Y-81824689D01*
X49932843Y-81750000D01*
X49932843Y-79750000D01*
X49967157Y-79750000D01*
X49967157Y-81750000D01*
X49974513Y-81824689D01*
X49996299Y-81896508D01*
X50031678Y-81962696D01*
X50079289Y-82020711D01*
X50137304Y-82068322D01*
X50203492Y-82103701D01*
X50275311Y-82125487D01*
X50350000Y-82132843D01*
X51625829Y-82132843D01*
X51994001Y-82501015D01*
X51994000Y-84684405D01*
X51815283Y-84803820D01*
X51643820Y-84975283D01*
X51509102Y-85176903D01*
X51416307Y-85400931D01*
X51369000Y-85638757D01*
X51369000Y-85881243D01*
X51416307Y-86119069D01*
X51509102Y-86343097D01*
X51643820Y-86544717D01*
X51815283Y-86716180D01*
X52016903Y-86850898D01*
X52067038Y-86871664D01*
X51750000Y-86870208D01*
X51636888Y-86881349D01*
X51528123Y-86914342D01*
X51427885Y-86967921D01*
X51340025Y-87040025D01*
X51267921Y-87127885D01*
X51214342Y-87228123D01*
X51181349Y-87336888D01*
X51170208Y-87450000D01*
X51173000Y-88057750D01*
X51317250Y-88202000D01*
X52502000Y-88202000D01*
X52502000Y-88182000D01*
X52698000Y-88182000D01*
X52698000Y-88202000D01*
X53882750Y-88202000D01*
X54027000Y-88057750D01*
X54029792Y-87450000D01*
X54018651Y-87336888D01*
X53985658Y-87228123D01*
X53932079Y-87127885D01*
X53859975Y-87040025D01*
X53772115Y-86967921D01*
X53671877Y-86914342D01*
X53563112Y-86881349D01*
X53450000Y-86870208D01*
X53132962Y-86871664D01*
X53183097Y-86850898D01*
X53384717Y-86716180D01*
X53556180Y-86544717D01*
X53675595Y-86366000D01*
X54510235Y-86366000D01*
X54540000Y-86368932D01*
X54569765Y-86366000D01*
X54569770Y-86366000D01*
X54658797Y-86357232D01*
X54773028Y-86322580D01*
X54878304Y-86266308D01*
X54970580Y-86190580D01*
X54989558Y-86167455D01*
X55552570Y-85604443D01*
X58950286Y-85604443D01*
X58978814Y-85718811D01*
X59084869Y-85957979D01*
X59235545Y-86171862D01*
X59425052Y-86352239D01*
X59646108Y-86492180D01*
X59890218Y-86586306D01*
X60148000Y-86631000D01*
X60902000Y-86631000D01*
X60902000Y-85398000D01*
X61098000Y-85398000D01*
X61098000Y-86631000D01*
X61852000Y-86631000D01*
X62109782Y-86586306D01*
X62353892Y-86492180D01*
X62574948Y-86352239D01*
X62764455Y-86171862D01*
X62915131Y-85957979D01*
X63021186Y-85718811D01*
X63049714Y-85604443D01*
X62936697Y-85398000D01*
X61098000Y-85398000D01*
X60902000Y-85398000D01*
X59063303Y-85398000D01*
X58950286Y-85604443D01*
X55552570Y-85604443D01*
X56161456Y-84995557D01*
X58950286Y-84995557D01*
X59063303Y-85202000D01*
X60902000Y-85202000D01*
X60902000Y-83969000D01*
X61098000Y-83969000D01*
X61098000Y-85202000D01*
X62936697Y-85202000D01*
X63049714Y-84995557D01*
X63021186Y-84881189D01*
X62915131Y-84642021D01*
X62764455Y-84428138D01*
X62574948Y-84247761D01*
X62353892Y-84107820D01*
X62109782Y-84013694D01*
X61852000Y-83969000D01*
X61098000Y-83969000D01*
X60902000Y-83969000D01*
X60148000Y-83969000D01*
X59890218Y-84013694D01*
X59646108Y-84107820D01*
X59425052Y-84247761D01*
X59235545Y-84428138D01*
X59084869Y-84642021D01*
X58978814Y-84881189D01*
X58950286Y-84995557D01*
X56161456Y-84995557D01*
X58759013Y-82398000D01*
X64369000Y-82398000D01*
X64369000Y-83152000D01*
X64413694Y-83409782D01*
X64507820Y-83653892D01*
X64647761Y-83874948D01*
X64828138Y-84064455D01*
X65042021Y-84215131D01*
X65281189Y-84321186D01*
X65395557Y-84349714D01*
X65602000Y-84236697D01*
X65602000Y-82398000D01*
X65798000Y-82398000D01*
X65798000Y-84236697D01*
X66004443Y-84349714D01*
X66118811Y-84321186D01*
X66357979Y-84215131D01*
X66571862Y-84064455D01*
X66752239Y-83874948D01*
X66892180Y-83653892D01*
X66986306Y-83409782D01*
X67031000Y-83152000D01*
X67031000Y-82398000D01*
X65798000Y-82398000D01*
X65602000Y-82398000D01*
X64369000Y-82398000D01*
X58759013Y-82398000D01*
X59709013Y-81448000D01*
X64369000Y-81448000D01*
X64369000Y-82202000D01*
X65602000Y-82202000D01*
X65602000Y-80363303D01*
X65798000Y-80363303D01*
X65798000Y-82202000D01*
X67031000Y-82202000D01*
X67031000Y-81448000D01*
X66986306Y-81190218D01*
X66892180Y-80946108D01*
X66752239Y-80725052D01*
X66571862Y-80535545D01*
X66357979Y-80384869D01*
X66118811Y-80278814D01*
X66004443Y-80250286D01*
X65798000Y-80363303D01*
X65602000Y-80363303D01*
X65395557Y-80250286D01*
X65281189Y-80278814D01*
X65042021Y-80384869D01*
X64828138Y-80535545D01*
X64647761Y-80725052D01*
X64507820Y-80946108D01*
X64413694Y-81190218D01*
X64369000Y-81448000D01*
X59709013Y-81448000D01*
X60722013Y-80435000D01*
X61809752Y-80435000D01*
X61976499Y-80418577D01*
X62190447Y-80353676D01*
X62387623Y-80248284D01*
X62560449Y-80106449D01*
X62702284Y-79933623D01*
X62807676Y-79736447D01*
X62872577Y-79522499D01*
X62894491Y-79300000D01*
X62872577Y-79077501D01*
X62807676Y-78863553D01*
X62702284Y-78666377D01*
X62560449Y-78493551D01*
X62387623Y-78351716D01*
X62190447Y-78246324D01*
X61976499Y-78181423D01*
X61809752Y-78165000D01*
X61606000Y-78165000D01*
X61606000Y-76135813D01*
X61692179Y-76109671D01*
X61801589Y-76051190D01*
X61897488Y-75972488D01*
X61976190Y-75876589D01*
X62034671Y-75767179D01*
X62070683Y-75648462D01*
X62082843Y-75525001D01*
X62082843Y-74874999D01*
X62070683Y-74751538D01*
X62034671Y-74632821D01*
X61976190Y-74523411D01*
X61897488Y-74427512D01*
X61801589Y-74348810D01*
X61716244Y-74303192D01*
X61813112Y-74293651D01*
X61921877Y-74260658D01*
X62022115Y-74207079D01*
X62109975Y-74134975D01*
X62182079Y-74047115D01*
X62235658Y-73946877D01*
X62268651Y-73838112D01*
X62279792Y-73725000D01*
X62277000Y-73392250D01*
X62132750Y-73248000D01*
X61098000Y-73248000D01*
X61098000Y-73268000D01*
X60902000Y-73268000D01*
X60902000Y-73248000D01*
X59867250Y-73248000D01*
X59723000Y-73392250D01*
X59720208Y-73725000D01*
X59731349Y-73838112D01*
X59764342Y-73946877D01*
X59817921Y-74047115D01*
X59890025Y-74134975D01*
X59977885Y-74207079D01*
X60078123Y-74260658D01*
X60186888Y-74293651D01*
X60283756Y-74303192D01*
X60198411Y-74348810D01*
X60102512Y-74427512D01*
X60023810Y-74523411D01*
X59965329Y-74632821D01*
X59929317Y-74751538D01*
X59917157Y-74874999D01*
X59917157Y-75525001D01*
X59929317Y-75648462D01*
X59965329Y-75767179D01*
X60023810Y-75876589D01*
X60102512Y-75972488D01*
X60198411Y-76051190D01*
X60307821Y-76109671D01*
X60394000Y-76135813D01*
X60394001Y-78165000D01*
X60190248Y-78165000D01*
X60023501Y-78181423D01*
X59809553Y-78246324D01*
X59612377Y-78351716D01*
X59439551Y-78493551D01*
X59297716Y-78666377D01*
X59192324Y-78863553D01*
X59127423Y-79077501D01*
X59105509Y-79300000D01*
X59127423Y-79522499D01*
X59192324Y-79736447D01*
X59297716Y-79933623D01*
X59393117Y-80049870D01*
X54288987Y-85154000D01*
X53675595Y-85154000D01*
X53556180Y-84975283D01*
X53384717Y-84803820D01*
X53206000Y-84684405D01*
X53206000Y-82279757D01*
X53208931Y-82249999D01*
X53206000Y-82220241D01*
X53206000Y-82220230D01*
X53197232Y-82131203D01*
X53162580Y-82016972D01*
X53136386Y-81967967D01*
X53106308Y-81911695D01*
X53049557Y-81842543D01*
X53049553Y-81842539D01*
X53030580Y-81819420D01*
X53007461Y-81800447D01*
X52232843Y-81025830D01*
X52232843Y-79750000D01*
X52225487Y-79675311D01*
X52203701Y-79603492D01*
X52168322Y-79537304D01*
X52120711Y-79479289D01*
X52062696Y-79431678D01*
X51996508Y-79396299D01*
X51924689Y-79374513D01*
X51850000Y-79367157D01*
X50350000Y-79367157D01*
X50275311Y-79374513D01*
X50203492Y-79396299D01*
X50137304Y-79431678D01*
X50079289Y-79479289D01*
X50031678Y-79537304D01*
X49996299Y-79603492D01*
X49974513Y-79675311D01*
X49967157Y-79750000D01*
X49932843Y-79750000D01*
X49925487Y-79675311D01*
X49903701Y-79603492D01*
X49868322Y-79537304D01*
X49820711Y-79479289D01*
X49762696Y-79431678D01*
X49696508Y-79396299D01*
X49624689Y-79374513D01*
X49550000Y-79367157D01*
X49406000Y-79367157D01*
X49406000Y-75832843D01*
X50700000Y-75832843D01*
X50774689Y-75825487D01*
X50846508Y-75803701D01*
X50912696Y-75768322D01*
X50970711Y-75720711D01*
X51018322Y-75662696D01*
X51053701Y-75596508D01*
X51075487Y-75524689D01*
X51082843Y-75450000D01*
X51082843Y-75056000D01*
X55820235Y-75056000D01*
X55850000Y-75058932D01*
X55879765Y-75056000D01*
X55879770Y-75056000D01*
X55968797Y-75047232D01*
X56083028Y-75012580D01*
X56188304Y-74956308D01*
X56280580Y-74880580D01*
X56299558Y-74857455D01*
X58582013Y-72575000D01*
X59720208Y-72575000D01*
X59723000Y-72907750D01*
X59867250Y-73052000D01*
X60902000Y-73052000D01*
X60902000Y-72142250D01*
X61098000Y-72142250D01*
X61098000Y-73052000D01*
X62132750Y-73052000D01*
X62277000Y-72907750D01*
X62279792Y-72575000D01*
X62268651Y-72461888D01*
X62235658Y-72353123D01*
X62182079Y-72252885D01*
X62109975Y-72165025D01*
X62022115Y-72092921D01*
X61921877Y-72039342D01*
X61813112Y-72006349D01*
X61700000Y-71995208D01*
X61242250Y-71998000D01*
X61098000Y-72142250D01*
X60902000Y-72142250D01*
X60757750Y-71998000D01*
X60300000Y-71995208D01*
X60186888Y-72006349D01*
X60078123Y-72039342D01*
X59977885Y-72092921D01*
X59890025Y-72165025D01*
X59817921Y-72252885D01*
X59764342Y-72353123D01*
X59731349Y-72461888D01*
X59720208Y-72575000D01*
X58582013Y-72575000D01*
X61076014Y-70081000D01*
X61076922Y-70081000D01*
X61227809Y-70050987D01*
X61369942Y-69992113D01*
X61497859Y-69906642D01*
X61606642Y-69797859D01*
X61692113Y-69669942D01*
X61750987Y-69527809D01*
X61781000Y-69376922D01*
X61781000Y-69223078D01*
X61750987Y-69072191D01*
X61692113Y-68930058D01*
X61606642Y-68802141D01*
X61497859Y-68693358D01*
X61369942Y-68607887D01*
X61227809Y-68549013D01*
X61076922Y-68519000D01*
X60923078Y-68519000D01*
X60772191Y-68549013D01*
X60630058Y-68607887D01*
X60502141Y-68693358D01*
X60393358Y-68802141D01*
X60307887Y-68930058D01*
X60249013Y-69072191D01*
X60219000Y-69223078D01*
X60219000Y-69223986D01*
X55598987Y-73844000D01*
X51082843Y-73844000D01*
X51082843Y-73450000D01*
X51075487Y-73375311D01*
X51053701Y-73303492D01*
X51018322Y-73237304D01*
X50970711Y-73179289D01*
X50912696Y-73131678D01*
X50846508Y-73096299D01*
X50774689Y-73074513D01*
X50700000Y-73067157D01*
X46900000Y-73067157D01*
X46825311Y-73074513D01*
X46753492Y-73096299D01*
X46687304Y-73131678D01*
X46629289Y-73179289D01*
X46581678Y-73237304D01*
X46546299Y-73303492D01*
X46524513Y-73375311D01*
X46517157Y-73450000D01*
X46517157Y-73844000D01*
X42487195Y-73844000D01*
X42476190Y-73823411D01*
X42397488Y-73727512D01*
X42301589Y-73648810D01*
X42192179Y-73590329D01*
X42073462Y-73554317D01*
X41950001Y-73542157D01*
X41049999Y-73542157D01*
X40926538Y-73554317D01*
X40807821Y-73590329D01*
X40698411Y-73648810D01*
X40602512Y-73727512D01*
X40523810Y-73823411D01*
X40465329Y-73932821D01*
X40429317Y-74051538D01*
X40417157Y-74174999D01*
X40417157Y-74825001D01*
X40429317Y-74948462D01*
X40465329Y-75067179D01*
X40523810Y-75176589D01*
X40602512Y-75272488D01*
X40698411Y-75351190D01*
X40783756Y-75396808D01*
X40686888Y-75406349D01*
X40578123Y-75439342D01*
X40477885Y-75492921D01*
X40390025Y-75565025D01*
X40317921Y-75652885D01*
X40264342Y-75753123D01*
X40231349Y-75861888D01*
X40220208Y-75975000D01*
X29660728Y-75975000D01*
X28624810Y-74287605D01*
X27483900Y-72126881D01*
X26485246Y-69896839D01*
X25633037Y-67606830D01*
X24930846Y-65266461D01*
X24381620Y-62885547D01*
X23987662Y-60474075D01*
X23750624Y-58042159D01*
X23671501Y-55600000D01*
X23750624Y-53157841D01*
X23987662Y-50725925D01*
X24381620Y-48314453D01*
X24930846Y-45933539D01*
X25255944Y-44850000D01*
X32067157Y-44850000D01*
X32067157Y-46550000D01*
X32074513Y-46624689D01*
X32096299Y-46696508D01*
X32131678Y-46762696D01*
X32179289Y-46820711D01*
X32237304Y-46868322D01*
X32303492Y-46903701D01*
X32375311Y-46925487D01*
X32450000Y-46932843D01*
X33891566Y-46932843D01*
X33736167Y-47088242D01*
X33659069Y-47056307D01*
X33421243Y-47009000D01*
X33178757Y-47009000D01*
X32940931Y-47056307D01*
X32716903Y-47149102D01*
X32515283Y-47283820D01*
X32343820Y-47455283D01*
X32209102Y-47656903D01*
X32116307Y-47880931D01*
X32069000Y-48118757D01*
X32069000Y-48361243D01*
X32116307Y-48599069D01*
X32209102Y-48823097D01*
X32343820Y-49024717D01*
X32515283Y-49196180D01*
X32716903Y-49330898D01*
X32940931Y-49423693D01*
X33178757Y-49471000D01*
X33421243Y-49471000D01*
X33659069Y-49423693D01*
X33883097Y-49330898D01*
X34084717Y-49196180D01*
X34256180Y-49024717D01*
X34390898Y-48823097D01*
X34483693Y-48599069D01*
X34531000Y-48361243D01*
X34531000Y-48118757D01*
X34483693Y-47880931D01*
X34451758Y-47803833D01*
X39999602Y-42255990D01*
X41108418Y-42255990D01*
X33736167Y-49628242D01*
X33659069Y-49596307D01*
X33421243Y-49549000D01*
X33178757Y-49549000D01*
X32940931Y-49596307D01*
X32716903Y-49689102D01*
X32515283Y-49823820D01*
X32343820Y-49995283D01*
X32209102Y-50196903D01*
X32116307Y-50420931D01*
X32069000Y-50658757D01*
X32069000Y-50901243D01*
X32116307Y-51139069D01*
X32209102Y-51363097D01*
X32343820Y-51564717D01*
X32515283Y-51736180D01*
X32716903Y-51870898D01*
X32940931Y-51963693D01*
X33178757Y-52011000D01*
X33421243Y-52011000D01*
X33659069Y-51963693D01*
X33883097Y-51870898D01*
X34084717Y-51736180D01*
X34256180Y-51564717D01*
X34390898Y-51363097D01*
X34483693Y-51139069D01*
X34531000Y-50901243D01*
X34531000Y-50658757D01*
X34483693Y-50420931D01*
X34451758Y-50343833D01*
X35095591Y-49700000D01*
X48445208Y-49700000D01*
X48456349Y-49813112D01*
X48489342Y-49921877D01*
X48542921Y-50022115D01*
X48615025Y-50109975D01*
X48702885Y-50182079D01*
X48803123Y-50235658D01*
X48911888Y-50268651D01*
X49025000Y-50279792D01*
X49357750Y-50277000D01*
X49502000Y-50132750D01*
X49502000Y-49098000D01*
X48592250Y-49098000D01*
X48448000Y-49242250D01*
X48445208Y-49700000D01*
X35095591Y-49700000D01*
X37395591Y-47400000D01*
X48445208Y-47400000D01*
X48456349Y-47513112D01*
X48489342Y-47621877D01*
X48542921Y-47722115D01*
X48615025Y-47809975D01*
X48663796Y-47850000D01*
X48615025Y-47890025D01*
X48542921Y-47977885D01*
X48489342Y-48078123D01*
X48456349Y-48186888D01*
X48445208Y-48300000D01*
X48448000Y-48757750D01*
X48592250Y-48902000D01*
X49502000Y-48902000D01*
X49502000Y-47867250D01*
X49484750Y-47850000D01*
X49502000Y-47832750D01*
X49502000Y-46798000D01*
X48592250Y-46798000D01*
X48448000Y-46942250D01*
X48445208Y-47400000D01*
X37395591Y-47400000D01*
X38795591Y-46000000D01*
X48445208Y-46000000D01*
X48448000Y-46457750D01*
X48592250Y-46602000D01*
X49502000Y-46602000D01*
X49502000Y-45567250D01*
X49357750Y-45423000D01*
X49025000Y-45420208D01*
X48911888Y-45431349D01*
X48803123Y-45464342D01*
X48702885Y-45517921D01*
X48615025Y-45590025D01*
X48542921Y-45677885D01*
X48489342Y-45778123D01*
X48456349Y-45886888D01*
X48445208Y-46000000D01*
X38795591Y-46000000D01*
X42089592Y-42706000D01*
X52790409Y-42706000D01*
X54094001Y-44009593D01*
X54094000Y-50685156D01*
X54091553Y-50710002D01*
X54094000Y-50734848D01*
X54094000Y-50734855D01*
X54101322Y-50809194D01*
X54130255Y-50904576D01*
X54177241Y-50992481D01*
X54240473Y-51069529D01*
X54259785Y-51085378D01*
X56136352Y-52961946D01*
X56114342Y-53003123D01*
X56081349Y-53111888D01*
X56070208Y-53225000D01*
X56072968Y-53257376D01*
X53706000Y-50890409D01*
X53706000Y-48274845D01*
X53708447Y-48249999D01*
X53706000Y-48225153D01*
X53706000Y-48225146D01*
X53698678Y-48150807D01*
X53669745Y-48055425D01*
X53622759Y-47967521D01*
X53559527Y-47890473D01*
X53540220Y-47874628D01*
X52607843Y-46942252D01*
X52607843Y-46249999D01*
X52595683Y-46126538D01*
X52559671Y-46007821D01*
X52501190Y-45898411D01*
X52422488Y-45802512D01*
X52326589Y-45723810D01*
X52217179Y-45665329D01*
X52206000Y-45661938D01*
X52206000Y-44598501D01*
X52206642Y-44597859D01*
X52292113Y-44469942D01*
X52350987Y-44327809D01*
X52381000Y-44176922D01*
X52381000Y-44023078D01*
X52350987Y-43872191D01*
X52292113Y-43730058D01*
X52206642Y-43602141D01*
X52097859Y-43493358D01*
X51969942Y-43407887D01*
X51827809Y-43349013D01*
X51676922Y-43319000D01*
X51523078Y-43319000D01*
X51372191Y-43349013D01*
X51230058Y-43407887D01*
X51102141Y-43493358D01*
X50993358Y-43602141D01*
X50907887Y-43730058D01*
X50849013Y-43872191D01*
X50819000Y-44023078D01*
X50819000Y-44176922D01*
X50849013Y-44327809D01*
X50907887Y-44469942D01*
X50993358Y-44597859D01*
X50994000Y-44598501D01*
X50994001Y-45712805D01*
X50973411Y-45723810D01*
X50877512Y-45802512D01*
X50798810Y-45898411D01*
X50753192Y-45983756D01*
X50743651Y-45886888D01*
X50710658Y-45778123D01*
X50657079Y-45677885D01*
X50584975Y-45590025D01*
X50497115Y-45517921D01*
X50396877Y-45464342D01*
X50288112Y-45431349D01*
X50175000Y-45420208D01*
X49842250Y-45423000D01*
X49698000Y-45567250D01*
X49698000Y-46602000D01*
X49718000Y-46602000D01*
X49718000Y-46798000D01*
X49698000Y-46798000D01*
X49698000Y-47832750D01*
X49715250Y-47850000D01*
X49698000Y-47867250D01*
X49698000Y-48902000D01*
X49718000Y-48902000D01*
X49718000Y-49098000D01*
X49698000Y-49098000D01*
X49698000Y-50132750D01*
X49842250Y-50277000D01*
X50175000Y-50279792D01*
X50288112Y-50268651D01*
X50396877Y-50235658D01*
X50497115Y-50182079D01*
X50584975Y-50109975D01*
X50657079Y-50022115D01*
X50710658Y-49921877D01*
X50743651Y-49813112D01*
X50753192Y-49716244D01*
X50798810Y-49801589D01*
X50877512Y-49897488D01*
X50973411Y-49976190D01*
X51082821Y-50034671D01*
X51144000Y-50053229D01*
X51144000Y-50325153D01*
X51141553Y-50350000D01*
X51144000Y-50374846D01*
X51144000Y-50374853D01*
X51151322Y-50449192D01*
X51180255Y-50544574D01*
X51227241Y-50632479D01*
X51290473Y-50709527D01*
X51309785Y-50725376D01*
X55594001Y-55009593D01*
X55594000Y-55178409D01*
X55378320Y-54962729D01*
X55362471Y-54943417D01*
X55285423Y-54880185D01*
X55197519Y-54833199D01*
X55102137Y-54804266D01*
X55027798Y-54796944D01*
X55027790Y-54796944D01*
X55002944Y-54794497D01*
X54978098Y-54796944D01*
X52106000Y-54796944D01*
X52106000Y-53853229D01*
X52167179Y-53834671D01*
X52276589Y-53776190D01*
X52372488Y-53697488D01*
X52451190Y-53601589D01*
X52509671Y-53492179D01*
X52545683Y-53373462D01*
X52557843Y-53250001D01*
X52557843Y-52349999D01*
X52545683Y-52226538D01*
X52509671Y-52107821D01*
X52451190Y-51998411D01*
X52372488Y-51902512D01*
X52276589Y-51823810D01*
X52167179Y-51765329D01*
X52048462Y-51729317D01*
X51925001Y-51717157D01*
X51274999Y-51717157D01*
X51151538Y-51729317D01*
X51032821Y-51765329D01*
X50923411Y-51823810D01*
X50827512Y-51902512D01*
X50748810Y-51998411D01*
X50703192Y-52083756D01*
X50693651Y-51986888D01*
X50660658Y-51878123D01*
X50607079Y-51777885D01*
X50534975Y-51690025D01*
X50447115Y-51617921D01*
X50346877Y-51564342D01*
X50238112Y-51531349D01*
X50125000Y-51520208D01*
X49792250Y-51523000D01*
X49648000Y-51667250D01*
X49648000Y-52702000D01*
X49668000Y-52702000D01*
X49668000Y-52898000D01*
X49648000Y-52898000D01*
X49648000Y-53932750D01*
X49792250Y-54077000D01*
X50125000Y-54079792D01*
X50238112Y-54068651D01*
X50346877Y-54035658D01*
X50447115Y-53982079D01*
X50534975Y-53909975D01*
X50607079Y-53822115D01*
X50660658Y-53721877D01*
X50693651Y-53613112D01*
X50703192Y-53516244D01*
X50748810Y-53601589D01*
X50827512Y-53697488D01*
X50923411Y-53776190D01*
X51032821Y-53834671D01*
X51094000Y-53853229D01*
X51094001Y-54500418D01*
X51047488Y-54495837D01*
X50972799Y-54503193D01*
X50900980Y-54524979D01*
X50834792Y-54560358D01*
X50776777Y-54607969D01*
X49786827Y-55597919D01*
X49739216Y-55655934D01*
X49703837Y-55722122D01*
X49682051Y-55793941D01*
X49674695Y-55868630D01*
X49676541Y-55887376D01*
X49604964Y-55865664D01*
X49491853Y-55854523D01*
X49378741Y-55865664D01*
X49269976Y-55898657D01*
X49169738Y-55952236D01*
X49081878Y-56024340D01*
X48760174Y-56349993D01*
X48760174Y-56553993D01*
X49421142Y-57214961D01*
X49435284Y-57200819D01*
X49573877Y-57339412D01*
X49559735Y-57353554D01*
X49573877Y-57367696D01*
X49435284Y-57506289D01*
X49421142Y-57492147D01*
X48689463Y-58223826D01*
X48689463Y-58427826D01*
X48940456Y-58682768D01*
X49028317Y-58754872D01*
X49128555Y-58808451D01*
X49237320Y-58841444D01*
X49350431Y-58852585D01*
X49393310Y-58848362D01*
X49433273Y-58897057D01*
X50281801Y-59745585D01*
X50339816Y-59793196D01*
X50406004Y-59828575D01*
X50477823Y-59850361D01*
X50552512Y-59857717D01*
X50627201Y-59850361D01*
X50699020Y-59828575D01*
X50765208Y-59793196D01*
X50823223Y-59745585D01*
X50960402Y-59608406D01*
X51194000Y-59842004D01*
X51194000Y-60346771D01*
X51132821Y-60365329D01*
X51023411Y-60423810D01*
X50927512Y-60502512D01*
X50848810Y-60598411D01*
X50803192Y-60683756D01*
X50793651Y-60586888D01*
X50760658Y-60478123D01*
X50707079Y-60377885D01*
X50634975Y-60290025D01*
X50547115Y-60217921D01*
X50446877Y-60164342D01*
X50338112Y-60131349D01*
X50225000Y-60120208D01*
X49892250Y-60123000D01*
X49748000Y-60267250D01*
X49748000Y-61302000D01*
X49768000Y-61302000D01*
X49768000Y-61498000D01*
X49748000Y-61498000D01*
X49748000Y-62532750D01*
X49892250Y-62677000D01*
X50225000Y-62679792D01*
X50338112Y-62668651D01*
X50446877Y-62635658D01*
X50547115Y-62582079D01*
X50634975Y-62509975D01*
X50707079Y-62422115D01*
X50760658Y-62321877D01*
X50793651Y-62213112D01*
X50803192Y-62116244D01*
X50848810Y-62201589D01*
X50927512Y-62297488D01*
X51023411Y-62376190D01*
X51132821Y-62434671D01*
X51251538Y-62470683D01*
X51374999Y-62482843D01*
X52025001Y-62482843D01*
X52148462Y-62470683D01*
X52267179Y-62434671D01*
X52376589Y-62376190D01*
X52472488Y-62297488D01*
X52551190Y-62201589D01*
X52609671Y-62092179D01*
X52645683Y-61973462D01*
X52657843Y-61850001D01*
X52657843Y-60949999D01*
X52645683Y-60826538D01*
X52609671Y-60707821D01*
X52551190Y-60598411D01*
X52472488Y-60502512D01*
X52376589Y-60423810D01*
X52267179Y-60365329D01*
X52206000Y-60346771D01*
X52206000Y-59657266D01*
X52208448Y-59632412D01*
X52198678Y-59533219D01*
X52169745Y-59437837D01*
X52122759Y-59349933D01*
X52059527Y-59272885D01*
X52040220Y-59257040D01*
X51844815Y-59061635D01*
X55219519Y-59061635D01*
X55244365Y-59064082D01*
X55269211Y-59061635D01*
X55269219Y-59061635D01*
X55343558Y-59054313D01*
X55438940Y-59025380D01*
X55526844Y-58978394D01*
X55603892Y-58915162D01*
X55619741Y-58895850D01*
X56429046Y-58086545D01*
X56437304Y-58093322D01*
X56503492Y-58128701D01*
X56575311Y-58150487D01*
X56650000Y-58157843D01*
X58142157Y-58157843D01*
X58142157Y-59650000D01*
X58149513Y-59724689D01*
X58171299Y-59796508D01*
X58206678Y-59862696D01*
X58254289Y-59920711D01*
X58294000Y-59953301D01*
X58294001Y-65508357D01*
X56208379Y-67593980D01*
X48289572Y-67593980D01*
X42795592Y-62100000D01*
X48495208Y-62100000D01*
X48506349Y-62213112D01*
X48539342Y-62321877D01*
X48592921Y-62422115D01*
X48665025Y-62509975D01*
X48752885Y-62582079D01*
X48853123Y-62635658D01*
X48961888Y-62668651D01*
X49075000Y-62679792D01*
X49407750Y-62677000D01*
X49552000Y-62532750D01*
X49552000Y-61498000D01*
X48642250Y-61498000D01*
X48498000Y-61642250D01*
X48495208Y-62100000D01*
X42795592Y-62100000D01*
X41395592Y-60700000D01*
X48495208Y-60700000D01*
X48498000Y-61157750D01*
X48642250Y-61302000D01*
X49552000Y-61302000D01*
X49552000Y-60267250D01*
X49407750Y-60123000D01*
X49075000Y-60120208D01*
X48961888Y-60131349D01*
X48853123Y-60164342D01*
X48752885Y-60217921D01*
X48665025Y-60290025D01*
X48592921Y-60377885D01*
X48539342Y-60478123D01*
X48506349Y-60586888D01*
X48495208Y-60700000D01*
X41395592Y-60700000D01*
X38119857Y-57424265D01*
X47922111Y-57424265D01*
X47933252Y-57537376D01*
X47966245Y-57646141D01*
X48019824Y-57746379D01*
X48091928Y-57834240D01*
X48346870Y-58085233D01*
X48550870Y-58085233D01*
X49282549Y-57353554D01*
X48621581Y-56692586D01*
X48417581Y-56692586D01*
X48091928Y-57014290D01*
X48019824Y-57102150D01*
X47966245Y-57202388D01*
X47933252Y-57311153D01*
X47922111Y-57424265D01*
X38119857Y-57424265D01*
X34451758Y-53756167D01*
X34483693Y-53679069D01*
X34519312Y-53500000D01*
X48395208Y-53500000D01*
X48406349Y-53613112D01*
X48439342Y-53721877D01*
X48492921Y-53822115D01*
X48565025Y-53909975D01*
X48652885Y-53982079D01*
X48753123Y-54035658D01*
X48861888Y-54068651D01*
X48975000Y-54079792D01*
X49307750Y-54077000D01*
X49452000Y-53932750D01*
X49452000Y-52898000D01*
X48542250Y-52898000D01*
X48398000Y-53042250D01*
X48395208Y-53500000D01*
X34519312Y-53500000D01*
X34531000Y-53441243D01*
X34531000Y-53198757D01*
X34483693Y-52960931D01*
X34390898Y-52736903D01*
X34256180Y-52535283D01*
X34084717Y-52363820D01*
X33883097Y-52229102D01*
X33659069Y-52136307D01*
X33476544Y-52100000D01*
X48395208Y-52100000D01*
X48398000Y-52557750D01*
X48542250Y-52702000D01*
X49452000Y-52702000D01*
X49452000Y-51667250D01*
X49307750Y-51523000D01*
X48975000Y-51520208D01*
X48861888Y-51531349D01*
X48753123Y-51564342D01*
X48652885Y-51617921D01*
X48565025Y-51690025D01*
X48492921Y-51777885D01*
X48439342Y-51878123D01*
X48406349Y-51986888D01*
X48395208Y-52100000D01*
X33476544Y-52100000D01*
X33421243Y-52089000D01*
X33178757Y-52089000D01*
X32940931Y-52136307D01*
X32716903Y-52229102D01*
X32515283Y-52363820D01*
X32343820Y-52535283D01*
X32209102Y-52736903D01*
X32116307Y-52960931D01*
X32069000Y-53198757D01*
X32069000Y-53441243D01*
X32116307Y-53679069D01*
X32209102Y-53903097D01*
X32343820Y-54104717D01*
X32515283Y-54276180D01*
X32716903Y-54410898D01*
X32940931Y-54503693D01*
X33178757Y-54551000D01*
X33421243Y-54551000D01*
X33659069Y-54503693D01*
X33736167Y-54471758D01*
X47308398Y-68043990D01*
X46199582Y-68043990D01*
X34451758Y-56296167D01*
X34483693Y-56219069D01*
X34531000Y-55981243D01*
X34531000Y-55738757D01*
X34483693Y-55500931D01*
X34390898Y-55276903D01*
X34256180Y-55075283D01*
X34084717Y-54903820D01*
X33883097Y-54769102D01*
X33659069Y-54676307D01*
X33421243Y-54629000D01*
X33178757Y-54629000D01*
X32940931Y-54676307D01*
X32716903Y-54769102D01*
X32515283Y-54903820D01*
X32343820Y-55075283D01*
X32209102Y-55276903D01*
X32116307Y-55500931D01*
X32069000Y-55738757D01*
X32069000Y-55981243D01*
X32116307Y-56219069D01*
X32209102Y-56443097D01*
X32343820Y-56644717D01*
X32515283Y-56816180D01*
X32716903Y-56950898D01*
X32940931Y-57043693D01*
X33178757Y-57091000D01*
X33421243Y-57091000D01*
X33659069Y-57043693D01*
X33736167Y-57011758D01*
X45218408Y-68494000D01*
X44109592Y-68494000D01*
X34451758Y-58836167D01*
X34483693Y-58759069D01*
X34531000Y-58521243D01*
X34531000Y-58278757D01*
X34483693Y-58040931D01*
X34390898Y-57816903D01*
X34256180Y-57615283D01*
X34084717Y-57443820D01*
X33883097Y-57309102D01*
X33659069Y-57216307D01*
X33421243Y-57169000D01*
X33178757Y-57169000D01*
X32940931Y-57216307D01*
X32716903Y-57309102D01*
X32515283Y-57443820D01*
X32343820Y-57615283D01*
X32209102Y-57816903D01*
X32116307Y-58040931D01*
X32069000Y-58278757D01*
X32069000Y-58521243D01*
X32116307Y-58759069D01*
X32209102Y-58983097D01*
X32343820Y-59184717D01*
X32515283Y-59356180D01*
X32716903Y-59490898D01*
X32940931Y-59583693D01*
X33178757Y-59631000D01*
X33421243Y-59631000D01*
X33659069Y-59583693D01*
X33736167Y-59551758D01*
X43178388Y-68993980D01*
X42069572Y-68993980D01*
X34451758Y-61376167D01*
X34483693Y-61299069D01*
X34531000Y-61061243D01*
X34531000Y-60818757D01*
X34483693Y-60580931D01*
X34390898Y-60356903D01*
X34256180Y-60155283D01*
X34084717Y-59983820D01*
X33883097Y-59849102D01*
X33659069Y-59756307D01*
X33421243Y-59709000D01*
X33178757Y-59709000D01*
X32940931Y-59756307D01*
X32716903Y-59849102D01*
X32515283Y-59983820D01*
X32343820Y-60155283D01*
X32209102Y-60356903D01*
X32116307Y-60580931D01*
X32069000Y-60818757D01*
X32069000Y-61061243D01*
X32116307Y-61299069D01*
X32209102Y-61523097D01*
X32343820Y-61724717D01*
X32515283Y-61896180D01*
X32716903Y-62030898D01*
X32940931Y-62123693D01*
X33178757Y-62171000D01*
X33421243Y-62171000D01*
X33659069Y-62123693D01*
X33736167Y-62091758D01*
X41088398Y-69443990D01*
X39979582Y-69443990D01*
X34451758Y-63916167D01*
X34483693Y-63839069D01*
X34531000Y-63601243D01*
X34531000Y-63358757D01*
X34483693Y-63120931D01*
X34390898Y-62896903D01*
X34256180Y-62695283D01*
X34084717Y-62523820D01*
X33883097Y-62389102D01*
X33659069Y-62296307D01*
X33421243Y-62249000D01*
X33178757Y-62249000D01*
X32940931Y-62296307D01*
X32716903Y-62389102D01*
X32515283Y-62523820D01*
X32343820Y-62695283D01*
X32209102Y-62896903D01*
X32116307Y-63120931D01*
X32069000Y-63358757D01*
X32069000Y-63601243D01*
X32116307Y-63839069D01*
X32209102Y-64063097D01*
X32343820Y-64264717D01*
X32515283Y-64436180D01*
X32716903Y-64570898D01*
X32940931Y-64663693D01*
X33178757Y-64711000D01*
X33421243Y-64711000D01*
X33659069Y-64663693D01*
X33736167Y-64631758D01*
X38998408Y-69894000D01*
X37889592Y-69894000D01*
X34451758Y-66456167D01*
X34483693Y-66379069D01*
X34531000Y-66141243D01*
X34531000Y-65898757D01*
X34483693Y-65660931D01*
X34390898Y-65436903D01*
X34256180Y-65235283D01*
X34084717Y-65063820D01*
X33883097Y-64929102D01*
X33659069Y-64836307D01*
X33421243Y-64789000D01*
X33178757Y-64789000D01*
X32940931Y-64836307D01*
X32716903Y-64929102D01*
X32515283Y-65063820D01*
X32343820Y-65235283D01*
X32209102Y-65436903D01*
X32116307Y-65660931D01*
X32069000Y-65898757D01*
X32069000Y-66141243D01*
X32116307Y-66379069D01*
X32209102Y-66603097D01*
X32343820Y-66804717D01*
X32515283Y-66976180D01*
X32716903Y-67110898D01*
X32940931Y-67203693D01*
X33178757Y-67251000D01*
X33421243Y-67251000D01*
X33659069Y-67203693D01*
X33736167Y-67171758D01*
X37304628Y-70740220D01*
X37320473Y-70759527D01*
X37397521Y-70822759D01*
X37485425Y-70869745D01*
X37558607Y-70891944D01*
X37580806Y-70898678D01*
X37590694Y-70899652D01*
X37655146Y-70906000D01*
X37655153Y-70906000D01*
X37679999Y-70908447D01*
X37704845Y-70906000D01*
X57275154Y-70906000D01*
X57300000Y-70908447D01*
X57324846Y-70906000D01*
X57324854Y-70906000D01*
X57399193Y-70898678D01*
X57494575Y-70869745D01*
X57582479Y-70822759D01*
X57659527Y-70759527D01*
X57675376Y-70740215D01*
X63140220Y-65275372D01*
X63159527Y-65259527D01*
X63222759Y-65182479D01*
X63269745Y-65094575D01*
X63298678Y-64999193D01*
X63306000Y-64924854D01*
X63308448Y-64900000D01*
X63306000Y-64875146D01*
X63306000Y-61858001D01*
X76003219Y-74555221D01*
X76019064Y-74574528D01*
X76096112Y-74637760D01*
X76180802Y-74683028D01*
X76184016Y-74684746D01*
X76279398Y-74713679D01*
X76378591Y-74723449D01*
X76403445Y-74721001D01*
X77018102Y-74721001D01*
X76943820Y-74795283D01*
X76809102Y-74996903D01*
X76768883Y-75094000D01*
X75898501Y-75094000D01*
X75797859Y-74993358D01*
X75669942Y-74907887D01*
X75527809Y-74849013D01*
X75376922Y-74819000D01*
X75223078Y-74819000D01*
X75072191Y-74849013D01*
X74930058Y-74907887D01*
X74802141Y-74993358D01*
X74693358Y-75102141D01*
X74607887Y-75230058D01*
X74549013Y-75372191D01*
X74519000Y-75523078D01*
X74519000Y-75676922D01*
X74549013Y-75827809D01*
X74607887Y-75969942D01*
X74693358Y-76097859D01*
X74802141Y-76206642D01*
X74930058Y-76292113D01*
X75072191Y-76350987D01*
X75223078Y-76381000D01*
X75376922Y-76381000D01*
X75527809Y-76350987D01*
X75669942Y-76292113D01*
X75797859Y-76206642D01*
X75898501Y-76106000D01*
X76785452Y-76106000D01*
X76809102Y-76163097D01*
X76943820Y-76364717D01*
X77115283Y-76536180D01*
X77316903Y-76670898D01*
X77540931Y-76763693D01*
X77778757Y-76811000D01*
X78021243Y-76811000D01*
X78259069Y-76763693D01*
X78483097Y-76670898D01*
X78684717Y-76536180D01*
X78856180Y-76364717D01*
X78990898Y-76163097D01*
X79070726Y-75970375D01*
X79106107Y-76087020D01*
X79230652Y-76337507D01*
X79401672Y-76558884D01*
X79612594Y-76742643D01*
X79855313Y-76881722D01*
X80120501Y-76970777D01*
X80342000Y-76859385D01*
X80342000Y-75678000D01*
X80538000Y-75678000D01*
X80538000Y-76859385D01*
X80759499Y-76970777D01*
X81024687Y-76881722D01*
X81267406Y-76742643D01*
X81478328Y-76558884D01*
X81649348Y-76337507D01*
X81773893Y-76087020D01*
X81830773Y-75899498D01*
X81719001Y-75678000D01*
X80538000Y-75678000D01*
X80342000Y-75678000D01*
X80322000Y-75678000D01*
X80322000Y-75482000D01*
X80342000Y-75482000D01*
X80342000Y-75462000D01*
X80538000Y-75462000D01*
X80538000Y-75482000D01*
X81719001Y-75482000D01*
X81830773Y-75260502D01*
X81773893Y-75072980D01*
X81649348Y-74822493D01*
X81478328Y-74601116D01*
X81267406Y-74417357D01*
X81024687Y-74278278D01*
X80827310Y-74211995D01*
X81023097Y-74130898D01*
X81224717Y-73996180D01*
X81396180Y-73824717D01*
X81530898Y-73623097D01*
X81623693Y-73399069D01*
X81671000Y-73161243D01*
X81671000Y-72918757D01*
X81623693Y-72680931D01*
X81530898Y-72456903D01*
X81396180Y-72255283D01*
X81224717Y-72083820D01*
X81023097Y-71949102D01*
X80799069Y-71856307D01*
X80561243Y-71809000D01*
X80318757Y-71809000D01*
X80080931Y-71856307D01*
X79856903Y-71949102D01*
X79655283Y-72083820D01*
X79483820Y-72255283D01*
X79349102Y-72456903D01*
X79256307Y-72680931D01*
X79209000Y-72918757D01*
X79209000Y-73161243D01*
X79256307Y-73399069D01*
X79288242Y-73476167D01*
X79055408Y-73709001D01*
X78933499Y-73709001D01*
X78990898Y-73623097D01*
X79083693Y-73399069D01*
X79131000Y-73161243D01*
X79131000Y-72918757D01*
X79083693Y-72680931D01*
X79051758Y-72603833D01*
X79605219Y-72050373D01*
X79624526Y-72034528D01*
X79687758Y-71957480D01*
X79734744Y-71869576D01*
X79763677Y-71774194D01*
X79770999Y-71699855D01*
X79770999Y-71699848D01*
X79773446Y-71675002D01*
X79770999Y-71650156D01*
X79770999Y-71533499D01*
X79856903Y-71590898D01*
X80080931Y-71683693D01*
X80318757Y-71731000D01*
X80561243Y-71731000D01*
X80799069Y-71683693D01*
X81023097Y-71590898D01*
X81224717Y-71456180D01*
X81396180Y-71284717D01*
X81530898Y-71083097D01*
X81623693Y-70859069D01*
X81671000Y-70621243D01*
X81671000Y-70378757D01*
X81623693Y-70140931D01*
X81530898Y-69916903D01*
X81454479Y-69802534D01*
X83876013Y-67381000D01*
X83876922Y-67381000D01*
X84027809Y-67350987D01*
X84169942Y-67292113D01*
X84297859Y-67206642D01*
X84406642Y-67097859D01*
X84492113Y-66969942D01*
X84550987Y-66827809D01*
X84581000Y-66676922D01*
X84581000Y-66523078D01*
X84550987Y-66372191D01*
X84492113Y-66230058D01*
X84406642Y-66102141D01*
X84297859Y-65993358D01*
X84169942Y-65907887D01*
X84027809Y-65849013D01*
X83876922Y-65819000D01*
X83723078Y-65819000D01*
X83572191Y-65849013D01*
X83430058Y-65907887D01*
X83302141Y-65993358D01*
X83193358Y-66102141D01*
X83107887Y-66230058D01*
X83049013Y-66372191D01*
X83019000Y-66523078D01*
X83019000Y-66523987D01*
X80262870Y-69280117D01*
X80080931Y-69316307D01*
X79856903Y-69409102D01*
X79770999Y-69466501D01*
X79770999Y-65989853D01*
X79773447Y-65964999D01*
X79763677Y-65865806D01*
X79734744Y-65770424D01*
X79723258Y-65748935D01*
X79687758Y-65682520D01*
X79624526Y-65605472D01*
X79605219Y-65589627D01*
X73275376Y-59259785D01*
X73259527Y-59240473D01*
X73182479Y-59177241D01*
X73094575Y-59130255D01*
X72999193Y-59101322D01*
X72924854Y-59094000D01*
X72924846Y-59094000D01*
X72900000Y-59091553D01*
X72875154Y-59094000D01*
X71309592Y-59094000D01*
X69798434Y-57582843D01*
X70225001Y-57582843D01*
X70348462Y-57570683D01*
X70467179Y-57534671D01*
X70576589Y-57476190D01*
X70672488Y-57397488D01*
X70751190Y-57301589D01*
X70796808Y-57216244D01*
X70806349Y-57313112D01*
X70839342Y-57421877D01*
X70892921Y-57522115D01*
X70965025Y-57609975D01*
X71052885Y-57682079D01*
X71153123Y-57735658D01*
X71261888Y-57768651D01*
X71375000Y-57779792D01*
X71707750Y-57777000D01*
X71852000Y-57632750D01*
X71852000Y-56598000D01*
X72048000Y-56598000D01*
X72048000Y-57632750D01*
X72192250Y-57777000D01*
X72525000Y-57779792D01*
X72638112Y-57768651D01*
X72746877Y-57735658D01*
X72847115Y-57682079D01*
X72934975Y-57609975D01*
X73007079Y-57522115D01*
X73060658Y-57421877D01*
X73093651Y-57313112D01*
X73104792Y-57200000D01*
X73102000Y-56742250D01*
X72957750Y-56598000D01*
X72048000Y-56598000D01*
X71852000Y-56598000D01*
X71832000Y-56598000D01*
X71832000Y-56402000D01*
X71852000Y-56402000D01*
X71852000Y-54598000D01*
X72048000Y-54598000D01*
X72048000Y-56402000D01*
X72957750Y-56402000D01*
X73102000Y-56257750D01*
X73104792Y-55800000D01*
X73093651Y-55686888D01*
X73060658Y-55578123D01*
X73018900Y-55500000D01*
X73060658Y-55421877D01*
X73093651Y-55313112D01*
X73104792Y-55200000D01*
X73102000Y-54742250D01*
X72957750Y-54598000D01*
X72048000Y-54598000D01*
X71852000Y-54598000D01*
X71832000Y-54598000D01*
X71832000Y-54402000D01*
X71852000Y-54402000D01*
X71852000Y-53367250D01*
X72048000Y-53367250D01*
X72048000Y-54402000D01*
X72957750Y-54402000D01*
X73102000Y-54257750D01*
X73104792Y-53800000D01*
X73093651Y-53686888D01*
X73082462Y-53650000D01*
X90170208Y-53650000D01*
X90181349Y-53763112D01*
X90214342Y-53871877D01*
X90267921Y-53972115D01*
X90340025Y-54059975D01*
X90427885Y-54132079D01*
X90528123Y-54185658D01*
X90636888Y-54218651D01*
X90750000Y-54229792D01*
X91067038Y-54228336D01*
X91016903Y-54249102D01*
X90815283Y-54383820D01*
X90643820Y-54555283D01*
X90509102Y-54756903D01*
X90416307Y-54980931D01*
X90369000Y-55218757D01*
X90369000Y-55461243D01*
X90416307Y-55699069D01*
X90509102Y-55923097D01*
X90643820Y-56124717D01*
X90815283Y-56296180D01*
X91016903Y-56430898D01*
X91240931Y-56523693D01*
X91478757Y-56571000D01*
X91721243Y-56571000D01*
X91959069Y-56523693D01*
X92183097Y-56430898D01*
X92384717Y-56296180D01*
X92556180Y-56124717D01*
X92690898Y-55923097D01*
X92697980Y-55906000D01*
X94601499Y-55906000D01*
X94602141Y-55906642D01*
X94730058Y-55992113D01*
X94872191Y-56050987D01*
X95023078Y-56081000D01*
X95176922Y-56081000D01*
X95327809Y-56050987D01*
X95469942Y-55992113D01*
X95597859Y-55906642D01*
X95706642Y-55797859D01*
X95792113Y-55669942D01*
X95850987Y-55527809D01*
X95881000Y-55376922D01*
X95881000Y-55223078D01*
X95850987Y-55072191D01*
X95792113Y-54930058D01*
X95706642Y-54802141D01*
X95597859Y-54693358D01*
X95469942Y-54607887D01*
X95327809Y-54549013D01*
X95176922Y-54519000D01*
X95023078Y-54519000D01*
X94872191Y-54549013D01*
X94730058Y-54607887D01*
X94602141Y-54693358D01*
X94601499Y-54694000D01*
X92648868Y-54694000D01*
X92556180Y-54555283D01*
X92384717Y-54383820D01*
X92183097Y-54249102D01*
X92132962Y-54228336D01*
X92450000Y-54229792D01*
X92563112Y-54218651D01*
X92671877Y-54185658D01*
X92772115Y-54132079D01*
X92859975Y-54059975D01*
X92932079Y-53972115D01*
X92985658Y-53871877D01*
X93018651Y-53763112D01*
X93029792Y-53650000D01*
X93027000Y-53042250D01*
X92882750Y-52898000D01*
X91698000Y-52898000D01*
X91698000Y-52918000D01*
X91502000Y-52918000D01*
X91502000Y-52898000D01*
X90317250Y-52898000D01*
X90173000Y-53042250D01*
X90170208Y-53650000D01*
X73082462Y-53650000D01*
X73060658Y-53578123D01*
X73007079Y-53477885D01*
X72934975Y-53390025D01*
X72847115Y-53317921D01*
X72746877Y-53264342D01*
X72638112Y-53231349D01*
X72525000Y-53220208D01*
X72192250Y-53223000D01*
X72048000Y-53367250D01*
X71852000Y-53367250D01*
X71707750Y-53223000D01*
X71375000Y-53220208D01*
X71261888Y-53231349D01*
X71153123Y-53264342D01*
X71052885Y-53317921D01*
X70965025Y-53390025D01*
X70892921Y-53477885D01*
X70839342Y-53578123D01*
X70806349Y-53686888D01*
X70796808Y-53783756D01*
X70751190Y-53698411D01*
X70672488Y-53602512D01*
X70576589Y-53523810D01*
X70506000Y-53486079D01*
X70506000Y-52636416D01*
X70550987Y-52527809D01*
X70581000Y-52376922D01*
X70581000Y-52223078D01*
X70550987Y-52072191D01*
X70500374Y-51950000D01*
X90170208Y-51950000D01*
X90173000Y-52557750D01*
X90317250Y-52702000D01*
X91502000Y-52702000D01*
X91502000Y-51517250D01*
X91698000Y-51517250D01*
X91698000Y-52702000D01*
X92882750Y-52702000D01*
X93027000Y-52557750D01*
X93029792Y-51950000D01*
X93018651Y-51836888D01*
X92985658Y-51728123D01*
X92932079Y-51627885D01*
X92859975Y-51540025D01*
X92772115Y-51467921D01*
X92671877Y-51414342D01*
X92563112Y-51381349D01*
X92450000Y-51370208D01*
X91842250Y-51373000D01*
X91698000Y-51517250D01*
X91502000Y-51517250D01*
X91357750Y-51373000D01*
X90750000Y-51370208D01*
X90636888Y-51381349D01*
X90528123Y-51414342D01*
X90427885Y-51467921D01*
X90340025Y-51540025D01*
X90267921Y-51627885D01*
X90214342Y-51728123D01*
X90181349Y-51836888D01*
X90170208Y-51950000D01*
X70500374Y-51950000D01*
X70492113Y-51930058D01*
X70406642Y-51802141D01*
X70297859Y-51693358D01*
X70169942Y-51607887D01*
X70145024Y-51597565D01*
X85023091Y-36719499D01*
X87261655Y-36719499D01*
X87277562Y-36721066D01*
X87629289Y-37072793D01*
X87687304Y-37120404D01*
X87753492Y-37155783D01*
X87825311Y-37177569D01*
X87900000Y-37184925D01*
X87974689Y-37177569D01*
X88046508Y-37155783D01*
X88112696Y-37120404D01*
X88170711Y-37072793D01*
X89372793Y-35870711D01*
X89420404Y-35812696D01*
X89455783Y-35746508D01*
X89477569Y-35674689D01*
X89484925Y-35600000D01*
X89477569Y-35525311D01*
X89455783Y-35453492D01*
X89420404Y-35387304D01*
X89372793Y-35329289D01*
X88170711Y-34127207D01*
X88112696Y-34079596D01*
X88046508Y-34044217D01*
X87974689Y-34022431D01*
X87900000Y-34015075D01*
X87825311Y-34022431D01*
X87753492Y-34044217D01*
X87687304Y-34079596D01*
X87629289Y-34127207D01*
X86427207Y-35329289D01*
X86379596Y-35387304D01*
X86344217Y-35453492D01*
X86322431Y-35525311D01*
X86315075Y-35600000D01*
X86322431Y-35674689D01*
X86332384Y-35707499D01*
X85398681Y-35707499D01*
X86071231Y-35034949D01*
X86225192Y-35034949D01*
X86463018Y-34987642D01*
X86687046Y-34894847D01*
X86888666Y-34760129D01*
X87060129Y-34588666D01*
X87194847Y-34387046D01*
X87287642Y-34163018D01*
X87334949Y-33925192D01*
X87334949Y-33682706D01*
X87287642Y-33444880D01*
X87194847Y-33220852D01*
X87060129Y-33019232D01*
X86888666Y-32847769D01*
X86687046Y-32713051D01*
X86463018Y-32620256D01*
X86225192Y-32572949D01*
X85982706Y-32572949D01*
X85744880Y-32620256D01*
X85520852Y-32713051D01*
X85319232Y-32847769D01*
X85147769Y-33019232D01*
X85013051Y-33220852D01*
X84920256Y-33444880D01*
X84872949Y-33682706D01*
X84872949Y-33925192D01*
X84920256Y-34163018D01*
X85013051Y-34387046D01*
X85123160Y-34551836D01*
X84813898Y-34861098D01*
X84813898Y-33130730D01*
X84890995Y-33098796D01*
X85092615Y-32964078D01*
X85264078Y-32792615D01*
X85398796Y-32590995D01*
X85491591Y-32366967D01*
X85538898Y-32129141D01*
X85538898Y-31886655D01*
X85491591Y-31648829D01*
X85398796Y-31424801D01*
X85264078Y-31223181D01*
X85092615Y-31051718D01*
X84890995Y-30917000D01*
X84666967Y-30824205D01*
X84429141Y-30776898D01*
X84186655Y-30776898D01*
X83948829Y-30824205D01*
X83724801Y-30917000D01*
X83523181Y-31051718D01*
X83351718Y-31223181D01*
X83217000Y-31424801D01*
X83124205Y-31648829D01*
X83076898Y-31886655D01*
X83076898Y-32129141D01*
X83124205Y-32366967D01*
X83217000Y-32590995D01*
X83351718Y-32792615D01*
X83523181Y-32964078D01*
X83724801Y-33098796D01*
X83801899Y-33130731D01*
X83801898Y-35236688D01*
X83017846Y-36020740D01*
X83017846Y-31334678D01*
X83094943Y-31302744D01*
X83296563Y-31168026D01*
X83468026Y-30996563D01*
X83602744Y-30794943D01*
X83695539Y-30570915D01*
X83742846Y-30333089D01*
X83742846Y-30090603D01*
X83695539Y-29852777D01*
X83602744Y-29628749D01*
X83468026Y-29427129D01*
X83296563Y-29255666D01*
X83094943Y-29120948D01*
X82870915Y-29028153D01*
X82633089Y-28980846D01*
X82390603Y-28980846D01*
X82152777Y-29028153D01*
X81928749Y-29120948D01*
X81727129Y-29255666D01*
X81555666Y-29427129D01*
X81420948Y-29628749D01*
X81328153Y-29852777D01*
X81280846Y-30090603D01*
X81280846Y-30333089D01*
X81328153Y-30570915D01*
X81420948Y-30794943D01*
X81555666Y-30996563D01*
X81727129Y-31168026D01*
X81928749Y-31302744D01*
X82005847Y-31334679D01*
X82005846Y-36396330D01*
X81221795Y-37180381D01*
X81221795Y-29538627D01*
X81298892Y-29506693D01*
X81500512Y-29371975D01*
X81671975Y-29200512D01*
X81806693Y-28998892D01*
X81899488Y-28774864D01*
X81946795Y-28537038D01*
X81946795Y-28294552D01*
X81899488Y-28056726D01*
X81806693Y-27832698D01*
X81671975Y-27631078D01*
X81500512Y-27459615D01*
X81298892Y-27324897D01*
X81074864Y-27232102D01*
X80837038Y-27184795D01*
X80594552Y-27184795D01*
X80356726Y-27232102D01*
X80132698Y-27324897D01*
X79931078Y-27459615D01*
X79759615Y-27631078D01*
X79624897Y-27832698D01*
X79532102Y-28056726D01*
X79484795Y-28294552D01*
X79484795Y-28537038D01*
X79532102Y-28774864D01*
X79624897Y-28998892D01*
X79759615Y-29200512D01*
X79931078Y-29371975D01*
X80132698Y-29506693D01*
X80209796Y-29538628D01*
X80209795Y-37555971D01*
X79425744Y-38340022D01*
X79425744Y-27742576D01*
X79502841Y-27710642D01*
X79704461Y-27575924D01*
X79875924Y-27404461D01*
X80010642Y-27202841D01*
X80103437Y-26978813D01*
X80150744Y-26740987D01*
X80150744Y-26498501D01*
X80103437Y-26260675D01*
X80010642Y-26036647D01*
X79875924Y-25835027D01*
X79704461Y-25663564D01*
X79502841Y-25528846D01*
X79278813Y-25436051D01*
X79040987Y-25388744D01*
X78798501Y-25388744D01*
X78560675Y-25436051D01*
X78336647Y-25528846D01*
X78135027Y-25663564D01*
X77963564Y-25835027D01*
X77828846Y-26036647D01*
X77736051Y-26260675D01*
X77688744Y-26498501D01*
X77688744Y-26740987D01*
X77736051Y-26978813D01*
X77828846Y-27202841D01*
X77963564Y-27404461D01*
X78135027Y-27575924D01*
X78336647Y-27710642D01*
X78413745Y-27742577D01*
X78413744Y-38715612D01*
X69535377Y-47593980D01*
X63424865Y-47593980D01*
X63400019Y-47591533D01*
X63375173Y-47593980D01*
X63375166Y-47593980D01*
X63310714Y-47600328D01*
X63300826Y-47601302D01*
X63283223Y-47606642D01*
X63205445Y-47630235D01*
X63117541Y-47677221D01*
X63040493Y-47740453D01*
X63024649Y-47759759D01*
X61706000Y-49078409D01*
X61706000Y-48009591D01*
X61934591Y-47781000D01*
X62076922Y-47781000D01*
X62227809Y-47750987D01*
X62369942Y-47692113D01*
X62497859Y-47606642D01*
X62606642Y-47497859D01*
X62692113Y-47369942D01*
X62750987Y-47227809D01*
X62781000Y-47076922D01*
X62781000Y-46923078D01*
X62757712Y-46806000D01*
X64100154Y-46806000D01*
X64125000Y-46808447D01*
X64149846Y-46806000D01*
X64149854Y-46806000D01*
X64224193Y-46798678D01*
X64319575Y-46769745D01*
X64407479Y-46722759D01*
X64484527Y-46659527D01*
X64500376Y-46640215D01*
X65657749Y-45482843D01*
X66350001Y-45482843D01*
X66473462Y-45470683D01*
X66592179Y-45434671D01*
X66701589Y-45376190D01*
X66797488Y-45297488D01*
X66876190Y-45201589D01*
X66934671Y-45092179D01*
X66970683Y-44973462D01*
X66982843Y-44850001D01*
X66982843Y-44199999D01*
X66979055Y-44161537D01*
X67265230Y-43875362D01*
X67284537Y-43859517D01*
X67347769Y-43782469D01*
X67394755Y-43694565D01*
X67423688Y-43599183D01*
X67431010Y-43524844D01*
X67431010Y-43524837D01*
X67433457Y-43499991D01*
X67431010Y-43475145D01*
X67431010Y-41540443D01*
X67433457Y-41515597D01*
X67431010Y-41490751D01*
X67431010Y-41490744D01*
X67423688Y-41416405D01*
X67394755Y-41321023D01*
X67347769Y-41233119D01*
X67284537Y-41156071D01*
X67265230Y-41140226D01*
X54806000Y-28680997D01*
X54806000Y-26800000D01*
X56620208Y-26800000D01*
X56631349Y-26913112D01*
X56664342Y-27021877D01*
X56717921Y-27122115D01*
X56790025Y-27209975D01*
X56877885Y-27282079D01*
X56978123Y-27335658D01*
X57086888Y-27368651D01*
X57200000Y-27379792D01*
X57807750Y-27377000D01*
X57952000Y-27232750D01*
X57952000Y-26398000D01*
X58148000Y-26398000D01*
X58148000Y-27232750D01*
X58292250Y-27377000D01*
X58900000Y-27379792D01*
X59013112Y-27368651D01*
X59121877Y-27335658D01*
X59222115Y-27282079D01*
X59309975Y-27209975D01*
X59382079Y-27122115D01*
X59435658Y-27021877D01*
X59468651Y-26913112D01*
X59479792Y-26800000D01*
X62920208Y-26800000D01*
X62931349Y-26913112D01*
X62964342Y-27021877D01*
X63017921Y-27122115D01*
X63090025Y-27209975D01*
X63177885Y-27282079D01*
X63278123Y-27335658D01*
X63386888Y-27368651D01*
X63500000Y-27379792D01*
X64107750Y-27377000D01*
X64252000Y-27232750D01*
X64252000Y-26398000D01*
X64448000Y-26398000D01*
X64448000Y-27232750D01*
X64592250Y-27377000D01*
X65200000Y-27379792D01*
X65313112Y-27368651D01*
X65421877Y-27335658D01*
X65522115Y-27282079D01*
X65609975Y-27209975D01*
X65682079Y-27122115D01*
X65735658Y-27021877D01*
X65768651Y-26913112D01*
X65779792Y-26800000D01*
X65777000Y-26542250D01*
X65632750Y-26398000D01*
X64448000Y-26398000D01*
X64252000Y-26398000D01*
X63067250Y-26398000D01*
X62923000Y-26542250D01*
X62920208Y-26800000D01*
X59479792Y-26800000D01*
X59477000Y-26542250D01*
X59332750Y-26398000D01*
X58148000Y-26398000D01*
X57952000Y-26398000D01*
X56767250Y-26398000D01*
X56623000Y-26542250D01*
X56620208Y-26800000D01*
X54806000Y-26800000D01*
X54806000Y-26459591D01*
X55465591Y-25800000D01*
X56620208Y-25800000D01*
X56623000Y-26057750D01*
X56767250Y-26202000D01*
X57952000Y-26202000D01*
X57952000Y-25367250D01*
X58148000Y-25367250D01*
X58148000Y-26202000D01*
X59332750Y-26202000D01*
X59477000Y-26057750D01*
X59479792Y-25800000D01*
X62920208Y-25800000D01*
X62923000Y-26057750D01*
X63067250Y-26202000D01*
X64252000Y-26202000D01*
X64252000Y-25367250D01*
X64448000Y-25367250D01*
X64448000Y-26202000D01*
X65632750Y-26202000D01*
X65777000Y-26057750D01*
X65779792Y-25800000D01*
X65768651Y-25686888D01*
X65735658Y-25578123D01*
X65682079Y-25477885D01*
X65609975Y-25390025D01*
X65522115Y-25317921D01*
X65421877Y-25264342D01*
X65313112Y-25231349D01*
X65200000Y-25220208D01*
X64592250Y-25223000D01*
X64448000Y-25367250D01*
X64252000Y-25367250D01*
X64107750Y-25223000D01*
X63500000Y-25220208D01*
X63386888Y-25231349D01*
X63278123Y-25264342D01*
X63177885Y-25317921D01*
X63090025Y-25390025D01*
X63017921Y-25477885D01*
X62964342Y-25578123D01*
X62931349Y-25686888D01*
X62920208Y-25800000D01*
X59479792Y-25800000D01*
X59468651Y-25686888D01*
X59435658Y-25578123D01*
X59382079Y-25477885D01*
X59309975Y-25390025D01*
X59222115Y-25317921D01*
X59121877Y-25264342D01*
X59013112Y-25231349D01*
X58900000Y-25220208D01*
X58292250Y-25223000D01*
X58148000Y-25367250D01*
X57952000Y-25367250D01*
X57807750Y-25223000D01*
X57200000Y-25220208D01*
X57086888Y-25231349D01*
X56978123Y-25264342D01*
X56877885Y-25317921D01*
X56790025Y-25390025D01*
X56717921Y-25477885D01*
X56664342Y-25578123D01*
X56631349Y-25686888D01*
X56620208Y-25800000D01*
X55465591Y-25800000D01*
X57882749Y-23382843D01*
X58900000Y-23382843D01*
X58974689Y-23375487D01*
X59046508Y-23353701D01*
X59112696Y-23318322D01*
X59170711Y-23270711D01*
X59218322Y-23212696D01*
X59253701Y-23146508D01*
X59275487Y-23074689D01*
X59282252Y-23006000D01*
X63117748Y-23006000D01*
X63124513Y-23074689D01*
X63146299Y-23146508D01*
X63181678Y-23212696D01*
X63229289Y-23270711D01*
X63287304Y-23318322D01*
X63353492Y-23353701D01*
X63425311Y-23375487D01*
X63500000Y-23382843D01*
X65200000Y-23382843D01*
X65274689Y-23375487D01*
X65346508Y-23353701D01*
X65412696Y-23318322D01*
X65470711Y-23270711D01*
X65518322Y-23212696D01*
X65553701Y-23146508D01*
X65575487Y-23074689D01*
X65582843Y-23000000D01*
X65582843Y-22000000D01*
X65575487Y-21925311D01*
X65553701Y-21853492D01*
X65518322Y-21787304D01*
X65470711Y-21729289D01*
X65412696Y-21681678D01*
X65346508Y-21646299D01*
X65274689Y-21624513D01*
X65200000Y-21617157D01*
X63500000Y-21617157D01*
X63425311Y-21624513D01*
X63353492Y-21646299D01*
X63287304Y-21681678D01*
X63229289Y-21729289D01*
X63181678Y-21787304D01*
X63146299Y-21853492D01*
X63124513Y-21925311D01*
X63117748Y-21994000D01*
X59282252Y-21994000D01*
X59275487Y-21925311D01*
X59253701Y-21853492D01*
X59218322Y-21787304D01*
X59170711Y-21729289D01*
X59112696Y-21681678D01*
X59046508Y-21646299D01*
X58974689Y-21624513D01*
X58900000Y-21617157D01*
X57200000Y-21617157D01*
X57125311Y-21624513D01*
X57053492Y-21646299D01*
X56987304Y-21681678D01*
X56929289Y-21729289D01*
X56881678Y-21787304D01*
X56846299Y-21853492D01*
X56824513Y-21925311D01*
X56817157Y-22000000D01*
X56817157Y-23000000D01*
X56818704Y-23015705D01*
X53959781Y-25874628D01*
X53940474Y-25890473D01*
X53877242Y-25967521D01*
X53866668Y-25987304D01*
X53830255Y-26055426D01*
X53801322Y-26150808D01*
X53791553Y-26250000D01*
X53794001Y-26274856D01*
X53794000Y-28305407D01*
X51348378Y-25859785D01*
X51332529Y-25840473D01*
X51255481Y-25777241D01*
X51167577Y-25730255D01*
X51072195Y-25701322D01*
X50997856Y-25694000D01*
X50997848Y-25694000D01*
X50973002Y-25691553D01*
X50948156Y-25694000D01*
X46037504Y-25694000D01*
X45070711Y-24727207D01*
X45012696Y-24679596D01*
X44946508Y-24644217D01*
X44874689Y-24622431D01*
X44800000Y-24615075D01*
X44725311Y-24622431D01*
X44653492Y-24644217D01*
X44587304Y-24679596D01*
X44529289Y-24727207D01*
X43327207Y-25929289D01*
X43279596Y-25987304D01*
X43244217Y-26053492D01*
X43222431Y-26125311D01*
X43215075Y-26200000D01*
X43222431Y-26274689D01*
X43244217Y-26346508D01*
X43279596Y-26412696D01*
X43327207Y-26470711D01*
X44529289Y-27672793D01*
X44587304Y-27720404D01*
X44653492Y-27755783D01*
X44725311Y-27777569D01*
X44800000Y-27784925D01*
X44874689Y-27777569D01*
X44946508Y-27755783D01*
X45012696Y-27720404D01*
X45070711Y-27672793D01*
X46037504Y-26706000D01*
X50763411Y-26706000D01*
X62354976Y-38297566D01*
X62330058Y-38307887D01*
X62202141Y-38393358D01*
X62093358Y-38502141D01*
X62007887Y-38630058D01*
X61949013Y-38772191D01*
X61919000Y-38923078D01*
X61919000Y-39076922D01*
X61949013Y-39227809D01*
X62007887Y-39369942D01*
X62093358Y-39497859D01*
X62094000Y-39498501D01*
X62094001Y-40917157D01*
X62050000Y-40917157D01*
X61975311Y-40924513D01*
X61903492Y-40946299D01*
X61837304Y-40981678D01*
X61779289Y-41029289D01*
X61731678Y-41087304D01*
X61696299Y-41153492D01*
X61674513Y-41225311D01*
X61667157Y-41300000D01*
X61667157Y-42350583D01*
X61652284Y-42322758D01*
X61622759Y-42267521D01*
X61559527Y-42190473D01*
X61540220Y-42174628D01*
X61532843Y-42167251D01*
X61532843Y-41300000D01*
X61525487Y-41225311D01*
X61503701Y-41153492D01*
X61468322Y-41087304D01*
X61420711Y-41029289D01*
X61362696Y-40981678D01*
X61296508Y-40946299D01*
X61224689Y-40924513D01*
X61150000Y-40917157D01*
X59950000Y-40917157D01*
X59875311Y-40924513D01*
X59803492Y-40946299D01*
X59737304Y-40981678D01*
X59679289Y-41029289D01*
X59631678Y-41087304D01*
X59596299Y-41153492D01*
X59574513Y-41225311D01*
X59567157Y-41300000D01*
X59567157Y-42500000D01*
X59574513Y-42574689D01*
X59596299Y-42646508D01*
X59631678Y-42712696D01*
X59679289Y-42770711D01*
X59737304Y-42818322D01*
X59803492Y-42853701D01*
X59875311Y-42875487D01*
X59950000Y-42882843D01*
X60694001Y-42882843D01*
X60694000Y-46632768D01*
X57956010Y-43894779D01*
X57956010Y-41774864D01*
X57958458Y-41750010D01*
X57948688Y-41650817D01*
X57919755Y-41555435D01*
X57872769Y-41467531D01*
X57809537Y-41390483D01*
X57732489Y-41327251D01*
X57644585Y-41280265D01*
X57638240Y-41278340D01*
X51211768Y-34851869D01*
X51195919Y-34832557D01*
X51132567Y-34780565D01*
X44234949Y-27882948D01*
X44234949Y-27874808D01*
X44187642Y-27636982D01*
X44094847Y-27412954D01*
X43960129Y-27211334D01*
X43788666Y-27039871D01*
X43587046Y-26905153D01*
X43363018Y-26812358D01*
X43125192Y-26765051D01*
X42882706Y-26765051D01*
X42644880Y-26812358D01*
X42420852Y-26905153D01*
X42219232Y-27039871D01*
X42047769Y-27211334D01*
X41913051Y-27412954D01*
X41820256Y-27636982D01*
X41772949Y-27874808D01*
X41772949Y-28117294D01*
X41820256Y-28355120D01*
X41913051Y-28579148D01*
X42047769Y-28780768D01*
X42219232Y-28952231D01*
X42420852Y-29086949D01*
X42644880Y-29179744D01*
X42882706Y-29227051D01*
X43125192Y-29227051D01*
X43363018Y-29179744D01*
X43587046Y-29086949D01*
X43788666Y-28952231D01*
X43830858Y-28910039D01*
X44206921Y-29286102D01*
X42330730Y-29286102D01*
X42298796Y-29209005D01*
X42164078Y-29007385D01*
X41992615Y-28835922D01*
X41790995Y-28701204D01*
X41566967Y-28608409D01*
X41329141Y-28561102D01*
X41086655Y-28561102D01*
X40848829Y-28608409D01*
X40624801Y-28701204D01*
X40423181Y-28835922D01*
X40251718Y-29007385D01*
X40117000Y-29209005D01*
X40024205Y-29433033D01*
X39976898Y-29670859D01*
X39976898Y-29913345D01*
X40024205Y-30151171D01*
X40117000Y-30375199D01*
X40251718Y-30576819D01*
X40423181Y-30748282D01*
X40624801Y-30883000D01*
X40848829Y-30975795D01*
X41086655Y-31023102D01*
X41329141Y-31023102D01*
X41566967Y-30975795D01*
X41790995Y-30883000D01*
X41992615Y-30748282D01*
X42164078Y-30576819D01*
X42298796Y-30375199D01*
X42330730Y-30298102D01*
X44582511Y-30298102D01*
X50266721Y-35982313D01*
X50282566Y-36001620D01*
X50345923Y-36053616D01*
X56494001Y-42201695D01*
X56494000Y-44265924D01*
X56491553Y-44290770D01*
X56494000Y-44315616D01*
X56494000Y-44315623D01*
X56501322Y-44389962D01*
X56530255Y-44485344D01*
X56577241Y-44573249D01*
X56640473Y-44650297D01*
X56659785Y-44666146D01*
X59094001Y-47100363D01*
X59094000Y-49369028D01*
X59075000Y-49367157D01*
X58525000Y-49367157D01*
X58450311Y-49374513D01*
X58378492Y-49396299D01*
X58312304Y-49431678D01*
X58254289Y-49479289D01*
X58206678Y-49537304D01*
X58171299Y-49603492D01*
X58149513Y-49675311D01*
X58142157Y-49750000D01*
X58142157Y-49994000D01*
X56709611Y-49994000D01*
X56006018Y-49290408D01*
X56006018Y-43452052D01*
X56008466Y-43427198D01*
X55998696Y-43328005D01*
X55969763Y-43232623D01*
X55961686Y-43217512D01*
X55922777Y-43144719D01*
X55859545Y-43067671D01*
X55840238Y-43051826D01*
X53748176Y-40959765D01*
X53732327Y-40940453D01*
X53655279Y-40877221D01*
X53567375Y-40830235D01*
X53471993Y-40801302D01*
X53397654Y-40793980D01*
X53397646Y-40793980D01*
X53372800Y-40791533D01*
X53347954Y-40793980D01*
X37724866Y-40793980D01*
X37700020Y-40791533D01*
X37675174Y-40793980D01*
X37675166Y-40793980D01*
X37600827Y-40801302D01*
X37505445Y-40830235D01*
X37417541Y-40877221D01*
X37340493Y-40940453D01*
X37324648Y-40959760D01*
X33817252Y-44467157D01*
X32450000Y-44467157D01*
X32375311Y-44474513D01*
X32303492Y-44496299D01*
X32237304Y-44531678D01*
X32179289Y-44579289D01*
X32131678Y-44637304D01*
X32096299Y-44703492D01*
X32074513Y-44775311D01*
X32067157Y-44850000D01*
X25255944Y-44850000D01*
X25633037Y-43593170D01*
X26485246Y-41303161D01*
X27483900Y-39073119D01*
X28624810Y-36912395D01*
X29090268Y-36154214D01*
X34984379Y-36154214D01*
X35062236Y-36389604D01*
X35312724Y-36514149D01*
X35582696Y-36587433D01*
X35861777Y-36606640D01*
X36139244Y-36571033D01*
X36404432Y-36481978D01*
X36577250Y-36389600D01*
X36654838Y-36153943D01*
X35819744Y-35318849D01*
X34984379Y-36154214D01*
X29090268Y-36154214D01*
X29714001Y-35138223D01*
X34393360Y-35138223D01*
X34412567Y-35417304D01*
X34485851Y-35687276D01*
X34610396Y-35937764D01*
X34845786Y-36015621D01*
X35681151Y-35180256D01*
X34846057Y-34345162D01*
X34610400Y-34422750D01*
X34518022Y-34595568D01*
X34428967Y-34860756D01*
X34393360Y-35138223D01*
X29714001Y-35138223D01*
X29903191Y-34830054D01*
X30343952Y-34206569D01*
X34984650Y-34206569D01*
X35819744Y-35041663D01*
X35833886Y-35027521D01*
X35972479Y-35166114D01*
X35958337Y-35180256D01*
X36793431Y-36015350D01*
X37029088Y-35937762D01*
X37121466Y-35764944D01*
X37210521Y-35499756D01*
X37246128Y-35222289D01*
X37226921Y-34943208D01*
X37153637Y-34673236D01*
X37060940Y-34486801D01*
X37256726Y-34567898D01*
X37494552Y-34615205D01*
X37737038Y-34615205D01*
X37974864Y-34567898D01*
X38198892Y-34475103D01*
X38400512Y-34340385D01*
X38571975Y-34168922D01*
X38706693Y-33967302D01*
X38799488Y-33743274D01*
X38846795Y-33505448D01*
X38846795Y-33262962D01*
X38799488Y-33025136D01*
X38706693Y-32801108D01*
X38571975Y-32599488D01*
X38400512Y-32428025D01*
X38198892Y-32293307D01*
X37974864Y-32200512D01*
X37737038Y-32153205D01*
X37494552Y-32153205D01*
X37256726Y-32200512D01*
X37032698Y-32293307D01*
X36831078Y-32428025D01*
X36659615Y-32599488D01*
X36524897Y-32801108D01*
X36432102Y-33025136D01*
X36384795Y-33262962D01*
X36384795Y-33505448D01*
X36432102Y-33743274D01*
X36513199Y-33939060D01*
X36326764Y-33846363D01*
X36056792Y-33773079D01*
X35777711Y-33753872D01*
X35500244Y-33789479D01*
X35235056Y-33878534D01*
X35062238Y-33970912D01*
X34984650Y-34206569D01*
X30343952Y-34206569D01*
X31313680Y-32834830D01*
X32420176Y-31466911D01*
X38180846Y-31466911D01*
X38180846Y-31709397D01*
X38228153Y-31947223D01*
X38320948Y-32171251D01*
X38455666Y-32372871D01*
X38627129Y-32544334D01*
X38828749Y-32679052D01*
X39052777Y-32771847D01*
X39290603Y-32819154D01*
X39533089Y-32819154D01*
X39770915Y-32771847D01*
X39943392Y-32700405D01*
X41019000Y-33776014D01*
X41019000Y-33776922D01*
X41049013Y-33927809D01*
X41107887Y-34069942D01*
X41193358Y-34197859D01*
X41302141Y-34306642D01*
X41430058Y-34392113D01*
X41572191Y-34450987D01*
X41723078Y-34481000D01*
X41876922Y-34481000D01*
X42027809Y-34450987D01*
X42169942Y-34392113D01*
X42297859Y-34306642D01*
X42406642Y-34197859D01*
X42492113Y-34069942D01*
X42550987Y-33927809D01*
X42581000Y-33776922D01*
X42581000Y-33623078D01*
X42550987Y-33472191D01*
X42492113Y-33330058D01*
X42406642Y-33202141D01*
X42297859Y-33093358D01*
X42169942Y-33007887D01*
X42027809Y-32949013D01*
X41876922Y-32919000D01*
X41876014Y-32919000D01*
X40642846Y-31685833D01*
X40642846Y-31466911D01*
X40595539Y-31229085D01*
X40502744Y-31005057D01*
X40368026Y-30803437D01*
X40196563Y-30631974D01*
X39994943Y-30497256D01*
X39770915Y-30404461D01*
X39533089Y-30357154D01*
X39290603Y-30357154D01*
X39052777Y-30404461D01*
X38828749Y-30497256D01*
X38627129Y-30631974D01*
X38455666Y-30803437D01*
X38320948Y-31005057D01*
X38228153Y-31229085D01*
X38180846Y-31466911D01*
X32420176Y-31466911D01*
X32850361Y-30935090D01*
X34506790Y-29138804D01*
X36276018Y-27453505D01*
X38150625Y-25886262D01*
X40122748Y-24443650D01*
X42184115Y-23131717D01*
X44326080Y-21955968D01*
X46539659Y-20921334D01*
X48815567Y-20032154D01*
X51144259Y-19292158D01*
X53515968Y-18704449D01*
X55920744Y-18271494D01*
X58348502Y-17995107D01*
X60789060Y-17876448D01*
X63232180Y-17916015D01*
G36*
X69394000Y-60409592D02*
G01*
X69394000Y-60517157D01*
X69300000Y-60517157D01*
X69225311Y-60524513D01*
X69153492Y-60546299D01*
X69087304Y-60581678D01*
X69029289Y-60629289D01*
X68981678Y-60687304D01*
X68946299Y-60753492D01*
X68924513Y-60825311D01*
X68917157Y-60900000D01*
X68917157Y-62100000D01*
X68924513Y-62174689D01*
X68946299Y-62246508D01*
X68981678Y-62312696D01*
X69029289Y-62370711D01*
X69087304Y-62418322D01*
X69153492Y-62453701D01*
X69225311Y-62475487D01*
X69300000Y-62482843D01*
X70500000Y-62482843D01*
X70574689Y-62475487D01*
X70646508Y-62453701D01*
X70712696Y-62418322D01*
X70770711Y-62370711D01*
X70818322Y-62312696D01*
X70853701Y-62246508D01*
X70875487Y-62174689D01*
X70882843Y-62100000D01*
X70882843Y-60900000D01*
X70875487Y-60825311D01*
X70853701Y-60753492D01*
X70818322Y-60687304D01*
X70770711Y-60629289D01*
X70712696Y-60581678D01*
X70646508Y-60546299D01*
X70574689Y-60524513D01*
X70500000Y-60517157D01*
X70406000Y-60517157D01*
X70406000Y-60224854D01*
X70408448Y-60200000D01*
X70398678Y-60100807D01*
X70369745Y-60005425D01*
X70368823Y-60003701D01*
X70322759Y-59917521D01*
X70259527Y-59840473D01*
X70240220Y-59824628D01*
X68421591Y-58006000D01*
X68790409Y-58006000D01*
X70724628Y-59940220D01*
X70740473Y-59959527D01*
X70817521Y-60022759D01*
X70905425Y-60069745D01*
X70978607Y-60091944D01*
X71000806Y-60098678D01*
X71010694Y-60099652D01*
X71075146Y-60106000D01*
X71075153Y-60106000D01*
X71099999Y-60108447D01*
X71124845Y-60106000D01*
X72690409Y-60106000D01*
X78758999Y-66174591D01*
X78759000Y-69268043D01*
X78750000Y-69267157D01*
X77050000Y-69267157D01*
X76975311Y-69274513D01*
X76903492Y-69296299D01*
X76837304Y-69331678D01*
X76779289Y-69379289D01*
X76731678Y-69437304D01*
X76696299Y-69503492D01*
X76674513Y-69575311D01*
X76667157Y-69650000D01*
X76667157Y-69994000D01*
X73509592Y-69994000D01*
X66615592Y-63100000D01*
X68867157Y-63100000D01*
X68867157Y-64900000D01*
X68874513Y-64974689D01*
X68896299Y-65046508D01*
X68931678Y-65112696D01*
X68979289Y-65170711D01*
X69037304Y-65218322D01*
X69103492Y-65253701D01*
X69175311Y-65275487D01*
X69250000Y-65282843D01*
X70750000Y-65282843D01*
X70824689Y-65275487D01*
X70896508Y-65253701D01*
X70962696Y-65218322D01*
X71020711Y-65170711D01*
X71068322Y-65112696D01*
X71103701Y-65046508D01*
X71125487Y-64974689D01*
X71132843Y-64900000D01*
X72270208Y-64900000D01*
X72281349Y-65013112D01*
X72314342Y-65121877D01*
X72367921Y-65222115D01*
X72440025Y-65309975D01*
X72527885Y-65382079D01*
X72628123Y-65435658D01*
X72736888Y-65468651D01*
X72850000Y-65479792D01*
X73357750Y-65477000D01*
X73502000Y-65332750D01*
X73502000Y-64098000D01*
X73698000Y-64098000D01*
X73698000Y-65332750D01*
X73842250Y-65477000D01*
X74350000Y-65479792D01*
X74463112Y-65468651D01*
X74571877Y-65435658D01*
X74672115Y-65382079D01*
X74759975Y-65309975D01*
X74832079Y-65222115D01*
X74885658Y-65121877D01*
X74918651Y-65013112D01*
X74929792Y-64900000D01*
X74927000Y-64242250D01*
X74782750Y-64098000D01*
X73698000Y-64098000D01*
X73502000Y-64098000D01*
X72417250Y-64098000D01*
X72273000Y-64242250D01*
X72270208Y-64900000D01*
X71132843Y-64900000D01*
X71132843Y-64505213D01*
X71199193Y-64498678D01*
X71294575Y-64469745D01*
X71382479Y-64422759D01*
X71459527Y-64359527D01*
X71475376Y-64340215D01*
X72272091Y-63543501D01*
X72273000Y-63757750D01*
X72417250Y-63902000D01*
X73502000Y-63902000D01*
X73502000Y-62667250D01*
X73698000Y-62667250D01*
X73698000Y-63902000D01*
X74782750Y-63902000D01*
X74927000Y-63757750D01*
X74929792Y-63100000D01*
X74918651Y-62986888D01*
X74885658Y-62878123D01*
X74832079Y-62777885D01*
X74759975Y-62690025D01*
X74672115Y-62617921D01*
X74571877Y-62564342D01*
X74463112Y-62531349D01*
X74350000Y-62520208D01*
X73842250Y-62523000D01*
X73698000Y-62667250D01*
X73502000Y-62667250D01*
X73357750Y-62523000D01*
X72850000Y-62520208D01*
X72736888Y-62531349D01*
X72628123Y-62564342D01*
X72527885Y-62617921D01*
X72506000Y-62635881D01*
X72506000Y-62482843D01*
X72600000Y-62482843D01*
X72674689Y-62475487D01*
X72746508Y-62453701D01*
X72812696Y-62418322D01*
X72870711Y-62370711D01*
X72918322Y-62312696D01*
X72953701Y-62246508D01*
X72975487Y-62174689D01*
X72982843Y-62100000D01*
X72982843Y-60900000D01*
X72975487Y-60825311D01*
X72953701Y-60753492D01*
X72918322Y-60687304D01*
X72870711Y-60629289D01*
X72812696Y-60581678D01*
X72746508Y-60546299D01*
X72674689Y-60524513D01*
X72600000Y-60517157D01*
X71400000Y-60517157D01*
X71325311Y-60524513D01*
X71253492Y-60546299D01*
X71187304Y-60581678D01*
X71129289Y-60629289D01*
X71081678Y-60687304D01*
X71046299Y-60753492D01*
X71024513Y-60825311D01*
X71017157Y-60900000D01*
X71017157Y-62100000D01*
X71024513Y-62174689D01*
X71046299Y-62246508D01*
X71081678Y-62312696D01*
X71129289Y-62370711D01*
X71187304Y-62418322D01*
X71253492Y-62453701D01*
X71325311Y-62475487D01*
X71400000Y-62482843D01*
X71494001Y-62482843D01*
X71494001Y-62890407D01*
X71132843Y-63251566D01*
X71132843Y-63100000D01*
X71125487Y-63025311D01*
X71103701Y-62953492D01*
X71068322Y-62887304D01*
X71020711Y-62829289D01*
X70962696Y-62781678D01*
X70896508Y-62746299D01*
X70824689Y-62724513D01*
X70750000Y-62717157D01*
X69250000Y-62717157D01*
X69175311Y-62724513D01*
X69103492Y-62746299D01*
X69037304Y-62781678D01*
X68979289Y-62829289D01*
X68931678Y-62887304D01*
X68896299Y-62953492D01*
X68874513Y-63025311D01*
X68867157Y-63100000D01*
X66615592Y-63100000D01*
X64906000Y-61390409D01*
X64906000Y-59953301D01*
X64945711Y-59920711D01*
X64993322Y-59862696D01*
X65028701Y-59796508D01*
X65050487Y-59724689D01*
X65057843Y-59650000D01*
X65057843Y-58157843D01*
X66550000Y-58157843D01*
X66624689Y-58150487D01*
X66696508Y-58128701D01*
X66762696Y-58093322D01*
X66820711Y-58045711D01*
X66853301Y-58006000D01*
X66990409Y-58006000D01*
X69394000Y-60409592D01*
G37*
X69394000Y-60409592D02*
X69394000Y-60517157D01*
X69300000Y-60517157D01*
X69225311Y-60524513D01*
X69153492Y-60546299D01*
X69087304Y-60581678D01*
X69029289Y-60629289D01*
X68981678Y-60687304D01*
X68946299Y-60753492D01*
X68924513Y-60825311D01*
X68917157Y-60900000D01*
X68917157Y-62100000D01*
X68924513Y-62174689D01*
X68946299Y-62246508D01*
X68981678Y-62312696D01*
X69029289Y-62370711D01*
X69087304Y-62418322D01*
X69153492Y-62453701D01*
X69225311Y-62475487D01*
X69300000Y-62482843D01*
X70500000Y-62482843D01*
X70574689Y-62475487D01*
X70646508Y-62453701D01*
X70712696Y-62418322D01*
X70770711Y-62370711D01*
X70818322Y-62312696D01*
X70853701Y-62246508D01*
X70875487Y-62174689D01*
X70882843Y-62100000D01*
X70882843Y-60900000D01*
X70875487Y-60825311D01*
X70853701Y-60753492D01*
X70818322Y-60687304D01*
X70770711Y-60629289D01*
X70712696Y-60581678D01*
X70646508Y-60546299D01*
X70574689Y-60524513D01*
X70500000Y-60517157D01*
X70406000Y-60517157D01*
X70406000Y-60224854D01*
X70408448Y-60200000D01*
X70398678Y-60100807D01*
X70369745Y-60005425D01*
X70368823Y-60003701D01*
X70322759Y-59917521D01*
X70259527Y-59840473D01*
X70240220Y-59824628D01*
X68421591Y-58006000D01*
X68790409Y-58006000D01*
X70724628Y-59940220D01*
X70740473Y-59959527D01*
X70817521Y-60022759D01*
X70905425Y-60069745D01*
X70978607Y-60091944D01*
X71000806Y-60098678D01*
X71010694Y-60099652D01*
X71075146Y-60106000D01*
X71075153Y-60106000D01*
X71099999Y-60108447D01*
X71124845Y-60106000D01*
X72690409Y-60106000D01*
X78758999Y-66174591D01*
X78759000Y-69268043D01*
X78750000Y-69267157D01*
X77050000Y-69267157D01*
X76975311Y-69274513D01*
X76903492Y-69296299D01*
X76837304Y-69331678D01*
X76779289Y-69379289D01*
X76731678Y-69437304D01*
X76696299Y-69503492D01*
X76674513Y-69575311D01*
X76667157Y-69650000D01*
X76667157Y-69994000D01*
X73509592Y-69994000D01*
X66615592Y-63100000D01*
X68867157Y-63100000D01*
X68867157Y-64900000D01*
X68874513Y-64974689D01*
X68896299Y-65046508D01*
X68931678Y-65112696D01*
X68979289Y-65170711D01*
X69037304Y-65218322D01*
X69103492Y-65253701D01*
X69175311Y-65275487D01*
X69250000Y-65282843D01*
X70750000Y-65282843D01*
X70824689Y-65275487D01*
X70896508Y-65253701D01*
X70962696Y-65218322D01*
X71020711Y-65170711D01*
X71068322Y-65112696D01*
X71103701Y-65046508D01*
X71125487Y-64974689D01*
X71132843Y-64900000D01*
X72270208Y-64900000D01*
X72281349Y-65013112D01*
X72314342Y-65121877D01*
X72367921Y-65222115D01*
X72440025Y-65309975D01*
X72527885Y-65382079D01*
X72628123Y-65435658D01*
X72736888Y-65468651D01*
X72850000Y-65479792D01*
X73357750Y-65477000D01*
X73502000Y-65332750D01*
X73502000Y-64098000D01*
X73698000Y-64098000D01*
X73698000Y-65332750D01*
X73842250Y-65477000D01*
X74350000Y-65479792D01*
X74463112Y-65468651D01*
X74571877Y-65435658D01*
X74672115Y-65382079D01*
X74759975Y-65309975D01*
X74832079Y-65222115D01*
X74885658Y-65121877D01*
X74918651Y-65013112D01*
X74929792Y-64900000D01*
X74927000Y-64242250D01*
X74782750Y-64098000D01*
X73698000Y-64098000D01*
X73502000Y-64098000D01*
X72417250Y-64098000D01*
X72273000Y-64242250D01*
X72270208Y-64900000D01*
X71132843Y-64900000D01*
X71132843Y-64505213D01*
X71199193Y-64498678D01*
X71294575Y-64469745D01*
X71382479Y-64422759D01*
X71459527Y-64359527D01*
X71475376Y-64340215D01*
X72272091Y-63543501D01*
X72273000Y-63757750D01*
X72417250Y-63902000D01*
X73502000Y-63902000D01*
X73502000Y-62667250D01*
X73698000Y-62667250D01*
X73698000Y-63902000D01*
X74782750Y-63902000D01*
X74927000Y-63757750D01*
X74929792Y-63100000D01*
X74918651Y-62986888D01*
X74885658Y-62878123D01*
X74832079Y-62777885D01*
X74759975Y-62690025D01*
X74672115Y-62617921D01*
X74571877Y-62564342D01*
X74463112Y-62531349D01*
X74350000Y-62520208D01*
X73842250Y-62523000D01*
X73698000Y-62667250D01*
X73502000Y-62667250D01*
X73357750Y-62523000D01*
X72850000Y-62520208D01*
X72736888Y-62531349D01*
X72628123Y-62564342D01*
X72527885Y-62617921D01*
X72506000Y-62635881D01*
X72506000Y-62482843D01*
X72600000Y-62482843D01*
X72674689Y-62475487D01*
X72746508Y-62453701D01*
X72812696Y-62418322D01*
X72870711Y-62370711D01*
X72918322Y-62312696D01*
X72953701Y-62246508D01*
X72975487Y-62174689D01*
X72982843Y-62100000D01*
X72982843Y-60900000D01*
X72975487Y-60825311D01*
X72953701Y-60753492D01*
X72918322Y-60687304D01*
X72870711Y-60629289D01*
X72812696Y-60581678D01*
X72746508Y-60546299D01*
X72674689Y-60524513D01*
X72600000Y-60517157D01*
X71400000Y-60517157D01*
X71325311Y-60524513D01*
X71253492Y-60546299D01*
X71187304Y-60581678D01*
X71129289Y-60629289D01*
X71081678Y-60687304D01*
X71046299Y-60753492D01*
X71024513Y-60825311D01*
X71017157Y-60900000D01*
X71017157Y-62100000D01*
X71024513Y-62174689D01*
X71046299Y-62246508D01*
X71081678Y-62312696D01*
X71129289Y-62370711D01*
X71187304Y-62418322D01*
X71253492Y-62453701D01*
X71325311Y-62475487D01*
X71400000Y-62482843D01*
X71494001Y-62482843D01*
X71494001Y-62890407D01*
X71132843Y-63251566D01*
X71132843Y-63100000D01*
X71125487Y-63025311D01*
X71103701Y-62953492D01*
X71068322Y-62887304D01*
X71020711Y-62829289D01*
X70962696Y-62781678D01*
X70896508Y-62746299D01*
X70824689Y-62724513D01*
X70750000Y-62717157D01*
X69250000Y-62717157D01*
X69175311Y-62724513D01*
X69103492Y-62746299D01*
X69037304Y-62781678D01*
X68979289Y-62829289D01*
X68931678Y-62887304D01*
X68896299Y-62953492D01*
X68874513Y-63025311D01*
X68867157Y-63100000D01*
X66615592Y-63100000D01*
X64906000Y-61390409D01*
X64906000Y-59953301D01*
X64945711Y-59920711D01*
X64993322Y-59862696D01*
X65028701Y-59796508D01*
X65050487Y-59724689D01*
X65057843Y-59650000D01*
X65057843Y-58157843D01*
X66550000Y-58157843D01*
X66624689Y-58150487D01*
X66696508Y-58128701D01*
X66762696Y-58093322D01*
X66820711Y-58045711D01*
X66853301Y-58006000D01*
X66990409Y-58006000D01*
X69394000Y-60409592D01*
G36*
X56024628Y-57040220D02*
G01*
X56040473Y-57059527D01*
X56044491Y-57062825D01*
X56017521Y-57077241D01*
X55940473Y-57140473D01*
X55924628Y-57159780D01*
X55034774Y-58049635D01*
X52794311Y-58049635D01*
X52839826Y-58003561D01*
X52839826Y-57799561D01*
X52178858Y-57138593D01*
X52164716Y-57152735D01*
X52026123Y-57014142D01*
X52040265Y-57000000D01*
X52317451Y-57000000D01*
X52978419Y-57660968D01*
X53182419Y-57660968D01*
X53508072Y-57339264D01*
X53580176Y-57251404D01*
X53633755Y-57151166D01*
X53666748Y-57042401D01*
X53677889Y-56929289D01*
X53666748Y-56816178D01*
X53633755Y-56707413D01*
X53580176Y-56607175D01*
X53508072Y-56519314D01*
X53253130Y-56268321D01*
X53049130Y-56268321D01*
X52317451Y-57000000D01*
X52040265Y-57000000D01*
X52026123Y-56985858D01*
X52164716Y-56847265D01*
X52178858Y-56861407D01*
X52910537Y-56129728D01*
X52910537Y-55925728D01*
X52795562Y-55808944D01*
X54793353Y-55808944D01*
X56024628Y-57040220D01*
G37*
X56024628Y-57040220D02*
X56040473Y-57059527D01*
X56044491Y-57062825D01*
X56017521Y-57077241D01*
X55940473Y-57140473D01*
X55924628Y-57159780D01*
X55034774Y-58049635D01*
X52794311Y-58049635D01*
X52839826Y-58003561D01*
X52839826Y-57799561D01*
X52178858Y-57138593D01*
X52164716Y-57152735D01*
X52026123Y-57014142D01*
X52040265Y-57000000D01*
X52317451Y-57000000D01*
X52978419Y-57660968D01*
X53182419Y-57660968D01*
X53508072Y-57339264D01*
X53580176Y-57251404D01*
X53633755Y-57151166D01*
X53666748Y-57042401D01*
X53677889Y-56929289D01*
X53666748Y-56816178D01*
X53633755Y-56707413D01*
X53580176Y-56607175D01*
X53508072Y-56519314D01*
X53253130Y-56268321D01*
X53049130Y-56268321D01*
X52317451Y-57000000D01*
X52040265Y-57000000D01*
X52026123Y-56985858D01*
X52164716Y-56847265D01*
X52178858Y-56861407D01*
X52910537Y-56129728D01*
X52910537Y-55925728D01*
X52795562Y-55808944D01*
X54793353Y-55808944D01*
X56024628Y-57040220D01*
G36*
X64050311Y-51625487D02*
G01*
X64125000Y-51632843D01*
X64667157Y-51632843D01*
X64667157Y-52175000D01*
X64674513Y-52249689D01*
X64689775Y-52300000D01*
X64674513Y-52350311D01*
X64667157Y-52425000D01*
X64667157Y-52975000D01*
X64674513Y-53049689D01*
X64689775Y-53100000D01*
X64674513Y-53150311D01*
X64667157Y-53225000D01*
X64667157Y-53592759D01*
X64640025Y-53615025D01*
X64567921Y-53702885D01*
X64514342Y-53803123D01*
X64481349Y-53911888D01*
X64470208Y-54025000D01*
X64473000Y-54057750D01*
X64617250Y-54202000D01*
X65702000Y-54202000D01*
X65702000Y-54182000D01*
X65898000Y-54182000D01*
X65898000Y-54202000D01*
X66982750Y-54202000D01*
X67127000Y-54057750D01*
X67129792Y-54025000D01*
X67118651Y-53911888D01*
X67085658Y-53803123D01*
X67032079Y-53702885D01*
X66959975Y-53615025D01*
X66932843Y-53592759D01*
X66932843Y-53225000D01*
X66930972Y-53206000D01*
X68302152Y-53206000D01*
X68326998Y-53208447D01*
X68351844Y-53206000D01*
X68351852Y-53206000D01*
X68426191Y-53198678D01*
X68521573Y-53169745D01*
X68609477Y-53122759D01*
X68686525Y-53059527D01*
X68702374Y-53040215D01*
X69097565Y-52645024D01*
X69107887Y-52669942D01*
X69193358Y-52797859D01*
X69294000Y-52898501D01*
X69294001Y-53486079D01*
X69223411Y-53523810D01*
X69127512Y-53602512D01*
X69048810Y-53698411D01*
X68990329Y-53807821D01*
X68964187Y-53894000D01*
X68429757Y-53894000D01*
X68399999Y-53891069D01*
X68370242Y-53894000D01*
X68370230Y-53894000D01*
X68281203Y-53902768D01*
X68166972Y-53937420D01*
X68142855Y-53950311D01*
X68061695Y-53993692D01*
X67992543Y-54050443D01*
X67992539Y-54050447D01*
X67969420Y-54069420D01*
X67950447Y-54092540D01*
X67548987Y-54494000D01*
X67078750Y-54494000D01*
X66982750Y-54398000D01*
X65898000Y-54398000D01*
X65898000Y-54418000D01*
X65702000Y-54418000D01*
X65702000Y-54398000D01*
X64617250Y-54398000D01*
X64473000Y-54542250D01*
X64470208Y-54575000D01*
X64481349Y-54688112D01*
X64514342Y-54796877D01*
X64567921Y-54897115D01*
X64640025Y-54984975D01*
X64667157Y-55007241D01*
X64667157Y-55375000D01*
X64674513Y-55449689D01*
X64689775Y-55500000D01*
X64674513Y-55550311D01*
X64667157Y-55625000D01*
X64667157Y-56175000D01*
X64674513Y-56249689D01*
X64689775Y-56300000D01*
X64674513Y-56350311D01*
X64667157Y-56425000D01*
X64667157Y-56975000D01*
X64674513Y-57049689D01*
X64689775Y-57100000D01*
X64674513Y-57150311D01*
X64667157Y-57225000D01*
X64667157Y-57767157D01*
X64125000Y-57767157D01*
X64050311Y-57774513D01*
X64000000Y-57789775D01*
X63949689Y-57774513D01*
X63875000Y-57767157D01*
X63325000Y-57767157D01*
X63250311Y-57774513D01*
X63200000Y-57789775D01*
X63149689Y-57774513D01*
X63075000Y-57767157D01*
X62525000Y-57767157D01*
X62450311Y-57774513D01*
X62400000Y-57789775D01*
X62349689Y-57774513D01*
X62275000Y-57767157D01*
X61725000Y-57767157D01*
X61650311Y-57774513D01*
X61600000Y-57789775D01*
X61549689Y-57774513D01*
X61475000Y-57767157D01*
X60925000Y-57767157D01*
X60850311Y-57774513D01*
X60800000Y-57789775D01*
X60749689Y-57774513D01*
X60675000Y-57767157D01*
X60125000Y-57767157D01*
X60050311Y-57774513D01*
X60000000Y-57789775D01*
X59949689Y-57774513D01*
X59875000Y-57767157D01*
X59325000Y-57767157D01*
X59250311Y-57774513D01*
X59200000Y-57789775D01*
X59149689Y-57774513D01*
X59075000Y-57767157D01*
X58532843Y-57767157D01*
X58532843Y-57225000D01*
X58525487Y-57150311D01*
X58510225Y-57100000D01*
X58525487Y-57049689D01*
X58532843Y-56975000D01*
X58532843Y-56425000D01*
X58525487Y-56350311D01*
X58510225Y-56300000D01*
X58525487Y-56249689D01*
X58532843Y-56175000D01*
X58532843Y-55807241D01*
X58559975Y-55784975D01*
X58632079Y-55697115D01*
X58685658Y-55596877D01*
X58718651Y-55488112D01*
X58729792Y-55375000D01*
X58727000Y-55342250D01*
X58582750Y-55198000D01*
X57498000Y-55198000D01*
X57498000Y-55218000D01*
X57302000Y-55218000D01*
X57302000Y-55198000D01*
X57282000Y-55198000D01*
X57282000Y-55002000D01*
X57302000Y-55002000D01*
X57302000Y-54982000D01*
X57498000Y-54982000D01*
X57498000Y-55002000D01*
X58582750Y-55002000D01*
X58727000Y-54857750D01*
X58729792Y-54825000D01*
X58718651Y-54711888D01*
X58685658Y-54603123D01*
X58632079Y-54502885D01*
X58559975Y-54415025D01*
X58532843Y-54392759D01*
X58532843Y-54207241D01*
X58559975Y-54184975D01*
X58632079Y-54097115D01*
X58685658Y-53996877D01*
X58718651Y-53888112D01*
X58729792Y-53775000D01*
X58727000Y-53742250D01*
X58582750Y-53598000D01*
X57498000Y-53598000D01*
X57498000Y-53618000D01*
X57302000Y-53618000D01*
X57302000Y-53598000D01*
X57282000Y-53598000D01*
X57282000Y-53402000D01*
X57302000Y-53402000D01*
X57302000Y-53382000D01*
X57498000Y-53382000D01*
X57498000Y-53402000D01*
X58582750Y-53402000D01*
X58727000Y-53257750D01*
X58729792Y-53225000D01*
X58718651Y-53111888D01*
X58685658Y-53003123D01*
X58632079Y-52902885D01*
X58559975Y-52815025D01*
X58532843Y-52792759D01*
X58532843Y-52425000D01*
X58525487Y-52350311D01*
X58510225Y-52300000D01*
X58525487Y-52249689D01*
X58532843Y-52175000D01*
X58532843Y-51632843D01*
X59075000Y-51632843D01*
X59149689Y-51625487D01*
X59200000Y-51610225D01*
X59250311Y-51625487D01*
X59325000Y-51632843D01*
X59875000Y-51632843D01*
X59949689Y-51625487D01*
X60000000Y-51610225D01*
X60050311Y-51625487D01*
X60125000Y-51632843D01*
X60675000Y-51632843D01*
X60749689Y-51625487D01*
X60800000Y-51610225D01*
X60850311Y-51625487D01*
X60925000Y-51632843D01*
X61475000Y-51632843D01*
X61549689Y-51625487D01*
X61600000Y-51610225D01*
X61650311Y-51625487D01*
X61725000Y-51632843D01*
X62275000Y-51632843D01*
X62349689Y-51625487D01*
X62400000Y-51610225D01*
X62450311Y-51625487D01*
X62525000Y-51632843D01*
X63075000Y-51632843D01*
X63149689Y-51625487D01*
X63200000Y-51610225D01*
X63250311Y-51625487D01*
X63325000Y-51632843D01*
X63875000Y-51632843D01*
X63949689Y-51625487D01*
X64000000Y-51610225D01*
X64050311Y-51625487D01*
G37*
X64050311Y-51625487D02*
X64125000Y-51632843D01*
X64667157Y-51632843D01*
X64667157Y-52175000D01*
X64674513Y-52249689D01*
X64689775Y-52300000D01*
X64674513Y-52350311D01*
X64667157Y-52425000D01*
X64667157Y-52975000D01*
X64674513Y-53049689D01*
X64689775Y-53100000D01*
X64674513Y-53150311D01*
X64667157Y-53225000D01*
X64667157Y-53592759D01*
X64640025Y-53615025D01*
X64567921Y-53702885D01*
X64514342Y-53803123D01*
X64481349Y-53911888D01*
X64470208Y-54025000D01*
X64473000Y-54057750D01*
X64617250Y-54202000D01*
X65702000Y-54202000D01*
X65702000Y-54182000D01*
X65898000Y-54182000D01*
X65898000Y-54202000D01*
X66982750Y-54202000D01*
X67127000Y-54057750D01*
X67129792Y-54025000D01*
X67118651Y-53911888D01*
X67085658Y-53803123D01*
X67032079Y-53702885D01*
X66959975Y-53615025D01*
X66932843Y-53592759D01*
X66932843Y-53225000D01*
X66930972Y-53206000D01*
X68302152Y-53206000D01*
X68326998Y-53208447D01*
X68351844Y-53206000D01*
X68351852Y-53206000D01*
X68426191Y-53198678D01*
X68521573Y-53169745D01*
X68609477Y-53122759D01*
X68686525Y-53059527D01*
X68702374Y-53040215D01*
X69097565Y-52645024D01*
X69107887Y-52669942D01*
X69193358Y-52797859D01*
X69294000Y-52898501D01*
X69294001Y-53486079D01*
X69223411Y-53523810D01*
X69127512Y-53602512D01*
X69048810Y-53698411D01*
X68990329Y-53807821D01*
X68964187Y-53894000D01*
X68429757Y-53894000D01*
X68399999Y-53891069D01*
X68370242Y-53894000D01*
X68370230Y-53894000D01*
X68281203Y-53902768D01*
X68166972Y-53937420D01*
X68142855Y-53950311D01*
X68061695Y-53993692D01*
X67992543Y-54050443D01*
X67992539Y-54050447D01*
X67969420Y-54069420D01*
X67950447Y-54092540D01*
X67548987Y-54494000D01*
X67078750Y-54494000D01*
X66982750Y-54398000D01*
X65898000Y-54398000D01*
X65898000Y-54418000D01*
X65702000Y-54418000D01*
X65702000Y-54398000D01*
X64617250Y-54398000D01*
X64473000Y-54542250D01*
X64470208Y-54575000D01*
X64481349Y-54688112D01*
X64514342Y-54796877D01*
X64567921Y-54897115D01*
X64640025Y-54984975D01*
X64667157Y-55007241D01*
X64667157Y-55375000D01*
X64674513Y-55449689D01*
X64689775Y-55500000D01*
X64674513Y-55550311D01*
X64667157Y-55625000D01*
X64667157Y-56175000D01*
X64674513Y-56249689D01*
X64689775Y-56300000D01*
X64674513Y-56350311D01*
X64667157Y-56425000D01*
X64667157Y-56975000D01*
X64674513Y-57049689D01*
X64689775Y-57100000D01*
X64674513Y-57150311D01*
X64667157Y-57225000D01*
X64667157Y-57767157D01*
X64125000Y-57767157D01*
X64050311Y-57774513D01*
X64000000Y-57789775D01*
X63949689Y-57774513D01*
X63875000Y-57767157D01*
X63325000Y-57767157D01*
X63250311Y-57774513D01*
X63200000Y-57789775D01*
X63149689Y-57774513D01*
X63075000Y-57767157D01*
X62525000Y-57767157D01*
X62450311Y-57774513D01*
X62400000Y-57789775D01*
X62349689Y-57774513D01*
X62275000Y-57767157D01*
X61725000Y-57767157D01*
X61650311Y-57774513D01*
X61600000Y-57789775D01*
X61549689Y-57774513D01*
X61475000Y-57767157D01*
X60925000Y-57767157D01*
X60850311Y-57774513D01*
X60800000Y-57789775D01*
X60749689Y-57774513D01*
X60675000Y-57767157D01*
X60125000Y-57767157D01*
X60050311Y-57774513D01*
X60000000Y-57789775D01*
X59949689Y-57774513D01*
X59875000Y-57767157D01*
X59325000Y-57767157D01*
X59250311Y-57774513D01*
X59200000Y-57789775D01*
X59149689Y-57774513D01*
X59075000Y-57767157D01*
X58532843Y-57767157D01*
X58532843Y-57225000D01*
X58525487Y-57150311D01*
X58510225Y-57100000D01*
X58525487Y-57049689D01*
X58532843Y-56975000D01*
X58532843Y-56425000D01*
X58525487Y-56350311D01*
X58510225Y-56300000D01*
X58525487Y-56249689D01*
X58532843Y-56175000D01*
X58532843Y-55807241D01*
X58559975Y-55784975D01*
X58632079Y-55697115D01*
X58685658Y-55596877D01*
X58718651Y-55488112D01*
X58729792Y-55375000D01*
X58727000Y-55342250D01*
X58582750Y-55198000D01*
X57498000Y-55198000D01*
X57498000Y-55218000D01*
X57302000Y-55218000D01*
X57302000Y-55198000D01*
X57282000Y-55198000D01*
X57282000Y-55002000D01*
X57302000Y-55002000D01*
X57302000Y-54982000D01*
X57498000Y-54982000D01*
X57498000Y-55002000D01*
X58582750Y-55002000D01*
X58727000Y-54857750D01*
X58729792Y-54825000D01*
X58718651Y-54711888D01*
X58685658Y-54603123D01*
X58632079Y-54502885D01*
X58559975Y-54415025D01*
X58532843Y-54392759D01*
X58532843Y-54207241D01*
X58559975Y-54184975D01*
X58632079Y-54097115D01*
X58685658Y-53996877D01*
X58718651Y-53888112D01*
X58729792Y-53775000D01*
X58727000Y-53742250D01*
X58582750Y-53598000D01*
X57498000Y-53598000D01*
X57498000Y-53618000D01*
X57302000Y-53618000D01*
X57302000Y-53598000D01*
X57282000Y-53598000D01*
X57282000Y-53402000D01*
X57302000Y-53402000D01*
X57302000Y-53382000D01*
X57498000Y-53382000D01*
X57498000Y-53402000D01*
X58582750Y-53402000D01*
X58727000Y-53257750D01*
X58729792Y-53225000D01*
X58718651Y-53111888D01*
X58685658Y-53003123D01*
X58632079Y-52902885D01*
X58559975Y-52815025D01*
X58532843Y-52792759D01*
X58532843Y-52425000D01*
X58525487Y-52350311D01*
X58510225Y-52300000D01*
X58525487Y-52249689D01*
X58532843Y-52175000D01*
X58532843Y-51632843D01*
X59075000Y-51632843D01*
X59149689Y-51625487D01*
X59200000Y-51610225D01*
X59250311Y-51625487D01*
X59325000Y-51632843D01*
X59875000Y-51632843D01*
X59949689Y-51625487D01*
X60000000Y-51610225D01*
X60050311Y-51625487D01*
X60125000Y-51632843D01*
X60675000Y-51632843D01*
X60749689Y-51625487D01*
X60800000Y-51610225D01*
X60850311Y-51625487D01*
X60925000Y-51632843D01*
X61475000Y-51632843D01*
X61549689Y-51625487D01*
X61600000Y-51610225D01*
X61650311Y-51625487D01*
X61725000Y-51632843D01*
X62275000Y-51632843D01*
X62349689Y-51625487D01*
X62400000Y-51610225D01*
X62450311Y-51625487D01*
X62525000Y-51632843D01*
X63075000Y-51632843D01*
X63149689Y-51625487D01*
X63200000Y-51610225D01*
X63250311Y-51625487D01*
X63325000Y-51632843D01*
X63875000Y-51632843D01*
X63949689Y-51625487D01*
X64000000Y-51610225D01*
X64050311Y-51625487D01*
%TD*%
M02*
